<svg width="34" height="34" viewBox="0 0 34 34" fill="none" xmlns="http://www.w3.org/2000/svg">
<path d="M29.6875 0.125H3.5625C1.55859 0.125 0 1.75781 0 3.6875V29.8125C0 31.8164 1.55859 33.375 3.5625 33.375H29.6875C31.6172 33.375 33.25 31.8164 33.25 29.8125V3.6875C33.25 1.75781 31.6172 0.125 29.6875 0.125ZM10.6875 21.4258C8.08984 21.4258 6.01172 19.3477 6.01172 16.75C6.01172 14.1523 8.08984 12 10.6875 12C13.2852 12 15.4375 14.1523 15.4375 16.75C15.4375 19.3477 13.2852 21.4258 10.6875 21.4258ZM22.4883 21.4258C19.8906 21.4258 17.8125 19.3477 17.8125 16.75C17.8125 14.1523 19.8906 12 22.4883 12C25.0859 12 27.2383 14.1523 27.2383 16.75C27.2383 19.3477 25.0859 21.4258 22.4883 21.4258Z" fill="white"/>
</svg>
