<svg width="41" height="29" viewBox="0 0 41 29" fill="none" xmlns="http://www.w3.org/2000/svg">
<path d="M39.7461 5.02734C39.3008 3.24609 37.8906 1.83594 36.1836 1.39062C32.9922 0.5 20.375 0.5 20.375 0.5C20.375 0.5 7.68359 0.5 4.49219 1.39062C2.78516 1.83594 1.375 3.24609 0.929688 5.02734C0.0390625 8.14453 0.0390625 14.8242 0.0390625 14.8242C0.0390625 14.8242 0.0390625 21.4297 0.929688 24.6211C1.375 26.4023 2.78516 27.7383 4.49219 28.1836C7.68359 29 20.375 29 20.375 29C20.375 29 32.9922 29 36.1836 28.1836C37.8906 27.7383 39.3008 26.4023 39.7461 24.6211C40.6367 21.4297 40.6367 14.8242 40.6367 14.8242C40.6367 14.8242 40.6367 8.14453 39.7461 5.02734ZM16.2188 20.8359V8.8125L26.7578 14.8242L16.2188 20.8359Z" fill="white"/>
</svg>
