<svg xmlns="http://www.w3.org/2000/svg" viewBox="0 0 382 76.73"><defs><style>.cls-1{fill:#97bd30;}.cls-2{fill:#fff;}</style></defs><title>13 a 17</title><g id="Layer_2" data-name="Layer 2"><g id="Layer_1-2" data-name="Layer 1"><path class="cls-1" d="M.83,66.74c-5.76-6.5,19.9-18.8,28.81-18.62C23.55,54.35,5,71.46.83,66.74Zm12.24-22c-4.1-.12-5.18-3.23-2.48-5.52s7.21-3.34,15.05.47C25.64,39.69,17.12,44.85,13.07,44.74Zm17,18c-1.26,3.45-2.7,7.9-6.42,8s-2.07-5.44,1.33-9A18.89,18.89,0,0,1,32.61,57,44.51,44.51,0,0,0,30,62.72Z"/><path class="cls-2" d="M51,27.05c.63,2.42,1.13,4.88,1.59,7.35A148.36,148.36,0,0,0,60.1,62.33a46.53,46.53,0,0,0,3.69,8.14,1.73,1.73,0,0,1-.25,2.28,2.32,2.32,0,0,1-2.45.41A2.76,2.76,0,0,1,59.77,72a32,32,0,0,1-2.61-5.36c-1.36-3.38-2.73-6.76-3.8-10.26,0-.13-.1-.27-.15-.41L53,56c0,.59-.05,1.18-.07,1.76a54,54,0,0,1-.75,8.3,15.62,15.62,0,0,1-1.31,4.27c-1.73,3.48-4.86,4.37-8,2.27A13.64,13.64,0,0,1,38,66.7a18.52,18.52,0,0,1-1.62-10.55,15.33,15.33,0,0,1,.33-1.58c1.2-4.46,4.82-7.32,9.92-7.81,1.54-.15,1.53-.15,1.41-1.51-.49-5.74-1.22-11.44-2.09-17.11-.07-.44-.14-.88-.17-1.32a2.36,2.36,0,0,1,1.63-2.4,2.39,2.39,0,0,1,2.87.88A5.25,5.25,0,0,1,51,27.05ZM47.66,50.43c-3.88.34-6,1.9-6.76,5a12.53,12.53,0,0,0-.26,1.81,15.71,15.71,0,0,0,1.11,7,13.32,13.32,0,0,0,1.94,3.46A8.55,8.55,0,0,0,45,69.05c1.24,1,1.58.9,2.17-.57a11.47,11.47,0,0,0,.65-2.32c.18-1.16.36-2.32.46-3.48a87.43,87.43,0,0,0,.14-11.44C48.43,50.76,48.41,50.36,47.66,50.43Z"/><path class="cls-2" d="M65.8,58.51a1.65,1.65,0,0,0,.65,1,7.3,7.3,0,0,0,6.15,1.81A3.36,3.36,0,0,0,75,60a3.18,3.18,0,0,1,1-.91h0a1.85,1.85,0,0,1,2.9,1.32,3.35,3.35,0,0,1-1,2.27,7.76,7.76,0,0,1-5.43,2.57c-5.3.51-10-2.06-11.47-6.65-1.67-5.18-.84-10.36,2.21-15.39a8.6,8.6,0,0,1,3.91-3.43c3.25-1.47,6.37-.42,7.12,2.52a13.9,13.9,0,0,1-1,9.78,12,12,0,0,1-7.09,6.27A2.6,2.6,0,0,0,65.8,58.51Zm-.26-3.73a6.34,6.34,0,0,0,2-1.48c2.82-2.87,2.88-6.14,2.59-9.23-.29-1-.57-1.12-1.42-.75a4.32,4.32,0,0,0-1.91,1.87,15.9,15.9,0,0,0-2.24,9.09C64.55,55,64.8,55.11,65.54,54.78Z"/><path class="cls-2" d="M88.45,21.77a364,364,0,0,0,7.47,38.16,22.82,22.82,0,0,0,.82,2.63,2.81,2.81,0,0,1,.18.86,2,2,0,0,1-1.49,2,2.09,2.09,0,0,1-2.28-.77,5.1,5.1,0,0,1-.66-1.51c-1.4-4.35-2.46-8.84-4-15.1-1.63-6.65-3-15.39-4.38-24.1-.17-1.13-.35-2.26-.54-3.38A2.8,2.8,0,0,0,83,18.89a1.71,1.71,0,0,1-.35-1.15c-.07-1-.15-1.91-.16-2.88a2,2,0,0,1,1.56-2,2.31,2.31,0,0,1,2.55.66,3.25,3.25,0,0,1,.66,1.39A56.85,56.85,0,0,1,88.45,21.77Z"/><path class="cls-2" d="M125.22,31a9.51,9.51,0,0,1-1.09,3.55,37.11,37.11,0,0,1-3,4.74c-3.09,4.38-6.24,8.7-9.24,13.06-1.31,1.92-2.58,3.85-3.72,5.84a10,10,0,0,1-1,1.43,2.07,2.07,0,0,1-2.28.6,1.68,1.68,0,0,1-1.08-1.88,5.82,5.82,0,0,1,.77-2c.72-1.26,1.46-2.52,2.27-3.75,3.23-4.92,6.74-9.72,10.15-14.61a44.25,44.25,0,0,0,2.79-4.33,8.15,8.15,0,0,0,.86-2.11c.24-1.1-.09-1.59-1.28-1.91a8.16,8.16,0,0,0-3.41-.06,30,30,0,0,0-6.73,2.05c-.75.3-1.49.62-2.24.93a6.88,6.88,0,0,1-1.72.48,2.3,2.3,0,0,1-2.84-2.32,6.42,6.42,0,0,1,.89-2.36c1.14-2.1,2.32-4.19,3.49-6.28a35.79,35.79,0,0,0,2.22-4.64,3.74,3.74,0,0,0,.41-1.74c-.36-.23-.7,0-1,.06a18.83,18.83,0,0,0-3.2,1.53,34.19,34.19,0,0,0-8.65,7.31,16.4,16.4,0,0,0-1,1.37.65.65,0,0,0-.16.53c.22.19.56.15.83.23a1.52,1.52,0,0,1,1.27,1.67A1.91,1.91,0,0,1,96,30c-2.58.45-5.18-.76-4.84-3.48a4.44,4.44,0,0,1,.35-1.2,8.69,8.69,0,0,1,.82-1.57,32.74,32.74,0,0,1,14.28-11.38,9.5,9.5,0,0,1,3.38-.79c2.26-.1,3.86,1,4.19,2.84a7.28,7.28,0,0,1-.59,3.74,54.33,54.33,0,0,1-3.85,7.61c-.3.54-.6,1.08-.91,1.62l.18.17c.89-.3,1.78-.62,2.68-.89a22,22,0,0,1,6.63-1.1,9.6,9.6,0,0,1,4,.86A4.47,4.47,0,0,1,125.22,31Z"/><path class="cls-2" d="M159.87,47.94a1.91,1.91,0,0,1-2.33,1.8,3.23,3.23,0,0,1-2.17-1.59,12.39,12.39,0,0,1-1.47-3.81,32.76,32.76,0,0,1-.73-4.43,2.85,2.85,0,0,0-.78,1.23A24.78,24.78,0,0,1,150,45.3a10.74,10.74,0,0,1-2.35,2.41,4.69,4.69,0,0,1-6.83-.85,8.63,8.63,0,0,1-1.67-4c-.9-5.78.74-11.08,4.84-15.8a9.05,9.05,0,0,1,6.9-3.28,6.67,6.67,0,0,1,1.9.18,5.67,5.67,0,0,0,2.47.17,2.24,2.24,0,0,1,2.51,2.23,23.57,23.57,0,0,1-.1,2.65c-.17,2.46-.39,4.92-.41,7.39a30.31,30.31,0,0,0,1,7.87,6.53,6.53,0,0,0,1.11,2.41A2.07,2.07,0,0,1,159.87,47.94Zm-9.18-20.46a4.31,4.31,0,0,0-1.74.68,7.63,7.63,0,0,0-1.8,1.58,15.86,15.86,0,0,0-3.91,11.33,8.4,8.4,0,0,0,.63,2.62c.61,1.44.95,1.49,2,.27a15.8,15.8,0,0,0,2.56-4.31A88.39,88.39,0,0,0,152.26,29C152.66,27.6,152.29,27.26,150.69,27.48Z"/><path class="cls-2" d="M176.18,9.64a366,366,0,0,0-.47,38.88,23.22,23.22,0,0,0,.25,2.75,2.54,2.54,0,0,1,0,.87,2,2,0,0,1-1.86,1.63,2.08,2.08,0,0,1-2.05-1.22,5.33,5.33,0,0,1-.34-1.62c-.47-4.55-.59-9.16-.82-15.6-.24-6.84.16-15.68.63-24.48.06-1.14.11-2.28.16-3.43a2.74,2.74,0,0,0-.27-1.72,1.76,1.76,0,0,1-.11-1.2c.13-1,.25-1.91.43-2.85A2,2,0,0,1,173.66,0,2.29,2.29,0,0,1,176,1.18a3.34,3.34,0,0,1,.35,1.51A53.73,53.73,0,0,1,176.18,9.64Z"/><path class="cls-2" d="M212.53,8.05a2.93,2.93,0,0,1-2,.71,1.74,1.74,0,0,0-1.42.63,59.78,59.78,0,0,0-9.5,15.21.66.66,0,0,0-.05.55,3.7,3.7,0,0,0,1.37,0,8.15,8.15,0,0,1,2.15.17,1.86,1.86,0,0,1,1.55,1.57,1.71,1.71,0,0,1-1.36,1.78,7.48,7.48,0,0,1-2.11.31c-.84,0-1.67.13-2.51.16-.57,0-.91.19-1.07.72A51.81,51.81,0,0,0,195,43.12a4.07,4.07,0,0,0,.75,3.05,1.37,1.37,0,0,1,0,1.77,1.94,1.94,0,0,1-1.87.77,3,3,0,0,1-2.5-1.85,7.9,7.9,0,0,1-.6-3.24,33.3,33.3,0,0,1,.56-6,68.41,68.41,0,0,1,1.7-7.44,42.29,42.29,0,0,0-6,1.47.91.91,0,0,0-.41.25c-.87.91-2.09.82-3.24.86a1.69,1.69,0,0,1-1.63-1,1.48,1.48,0,0,1,.35-1.76,4.85,4.85,0,0,1,1.55-.93,44.06,44.06,0,0,1,9.81-2.91,1.52,1.52,0,0,0,1.32-1,61.59,61.59,0,0,1,8.65-15.47,1.68,1.68,0,0,0,.16-.37,12.48,12.48,0,0,0-2.62.21q-9.53,1.2-18.92,2.84a11.06,11.06,0,0,1-2.22.21A2.27,2.27,0,0,1,177.52,11c-.22-.75.17-1.47,1.09-2a3.34,3.34,0,0,1,2.52-.4,2.56,2.56,0,0,0,1.29-.05,179.36,179.36,0,0,1,23-3.41,7.14,7.14,0,0,1,.8,0,3.46,3.46,0,0,0,2.5-.8,2.59,2.59,0,0,1,2.6-.39C212.86,4.42,213.6,7.05,212.53,8.05Z"/><path class="cls-2" d="M240.57,6.77c-.46,2.47-1.06,4.91-1.69,7.34a149.3,149.3,0,0,0-5,28.48,46.82,46.82,0,0,0-.15,8.94,1.74,1.74,0,0,1-1.18,1.95,2.28,2.28,0,0,1-2.37-.66,2.77,2.77,0,0,1-.67-1.64,32.09,32.09,0,0,1-.07-6c.21-3.64.42-7.28.94-10.89,0-.15,0-.29,0-.44l-.25,0c-.27.52-.54,1-.8,1.56a56.69,56.69,0,0,1-4.17,7.19,15.82,15.82,0,0,1-3,3.31c-3,2.4-6.16,1.87-8.09-1.38a14,14,0,0,1-1.78-7.39,18.8,18.8,0,0,1,3-10.23,14.23,14.23,0,0,1,.95-1.29c3-3.52,7.38-4.57,12.13-2.84,1.43.52,1.42.52,1.89-.76,2-5.4,3.74-10.87,5.36-16.37.12-.43.25-.86.41-1.27a2.33,2.33,0,0,1,2.47-1.48,2.37,2.37,0,0,1,2.19,2A5.29,5.29,0,0,1,240.57,6.77ZM227.75,26.53c-3.6-1.35-6.19-.86-8.14,1.67a13.17,13.17,0,0,0-1,1.52,16.09,16.09,0,0,0-2,6.78,13.5,13.5,0,0,0,.27,4,8.31,8.31,0,0,0,.61,1.8c.69,1.42,1,1.48,2.18.4a11.07,11.07,0,0,0,1.55-1.82c.65-1,1.3-2,1.88-3a88.4,88.4,0,0,0,5-10.29C228.3,27.15,228.45,26.79,227.75,26.53Z"/><path class="cls-2" d="M240.54,41.56a1.64,1.64,0,0,0,.15,1.19A7.21,7.21,0,0,0,245.43,47a3.27,3.27,0,0,0,2.7-.19,3.26,3.26,0,0,1,1.24-.42h0a1.84,1.84,0,0,1,2,2.43,3.35,3.35,0,0,1-1.84,1.64,7.72,7.72,0,0,1-6,0c-4.95-1.8-8.06-6.12-7.44-10.91.69-5.39,3.63-9.72,8.5-13a8.46,8.46,0,0,1,5-1.44c3.53.05,5.89,2.33,5.32,5.31a13.93,13.93,0,0,1-5,8.44,11.76,11.76,0,0,1-9,2.65C240.79,41.54,240.67,41.56,240.54,41.56Zm1.34-3.48a6.38,6.38,0,0,0,2.38-.51c3.75-1.4,5.19-4.33,6.24-7.26.17-1,0-1.25-.95-1.27a4.15,4.15,0,0,0-2.51.88,15.87,15.87,0,0,0-5.86,7.27C240.9,37.85,241.08,38.06,241.88,38.08Z"/><path class="cls-2" d="M272.48,57.21a60.25,60.25,0,0,1-3.56,11.94,20.63,20.63,0,0,1-2.56,4.4A9.73,9.73,0,0,1,263.74,76a4.51,4.51,0,0,1-5.66-.49A8.21,8.21,0,0,1,256,72.71a19.93,19.93,0,0,1-1.82-13.16,4.5,4.5,0,0,1,.52-1.45,1.84,1.84,0,0,1,2-.81,1.8,1.8,0,0,1,1.46,1.47,5.6,5.6,0,0,1-.1,2.08,16.79,16.79,0,0,0,1,9.15,7.58,7.58,0,0,0,1,1.89c.85,1.17,1.27,1.2,2.33.17a10.4,10.4,0,0,0,1.77-2.41,28.81,28.81,0,0,0,2.52-6.25A86.47,86.47,0,0,0,270,35.51c0-.82-.15-1.63-.21-2.44a5,5,0,0,1,0-1.22,1.76,1.76,0,0,1,1.91-1.41,2,2,0,0,1,2,1.67c.21,1.4.38,2.81.53,4.21a59.72,59.72,0,0,1-.51,13.37Q273.27,53.47,272.48,57.21Zm-2.16-36.93a12,12,0,0,1,.75-3.11,3.23,3.23,0,0,1,.72-1,2.46,2.46,0,0,1,2.86-.28,1.72,1.72,0,0,1,.87,2.37,13.91,13.91,0,0,0-1.22,3.43,7.16,7.16,0,0,0-.29,2.4,1.54,1.54,0,0,1-1.4,1.6,2.22,2.22,0,0,1-2.17-.77,2.56,2.56,0,0,1-.58-2.14C270,21.93,270.17,21.11,270.32,20.28Z"/><path class="cls-2" d="M289.43,62a2.3,2.3,0,0,1-2.19-1.94,8.45,8.45,0,0,1,0-3.21c.25-1.75.56-3.49.84-5.23l.12-.76-.18-.06c-.62.64-1.22,1.31-1.86,1.94a7.74,7.74,0,0,1-2.48,1.67,4.53,4.53,0,0,1-6-1.93,8.49,8.49,0,0,1-1.05-3A24.11,24.11,0,0,1,278.34,36a3.73,3.73,0,0,1,.52-.85,2.13,2.13,0,0,1,2.76-.56,1.91,1.91,0,0,1,.86,2.49c-2,3.65-1.93,7.64-1.66,11.65a5.13,5.13,0,0,0,.44,1.75c.23.53.39.58.91.26a7.66,7.66,0,0,0,1.68-1.53,37,37,0,0,0,3.84-5.89c1.52-2.68,2.95-5.4,4.24-8.19.08-.17.16-.34.25-.5a2.24,2.24,0,0,1,2.72-1A2.17,2.17,0,0,1,296.47,36a8,8,0,0,1-.25,1.18Q295.1,41.44,294,45.7a104.8,104.8,0,0,0-2.4,11.23c-.16,1-.18,2.06-.28,3.09C291.16,61.33,290.5,62.05,289.43,62Z"/><path class="cls-2" d="M297.76,72.27a2.14,2.14,0,0,1-2.61,0,4.14,4.14,0,0,1-1.64-2.66,17.75,17.75,0,0,1-.38-4.87A81.17,81.17,0,0,1,295,50.05c1-4.57,2.15-9.11,3.36-13.62.94-3.51,1.85-7,2.82-10.56a76,76,0,0,1,2.58-7.29,3.61,3.61,0,0,1,.67-1.15,2.18,2.18,0,0,1,2.81-.33c1,.59,1.56,1.72,1,2.48A8.73,8.73,0,0,0,307,22.52c-3.15,10.23-6,20.77-8.3,31.26A60.59,60.59,0,0,0,297.28,66q0,.95.09,1.89a4,4,0,0,0,.66,2A1.72,1.72,0,0,1,297.76,72.27Z"/><path class="cls-2" d="M320.2,68.64a2,2,0,0,1-3.31-.1,2.87,2.87,0,0,1-.44-2.06,38.57,38.57,0,0,1,1.48-6.57c1-3.36,2-6.7,3-10a8.91,8.91,0,0,0,.42-2.47,4.48,4.48,0,0,0-1.69,1,40,40,0,0,0-5.85,5.55c-2.8,3.08-5.42,6.3-8.21,9.38a8.15,8.15,0,0,0-.61.92,1.94,1.94,0,0,1-2.72.41,3.68,3.68,0,0,1-2.1-4,29.25,29.25,0,0,1,.63-3.36A126,126,0,0,1,305.55,43c1.16-3,2.38-6,3.57-9l2.38-5.79c.74-1.69,1.44-3.4,2.18-5.09.56-1.28,1.15-2.56,1.75-3.83a2.71,2.71,0,0,1,.6-.8,2.18,2.18,0,0,1,2.32-.27,1.8,1.8,0,0,1,1.3,1.68,3.77,3.77,0,0,1-.64,2.43,3.38,3.38,0,0,0-.53,1c-.76,1.84-1.5,3.69-2.23,5.53-.9,2.13-1.35,3.19-2.24,5.32-2.07,5-4.18,9.93-6,15-.83,2.28-1.56,4.6-2.32,6.91a1,1,0,0,0-.07.93,2.26,2.26,0,0,0,.65-.7,87.2,87.2,0,0,1,7.66-8.57,23.3,23.3,0,0,1,4.53-3.55,9.88,9.88,0,0,1,2.42-1c2.55-.66,4.68.64,5,3.05a10.92,10.92,0,0,1-.35,3.87,56.31,56.31,0,0,1-1.73,5.82,99.93,99.93,0,0,0-2.87,9.75c-.15.68-.25,1.38-.37,2.07A2.49,2.49,0,0,1,320.2,68.64Z"/><path class="cls-2" d="M345.88,58.4a22.44,22.44,0,0,1-8.6,10.06,15.82,15.82,0,0,1-4.66,2.08,11.85,11.85,0,0,1-1.76.33c-3.47.35-6-1.53-6.41-4.78a8.81,8.81,0,0,1,.2-3.2,6.06,6.06,0,0,0,.09-2.21,8.39,8.39,0,0,1,1.56-5.87,22.67,22.67,0,0,1,6.36-6.52,11.38,11.38,0,0,1,5-2,7.52,7.52,0,0,1,7.05,2.64,8,8,0,0,1,1.81,7.92A12.08,12.08,0,0,1,345.88,58.4Zm-3.5-3.67a4.16,4.16,0,0,0-.91-3.38,2.57,2.57,0,0,0-3-1.1,6.07,6.07,0,0,0-3.82,2.29,37.3,37.3,0,0,0-5.13,9.11c-.21.58-.46,1.43-.67,2.25a5.13,5.13,0,0,0-.13,2.21c.15.72.39.9,1.17.89a5.52,5.52,0,0,0,1.53-.28,13.46,13.46,0,0,0,3.82-1.93,20,20,0,0,0,5.08-5.34A11.83,11.83,0,0,0,342.38,54.73Z"/><path class="cls-1" d="M381.2,66.74c-4,4.72-22.72-12.39-28.8-18.62C362.07,48.48,386.72,60.29,381.2,66.74Zm-9.9-27.59c2.7,2.32,1.77,5.47-2.34,5.59s-12.72-5.11-12.72-5.11C364.23,35.88,368.74,37,371.3,39.15Zm-14.21,22.6c3.44,3.56,4.9,9.07,1.19,8.94s-4.95-4.49-6.28-8A54.07,54.07,0,0,0,349.43,57,18.48,18.48,0,0,1,357.09,61.75Z"/></g></g></svg>