<svg width="16" height="22" viewBox="0 0 16 22" fill="none" xmlns="http://www.w3.org/2000/svg">
<path d="M0.0362639 13.2506C0.773545 19.1519 16 10.1561 16 10.1561C8.01813 5.87872 -0.630495 7.27893 0.0362639 13.2506ZM9.65297 0.201169C8.10148 0.840533 7.87709 2.85453 9.57604 4.03735C11.275 5.22018 15.8654 4.25473 15.8654 4.25473C13.1214 0.130838 11.1275 -0.387045 9.64656 0.201169H9.65297ZM11.4224 16.9333C9.20418 18.1161 7.4283 20.9166 9.12726 21.7989C10.8262 22.6812 12.2367 20.4754 13.4932 18.7747C14.1856 17.8297 14.926 16.9206 15.7115 16.051C14.224 15.8806 12.7209 16.1898 11.4224 16.9333Z" fill="#97BD30"/>
</svg>
