<svg width="27" height="24" viewBox="0 0 27 24" fill="none" xmlns="http://www.w3.org/2000/svg">
<path fill-rule="evenodd" clip-rule="evenodd" d="M24.8672 4.41406H2.50391C1.54688 4.41406 0.707031 3.59375 0.707031 2.59766C0.707031 1.62109 1.54688 0.800781 2.50391 0.800781H24.8672C25.8438 0.800781 26.6641 1.62109 26.6641 2.59766C26.6641 3.59375 25.8438 4.41406 24.8672 4.41406ZM2.50391 14.0273H24.8672C25.8438 14.0273 26.6641 13.207 26.6641 12.2109C26.6641 11.2344 25.8438 10.4141 24.8672 10.4141H2.50391C1.54688 10.4141 0.707031 11.2344 0.707031 12.2109C0.707031 13.207 1.54688 14.0273 2.50391 14.0273ZM2.50391 23.6133H24.8672C25.8438 23.6133 26.6641 22.793 26.6641 21.7969C26.6641 20.8203 25.8438 20 24.8672 20H2.50391C1.54688 20 0.707031 20.8203 0.707031 21.7969C0.707031 22.793 1.54688 23.6133 2.50391 23.6133Z" fill="#003366"/>
</svg>
