<svg width="40" height="40" viewBox="0 0 40 40" fill="none" xmlns="http://www.w3.org/2000/svg">
<circle cx="20" cy="20" r="19.5" fill="white" stroke="#EAEAEA"/>
<path fill-rule="evenodd" clip-rule="evenodd" d="M26.3948 16.1528H13.0708C12.5006 16.1528 12.0002 15.6641 12.0002 15.0706C12.0002 14.4887 12.5006 14 13.0708 14H26.3948C26.9767 14 27.4654 14.4887 27.4654 15.0706C27.4654 15.6641 26.9767 16.1528 26.3948 16.1528ZM13.0706 21.3056H26.3946C26.9765 21.3056 27.4652 20.8169 27.4652 20.2234C27.4652 19.6416 26.9765 19.1528 26.3946 19.1528H13.0706C12.5004 19.1528 12 19.6416 12 20.2234C12 20.8169 12.5004 21.3056 13.0706 21.3056ZM13.0706 26.4585H26.3946C26.9765 26.4585 27.4652 25.9697 27.4652 25.3762C27.4652 24.7944 26.9765 24.3057 26.3946 24.3057H13.0706C12.5004 24.3057 12 24.7944 12 25.3762C12 25.9697 12.5004 26.4585 13.0706 26.4585Z" fill="#003366"/>
</svg>
