<?xml version="1.0" encoding="UTF-8"?>
<svg width="14px" height="9px" viewBox="0 0 14 9" version="1.1" xmlns="http://www.w3.org/2000/svg" xmlns:xlink="http://www.w3.org/1999/xlink">
    <g id="Page-1" stroke="none" stroke-width="1" fill="none" fill-rule="evenodd">
        <g id="Status-das-Máquinas" transform="translate(-331.000000, -751.000000)" fill="#003366">
            <g id="UNIDADE-Copy-7" transform="translate(20.000000, 715.000000)">
                <path d="M315.148438,46.578125 C314.519531,46.578125 314,46.0654297 314,45.4433594 C314,45.1289062 314.129883,44.8417969 314.369141,44.6025391 L318.833008,40.2958984 L314.369141,35.9755859 C314.136719,35.7363281 314,35.4492188 314,35.1347656 C314,34.5058594 314.519531,34 315.148438,34 C315.456055,34 315.71582,34.109375 315.941406,34.3212891 L321.082031,39.3457031 C321.375977,39.6328125 321.512695,39.9335938 321.512695,40.2890625 C321.505859,40.6513672 321.375977,40.9384766 321.082031,41.2324219 L315.93457,46.25 C315.71582,46.46875 315.462891,46.578125 315.148438,46.578125 Z" id="chevron-down" transform="translate(317.756348, 40.289062) rotate(-270.000000) translate(-317.756348, -40.289062) "></path>
            </g>
        </g>
    </g>
</svg>
