<svg width="17" height="17" viewBox="0 0 17 17" fill="none" xmlns="http://www.w3.org/2000/svg">
<path d="M8.48948 16.4805C12.8629 16.4805 16.4854 12.858 16.4854 8.47634C16.4854 4.10295 12.8546 0.480469 8.48123 0.480469C4.10784 0.480469 0.485352 4.10295 0.485352 8.47634C0.485352 12.858 4.11609 16.4805 8.48948 16.4805ZM5.40335 12.8002C5.21356 12.6599 5.18056 12.4289 5.29608 12.1071L6.22852 9.30151L3.82728 7.57691C3.54672 7.37887 3.43945 7.16433 3.50547 6.94153C3.57973 6.72699 3.79427 6.61972 4.14084 6.61972L7.09494 6.64447L7.99438 3.81415C8.0934 3.49233 8.25018 3.3273 8.48948 3.3273C8.72052 3.3273 8.88556 3.49233 8.98458 3.81415L9.88401 6.64447L12.8381 6.61972C13.1847 6.61972 13.391 6.72699 13.4652 6.94153C13.5395 7.16433 13.4322 7.37887 13.1517 7.57691L10.7422 9.30151L11.6829 12.1071C11.7901 12.4289 11.7571 12.6599 11.5756 12.8002C11.3858 12.9405 11.1548 12.891 10.8742 12.6929L8.48948 10.9436L6.09649 12.6929C5.81593 12.891 5.59314 12.9488 5.40335 12.8002Z" fill="#FFA800"/>
</svg>
