<svg width="134" height="198" viewBox="0 0 134 198" fill="none" xmlns="http://www.w3.org/2000/svg">
<path d="M59.8183 157.591C64.985 156.839 67.8473 147.116 66.2114 135.875C64.5755 124.634 59.0609 116.131 53.8942 116.883C48.7275 117.635 45.8652 127.357 47.5011 138.598C49.137 149.839 54.6516 158.342 59.8183 157.591Z" fill="#B5CF56"/>
<path d="M69.5449 53.8427C63.6037 57.0853 57.1294 58.4653 50.4577 59.2068C43.1321 60.0186 28.3559 57.3157 28.0663 57.3398C27.294 56.9405 25.8724 56.8747 25.9821 55.9796C26.0918 55.0844 27.3818 54.5996 28.3318 54.2749C35.2915 51.9301 42.5527 50.6001 49.8916 50.3258C54.6377 50.1097 59.386 50.7033 63.9328 52.0809C65.8152 52.6579 67.9828 52.3201 69.5449 53.8427Z" fill="#97BD30"/>
<path d="M65.3872 145.729C65.3668 145.744 65.3502 145.763 65.3388 145.785C65.3273 145.808 65.3213 145.833 65.3213 145.858C65.3213 145.883 65.3273 145.907 65.3388 145.93C65.3502 145.952 65.3668 145.971 65.3872 145.986L63.632 151.958C63.1318 152.594 62.6331 153.232 62.1358 153.871C60.6505 154.95 56.9449 155.497 56.9449 155.497C56.9449 155.497 55.7734 155.126 55.2885 154.915C55.2885 154.915 50.2293 151.519 49.9024 147.98C49.5755 144.441 48.0353 135.464 48.9436 129.112C49.5667 124.746 50.2402 120.383 52.3135 116.366L52.8072 116.721C55.9072 120.047 60.9708 127.517 60.9708 127.517C61.1266 128.448 62.1468 129.964 62.1468 129.964C64.2112 135.016 65.4596 140.238 65.3872 145.729ZM57.1512 125.495C57.0853 125.225 56.8462 125.38 57.1709 125.475C57.3003 126.166 59.4219 128.34 60.7777 137.658C61.4535 142.311 58.6101 142.329 59.0621 145.429C59.174 146.192 59.9989 147.006 60.9379 147.129C61.912 147.256 62.84 146.969 63.3512 146.047C64.1323 144.652 63.7374 140.124 63.3863 138.86C62.8839 135.372 59.8651 126.995 57.1512 125.495ZM58.5092 153.643C60.181 153.401 61.9252 151.534 61.8637 150.172C61.822 149.294 59.7181 148.25 58.3337 148.437C56.3021 148.709 55.0077 150.172 55.453 151.896C55.8567 153.454 57.0722 153.915 58.5092 153.643Z" fill="#97BD30"/>
<path d="M83.9674 113.064C79.4611 107.127 73.6559 104.628 65.8214 106.131C59.2198 107.399 57.0456 112.342 55.444 115.699C55.0053 116.638 54.086 117.539 54.8934 118.702C55.0765 118.723 55.249 118.799 55.389 118.919C55.5289 119.039 55.6298 119.198 55.6788 119.376C55.7041 119.376 55.729 119.381 55.7522 119.391C55.7754 119.401 55.7964 119.416 55.8139 119.434C55.8315 119.452 55.8452 119.473 55.8544 119.497C55.8636 119.521 55.8681 119.546 55.8675 119.571C64.5643 128.347 70.1149 138.439 69.2242 151.126C69.1715 151.883 67.6884 157.311 67.4076 157.473C65.1522 162.114 60.444 165.756 56.0759 164.055C48.7503 161.188 45.5713 154.742 45.2598 153.766C43.505 148.253 43.0315 142.413 43.8754 136.69C43.9522 133.279 44.4414 129.933 45.6306 126.699L45.6832 126.282C45.6527 126.185 45.5984 126.097 45.5252 126.025C42.3594 124.507 39.2988 122.792 35.8258 121.914C27.9101 119.913 19.7706 121.221 14.6017 127.756C6.45119 138.068 11.9953 154.724 21.3744 159.051C21.3744 159.051 27.9035 162.77 32.7675 164.779C35.9619 166.096 42.8245 169.261 43.2019 169.49C58.6209 178.75 54.1211 184.156 56.4818 194.597C56.7604 195.83 57.4932 195.475 58.1009 194.632C59.1277 193.206 60.2093 191.817 61.2711 190.415C61.1922 190.196 89.687 163.145 89.4106 132.688C89.3514 125.556 88.3707 118.864 83.9674 113.064Z" fill="#97BD30"/>
<path d="M80.609 46.7146C78.9964 44.3012 78.3909 41.5193 77.7744 38.7703C75.4686 28.529 76.5283 18.5663 80.8042 8.90202C81.0653 8.31404 81.4734 7.77214 81.1421 7.09202C82.4343 5.68132 83.1913 5.26008 84.2136 7.5703C86.6401 13.1056 88.7924 18.7243 88.8889 24.7774C88.9767 30.2205 87.996 35.5847 85.1241 40.4509C83.8999 41.425 83.6783 42.9432 82.9741 44.1981C82.4102 44.3056 82.1579 44.6369 82.2566 45.1898L82.2413 45.2095C81.4734 45.4794 81.1728 46.2319 80.609 46.7146Z" fill="#97BD30"/>
<path d="M81.7825 7.53301C81.0914 7.44964 80.4201 8.62998 79.9637 9.18724C71.2297 19.7203 70.2029 31.1793 75.4464 43.371C75.7536 44.0906 76.1353 44.7795 76.4556 45.4947C77.1138 46.9603 76.8593 48.2657 75.3323 48.9831C73.847 49.6808 72.4671 49.2486 71.822 47.7501C70.5583 44.819 69.0796 41.912 68.3403 38.8405C64.8168 24.2333 68.779 11.7607 80.3608 1.64667C82.32 -0.0624074 83.9019 0.0736168 85.1546 2.10301C90.3893 10.587 93.6473 19.5843 92.467 29.7466C91.618 37.0568 88.4828 43.3842 83.847 49.0972C82.8049 50.385 81.4885 50.9884 80.0164 49.9967C78.5443 49.005 78.1625 47.6931 79.492 46.2012C80.8216 44.7093 86.5697 39.5163 88.2919 26.1968C88.9852 16.9911 82.4736 7.61857 81.7825 7.53301Z" fill="#088DA3"/>
<path d="M27.296 56.8484C34.0709 64.0884 55.0779 65.6943 66.324 58.1252C66.6937 57.8398 67.0905 57.5914 67.5087 57.3837C68.8251 56.8374 70.0778 56.9164 70.8808 58.1538C71.6838 59.3911 71.5215 60.6505 70.2226 61.6004C66.5302 64.3056 62.4758 66.3086 58.0002 67.3924C44.3276 70.7053 32.3311 67.3244 21.6795 58.8207C19.207 56.8462 19.4439 55.0208 22.3662 53.5816C41.0893 44.3561 59.7905 44.2968 78.1691 53.8909C90.1348 60.1393 98.4389 67.1599 103.048 79.6982C110.979 101.273 109.439 114.95 106.559 127.004C103.007 141.866 93.6978 155.935 84.3538 167.987C78.6934 175.288 72.3771 182.116 66.2384 189.049C65.4793 189.909 63.8427 190.755 62.8971 190.525C61.9515 190.295 61.0081 188.785 60.7492 187.673C59.0445 180.352 54.2946 175.435 47.6887 172.265C40.8721 168.992 33.8142 166.192 26.8463 163.215C21.5062 160.931 16.3878 158.298 11.8836 154.639C-1.10013 144.099 -3.82281 126.078 5.59139 112.728C12.6471 102.721 25.1855 98.7526 37.8642 102.871C41.6839 104.11 45.1876 106.256 48.8339 108.015C49.3669 108.299 49.88 108.619 50.3697 108.972C53.1604 105.427 55.5584 101.745 58.597 98.6604C63.9721 93.2019 70.5583 89.9549 78.5443 90.5889C89.0752 91.427 97.0611 99.6741 97.66 110.115C97.7149 111.074 97.7105 112.037 97.7281 112.715C96.4665 110.043 95.442 106.973 93.7088 104.358C86.4995 93.5135 71.4403 92.3902 62.4934 102.044C59.955 104.784 58.0265 108.061 55.826 111.096C55.0318 112.193 55.328 112.95 56.2977 113.919C64.1432 121.767 69.6193 130.795 70.3521 142.063C70.5824 145.62 70.1875 149.13 68.6364 152.41C66.8133 156.265 63.8997 159.02 59.4416 159.518C54.819 160.034 51.2824 157.91 48.6409 154.38C45.3609 149.992 44.4724 144.865 44.1828 139.595C43.7301 131.535 45.0334 123.473 48.0024 115.966C48.5597 114.542 48.3096 113.799 47.0195 112.945C41.3394 109.194 35.3039 106.335 28.2745 106.363C17.963 106.398 9.60849 112.594 6.4931 122.234C2.74146 133.862 7.6493 147.026 18.7441 153.14C25.6769 156.969 33.1297 159.942 40.4421 163.088C47.3026 166.043 54.2639 168.82 59.435 174.356C61.2056 176.249 62.4824 178.583 63.9524 180.74C64.3451 181.315 64.6105 181.973 65.1393 182.965C69.3977 178.022 73.6013 173.436 77.4648 168.597C85.7601 158.204 92.8487 147.096 97.3573 134.615C99.8913 127.594 101.388 120.407 101.214 112.932C100.995 103.279 101.572 92.7653 95.7294 81.1748C89.922 69.6632 80.5473 60.0186 70.1612 55.7382C68.2481 54.9506 57.3333 50.894 48.8032 50.9467C35.1503 52.1424 26.006 56.1529 27.296 56.8484ZM52.9366 118.222C50.9423 122.623 49.5009 130.288 49.5448 136.19C49.5821 140.843 49.7642 145.508 52.0524 149.716C53.4544 152.302 55.3214 154.591 58.8536 154.233C61.5412 153.963 63.6803 151.58 64.5579 148.09C64.6215 147.835 64.6413 147.574 64.6851 147.315C65.8721 140.473 63.9502 134.261 60.7075 128.342C58.6606 124.597 56.1617 121.183 52.9366 118.222Z" fill="#088DA3"/>
<path d="M82.9651 28.9349C82.2762 27.9015 82.0151 26.7124 81.7518 25.5365C80.7679 21.252 81.2236 16.7627 83.0484 12.7633C83.1603 12.511 83.3337 12.2785 83.1932 11.9889C83.7461 11.3855 84.0708 11.2056 84.5096 12.1929C85.5473 14.5602 86.4666 16.9625 86.5083 19.5514C86.5456 21.8792 85.9423 23.8098 84.9001 26.2561C84.5228 27.353 83.2042 28.7286 82.9651 28.9349Z" fill="#B5CF56"/>
<path d="M78.4391 197.024C75.9402 195.121 78.9371 191.019 83.8384 189.209C83.8384 189.209 80.9533 198.869 78.4391 197.024ZM78.9173 189.665C77.7809 189.946 77.0986 189.156 77.4891 188.265C77.8796 187.375 78.9173 186.752 81.5479 187.146C81.5479 187.146 80.0275 189.362 78.9173 189.665ZM86.0213 193.412C86.1376 194.558 86.3548 195.984 85.328 196.372C84.3013 196.76 84.0117 194.963 84.4856 193.605C84.7499 192.777 85.2463 192.041 85.916 191.486C85.8981 192.13 85.9333 192.774 86.0213 193.412Z" fill="#003366"/>
<path d="M96.5658 183.417C100.076 187.008 96.2016 190.823 96.2016 190.823C92.0573 195.431 87.2416 190.459 87.2416 190.459C87.2416 190.459 81.3552 185.194 84.9928 180.957C84.9928 180.957 87.1538 177.566 90.6597 180.808C93.751 183.647 92.4017 187.274 91.4561 188.63C93.661 190.492 94.6637 190.319 95.539 189.582C97.3403 187.985 96.4495 185.701 95.8528 184.799C95.256 183.897 94.9247 183.393 95.3745 182.919C95.7102 182.581 96.5658 183.417 96.5658 183.417ZM90.9274 188.184C91.3903 187.087 91.3135 185.163 89.5627 183.061C87.4895 180.626 86.2148 181.479 86.2148 181.479C85.0981 182.919 89.7799 187.168 90.9274 188.184Z" fill="#003366"/>
<path d="M99.891 176.697C102.276 177.23 104.448 178.307 104.869 180.51C104.963 181.288 104.86 182.077 104.57 182.806C104.28 183.534 103.812 184.178 103.208 184.678C103.208 184.678 100.611 186.688 98.9104 184.073C98.2522 183.094 98.0152 181.732 98.0152 180.38C96.1701 180.089 94.1232 179.81 93.0021 179.189C93.0021 179.189 89.3009 177.462 90.8981 173.897C90.8981 173.897 92.5765 170.286 95.3123 172.862C96.3764 173.816 96.6462 175.257 96.7011 176.216L98.5396 176.451C98.6229 176.094 98.7382 175.745 98.884 175.409C98.884 175.409 99.3228 174.437 99.8691 174.792C100.11 174.917 100.04 175.668 99.891 176.697ZM95.4527 176.15C95.3364 175.47 95.0556 174.558 94.5115 173.937C93.4935 172.855 92.4404 173.368 92.2013 173.623C91.9951 173.902 92.4492 175.806 95.4527 176.15ZM99.6014 180.637C99.5791 180.684 99.5729 180.737 99.5839 180.788C99.8472 183.142 101.519 184.441 102.423 183.548C102.423 183.548 102.967 182.495 101.804 181.414C101.394 181.056 100.595 180.841 99.6014 180.637Z" fill="#003366"/>
<path d="M106.701 161.863C110.725 165.073 112.607 168.546 110.231 171.752C109.549 172.673 108.476 172.914 107.491 172.881C110.023 174.654 112.293 176.153 113.072 176.594C113.072 176.594 114.09 177.188 113.658 177.943C113.325 178.544 112.445 180.152 111.133 179.643C109.786 179.112 97.1641 171.03 94.7332 169.112C94.7332 169.112 93.939 168.39 94.3076 167.811C94.6761 167.232 96.1834 164.56 97.6467 165.817C97.7147 165.859 97.8288 165.986 98 166.093C97.6182 164.876 97.4142 163.228 98.4168 161.806C99.8209 159.878 102.713 158.676 106.701 161.863ZM99.3602 162.506C98.2172 164.38 99.924 167.146 100.514 167.956C101.357 168.601 102.362 169.294 103.432 170.029C105.323 171.069 108.325 171.949 108.974 171.006C109.277 170.602 109.7 169.786 107.877 167.495C105.992 165.097 100.431 160.747 99.3602 162.506Z" fill="#003366"/>
<path d="M116.15 151.306C120.617 154.158 117.537 159.011 117.537 159.011C114.369 164.738 108.237 160.767 108.237 160.767C108.237 160.767 100.933 156.76 103.665 151.53C103.665 151.53 105.08 147.526 109.455 150.029C113.312 152.212 112.785 156.262 112.136 157.881C114.845 159.272 115.835 158.856 116.559 157.881C118.033 155.81 116.574 153.674 115.745 152.888C114.95 152.12 114.457 151.662 114.806 151.069C115.071 150.652 116.15 151.306 116.15 151.306ZM111.484 157.55C111.703 156.326 111.164 154.354 108.864 152.607C106.151 150.598 105.045 151.778 105.045 151.778C104.24 153.524 110.06 156.769 111.484 157.55Z" fill="#003366"/>
<path d="M117.329 139.534C117.586 139.584 117.676 139.933 117.509 140.229C117.099 140.791 116.377 141.433 115.133 141.089C113.242 140.635 111.249 138.377 110.866 138.638C110.501 138.858 112.991 143.079 116.651 145.44L117.006 145.582C119.606 146.679 122.377 148.27 121.945 149.343C121.493 150.457 119.328 150.001 119.328 150.001C115.214 148.987 111.251 147.438 107.54 145.394C107.461 145.361 106.083 144.547 106.826 143.393C107.474 142.357 108.88 141.157 109.738 141.659C109.738 141.659 110.596 142.162 111.791 142.853C110.475 141.227 108.816 138.685 110.084 137.491C111.789 135.896 115.675 139.178 117.329 139.534Z" fill="#003366"/>
<path d="M116.62 120.679C117.851 121.205 127.37 123.836 128.869 124.189C128.869 124.189 129.915 124.409 129.841 124.696C129.753 125.023 128.987 128.904 126.578 128.314C126.001 128.16 125.203 127.998 124.294 127.757C124.702 128.213 125.183 128.739 125.58 129.244C126.373 130.186 127.032 131.233 127.539 132.355C127.919 133.252 128.011 134.075 127.837 134.727C127.808 134.922 127.728 135.106 127.607 135.262C126.442 138.143 122.888 139.538 119.209 138.061C115.409 136.554 114.044 134.198 114.044 134.198C112.741 132.107 113.318 129.771 113.687 128.713C114.125 127.037 115.72 126.214 117.076 125.778C116.056 125.457 115.159 125.168 114.606 124.922C114.606 124.922 113.667 124.624 114.038 123.724C114.369 122.82 115.418 120.209 116.62 120.679ZM121.773 127.081L119.955 126.598C119.101 126.661 118.258 126.821 117.44 127.074C116.192 127.441 115.429 127.985 115.027 128.628C114.529 129.841 115.562 132.607 120.525 134.573C125.293 136.44 126.473 134.661 126.668 134.264C126.767 133.386 126.043 131.956 124.612 130.181C123.727 129.093 122.779 128.058 121.773 127.081Z" fill="#003366"/>
<path d="M121.223 103.154C121.223 103.154 130.255 103.97 131.008 104.13C131.008 104.13 132.217 104.227 132.039 105.328C132.039 105.328 131.852 107.695 129.301 107.495C126.705 107.289 119.667 106.886 119.09 106.789C119.09 106.789 126.909 112.682 130.2 114.92C130.456 115.12 130.662 115.376 130.802 115.669C130.943 115.961 131.015 116.282 131.012 116.607C131.024 116.742 131.013 116.877 130.979 117.008C130.668 118.105 128.581 118.29 128.581 118.29C124.142 118.576 119.684 118.278 115.323 117.401C115.236 117.401 113.599 117.013 113.978 115.622C114.303 114.38 115.332 112.737 116.354 112.919C116.354 112.919 121.872 114.319 124.867 114.606C125.404 114.648 125.935 114.74 126.473 114.784C123.134 112.59 116.732 108.132 116.53 106.137C116.286 103.524 119.483 102.965 121.223 103.154Z" fill="#003366"/>
<path d="M120.883 90.962C120.98 91.4007 120.561 91.664 120.295 91.4688C119.747 91.037 119.084 90.7768 118.389 90.7206C114.301 90.4771 113.863 93.2524 113.863 93.2524C114.284 95.8852 124.602 94.8079 124.602 94.8079C128.722 94.4898 129.444 93.3577 129.582 91.8395C129.707 88.768 126.816 87.5613 125.453 87.3134C124.137 87.0611 123.338 86.9229 123.301 86.0914C123.286 85.4793 124.813 85.4332 124.813 85.4332C129.064 85.4332 130.559 88.3972 131.07 90.4595L131.217 90.4442L131.511 90.4135C131.607 90.4135 131.662 90.453 131.761 90.4442C131.865 90.3186 131.994 90.2161 132.14 90.1436C132.285 90.071 132.445 90.0299 132.608 90.0229C132.704 90.0229 132.753 90.0076 132.807 90.0559C133.047 90.0813 133.274 90.173 133.464 90.3207C133.654 90.4684 133.799 90.6662 133.882 90.8918C133.943 91.0674 133.979 91.2504 133.99 91.4358V91.5477C134.021 91.8167 133.981 92.0891 133.874 92.3376C133.761 92.5137 133.611 92.6633 133.435 92.7763C133.315 92.8384 133.183 92.8715 133.049 92.8729C132.953 92.8713 132.862 92.8349 132.792 92.7707C132.722 92.7064 132.677 92.6187 132.667 92.524L132.643 92.3046C132.655 92.2415 132.681 92.1819 132.719 92.13C132.757 92.078 132.806 92.035 132.862 92.0041C132.878 91.9817 132.899 91.9637 132.924 91.9514C132.948 91.9392 132.975 91.9331 133.003 91.9339L133.046 91.8724C133.143 91.8724 133.279 91.7386 133.266 91.6838C133.253 91.6289 133.152 91.528 133.046 91.4819C132.676 91.2428 132.43 91.2625 132.388 91.3283L132.406 91.4951C132.502 91.9339 132.388 92.2761 132.149 92.3551C132.043 92.3552 131.939 92.328 131.846 92.2761C131.757 92.147 131.706 91.9946 131.702 91.8373C131.699 91.774 131.682 91.7122 131.651 91.6572C131.619 91.6021 131.575 91.5555 131.522 91.5214C131.471 91.5214 131.471 91.5214 131.416 91.4775L131.269 91.4929L131.228 91.5521C131.287 91.8052 131.313 92.0647 131.307 92.3244C131.882 100.223 123.038 100.253 123.038 100.253C123.038 100.253 112.985 101.021 112.287 93.9106C112.287 93.9106 111.629 88.9699 117.169 88.5596C119.567 88.3709 120.594 89.5995 120.883 90.962Z" fill="#003366"/>
<path d="M108.974 67.478C110.497 67.2367 121.377 63.9677 123.051 63.3995C123.051 63.3995 124.207 62.9826 124.306 63.3008C124.422 63.6693 126.05 67.908 123.342 68.8163C122.684 69.0203 121.807 69.3516 120.776 69.672C121.453 69.8672 122.241 70.0866 122.937 70.3301C124.286 70.7614 125.569 71.378 126.75 72.1621C127.669 72.8027 128.261 73.5486 128.489 74.288C128.58 74.4949 128.615 74.7216 128.593 74.9462C129.22 78.4565 126.618 81.9975 122.127 82.8071C117.502 83.6627 114.731 82.2037 114.731 82.2037C112.186 80.9817 111.317 78.349 111.034 77.1006C110.444 75.1963 111.489 73.4236 112.542 72.1686C111.35 72.4802 110.302 72.7479 109.611 72.8466C109.611 72.8466 108.514 73.1274 108.327 72.026C108.092 70.94 107.518 67.7566 108.974 67.478ZM117.91 70.5605L115.837 71.2011C115.045 71.7858 114.322 72.4577 113.68 73.2042C112.689 74.3231 112.278 75.3213 112.289 76.1879C112.544 77.6732 115.242 79.7355 121.285 78.6166C127.068 77.5197 127.131 75.0625 127.077 74.5579C126.638 73.6496 125.056 72.6908 122.577 71.8374C121.047 71.3211 119.489 70.8947 117.91 70.5605Z" fill="#003366"/>
<path d="M102.105 62.919C101.971 61.6816 103.079 60.9313 104.358 61.7101C105.593 62.5109 106.622 65.8435 106.622 65.8435C103.241 65.2599 102.256 64.0884 102.105 62.919ZM106.594 52.5548C110.352 51.2648 110.181 64.152 110.181 64.152C104.926 60.1151 102.82 53.9173 106.594 52.5548ZM112.653 59.0423C112.601 57.2038 113.662 55.1722 114.766 56.041C115.845 56.8593 115.034 58.5136 114.452 59.8672C114.121 60.6198 113.828 61.3887 113.575 62.1709C112.977 61.2366 112.657 60.1515 112.653 59.0423Z" fill="#003366"/>
</svg>
