<svg width="279" height="410" viewBox="0 0 279 410" fill="none" xmlns="http://www.w3.org/2000/svg">
<path d="M124.464 326.932C135.215 325.367 141.17 305.138 137.766 281.749C134.363 258.36 122.888 240.667 112.138 242.232C101.388 243.796 95.4322 264.025 98.836 287.415C102.24 310.804 113.714 328.496 124.464 326.932Z" fill="#B5CF56"/>
<path d="M144.701 111.064C132.339 117.811 118.868 120.683 104.987 122.226C89.7443 123.915 58.9996 118.291 58.397 118.341C56.7901 117.51 53.8321 117.373 54.0603 115.511C54.2886 113.648 56.9727 112.639 58.9493 111.964C73.4304 107.085 88.5387 104.318 103.809 103.747C113.684 103.297 123.564 104.532 133.024 107.399C136.941 108.599 141.451 107.896 144.701 111.064Z" fill="#97BD30"/>
<path d="M136.051 302.252C136.008 302.283 135.974 302.323 135.95 302.369C135.926 302.416 135.914 302.467 135.914 302.519C135.914 302.571 135.926 302.623 135.95 302.669C135.974 302.716 136.008 302.756 136.051 302.786L132.399 315.212C131.358 316.536 130.32 317.863 129.286 319.193C126.195 321.438 118.485 322.575 118.485 322.575C118.485 322.575 116.047 321.804 115.039 321.365C115.039 321.365 104.512 314.299 103.832 306.936C103.152 299.573 99.947 280.893 101.837 267.677C103.133 258.593 104.535 249.514 108.849 241.155L109.876 241.895C116.326 248.815 126.862 264.359 126.862 264.359C127.186 266.294 129.308 269.449 129.308 269.449C133.604 279.962 136.202 290.826 136.051 302.252ZM118.914 260.15C118.777 259.588 118.28 259.913 118.955 260.109C119.225 261.547 123.639 266.071 126.46 285.458C127.866 295.14 121.95 295.177 122.89 301.627C123.123 303.215 124.839 304.909 126.793 305.165C128.82 305.429 130.751 304.831 131.815 302.914C133.44 300.011 132.618 290.589 131.888 287.959C130.842 280.701 124.561 263.272 118.914 260.15ZM121.74 318.718C125.218 318.216 128.847 314.331 128.72 311.496C128.633 309.67 124.255 307.497 121.375 307.885C117.148 308.451 114.454 311.496 115.381 315.084C116.221 318.325 118.75 319.284 121.74 318.718Z" fill="#97BD30"/>
<path d="M174.711 234.285C165.335 221.932 153.256 216.733 136.955 219.86C123.219 222.499 118.695 232.783 115.363 239.768C114.45 241.721 112.537 243.598 114.217 246.017C114.598 246.061 114.957 246.218 115.248 246.468C115.539 246.718 115.749 247.049 115.851 247.418C115.904 247.419 115.955 247.43 116.004 247.451C116.052 247.472 116.096 247.502 116.132 247.54C116.169 247.577 116.197 247.622 116.216 247.671C116.236 247.72 116.245 247.772 116.244 247.825C134.339 266.084 145.888 287.083 144.035 313.482C143.925 315.057 140.839 326.35 140.255 326.688C135.562 336.343 125.766 343.921 116.677 340.383C101.435 334.417 94.8204 321.005 94.1722 318.973C90.5211 307.504 89.5359 295.352 91.2917 283.445C91.4515 276.346 92.4695 269.385 94.9437 262.656L95.0532 261.789C94.9897 261.586 94.8768 261.403 94.7246 261.255C88.1374 258.096 81.7693 254.526 74.5431 252.7C58.0729 248.537 41.137 251.257 30.3821 264.856C13.4234 286.311 24.959 320.968 44.474 329.97C44.474 329.97 58.0592 337.708 68.1796 341.889C74.8261 344.628 89.1051 351.215 89.8903 351.69C121.973 370.959 112.61 382.207 117.522 403.931C118.101 406.496 119.626 405.757 120.891 404.004C123.027 401.037 125.278 398.147 127.487 395.23C127.323 394.774 186.612 338.488 186.037 275.118C185.913 260.278 183.873 246.355 174.711 234.285Z" fill="#97BD30"/>
<path d="M167.722 96.233C164.367 91.2116 163.107 85.4233 161.824 79.7034C157.026 58.3944 159.231 37.6651 168.128 17.5567C168.672 16.3333 169.521 15.2058 168.831 13.7906C171.52 10.8554 173.095 9.97894 175.222 14.7858C180.271 26.3031 184.749 37.9938 184.95 50.5884C185.133 61.914 183.092 73.0752 177.117 83.2002C174.569 85.227 174.108 88.3859 172.643 90.997C171.47 91.2207 170.945 91.91 171.15 93.0604L171.118 93.1015C169.521 93.6629 168.895 95.2287 167.722 96.233Z" fill="#97BD30"/>
<path d="M170.164 14.7082C168.726 14.5347 167.329 16.9907 166.38 18.1502C148.207 40.0663 146.07 63.9089 156.981 89.2761C157.62 90.7734 158.414 92.2067 159.08 93.6949C160.45 96.7443 159.92 99.4604 156.743 100.953C153.653 102.405 150.781 101.505 149.439 98.3876C146.81 92.2889 143.733 86.2404 142.195 79.8495C134.864 49.4563 143.108 23.5048 167.206 2.46054C171.282 -1.09552 174.574 -0.812499 177.18 3.41005C188.072 21.0626 194.851 39.7833 192.395 60.928C190.629 76.1383 184.105 89.3035 174.46 101.19C172.291 103.87 169.552 105.125 166.489 103.062C163.426 100.999 162.632 98.269 165.398 95.1648C168.165 92.0607 180.125 81.2555 183.708 53.5419C185.151 34.3876 171.602 14.8862 170.164 14.7082Z" fill="#088DA3"/>
<path d="M56.7947 117.318C70.8911 132.383 114.6 135.724 138 119.975C138.769 119.381 139.595 118.864 140.465 118.432C143.204 117.296 145.81 117.46 147.481 120.034C149.152 122.609 148.814 125.229 146.112 127.206C138.429 132.834 129.993 137.002 120.681 139.257C92.2321 146.15 67.2711 139.116 45.1085 121.422C39.9638 117.314 40.4568 113.516 46.5373 110.521C85.4943 91.3257 124.406 91.2025 162.646 111.165C187.543 124.166 204.821 138.773 214.412 164.862C230.914 209.753 227.71 238.211 221.716 263.291C214.325 294.213 194.956 323.488 175.514 348.563C163.737 363.755 150.594 377.961 137.822 392.386C136.242 394.176 132.837 395.938 130.87 395.459C128.902 394.979 126.939 391.839 126.4 389.524C122.854 374.291 112.97 364.061 99.2255 357.465C85.0423 350.654 70.357 344.829 55.8588 338.635C44.7478 333.882 34.0979 328.405 24.7261 320.79C-2.28903 298.86 -7.95409 261.364 11.634 233.587C26.3147 212.766 52.4032 204.508 78.7838 213.077C86.7314 215.656 94.0215 220.12 101.608 223.781C102.717 224.372 103.785 225.036 104.804 225.772C110.61 218.395 115.6 210.735 121.922 204.316C133.106 192.959 146.81 186.203 163.426 187.522C185.338 189.266 201.954 206.425 203.201 228.15C203.315 230.145 203.306 232.149 203.342 233.559C200.717 227.999 198.585 221.613 194.979 216.172C179.979 193.607 148.645 191.27 130.03 211.356C124.748 217.057 120.735 223.877 116.157 230.19C114.504 232.473 115.121 234.048 117.138 236.065C133.462 252.394 144.856 271.179 146.381 294.624C146.86 302.024 146.039 309.328 142.811 316.152C139.018 324.173 132.956 329.906 123.68 330.943C114.061 332.015 106.703 327.597 101.207 320.252C94.3822 311.122 92.5334 300.454 91.9308 289.489C90.989 272.718 93.7006 255.944 99.8783 240.325C101.038 237.362 100.517 235.814 97.8332 234.039C86.0147 226.233 73.4566 220.285 58.8306 220.344C37.3755 220.417 19.9923 233.308 13.5101 253.366C5.70414 277.561 15.9158 304.95 39.0006 317.672C53.4257 325.638 68.9328 331.824 84.1476 338.37C98.4221 344.519 112.907 350.298 123.666 361.815C127.35 365.755 130.007 370.612 133.065 375.099C133.882 376.295 134.435 377.665 135.535 379.728C144.395 369.443 153.142 359.902 161.181 349.832C178.44 328.208 193.19 305.096 202.571 279.126C207.843 264.519 210.956 249.564 210.596 234.011C210.139 213.926 211.34 192.051 199.183 167.934C187.1 143.982 167.594 123.915 145.984 115.008C142.003 113.37 119.293 104.929 101.545 105.039C73.137 107.527 54.1105 115.871 56.7947 117.318ZM110.145 245.017C105.995 254.174 102.996 270.124 103.087 282.404C103.165 292.086 103.544 301.791 108.305 310.547C111.222 315.929 115.107 320.69 122.456 319.946C128.048 319.384 132.499 314.427 134.325 307.164C134.458 306.634 134.499 306.091 134.59 305.553C137.06 291.315 133.061 278.391 126.314 266.075C122.055 258.283 116.855 251.18 110.145 245.017Z" fill="#088DA3"/>
<path d="M172.625 59.239C171.191 57.0889 170.648 54.6147 170.1 52.1679C168.053 43.2533 169.001 33.9124 172.798 25.591C173.031 25.066 173.392 24.5821 173.099 23.9796C174.25 22.7242 174.925 22.3499 175.838 24.4041C177.998 29.3297 179.91 34.3282 179.997 39.7148C180.075 44.5582 178.819 48.5753 176.651 53.6652C175.866 55.9477 173.122 58.8099 172.625 59.239Z" fill="#B5CF56"/>
<path d="M163.207 408.98C158.008 405.022 164.244 396.486 174.442 392.72C174.442 392.72 168.439 412.819 163.207 408.98ZM164.203 393.669C161.838 394.253 160.418 392.61 161.231 390.757C162.043 388.903 164.203 387.607 169.676 388.429C169.676 388.429 166.512 393.039 164.203 393.669ZM178.984 401.466C179.226 403.849 179.678 406.816 177.541 407.624C175.405 408.432 174.802 404.693 175.788 401.868C176.338 400.143 177.371 398.613 178.765 397.458C178.727 398.798 178.801 400.138 178.984 401.466V401.466Z" fill="white"/>
<path d="M200.923 380.668C208.227 388.141 200.165 396.079 200.165 396.079C191.542 405.666 181.522 395.322 181.522 395.322C181.522 395.322 169.274 384.366 176.843 375.551C176.843 375.551 181.339 368.494 188.634 375.241C195.066 381.148 192.259 388.693 190.291 391.514C194.879 395.39 196.965 395.029 198.787 393.496C202.534 390.172 200.681 385.42 199.439 383.544C198.198 381.668 197.508 380.618 198.444 379.632C199.143 378.929 200.923 380.668 200.923 380.668ZM189.191 390.588C190.154 388.305 189.995 384.302 186.352 379.929C182.038 374.862 179.386 376.637 179.386 376.637C177.062 379.632 186.804 388.474 189.191 390.588V390.588Z" fill="white"/>
<path d="M207.843 366.686C212.805 367.795 217.324 370.037 218.201 374.62C218.396 376.239 218.182 377.882 217.578 379.397C216.975 380.912 216 382.252 214.745 383.293C214.745 383.293 209.34 387.474 205.802 382.033C204.433 379.997 203.94 377.162 203.94 374.35C200.101 373.743 195.842 373.163 193.509 371.872C193.509 371.872 185.808 368.279 189.131 360.861C189.131 360.861 192.623 353.347 198.316 358.706C200.53 360.692 201.091 363.691 201.205 365.686L205.031 366.175C205.204 365.432 205.444 364.706 205.747 364.006C205.747 364.006 206.66 361.984 207.797 362.724C208.299 362.984 208.153 364.545 207.843 366.686ZM198.608 365.549C198.366 364.134 197.782 362.235 196.65 360.943C194.531 358.693 192.34 359.761 191.843 360.29C191.414 360.87 192.359 364.833 198.608 365.549ZM207.24 374.884C207.194 374.983 207.181 375.093 207.204 375.199C207.751 380.098 211.23 382.8 213.111 380.942C213.111 380.942 214.243 378.751 211.823 376.5C210.97 375.756 209.308 375.309 207.24 374.884Z" fill="white"/>
<path d="M222.013 335.823C230.385 342.501 234.301 349.727 229.358 356.397C227.938 358.314 225.706 358.816 223.656 358.748C228.924 362.436 233.649 365.554 235.269 366.471C235.269 366.471 237.387 367.708 236.488 369.279C235.794 370.53 233.964 373.876 231.234 372.817C228.431 371.712 202.169 354.895 197.111 350.905C197.111 350.905 195.459 349.403 196.226 348.198C196.992 346.993 200.129 341.433 203.173 344.048C203.315 344.135 203.552 344.4 203.908 344.624C203.114 342.09 202.689 338.662 204.776 335.704C207.697 331.691 213.714 329.19 222.013 335.823ZM206.739 337.16C204.36 341.058 207.912 346.815 209.14 348.499C210.893 349.841 212.983 351.284 215.211 352.813C219.146 354.977 225.391 356.807 226.742 354.845C227.372 354.005 228.253 352.306 224.46 347.541C220.538 342.551 208.966 333.499 206.739 337.16V337.16Z" fill="white"/>
<path d="M241.674 313.856C250.968 319.791 244.559 329.888 244.559 329.888C237.967 341.803 225.208 333.54 225.208 333.54C225.208 333.54 210.012 325.205 215.695 314.322C215.695 314.322 218.639 305.991 227.742 311.199C235.767 315.741 234.671 324.168 233.32 327.537C238.958 330.431 241.016 329.564 242.523 327.537C245.59 323.228 242.555 318.782 240.829 317.147C239.177 315.55 238.15 314.596 238.875 313.363C239.428 312.496 241.674 313.856 241.674 313.856ZM231.964 326.848C232.421 324.301 231.298 320.197 226.514 316.563C220.867 312.382 218.566 314.838 218.566 314.838C216.891 318.471 229.002 325.223 231.964 326.848Z" fill="white"/>
<path d="M244.125 289.361C244.659 289.466 244.846 290.192 244.499 290.808C243.646 291.976 242.144 293.314 239.556 292.597C235.621 291.652 231.476 286.955 230.677 287.498C229.919 287.955 235.1 296.738 242.714 301.65L243.454 301.946C248.863 304.229 254.629 307.538 253.73 309.771C252.789 312.09 248.284 311.14 248.284 311.14C239.724 309.031 231.478 305.808 223.756 301.554C223.592 301.485 220.725 299.792 222.273 297.39C223.619 295.236 226.546 292.739 228.33 293.784C228.33 293.784 230.115 294.83 232.603 296.268C229.864 292.885 226.413 287.594 229.052 285.111C232.599 281.792 240.683 288.621 244.125 289.361Z" fill="white"/>
<path d="M242.651 250.13C245.211 251.226 265.019 256.699 268.136 257.434C268.136 257.434 270.314 257.89 270.159 258.488C269.976 259.168 268.383 267.244 263.371 266.016C262.17 265.696 260.508 265.359 258.619 264.856C259.468 265.806 260.467 266.901 261.294 267.951C262.943 269.912 264.315 272.09 265.37 274.424C266.16 276.291 266.352 278.003 265.991 279.359C265.929 279.765 265.764 280.149 265.512 280.473C263.088 286.467 255.692 289.37 248.037 286.298C240.131 283.162 237.291 278.259 237.291 278.259C234.58 273.909 235.78 269.047 236.547 266.847C237.46 263.359 240.779 261.647 243.6 260.739C241.477 260.072 239.61 259.47 238.46 258.959C238.46 258.959 236.506 258.338 237.278 256.466C237.967 254.585 240.149 249.153 242.651 250.13ZM253.373 263.45L249.589 262.446C247.813 262.577 246.058 262.909 244.358 263.437C241.76 264.199 240.172 265.331 239.336 266.669C238.3 269.193 240.45 274.949 250.776 279.04C260.696 282.924 263.152 279.222 263.558 278.396C263.763 276.57 262.257 273.594 259.28 269.901C257.439 267.637 255.467 265.483 253.373 263.45V263.45Z" fill="white"/>
<path d="M252.228 213.665C252.228 213.665 271.021 215.364 272.587 215.697C272.587 215.697 275.102 215.898 274.733 218.189C274.733 218.189 274.345 223.115 269.036 222.699C263.635 222.27 248.991 221.43 247.791 221.229C247.791 221.229 264.06 233.491 270.907 238.147C271.439 238.564 271.867 239.097 272.16 239.706C272.453 240.314 272.602 240.982 272.596 241.657C272.622 241.938 272.598 242.22 272.528 242.493C271.88 244.775 267.538 245.159 267.538 245.159C258.302 245.755 249.027 245.134 239.953 243.31C239.77 243.31 236.365 242.502 237.154 239.608C237.83 237.024 239.971 233.605 242.098 233.984C242.098 233.984 253.579 236.896 259.81 237.494C260.928 237.581 262.033 237.773 263.151 237.864C256.204 233.299 242.883 224.023 242.463 219.874C241.957 214.437 248.608 213.273 252.228 213.665Z" fill="white"/>
<path d="M251.52 188.298C251.721 189.211 250.849 189.759 250.297 189.353C249.157 188.454 247.777 187.913 246.33 187.796C237.826 187.289 236.913 193.064 236.913 193.064C237.789 198.542 259.258 196.3 259.258 196.3C267.831 195.639 269.333 193.283 269.62 190.124C269.88 183.733 263.864 181.223 261.029 180.707C258.29 180.182 256.628 179.894 256.551 178.164C256.519 176.89 259.696 176.795 259.696 176.795C268.543 176.795 271.652 182.962 272.715 187.253L273.021 187.221L273.633 187.157C273.834 187.157 273.948 187.239 274.153 187.221C274.369 186.959 274.637 186.746 274.941 186.595C275.245 186.444 275.576 186.359 275.915 186.344C276.116 186.344 276.216 186.312 276.331 186.413C276.828 186.466 277.301 186.657 277.697 186.964C278.092 187.271 278.393 187.683 278.567 188.152C278.693 188.518 278.768 188.898 278.791 189.284V189.517C278.857 190.077 278.773 190.644 278.549 191.16C278.314 191.527 278.003 191.838 277.636 192.073C277.388 192.203 277.113 192.271 276.833 192.274C276.635 192.271 276.445 192.195 276.298 192.062C276.152 191.928 276.06 191.745 276.038 191.548L275.988 191.092C276.014 190.961 276.068 190.837 276.147 190.728C276.226 190.62 276.327 190.531 276.445 190.467C276.478 190.42 276.522 190.382 276.573 190.357C276.623 190.331 276.68 190.319 276.737 190.32L276.828 190.193C277.029 190.193 277.312 189.914 277.285 189.8C277.257 189.686 277.047 189.476 276.828 189.38C276.057 188.882 275.545 188.924 275.459 189.061L275.495 189.407C275.696 190.32 275.459 191.033 274.961 191.197C274.741 191.197 274.524 191.14 274.331 191.033C274.144 190.764 274.039 190.447 274.03 190.12C274.025 189.988 273.989 189.859 273.924 189.745C273.859 189.63 273.767 189.533 273.656 189.462C273.551 189.462 273.551 189.462 273.436 189.371L273.131 189.403L273.044 189.526C273.166 190.053 273.222 190.593 273.208 191.133C274.404 207.567 256.003 207.631 256.003 207.631C256.003 207.631 235.087 209.228 233.635 194.433C233.635 194.433 232.265 184.153 243.792 183.3C248.781 182.907 250.918 185.463 251.52 188.298Z" fill="white"/>
<path d="M226.742 139.435C229.91 138.933 252.547 132.131 256.03 130.949C256.03 130.949 258.436 130.082 258.641 130.744C258.883 131.511 262.271 140.33 256.637 142.22C255.268 142.644 253.442 143.334 251.296 144C252.707 144.407 254.346 144.863 255.793 145.37C258.601 146.267 261.271 147.55 263.727 149.181C265.639 150.514 266.872 152.066 267.347 153.605C267.534 154.035 267.608 154.507 267.561 154.974C268.867 162.278 263.453 169.646 254.108 171.33C244.486 173.111 238.72 170.075 238.72 170.075C233.425 167.532 231.617 162.054 231.028 159.457C229.8 155.495 231.973 151.806 234.164 149.195C231.686 149.843 229.504 150.4 228.066 150.606C228.066 150.606 225.783 151.19 225.395 148.898C224.907 146.639 223.711 140.015 226.742 139.435ZM245.335 145.849L241.021 147.182C239.374 148.399 237.868 149.797 236.534 151.35C234.47 153.678 233.617 155.755 233.639 157.558C234.169 160.649 239.784 164.94 252.356 162.611C264.389 160.329 264.521 155.216 264.407 154.166C263.494 152.276 260.203 150.282 255.044 148.506C251.862 147.432 248.62 146.544 245.335 145.849V145.849Z" fill="white"/>
<path d="M212.449 129.949C212.171 127.375 214.476 125.814 217.137 127.434C219.707 129.1 221.848 136.034 221.848 136.034C214.814 134.82 212.764 132.383 212.449 129.949ZM221.789 108.385C229.609 105.701 229.253 132.515 229.253 132.515C218.32 124.115 213.937 111.22 221.789 108.385ZM234.397 121.883C234.288 118.058 236.497 113.831 238.793 115.638C241.039 117.341 239.35 120.783 238.14 123.6C237.451 125.166 236.842 126.765 236.315 128.393C235.07 126.449 234.405 124.191 234.397 121.883Z" fill="white"/>
</svg>
