<svg width="16" height="22" viewBox="0 0 16 22" fill="none" xmlns="http://www.w3.org/2000/svg">
<path d="M15.9637 13.2506C15.2265 19.1519 0 10.1561 0 10.1561C7.98187 5.87872 16.6305 7.27893 15.9637 13.2506ZM6.34703 0.201169C7.89852 0.840533 8.12291 2.85453 6.42396 4.03735C4.725 5.22018 0.134628 4.25473 0.134628 4.25473C2.8786 0.130838 4.87247 -0.387045 6.35344 0.201169H6.34703ZM4.57756 16.9333C6.79582 18.1161 8.5717 20.9166 6.87274 21.7989C5.17379 22.6812 3.76334 20.4754 2.50676 18.7747C1.8144 17.8297 1.07402 16.9206 0.288509 16.051C1.776 15.8806 3.27912 16.1898 4.57756 16.9333Z" fill="#97BD30"/>
</svg>
