<svg width="36" height="26" viewBox="0 0 36 26" fill="none" xmlns="http://www.w3.org/2000/svg">
<path d="M14.3608 25.6263C5.13081 24.4763 19.2008 0.726318 19.2008 0.726318C25.8908 13.1763 23.7008 26.6663 14.3608 25.6263ZM34.7708 10.6263C33.7708 13.0463 30.6208 13.3963 28.7708 10.7463C26.9208 8.09631 28.4308 0.93631 28.4308 0.93631C34.8808 5.21631 35.6908 8.32632 34.7708 10.6363L34.7708 10.6263ZM8.60081 7.86633C6.75081 11.3263 2.37081 14.0963 0.99081 11.4463C-0.389191 8.79632 3.06081 6.59632 5.72081 4.63632C7.19888 3.55639 8.62075 2.40156 9.98081 1.17633C10.2474 3.49649 9.76373 5.84103 8.60081 7.86633Z" fill="#97BD30"/>
</svg>
