<svg width="279" height="200" viewBox="0 0 279 200" fill="none" xmlns="http://www.w3.org/2000/svg">
<g clip-path="url(#clip0)">
<path d="M97.815 62.4409C97.2546 63.925 96.9859 65.1979 97.0223 66.1549C97.0403 66.4462 97.1168 66.7308 97.2473 66.9918C97.3777 67.2528 97.5594 67.4848 97.7815 67.6739C97.6139 65.933 97.6251 64.1795 97.815 62.4409Z" fill="white"/>
<path d="M120.339 49.9452C117.922 48.6715 115.728 47.0129 113.843 45.0342H113.835C110.976 51.2379 110.766 57.4203 115.202 64.4472C116.825 60.7029 122.119 58.3377 128.577 62.7095C135.095 67.1238 137.275 73.0874 138.048 77.9255C138.461 68.5683 135.529 57.8866 120.339 49.9452Z" fill="white"/>
<path d="M130.658 118.787C136.33 89.0509 108.499 92.1709 100.457 78.4876C90.851 62.143 104.03 48.7969 107.76 47.0439C104.585 57.9459 106.84 66.7076 124.265 74.6096C137.628 80.6659 142.761 95.3852 138.411 107.581C137.068 111.353 134.407 115.454 130.658 118.787Z" fill="white"/>
<path d="M138.538 84.2827C140.512 74.242 143.862 57.709 122.692 47.2734C113.741 42.8682 106.99 32.1257 109.54 18.6627C111.178 10.0058 116.958 3.39804 119.444 0C118.259 3.77172 112.678 14.9745 137.514 32.7227C159.477 48.4217 151.333 65.6945 148.182 72.2475C144.882 79.0983 138.506 84.4483 138.538 84.2827Z" fill="white"/>
<path d="M247.295 150.991C247.278 150.789 247.281 150.565 247.286 150.33C247.298 149.508 247.321 148.076 245.89 147.561C245.881 145.098 245.881 142.606 245.881 140.189V138.41V137.667C245.869 131.107 245.862 124.1 245.892 117.206C246.342 117.044 246.722 116.731 246.967 116.321C247.259 115.827 247.362 115.191 247.292 114.317C247.275 114.115 247.278 113.892 247.283 113.655C247.295 112.932 247.309 112.032 246.666 111.376C246.211 110.921 245.544 110.693 244.621 110.693H243.727C243.637 110.693 243.543 110.684 243.446 110.684C243.348 110.684 243.204 110.684 243.074 110.697H242.606H241.055H241.011C239.98 110.697 239.248 110.948 238.772 111.457C238.147 112.134 238.134 113.065 238.194 113.801C238.21 114.003 238.207 114.226 238.202 114.463C238.19 115.283 238.167 116.716 239.598 117.231C239.607 119.737 239.607 122.272 239.605 124.731V124.766L239.616 130.01C239.616 134.857 239.628 141.19 239.601 147.588C239.151 147.75 238.771 148.063 238.526 148.474C238.232 148.967 238.129 149.605 238.201 150.479C238.216 150.679 238.213 150.904 238.208 151.141C238.198 151.864 238.182 152.763 238.825 153.42C239.28 153.875 239.947 154.103 240.87 154.103H241.857C241.921 154.103 241.988 154.103 242.055 154.103C242.121 154.103 242.231 154.103 242.323 154.103H242.87H244.436H244.481C245.511 154.103 246.244 153.853 246.72 153.344C247.342 152.662 247.354 151.732 247.295 150.991Z" fill="white"/>
<path d="M21.9808 125.696C21.9808 121.037 21.9808 116.928 21.9808 112.269C21.9808 111.163 22.0598 111.087 23.1805 111.084C24.1068 111.084 25.0346 111.095 25.9609 111.084C26.5425 111.074 26.8249 111.273 26.8234 111.909C26.8052 121.295 26.8447 130.13 26.7733 139.514C26.749 142.653 25.8455 145.581 23.8015 148.056C21.7849 150.497 19.132 151.671 16.0175 151.911C11.5075 152.259 7.89642 150.436 4.2322 147.969C2.13055 146.555 4.64221 142.871 6.72563 144.275C7.8064 145.032 8.9367 145.715 10.1089 146.321C12.2349 147.371 14.5354 147.573 16.8542 147.105C19.5253 146.566 21.3187 144.424 21.7394 141.29C21.8915 140.102 21.9686 138.906 21.9702 137.708C21.9975 133.701 21.9808 129.698 21.9808 125.696ZM72.6284 119.591C74.3808 118.875 75.4104 117.481 75.9935 115.743C76.0618 115.541 75.8037 115.12 75.582 114.952C75.1553 114.628 74.645 114.413 74.1713 114.15C73.3588 113.694 73.2419 113.731 72.7924 114.522C71.7993 116.273 71.1494 116.562 69.2573 115.818C68.0425 115.341 66.9218 114.639 65.7313 114.1C64.4724 113.528 63.1573 113.188 61.7831 113.709C59.9821 114.39 58.9586 115.815 58.3117 117.54C58.2388 117.733 58.4499 118.148 58.6519 118.309C59.033 118.613 59.5053 118.812 59.9335 119.068C60.9965 119.693 61.042 119.676 61.6388 118.637C62.3844 117.329 63.1953 116.943 64.5392 117.302C64.928 117.417 65.3048 117.57 65.6644 117.757C66.6803 118.25 67.6689 118.802 68.7015 119.243C69.4608 119.565 70.2762 119.749 70.9975 119.972C71.6277 119.832 72.1577 119.784 72.6284 119.591ZM78.3563 148.969C78.3563 149.663 78.1498 150.05 77.471 150.266C72.5282 151.841 67.5049 152.494 62.3723 151.466C59.6556 150.922 57.3307 149.652 55.7879 147.213C53.1593 143.06 54.7113 137.392 59.0786 135.155C61.1119 134.114 63.2819 133.661 65.5354 133.563C67.977 133.441 70.4244 133.615 72.8243 134.081C73.0627 134.128 73.3103 134.138 73.6459 134.178C73.6701 132.376 73.7263 130.661 73.1584 129.004C72.3991 126.791 70.7439 125.787 68.5147 125.547C65.1132 125.179 61.9061 125.779 58.9176 127.461C58.4362 127.733 58.093 127.71 57.7787 127.221C57.3231 126.518 56.8281 125.845 56.371 125.144C55.9443 124.491 55.9959 124.321 56.658 123.911C59.9548 121.871 63.5856 121.158 67.4077 121.206C69.397 121.23 71.321 121.581 73.1113 122.466C76.2213 124.002 77.7611 126.633 78.1908 129.981C78.3014 130.946 78.3521 131.917 78.3427 132.888C78.3563 138.25 78.3305 143.61 78.3563 148.969ZM72.9337 138.079C70.6392 137.904 68.3477 137.599 66.0532 137.584C64.7533 137.576 63.3988 137.887 62.1612 138.323C60.4832 138.901 59.5144 140.205 59.32 142.028C59.1165 143.941 59.7163 145.502 61.4141 146.458C62.2973 146.957 63.2527 147.316 64.2461 147.521C67.2832 148.129 70.2686 147.653 73.2252 146.897C73.6018 146.801 73.661 146.593 73.658 146.259C73.6489 145.015 73.658 143.769 73.658 142.525C73.658 141.626 73.6367 140.726 73.6489 139.827C73.6489 139.523 73.657 139.224 73.6732 138.929C73.6975 138.335 73.4834 138.112 72.9337 138.079ZM53.5298 136.686C53.5298 136.686 53.5298 136.686 53.5298 136.695C53.5298 138.592 53.5769 140.509 53.3613 142.382C52.8951 146.442 50.6917 149.359 46.8817 150.866C42.847 152.459 38.7181 152.447 34.7334 150.728C30.7488 149.008 28.6791 145.789 28.4786 141.497C28.3268 138.291 28.3708 135.073 28.4665 131.863C28.6183 126.82 32.1003 122.749 37.1115 121.645C40.6922 120.859 44.2258 120.979 47.5559 122.65C51.2976 124.525 53.1988 127.677 53.4645 131.805C53.5648 133.387 53.5572 136.548 53.5298 136.678V136.686ZM48.8102 136.665C48.8102 136.583 48.8452 133.541 48.7844 131.983C48.6599 128.722 46.6585 126.265 43.5258 125.734C42.0807 125.503 40.6121 125.457 39.1554 125.597C35.6886 125.91 33.2438 128.577 33.1906 132.019C33.142 135.117 33.1056 138.219 33.2028 141.314C33.2893 144.018 34.5315 146.057 37.1343 147.117C38.9929 147.876 40.9306 147.931 42.8682 147.655C46.6646 147.114 48.7298 144.72 48.8057 140.871C48.833 139.461 48.8102 138.059 48.8102 136.657V136.665ZM104.878 136.698C104.843 136.698 104.946 140.647 104.735 142.589C104.338 146.253 102.367 149.014 99.0342 150.53C94.4497 152.614 89.7499 152.617 85.249 150.26C81.7563 148.437 80.0358 145.329 79.9068 141.422C79.8065 138.372 79.8506 135.316 79.8855 132.264C79.9478 126.961 83.3629 122.782 88.5411 121.64C91.8637 120.906 95.165 120.967 98.3129 122.337C102.446 124.136 104.635 127.376 104.865 131.881C104.947 133.475 104.878 135.085 104.878 136.69V136.698ZM100.214 132.129C100.132 128.747 98.1337 126.282 94.9585 125.737C93.5135 125.505 92.0449 125.458 90.5881 125.597C87.4113 125.87 85.1427 127.977 84.7494 131.14C84.5261 132.943 84.6552 136.625 84.6279 136.625C84.6279 138.231 84.5641 139.839 84.6431 141.442C84.7721 144.114 86.0249 146.07 88.5533 147.112C90.2723 147.82 92.0672 147.892 93.8818 147.694C97.5627 147.296 100.108 145.171 100.213 141.22C100.298 138.184 100.287 135.15 100.214 132.121V132.129Z" fill="white"/>
<path d="M233.909 137.746C233.909 136.271 233.932 134.796 233.909 133.321C233.815 128.157 230.568 123.922 225.607 122.503C222.332 121.566 219.018 121.556 215.7 122.248C210.537 123.323 206.976 127.172 206.528 132.395C206.302 135.027 206.385 137.688 206.388 140.336C206.368 141.556 206.45 142.776 206.634 143.982C207.315 147.949 209.568 150.782 213.278 152.26C217.746 154.041 222.344 154.083 226.832 152.35C230.849 150.804 233.244 147.793 233.762 143.47C233.983 141.58 233.906 138.068 233.909 137.746ZM224.895 141.829C224.799 143.916 223.66 145.255 221.589 145.525C220.451 145.658 219.299 145.615 218.174 145.396C216.655 145.113 215.562 143.725 215.515 142.095C215.436 139.335 215.393 136.569 215.484 133.81C215.562 131.432 216.793 130.075 219.129 129.79C220.222 129.666 221.329 129.763 222.383 130.077C223.972 130.554 224.769 131.854 224.874 133.473C224.965 134.895 224.892 136.327 224.892 137.755H224.904C224.907 139.113 224.957 140.474 224.895 141.829ZM206.235 146.442C206.253 148.265 206.253 150.088 206.235 151.911C206.226 152.883 206.044 153.064 205.098 153.202C202.777 153.541 200.446 153.658 198.166 153.05C194.12 151.949 191.968 149.116 191.255 145.104C191.076 144.013 190.991 142.908 191 141.802C190.972 137.192 190.988 132.581 190.988 127.979V112.743C190.988 111.419 191.199 111.201 192.494 111.2C194.476 111.2 196.458 111.2 198.44 111.2C199.672 111.2 199.895 111.412 199.897 112.637C199.897 115.287 199.897 117.938 199.897 120.589C199.897 127.298 199.885 134.006 199.912 140.714C199.911 141.587 200.027 142.455 200.258 143.297C200.595 144.492 201.488 145.174 202.73 145.287C203.464 145.338 204.201 145.341 204.935 145.296C205.913 145.252 206.228 145.49 206.237 146.442H206.235ZM128.801 140.239C127.434 140.515 126.016 140.578 124.617 140.623C122.643 140.685 120.655 140.638 118.673 140.638H117.838V143.183C117.838 145.902 117.838 148.622 117.838 151.341C117.838 152.485 117.591 152.708 116.453 152.708C114.242 152.708 112.031 152.708 109.819 152.708C108.849 152.708 108.597 152.464 108.542 151.493C108.531 151.285 108.542 151.079 108.542 150.87C108.542 138.243 108.542 125.615 108.542 112.986C108.542 112.755 108.533 112.53 108.542 112.295C108.607 111.446 108.856 111.194 109.705 111.194C115.211 111.194 120.72 111.104 126.222 111.25C127.134 111.272 128.042 111.369 128.937 111.54C129.02 114.764 128.856 117.99 128.448 121.189C128.051 120.847 127.591 120.586 127.094 120.42C126.119 120.082 125.102 119.877 124.072 119.813C122.143 119.718 120.207 119.779 118.273 119.781C118.139 119.792 118.007 119.813 117.876 119.845V131.971C120.731 131.837 123.575 132.299 126.353 131.605C128.222 131.137 129.461 129.896 129.935 127.959C130.32 126.481 130.293 124.925 129.857 123.461C129.739 123.072 129.581 122.695 129.384 122.339C131.964 120.446 134.363 118.318 136.55 115.982C138.197 117.943 139.131 120.235 139.541 122.737C139.988 125.445 139.909 128.161 139.128 130.809C137.596 136.045 134.087 139.165 128.801 140.239ZM160.766 130.452C160.006 126.35 157.563 123.657 153.58 122.41C151.009 121.605 148.371 121.597 145.716 121.857C144.244 121.997 142.791 122.283 141.376 122.709L141.385 122.756C141.824 125.416 141.754 128.082 141.013 130.686C143.365 129.728 145.906 129.32 148.44 129.492C149.928 129.578 151.314 130.033 151.847 131.611C152.171 132.571 152.253 133.611 152.473 134.773C151.389 134.673 150.569 134.576 149.74 134.521C146.923 134.337 144.121 134.383 141.379 135.17C137.011 136.425 134.758 139.212 134.73 143.373C134.711 146.493 135.642 149.18 138.354 151.007C139.831 152 141.501 152.668 143.255 152.968C148.847 153.949 154.357 153.378 159.807 151.937C161.115 151.59 161.208 151.414 161.208 150.044C161.208 145.066 161.241 140.088 161.188 135.111C161.182 133.548 161.041 131.99 160.766 130.452ZM152.283 145.909C150.904 146.022 149.501 146.24 148.101 146.213C147.143 146.171 146.199 145.965 145.31 145.606C144.18 145.176 143.661 144.167 143.749 143.023C143.837 141.879 144.542 141.035 145.694 140.69C147.272 140.218 148.883 140.368 150.493 140.458C151.084 140.491 151.67 140.597 152.283 140.673V145.909ZM189.319 123.884C189.319 132.455 189.319 141.027 189.319 149.599C189.319 150.687 189.133 150.943 188.104 151.335C183.196 153.207 178.139 153.956 172.918 153.158C167.496 152.321 163.993 148.741 163.157 143.269C162.987 142.154 162.899 141.028 162.893 139.9C162.867 134.584 162.881 129.255 162.883 123.932C162.883 122.769 163.119 122.523 164.301 122.516C166.351 122.507 168.401 122.507 170.452 122.516C171.599 122.516 171.852 122.793 171.852 123.966C171.852 129.22 171.852 134.473 171.862 139.727C171.854 140.555 171.913 141.383 172.038 142.201C172.357 144.14 173.453 145.239 175.398 145.517C177.089 145.772 178.817 145.616 180.435 145.062V123.909C180.435 122.714 180.64 122.506 181.844 122.501C183.872 122.501 185.899 122.494 187.919 122.501C189.089 122.509 189.319 122.737 189.319 123.876V123.884Z" fill="white"/>
<path d="M26.1994 91.6621C28.8477 91.6621 30.1111 92.6874 30.6927 94.6364C30.7428 94.808 30.6927 94.8581 30.5409 94.9265L30.2371 95.0298C30.0656 95.0632 29.9972 95.0465 29.9471 94.8931C29.4338 93.2009 28.4286 92.3973 26.2054 92.3973C23.6771 92.3973 22.3954 93.6961 22.3954 95.85V100.071C22.3954 102.207 23.7287 103.539 26.2054 103.539C28.4939 103.539 29.4688 102.651 29.9805 100.957C30.0488 100.805 30.1172 100.769 30.2706 100.82L30.5955 100.939C30.7474 100.99 30.7838 101.059 30.7322 101.212C30.1521 103.161 28.9221 104.271 26.2054 104.271C23.2322 104.271 21.6104 102.666 21.6104 100.05V95.8668C21.6043 93.2677 23.176 91.6621 26.1994 91.6621Z" fill="white"/>
<path d="M37.0523 91.6621C40.024 91.6621 41.6307 93.2692 41.6307 95.8835V100.053C41.6307 102.669 40.024 104.275 37.0523 104.275C34.0441 104.275 32.439 102.669 32.439 100.053V95.8835C32.4344 93.2677 34.0395 91.6621 37.0523 91.6621ZM37.0523 92.3973C34.5573 92.3973 33.2241 93.6961 33.2241 95.8911V100.061C33.2241 102.248 34.5573 103.554 37.0523 103.554C39.5123 103.554 40.8486 102.256 40.8486 100.061V95.8835C40.8395 93.6961 39.5077 92.3973 37.0523 92.3973Z" fill="white"/>
<path d="M44.8545 92.1241V103.301H51.0729C51.2247 103.301 51.2779 103.353 51.2779 103.506V103.81C51.2779 103.982 51.2262 104.033 51.0729 104.033H44.2896C44.1195 104.033 44.0679 103.982 44.0679 103.81V92.1241C44.0679 91.954 44.1195 91.9024 44.2896 91.9024H44.6449C44.7968 91.9009 44.8545 91.954 44.8545 92.1241Z" fill="white"/>
<path d="M60.3315 92.1236V92.4274C60.3315 92.5793 60.2799 92.6325 60.1098 92.6325H53.7031V97.5207H59.3748C59.5267 97.5207 59.5798 97.5724 59.5798 97.7258V98.0296C59.5798 98.1997 59.5282 98.2514 59.3748 98.2514H53.7031V103.293H60.3482C60.5001 103.293 60.5714 103.345 60.5714 103.498V103.802C60.5714 103.974 60.5031 104.025 60.3482 104.025H53.1397C52.9681 104.025 52.9165 103.974 52.9165 103.802V92.1236C52.9165 91.9535 52.9681 91.9019 53.1397 91.9019H60.1098C60.2859 91.9004 60.3315 91.9535 60.3315 92.1236ZM58.2131 88.7742L58.365 88.9626C58.4683 89.0826 58.485 89.1509 58.3316 89.2193L55.3082 90.9616C55.1563 91.0132 55.085 91.0132 55.0349 90.9449L54.9149 90.8082C54.8116 90.6882 54.8116 90.6365 54.9316 90.5682L57.8168 88.7453C57.9747 88.6724 58.0932 88.6375 58.2131 88.7742Z" fill="white"/>
<path d="M71.4016 98.1574V100.156C71.4016 102.651 69.7965 104.275 66.8232 104.275C63.8165 104.275 62.2114 102.651 62.2114 100.036V95.8668C62.2114 93.2692 63.7831 91.6621 66.8065 91.6621C69.4548 91.6621 70.7183 92.6874 71.2998 94.6363C71.35 94.808 71.2998 94.8581 71.148 94.9265L70.8443 95.0298C70.6924 95.0814 70.6044 95.0465 70.5542 94.8931C70.041 93.2009 69.0357 92.3973 66.8126 92.3973C64.2675 92.3973 63.0026 93.6961 63.0026 95.85V100.036C63.0026 102.224 64.3359 103.539 66.8293 103.539C69.2893 103.539 70.6393 102.224 70.6393 100.156V98.6693H66.9766C66.8065 98.6693 66.7549 98.601 66.7549 98.4476V98.1438C66.7549 97.9919 66.8065 97.922 66.9766 97.922H71.1799C71.35 97.9174 71.4016 97.9858 71.4016 98.1574Z" fill="white"/>
<path d="M73.9132 91.9004H74.2716C74.4234 91.9004 74.4766 91.952 74.4766 92.1222V103.811C74.4766 103.983 74.4249 104.034 74.2716 104.034H73.9132C73.7416 104.034 73.6899 103.983 73.6899 103.811V92.1237C73.6899 91.9536 73.7416 91.9004 73.9132 91.9004Z" fill="white"/>
<path d="M81.5317 91.6621C84.505 91.6621 86.1101 93.2692 86.1101 95.8835V100.053C86.1101 102.669 84.505 104.275 81.5317 104.275C78.525 104.275 76.9199 102.669 76.9199 100.053V95.8835C76.9199 93.2677 78.525 91.6621 81.5317 91.6621ZM81.5317 92.3973C79.0383 92.3973 77.705 93.6961 77.705 95.8911V100.061C77.705 102.248 79.0383 103.554 81.5317 103.554C83.9917 103.554 85.328 102.256 85.328 100.061V95.8835C85.325 93.6961 83.9917 92.3973 81.5317 92.3973Z" fill="white"/>
<path d="M0.209751 185.995C0.0713413 185.664 0.000683679 185.309 0.00197039 184.951C0.0032571 184.593 0.0764619 184.239 0.217241 183.909C0.358021 183.58 0.563507 183.282 0.821508 183.034C1.07951 182.785 1.38477 182.591 1.71917 182.463C6.45396 180.64 11.2586 179.056 16.0982 177.64C21.8154 175.969 27.5828 174.54 33.376 173.274C44.967 170.75 56.6597 168.869 68.3828 167.393C69.8482 167.215 71.3136 167.025 72.7865 166.856L77.1903 166.358L81.594 165.902C83.0624 165.751 84.5324 165.62 85.9978 165.477C91.8765 164.932 97.7598 164.469 103.648 164.087C109.536 163.705 115.425 163.402 121.317 163.176C127.209 162.942 133.103 162.775 138.998 162.676C150.788 162.494 162.574 162.567 174.357 162.896C186.137 163.241 197.909 163.844 209.655 164.778C221.401 165.713 233.124 166.973 244.768 168.786C250.589 169.697 256.391 170.738 262.135 172.051L263.212 172.298L263.751 172.419L264.287 172.553L266.433 173.081C267.147 173.261 267.857 173.46 268.569 173.646C268.925 173.744 269.282 173.835 269.632 173.937L270.695 174.24C273.524 175.064 276.275 176.116 279.003 177.227C276.252 176.185 273.448 175.286 270.603 174.535L269.54 174.246C269.185 174.151 268.826 174.067 268.477 173.978C267.763 173.804 267.052 173.619 266.336 173.454L264.187 172.966L263.649 172.844L263.11 172.732L262.031 172.507C256.279 171.306 250.47 170.381 244.648 169.575C233.001 167.987 221.282 166.954 209.55 166.234C197.818 165.514 186.066 165.141 174.32 165.018C162.574 164.895 150.815 165.058 139.075 165.46C133.203 165.669 127.337 165.945 121.477 166.288C115.616 166.632 109.758 167.051 103.901 167.548C98.0519 168.04 92.2121 168.61 86.382 169.258C84.9257 169.427 83.4679 169.586 82.0131 169.762L77.6473 170.302L73.2892 170.879C71.8374 171.073 70.3872 171.289 68.937 171.486C57.34 173.176 45.8052 175.247 34.442 177.948C28.7627 179.3 23.129 180.813 17.5863 182.546C12.8789 184.018 8.23672 185.648 3.70086 187.494C3.05048 187.758 2.32224 187.755 1.67428 187.485C1.02632 187.215 0.510961 186.7 0.240122 186.052L0.209751 185.995Z" fill="white"/>
<path d="M104.255 187.936L104.275 199.564C104.275 199.734 104.225 199.784 104.055 199.784H103.698C103.546 199.784 103.493 199.733 103.493 199.564L103.484 194.039L96.2951 194.052L96.3057 199.576C96.3057 199.746 96.2541 199.797 96.1022 199.798H95.7454C95.5753 199.798 95.5236 199.748 95.5236 199.578L95.5039 187.95C95.5039 187.78 95.554 187.729 95.7241 187.729H96.0809C96.2328 187.729 96.2844 187.781 96.2844 187.95L96.2935 193.322L103.482 193.31L103.473 187.938C103.473 187.767 103.523 187.717 103.677 187.717H104.034C104.204 187.716 104.255 187.766 104.255 187.936Z" fill="white"/>
<path d="M108.282 187.708H108.639C108.791 187.708 108.843 187.759 108.843 187.929L108.864 199.555C108.864 199.725 108.812 199.777 108.66 199.777H108.303C108.133 199.777 108.082 199.725 108.082 199.555L108.062 187.929C108.062 187.76 108.12 187.708 108.282 187.708Z" fill="white"/>
<path d="M121.446 193.907V195.896C121.446 198.378 119.856 199.997 116.9 199.997C113.908 199.997 112.308 198.392 112.303 195.791L112.295 191.643C112.295 189.06 113.852 187.458 116.86 187.453C119.495 187.453 120.754 188.466 121.335 190.403C121.385 190.573 121.335 190.623 121.183 190.692L120.88 190.795C120.728 190.845 120.641 190.812 120.59 190.66C120.078 188.977 119.071 188.179 116.865 188.184C114.332 188.184 113.077 189.483 113.08 191.624L113.088 195.79C113.088 197.965 114.42 199.271 116.901 199.267C119.347 199.267 120.688 197.951 120.684 195.894V194.416H117.039C116.869 194.416 116.818 194.348 116.818 194.196V193.892C116.818 193.74 116.868 193.672 117.038 193.67H121.218C121.394 193.675 121.446 193.737 121.446 193.907Z" fill="white"/>
<path d="M124.953 187.679H125.309C125.461 187.679 125.514 187.729 125.514 187.899L125.534 199.526C125.534 199.696 125.484 199.748 125.331 199.748H124.975C124.805 199.748 124.754 199.698 124.754 199.528L124.732 187.902C124.732 187.731 124.783 187.679 124.953 187.679Z" fill="white"/>
<path d="M136.695 187.88V188.184C136.695 188.335 136.643 188.387 136.473 188.387L130.096 188.398L130.103 193.259L135.746 193.249C135.898 193.249 135.95 193.3 135.95 193.453V193.757C135.95 193.927 135.898 193.977 135.746 193.979L130.103 193.988L130.112 199.001L136.722 198.99C136.874 198.99 136.944 199.04 136.944 199.193V199.497C136.944 199.667 136.877 199.719 136.724 199.719L129.553 199.731C129.383 199.731 129.332 199.681 129.332 199.511L129.312 187.884C129.312 187.714 129.362 187.663 129.532 187.663L136.466 187.65C136.643 187.66 136.695 187.71 136.695 187.88Z" fill="white"/>
<path d="M148.931 187.858L148.951 199.487C148.951 199.655 148.901 199.707 148.748 199.707H148.391C148.342 199.715 148.291 199.705 148.248 199.681C148.204 199.656 148.171 199.617 148.152 199.57L142.106 190.98C141.544 190.183 141.082 189.265 140.725 188.773H140.69C140.69 189.418 140.795 190.506 140.798 191.577L140.812 199.499C140.812 199.669 140.762 199.719 140.608 199.72H140.268C140.098 199.72 140.047 199.67 140.047 199.5L140.027 187.872C140.027 187.704 140.077 187.652 140.247 187.652H140.587C140.634 187.65 140.68 187.659 140.722 187.68C140.764 187.701 140.799 187.732 140.826 187.77L146.702 196.142C147.332 197.041 147.861 197.992 148.271 198.572H148.304C148.304 197.825 148.181 196.685 148.18 195.513L148.166 187.846C148.166 187.694 148.218 187.641 148.386 187.641H148.726C148.88 187.638 148.931 187.688 148.931 187.858Z" fill="white"/>
<path d="M156.969 187.386C159.926 187.386 161.525 188.975 161.525 191.577V195.724C161.525 198.325 159.934 199.926 156.969 199.932C153.979 199.932 152.379 198.341 152.374 195.741L152.367 191.592C152.383 188.992 153.979 187.391 156.969 187.386ZM156.969 188.117C154.488 188.117 153.164 189.416 153.173 191.591L153.181 195.739C153.181 197.914 154.511 199.204 156.992 199.199C159.44 199.199 160.763 197.901 160.76 195.726L160.752 191.579C160.744 189.402 159.417 188.112 156.971 188.117H156.969ZM158.526 184.341L158.678 184.527C158.796 184.646 158.796 184.714 158.644 184.783L155.65 186.522C155.513 186.572 155.446 186.572 155.378 186.505L155.258 186.368C155.156 186.25 155.173 186.198 155.275 186.131L158.143 184.309C158.289 184.239 158.407 184.204 158.535 184.341H158.526Z" fill="white"/>
<path d="M173.527 191.301C173.527 193.596 172.089 194.975 169.778 194.98H165.768V199.45C165.768 199.62 165.718 199.672 165.564 199.672H165.217C165.048 199.672 164.996 199.622 164.996 199.452L164.975 187.825C164.975 187.655 165.027 187.604 165.197 187.604H169.768C172.061 187.599 173.524 188.966 173.527 191.301ZM172.712 191.301C172.712 189.431 171.552 188.328 169.699 188.331L165.751 188.339L165.762 194.254H169.71C171.561 194.245 172.715 193.156 172.712 191.302V191.301Z" fill="white"/>
<path d="M180.727 187.345C183.683 187.345 185.283 188.934 185.283 191.536V195.683C185.283 198.283 183.693 199.884 180.727 199.889C177.737 199.889 176.136 198.3 176.132 195.699V191.551C176.141 188.95 177.735 187.349 180.727 187.345ZM180.727 188.075C178.246 188.075 176.923 189.374 176.931 191.549L176.938 195.698C176.938 197.873 178.27 199.163 180.751 199.158C183.198 199.158 184.52 197.859 184.517 195.684V191.536C184.502 189.36 183.175 188.071 180.728 188.075H180.727Z" fill="white"/>
<path d="M189.513 187.788L189.533 198.904L195.718 198.894C195.87 198.894 195.923 198.945 195.923 199.097V199.401C195.923 199.571 195.873 199.621 195.719 199.621L188.974 199.634C188.804 199.634 188.752 199.583 188.752 199.413L188.732 187.787C188.732 187.617 188.783 187.565 188.953 187.565H189.309C189.461 187.566 189.513 187.618 189.513 187.788Z" fill="white"/>
<path d="M198.776 187.552H199.133C199.285 187.552 199.336 187.603 199.338 187.772L199.357 199.4C199.357 199.57 199.307 199.62 199.154 199.62H198.797C198.627 199.62 198.575 199.57 198.575 199.4L198.556 187.772C198.554 187.599 198.604 187.552 198.776 187.552Z" fill="white"/>
<path d="M206.965 187.295C209.243 187.295 210.535 188.121 211.422 189.921C211.507 190.073 211.456 190.158 211.32 190.21L210.98 190.362C210.845 190.413 210.794 190.413 210.708 190.262C209.949 188.743 208.87 188.038 206.967 188.041C204.774 188.041 203.502 188.999 203.505 190.623C203.505 192.628 205.395 192.949 207.315 193.149C209.389 193.383 211.547 193.737 211.551 196.354C211.551 198.565 210.033 199.825 207.072 199.83C204.692 199.83 203.315 198.885 202.495 196.863C202.426 196.693 202.445 196.625 202.613 196.559L202.937 196.441C203.088 196.389 203.14 196.406 203.225 196.576C203.959 198.291 205.167 199.089 207.07 199.086C209.518 199.086 210.774 198.195 210.771 196.392C210.771 194.387 208.999 194.135 207.146 193.918C205.02 193.666 202.71 193.31 202.706 190.678C202.701 188.615 204.281 187.304 206.965 187.295Z" fill="white"/>
</g>
<defs>
<clipPath id="clip0">
<rect width="279" height="200" fill="white"/>
</clipPath>
</defs>
</svg>
