<svg width="652" height="419" viewBox="0 0 652 419" fill="none" xmlns="http://www.w3.org/2000/svg">
<path d="M497.464 326.932C508.215 325.367 514.17 305.138 510.766 281.749C507.363 258.36 495.888 240.667 485.138 242.232C474.388 243.796 468.432 264.025 471.836 287.415C475.24 310.804 486.714 328.496 497.464 326.932Z" fill="#B5CF56"/>
<path d="M517.701 111.064C505.339 117.811 491.868 120.683 477.987 122.226C462.744 123.915 432 118.291 431.397 118.341C429.79 117.51 426.832 117.373 427.06 115.511C427.289 113.648 429.973 112.639 431.949 111.964C446.43 107.085 461.539 104.318 476.809 103.747C486.684 103.297 496.564 104.532 506.024 107.399C509.941 108.599 514.451 107.896 517.701 111.064Z" fill="#97BD30"/>
<path d="M509.051 302.252C509.008 302.283 508.974 302.323 508.95 302.369C508.926 302.416 508.914 302.467 508.914 302.519C508.914 302.571 508.926 302.623 508.95 302.669C508.974 302.716 509.008 302.756 509.051 302.786L505.399 315.212C504.358 316.536 503.32 317.863 502.286 319.193C499.195 321.438 491.485 322.575 491.485 322.575C491.485 322.575 489.047 321.804 488.039 321.365C488.039 321.365 477.512 314.299 476.832 306.936C476.152 299.573 472.947 280.893 474.837 267.677C476.133 258.593 477.535 249.514 481.849 241.155L482.876 241.895C489.326 248.815 499.862 264.359 499.862 264.359C500.186 266.294 502.308 269.449 502.308 269.449C506.604 279.962 509.202 290.826 509.051 302.252ZM491.914 260.15C491.777 259.588 491.28 259.913 491.955 260.109C492.225 261.547 496.639 266.071 499.46 285.458C500.866 295.14 494.95 295.177 495.89 301.627C496.123 303.215 497.839 304.909 499.793 305.165C501.82 305.429 503.751 304.831 504.815 302.914C506.44 300.011 505.618 290.589 504.888 287.959C503.842 280.701 497.561 263.272 491.914 260.15ZM494.74 318.718C498.218 318.216 501.847 314.331 501.72 311.496C501.633 309.67 497.255 307.497 494.375 307.885C490.148 308.451 487.454 311.496 488.381 315.084C489.221 318.325 491.75 319.284 494.74 318.718Z" fill="#97BD30"/>
<path d="M547.711 234.285C538.335 221.932 526.256 216.733 509.955 219.86C496.219 222.499 491.695 232.783 488.363 239.768C487.45 241.721 485.537 243.598 487.217 246.017C487.598 246.061 487.957 246.218 488.248 246.468C488.539 246.718 488.749 247.049 488.851 247.418C488.904 247.419 488.955 247.43 489.004 247.451C489.052 247.472 489.096 247.502 489.132 247.54C489.169 247.577 489.197 247.622 489.216 247.671C489.236 247.72 489.245 247.772 489.244 247.825C507.339 266.084 518.888 287.083 517.035 313.482C516.925 315.057 513.839 326.35 513.255 326.688C508.562 336.343 498.766 343.921 489.677 340.383C474.435 334.417 467.82 321.005 467.172 318.973C463.521 307.504 462.536 295.352 464.292 283.445C464.452 276.346 465.469 269.385 467.944 262.656L468.053 261.789C467.99 261.586 467.877 261.403 467.725 261.255C461.137 258.096 454.769 254.526 447.543 252.7C431.073 248.537 414.137 251.257 403.382 264.856C386.423 286.311 397.959 320.968 417.474 329.97C417.474 329.97 431.059 337.708 441.18 341.889C447.826 344.628 462.105 351.215 462.89 351.69C494.973 370.959 485.61 382.207 490.522 403.931C491.101 406.496 492.626 405.757 493.891 404.004C496.027 401.037 498.278 398.147 500.487 395.23C500.323 394.774 559.612 338.488 559.037 275.118C558.913 260.278 556.873 246.355 547.711 234.285Z" fill="#97BD30"/>
<path d="M540.722 96.233C537.367 91.2116 536.107 85.4233 534.824 79.7034C530.026 58.3944 532.231 37.6651 541.128 17.5567C541.672 16.3333 542.521 15.2058 541.831 13.7906C544.52 10.8554 546.095 9.97894 548.222 14.7858C553.271 26.3031 557.749 37.9938 557.95 50.5884C558.133 61.914 556.092 73.0752 550.117 83.2002C547.569 85.227 547.108 88.3859 545.643 90.997C544.47 91.2207 543.945 91.91 544.15 93.0604L544.118 93.1015C542.521 93.6629 541.895 95.2287 540.722 96.233Z" fill="#97BD30"/>
<path d="M543.164 14.7082C541.726 14.5347 540.329 16.9907 539.38 18.1502C521.207 40.0663 519.07 63.9089 529.981 89.2761C530.62 90.7734 531.414 92.2067 532.08 93.6949C533.45 96.7443 532.92 99.4604 529.743 100.953C526.653 102.405 523.781 101.505 522.439 98.3876C519.81 92.2889 516.733 86.2404 515.195 79.8495C507.864 49.4563 516.108 23.5048 540.206 2.46054C544.282 -1.09552 547.574 -0.812499 550.18 3.41005C561.072 21.0626 567.851 39.7833 565.395 60.928C563.629 76.1383 557.105 89.3035 547.46 101.19C545.291 103.87 542.552 105.125 539.489 103.062C536.426 100.999 535.632 98.269 538.398 95.1648C541.165 92.0607 553.125 81.2555 556.708 53.5419C558.151 34.3876 544.602 14.8862 543.164 14.7082Z" fill="#088DA3"/>
<path d="M429.795 117.318C443.891 132.383 487.6 135.724 511 119.975C511.769 119.381 512.595 118.864 513.465 118.432C516.204 117.296 518.81 117.46 520.481 120.034C522.152 122.609 521.814 125.229 519.112 127.206C511.429 132.834 502.993 137.002 493.681 139.257C465.232 146.15 440.271 139.116 418.108 121.422C412.964 117.314 413.457 113.516 419.537 110.521C458.494 91.3257 497.406 91.2025 535.646 111.165C560.543 124.166 577.821 138.773 587.412 164.862C603.914 209.753 600.71 238.211 594.716 263.291C587.325 294.213 567.956 323.488 548.514 348.563C536.737 363.755 523.594 377.961 510.822 392.386C509.242 394.176 505.837 395.938 503.87 395.459C501.902 394.979 499.939 391.839 499.4 389.524C495.854 374.291 485.97 364.061 472.226 357.465C458.042 350.654 443.357 344.829 428.859 338.635C417.748 333.882 407.098 328.405 397.726 320.79C370.711 298.86 365.046 261.364 384.634 233.587C399.315 212.766 425.403 204.508 451.784 213.077C459.731 215.656 467.022 220.12 474.608 223.781C475.717 224.372 476.785 225.036 477.804 225.772C483.61 218.395 488.6 210.735 494.922 204.316C506.106 192.959 519.81 186.203 536.426 187.522C558.338 189.266 574.954 206.425 576.201 228.15C576.315 230.145 576.306 232.149 576.342 233.559C573.717 227.999 571.585 221.613 567.979 216.172C552.979 193.607 521.645 191.27 503.03 211.356C497.748 217.057 493.735 223.877 489.157 230.19C487.504 232.473 488.121 234.048 490.138 236.065C506.462 252.394 517.856 271.179 519.381 294.624C519.86 302.024 519.039 309.328 515.811 316.152C512.018 324.173 505.956 329.906 496.68 330.943C487.061 332.015 479.703 327.597 474.207 320.252C467.382 311.122 465.533 300.454 464.931 289.489C463.989 272.718 466.701 255.944 472.878 240.325C474.038 237.362 473.517 235.814 470.833 234.039C459.015 226.233 446.457 220.285 431.831 220.344C410.376 220.417 392.992 233.308 386.51 253.366C378.704 277.561 388.916 304.95 412.001 317.672C426.426 325.638 441.933 331.824 457.148 338.37C471.422 344.519 485.907 350.298 496.666 361.815C500.35 365.755 503.007 370.612 506.065 375.099C506.882 376.295 507.435 377.665 508.535 379.728C517.395 369.443 526.142 359.902 534.181 349.832C551.44 328.208 566.19 305.096 575.571 279.126C580.843 264.519 583.956 249.564 583.596 234.011C583.139 213.926 584.34 192.051 572.183 167.934C560.1 143.982 540.594 123.915 518.984 115.008C515.003 113.37 492.293 104.929 474.545 105.039C446.137 107.527 427.11 115.871 429.795 117.318ZM483.145 245.017C478.995 254.174 475.996 270.124 476.087 282.404C476.165 292.086 476.544 301.791 481.305 310.547C484.222 315.929 488.107 320.69 495.456 319.946C501.048 319.384 505.499 314.427 507.325 307.164C507.458 306.634 507.499 306.091 507.59 305.553C510.06 291.315 506.061 278.391 499.314 266.075C495.055 258.283 489.855 251.18 483.145 245.017Z" fill="#088DA3"/>
<path d="M545.625 59.239C544.191 57.0889 543.648 54.6147 543.1 52.1679C541.053 43.2533 542.001 33.9124 545.798 25.591C546.031 25.066 546.392 24.5821 546.099 23.9796C547.25 22.7242 547.925 22.3499 548.838 24.4041C550.998 29.3297 552.91 34.3282 552.997 39.7148C553.075 44.5582 551.819 48.5753 549.651 53.6652C548.866 55.9477 546.122 58.8099 545.625 59.239Z" fill="#B5CF56"/>
<path d="M536.207 408.98C531.008 405.022 537.244 396.486 547.442 392.72C547.442 392.72 541.439 412.819 536.207 408.98ZM537.203 393.669C534.838 394.253 533.418 392.61 534.231 390.757C535.043 388.903 537.203 387.607 542.676 388.429C542.676 388.429 539.512 393.039 537.203 393.669ZM551.984 401.466C552.226 403.849 552.678 406.816 550.541 407.624C548.405 408.432 547.802 404.693 548.788 401.868C549.338 400.143 550.371 398.613 551.765 397.458C551.727 398.798 551.801 400.138 551.984 401.466V401.466Z" fill="white"/>
<path d="M573.923 380.668C581.227 388.141 573.165 396.079 573.165 396.079C564.542 405.666 554.522 395.322 554.522 395.322C554.522 395.322 542.274 384.366 549.843 375.551C549.843 375.551 554.339 368.494 561.634 375.241C568.066 381.148 565.259 388.693 563.291 391.514C567.879 395.39 569.965 395.029 571.787 393.496C575.534 390.172 573.681 385.42 572.439 383.544C571.198 381.668 570.508 380.618 571.444 379.632C572.143 378.929 573.923 380.668 573.923 380.668ZM562.191 390.588C563.154 388.305 562.995 384.302 559.352 379.929C555.038 374.862 552.386 376.637 552.386 376.637C550.062 379.632 559.804 388.474 562.191 390.588V390.588Z" fill="white"/>
<path d="M580.843 366.686C585.805 367.795 590.324 370.037 591.201 374.62C591.396 376.239 591.182 377.882 590.578 379.397C589.975 380.912 589 382.252 587.745 383.293C587.745 383.293 582.34 387.474 578.802 382.033C577.433 379.997 576.94 377.162 576.94 374.35C573.101 373.743 568.842 373.163 566.509 371.872C566.509 371.872 558.808 368.279 562.131 360.861C562.131 360.861 565.623 353.347 571.316 358.706C573.53 360.692 574.091 363.691 574.205 365.686L578.031 366.175C578.204 365.432 578.444 364.706 578.747 364.006C578.747 364.006 579.66 361.984 580.797 362.724C581.299 362.984 581.153 364.545 580.843 366.686ZM571.608 365.549C571.366 364.134 570.782 362.235 569.65 360.943C567.531 358.693 565.34 359.761 564.843 360.29C564.414 360.87 565.359 364.833 571.608 365.549ZM580.24 374.884C580.194 374.983 580.181 375.093 580.204 375.199C580.751 380.098 584.23 382.8 586.111 380.942C586.111 380.942 587.243 378.751 584.823 376.5C583.97 375.756 582.308 375.309 580.24 374.884Z" fill="white"/>
<path d="M595.013 335.823C603.385 342.501 607.301 349.727 602.358 356.397C600.938 358.314 598.706 358.816 596.656 358.748C601.924 362.436 606.649 365.554 608.269 366.471C608.269 366.471 610.387 367.708 609.488 369.279C608.794 370.53 606.964 373.876 604.234 372.817C601.431 371.712 575.169 354.895 570.111 350.905C570.111 350.905 568.459 349.403 569.226 348.198C569.992 346.993 573.129 341.433 576.173 344.048C576.315 344.135 576.552 344.4 576.908 344.624C576.114 342.09 575.689 338.662 577.776 335.704C580.697 331.691 586.714 329.19 595.013 335.823ZM579.739 337.16C577.36 341.058 580.912 346.815 582.14 348.499C583.893 349.841 585.983 351.284 588.211 352.813C592.146 354.977 598.391 356.807 599.742 354.845C600.372 354.005 601.253 352.306 597.46 347.541C593.538 342.551 581.966 333.499 579.739 337.16V337.16Z" fill="white"/>
<path d="M614.674 313.856C623.968 319.791 617.559 329.888 617.559 329.888C610.967 341.803 598.208 333.54 598.208 333.54C598.208 333.54 583.012 325.205 588.695 314.322C588.695 314.322 591.639 305.991 600.742 311.199C608.767 315.741 607.671 324.168 606.32 327.537C611.958 330.431 614.016 329.564 615.523 327.537C618.59 323.228 615.555 318.782 613.829 317.147C612.177 315.55 611.15 314.596 611.875 313.363C612.428 312.496 614.674 313.856 614.674 313.856ZM604.964 326.848C605.421 324.301 604.298 320.197 599.514 316.563C593.867 312.382 591.566 314.838 591.566 314.838C589.891 318.471 602.002 325.223 604.964 326.848Z" fill="white"/>
<path d="M617.125 289.361C617.659 289.466 617.846 290.192 617.499 290.808C616.646 291.976 615.144 293.314 612.556 292.597C608.621 291.652 604.476 286.955 603.677 287.498C602.919 287.955 608.1 296.738 615.714 301.65L616.454 301.946C621.863 304.229 627.629 307.538 626.73 309.771C625.789 312.09 621.284 311.14 621.284 311.14C612.724 309.031 604.478 305.808 596.756 301.554C596.592 301.485 593.725 299.792 595.273 297.39C596.619 295.236 599.546 292.739 601.33 293.784C601.33 293.784 603.115 294.83 605.603 296.268C602.864 292.885 599.413 287.594 602.052 285.111C605.599 281.792 613.683 288.621 617.125 289.361Z" fill="white"/>
<path d="M615.651 250.13C618.211 251.226 638.019 256.699 641.136 257.434C641.136 257.434 643.314 257.89 643.159 258.488C642.976 259.168 641.383 267.244 636.371 266.016C635.17 265.696 633.508 265.359 631.619 264.856C632.468 265.806 633.467 266.901 634.294 267.951C635.943 269.912 637.315 272.09 638.37 274.424C639.16 276.291 639.352 278.003 638.991 279.359C638.929 279.765 638.764 280.149 638.512 280.473C636.088 286.467 628.692 289.37 621.037 286.298C613.131 283.162 610.291 278.259 610.291 278.259C607.58 273.909 608.78 269.047 609.547 266.847C610.46 263.359 613.779 261.647 616.6 260.739C614.477 260.072 612.61 259.47 611.46 258.959C611.46 258.959 609.506 258.338 610.278 256.466C610.967 254.585 613.149 249.153 615.651 250.13ZM626.373 263.45L622.589 262.446C620.813 262.577 619.058 262.909 617.358 263.437C614.76 264.199 613.172 265.331 612.336 266.669C611.3 269.193 613.45 274.949 623.776 279.04C633.696 282.924 636.152 279.222 636.558 278.396C636.763 276.57 635.257 273.594 632.28 269.901C630.439 267.637 628.467 265.483 626.373 263.45V263.45Z" fill="white"/>
<path d="M625.228 213.665C625.228 213.665 644.021 215.364 645.587 215.697C645.587 215.697 648.102 215.898 647.733 218.189C647.733 218.189 647.345 223.115 642.036 222.699C636.635 222.27 621.991 221.43 620.791 221.229C620.791 221.229 637.06 233.491 643.907 238.147C644.439 238.564 644.867 239.097 645.16 239.706C645.453 240.314 645.602 240.982 645.596 241.657C645.622 241.938 645.598 242.22 645.528 242.493C644.88 244.775 640.538 245.159 640.538 245.159C631.302 245.755 622.027 245.134 612.953 243.31C612.77 243.31 609.365 242.502 610.154 239.608C610.83 237.024 612.971 233.605 615.098 233.984C615.098 233.984 626.579 236.896 632.81 237.494C633.928 237.581 635.033 237.773 636.151 237.864C629.204 233.299 615.883 224.023 615.463 219.874C614.957 214.437 621.608 213.273 625.228 213.665Z" fill="white"/>
<path d="M624.52 188.298C624.721 189.211 623.849 189.759 623.297 189.353C622.157 188.454 620.777 187.913 619.33 187.796C610.826 187.289 609.913 193.064 609.913 193.064C610.789 198.542 632.258 196.3 632.258 196.3C640.831 195.639 642.333 193.283 642.62 190.124C642.88 183.733 636.864 181.223 634.029 180.707C631.29 180.182 629.628 179.894 629.551 178.164C629.519 176.89 632.696 176.795 632.696 176.795C641.543 176.795 644.652 182.962 645.715 187.253L646.021 187.221L646.633 187.157C646.834 187.157 646.948 187.239 647.153 187.221C647.369 186.959 647.637 186.746 647.941 186.595C648.245 186.444 648.576 186.359 648.915 186.344C649.116 186.344 649.216 186.312 649.331 186.413C649.828 186.466 650.301 186.657 650.697 186.964C651.092 187.271 651.393 187.683 651.567 188.152C651.693 188.518 651.768 188.898 651.791 189.284V189.517C651.857 190.077 651.773 190.644 651.549 191.16C651.314 191.527 651.003 191.838 650.636 192.073C650.388 192.203 650.113 192.271 649.833 192.274C649.635 192.271 649.445 192.195 649.298 192.062C649.152 191.928 649.06 191.745 649.038 191.548L648.988 191.092C649.014 190.961 649.068 190.837 649.147 190.728C649.226 190.62 649.327 190.531 649.445 190.467C649.478 190.42 649.522 190.382 649.573 190.357C649.623 190.331 649.68 190.319 649.737 190.32L649.828 190.193C650.029 190.193 650.312 189.914 650.285 189.8C650.257 189.686 650.047 189.476 649.828 189.38C649.057 188.882 648.545 188.924 648.459 189.061L648.495 189.407C648.696 190.32 648.459 191.033 647.961 191.197C647.741 191.197 647.524 191.14 647.331 191.033C647.144 190.764 647.039 190.447 647.03 190.12C647.025 189.988 646.989 189.859 646.924 189.745C646.859 189.63 646.767 189.533 646.656 189.462C646.551 189.462 646.551 189.462 646.436 189.371L646.131 189.403L646.044 189.526C646.166 190.053 646.222 190.593 646.208 191.133C647.404 207.567 629.003 207.631 629.003 207.631C629.003 207.631 608.087 209.228 606.635 194.433C606.635 194.433 605.265 184.153 616.792 183.3C621.781 182.907 623.918 185.463 624.52 188.298Z" fill="white"/>
<path d="M599.742 139.435C602.91 138.933 625.547 132.131 629.03 130.949C629.03 130.949 631.436 130.082 631.641 130.744C631.883 131.511 635.271 140.33 629.637 142.22C628.268 142.644 626.442 143.334 624.296 144C625.707 144.407 627.346 144.863 628.793 145.37C631.601 146.267 634.271 147.55 636.727 149.181C638.639 150.514 639.872 152.066 640.347 153.605C640.534 154.035 640.608 154.507 640.561 154.974C641.867 162.278 636.453 169.646 627.108 171.33C617.486 173.111 611.72 170.075 611.72 170.075C606.425 167.532 604.617 162.054 604.028 159.457C602.8 155.495 604.973 151.806 607.164 149.195C604.686 149.843 602.504 150.4 601.066 150.606C601.066 150.606 598.783 151.19 598.395 148.898C597.907 146.639 596.711 140.015 599.742 139.435ZM618.335 145.849L614.021 147.182C612.374 148.399 610.868 149.797 609.534 151.35C607.47 153.678 606.617 155.755 606.639 157.558C607.169 160.649 612.784 164.94 625.356 162.611C637.389 160.329 637.521 155.216 637.407 154.166C636.494 152.276 633.203 150.282 628.044 148.506C624.862 147.432 621.62 146.544 618.335 145.849V145.849Z" fill="white"/>
<path d="M585.449 129.949C585.171 127.375 587.476 125.814 590.137 127.434C592.707 129.1 594.848 136.034 594.848 136.034C587.814 134.82 585.764 132.383 585.449 129.949ZM594.789 108.385C602.609 105.701 602.253 132.515 602.253 132.515C591.32 124.115 586.937 111.22 594.789 108.385ZM607.397 121.883C607.288 118.058 609.497 113.831 611.793 115.638C614.039 117.341 612.35 120.783 611.14 123.6C610.451 125.166 609.842 126.765 609.315 128.393C608.07 126.449 607.405 124.191 607.397 121.883Z" fill="white"/>
<g clip-path="url(#clip0)">
<path d="M156.241 363.183C152.944 356.801 163.132 351.257 175.006 352.304C175.013 352.304 159.603 369.441 156.241 363.183ZM164.411 348.44C161.796 347.909 161.157 345.61 162.835 344.147C164.512 342.684 167.257 342.415 172.275 345.806C172.297 345.806 167.025 348.892 164.411 348.44ZM175.405 363.132C174.526 365.614 173.582 368.772 171.084 368.575C168.586 368.379 169.755 364.377 172.05 362.026C173.403 360.573 175.145 359.54 177.068 359.05C176.403 360.363 175.847 361.728 175.405 363.132V363.132Z" fill="#97BD30"/>
<path d="M189.704 332.693C190.771 335.837 200.822 359.749 202.775 363.256C202.775 363.256 203.712 365.148 202.601 365.73C201.73 366.203 199.42 367.477 198.048 365.424C197.627 364.821 196.327 362.295 194.707 358.875C194.315 363.409 192.943 370.569 188.476 371.093C181.941 371.901 175.812 353.025 182.493 347.349C184.983 345.166 187.242 345.537 189.028 346.81C186.508 341.287 184.243 336.164 183.488 334.185C183.488 334.185 182.928 332.337 183.829 331.922C184.729 331.507 188.665 329.47 189.704 332.693ZM193.262 355.885C192.964 355.222 192.688 354.618 192.383 353.964C191.744 352.879 188.121 346.992 185.586 347.793C182.848 348.608 186.007 366.32 189.166 367.848C192.325 369.376 193.313 356.947 193.262 355.885Z" fill="white"/>
<path d="M211.896 347.349C213.203 350.602 215.912 359.312 209.776 362.063C203.639 364.813 200.11 356.19 200.11 356.19C199.101 354.044 198.992 352.414 200.008 351.788C200.507 351.49 201.065 351.304 201.642 351.242C199.682 350.066 198.218 348.213 197.525 346.032C195.281 339.868 200.35 338.573 200.35 338.573C206.094 336.084 210.531 344.133 211.896 347.349ZM201.374 346.483C201.374 346.483 203.683 350.638 207.909 350.682C207.811 350.343 207.683 350.014 207.525 349.699C205.52 344.809 202.884 340.436 200.698 340.734C198.512 341.033 200.517 345.13 201.374 346.483ZM208.454 352.108C207.389 352.341 206.295 352.415 205.208 352.326L205.571 353.105C206.37 355.426 207.822 359.916 209.129 359.443C210.233 358.999 209.805 355.921 208.454 352.108V352.108Z" fill="white"/>
<path d="M259.157 337.489C259.411 338.027 259.884 339.192 259.491 339.526C258.322 340.647 256.245 339.919 255.425 338.071C253.704 334.433 251.714 330.831 249.615 327.316L249.223 327.563C247.429 328.677 242.426 331.478 236.326 335.269C238.52 338.931 240.945 342.448 243.588 345.799C244.06 346.439 244.699 347.596 243.965 348.288C242.687 349.466 240.85 350.376 239.376 348.884C235.505 345.006 232.455 339.832 229.55 335.269C226.166 329.921 222.513 324.274 220.32 318.489C220.052 317.805 219.761 316.583 220.524 316.19C222.201 315.142 225.36 314.108 226.428 316.714C228.439 321.807 231.257 326.756 234.024 331.478C234.336 331.98 234.626 332.577 234.939 333.086C238.57 330.729 244.808 326.872 248.424 325.322C248.01 324.645 247.589 323.976 247.175 323.306C244.14 318.278 241.017 313.235 237.604 308.6C237.197 308.076 236.413 306.926 236.834 306.359C237.655 305.304 239.187 305.9 240.051 306.919C243.602 311.154 246.587 316.124 249.557 320.89C252.977 326.261 256.47 331.777 259.157 337.489Z" fill="white"/>
<path d="M249.978 306.606C249.499 306.38 249.412 305.471 249.826 304.576C250.24 303.681 250.966 303.208 251.445 303.433C251.924 303.659 252.099 304.532 251.685 305.435C251.271 306.337 250.537 306.853 249.978 306.606ZM255.272 304.256C256.768 305.1 274.589 313.497 273.972 315.462C273.972 315.462 273.478 318.722 268.997 316.794C264.517 314.865 253.667 309.771 253.667 309.771C253.667 309.771 251.227 308.782 251.997 307.101C252.767 305.42 253.827 303.448 255.272 304.256V304.256Z" fill="white"/>
<path d="M258.744 281.567C259.833 281.829 281.532 287.388 285.468 289.04C289.781 290.815 292.163 292.475 290.181 298.5C290.181 298.5 288.525 303.463 283.405 301.083C279.774 299.395 278.257 294.294 277.763 291.529L272.679 290.321C275.984 293.486 280.246 298.638 278.017 302.313C274.626 308.018 255.991 301.258 255.643 292.489C255.476 288.647 257.662 287.133 260.196 286.726C258.642 285.875 257.153 284.71 257.415 283.619C257.436 283.633 257.589 281.327 258.744 281.567ZM269.433 289.571L265.272 288.581C262.81 288.4 258.606 288.414 257.894 290.277C256.834 293.006 272.723 301.352 275.867 299.795C278.685 298.478 271.387 291.31 269.419 289.549L269.433 289.571ZM283.768 293.064L280.312 292.242C280.595 294.476 281.452 298.281 283.943 299.482C287.363 301.047 288.3 298.347 288.3 298.347C289.491 294.89 285.112 293.37 283.768 293.042V293.064Z" fill="white"/>
<path d="M257.727 277.15C257.204 277.099 256.819 276.262 256.921 275.279C257.022 274.297 257.56 273.62 258.083 273.671C258.605 273.722 259.056 274.501 258.954 275.483C258.852 276.466 258.315 277.215 257.727 277.15ZM261.968 273.213C263.66 273.519 283.231 275.672 283.282 277.732C283.282 277.732 283.877 280.977 279.019 280.606C274.161 280.235 262.236 278.94 262.236 278.94C262.236 278.94 259.608 278.801 259.796 276.968C259.985 275.134 260.341 272.907 261.968 273.213V273.213Z" fill="white"/>
<path d="M248.548 262.312C249.339 260.231 251.706 259.933 253.108 262.218C254.51 264.503 253.369 270.637 253.369 270.637C248.453 266.969 247.843 264.291 248.548 262.312ZM264.095 249.44C271.118 250.436 260.392 270.841 260.392 270.841C255.308 260.136 256.979 248.581 264.095 249.44ZM268.453 264.721C269.861 261.752 273.195 259.372 274.262 261.657C275.33 263.942 272.679 265.812 270.631 267.479C269.497 268.413 268.411 269.404 267.378 270.448C267.19 268.466 267.571 266.472 268.474 264.699L268.453 264.721Z" fill="#97BD30"/>
<path d="M64.174 65.1254C64.2527 67.6663 63.7223 70.1891 62.6272 72.4822C61.5168 75.0719 59.8737 77.3978 57.8052 79.3079C56.8339 80.1718 55.6467 80.7553 54.3703 80.9961C53.119 81.2442 51.9457 81.7908 50.95 82.5897C45.1404 87.6107 40.1224 93.5922 35.2932 99.5811C30.464 105.57 25.8526 111.61 20.9 117.409C20.9 123.085 21.205 128.834 21.6262 134.466C22.0474 140.098 22.6501 145.825 23.4707 151.436C24.2949 151.154 25.0882 150.788 25.8381 150.344C27.6826 149.296 30.9723 146.618 35.8523 142.34C40.4129 138.345 44.1891 135.79 46.7453 134.67C48.9239 133.738 50.0495 134.088 49.9478 135.754C49.6718 140.12 47.2899 144.981 43.1216 148.809C39.5705 152.069 35.3658 155.3 31.5024 158.589C29.9992 159.513 27.5882 161.179 24.3421 163.53C24.2954 165.639 24.356 167.75 24.5237 169.853C24.6835 172.036 25.0466 175.384 25.613 179.873C26.1794 184.363 26.5353 187.798 26.7095 190.061C27.2324 196.806 26.8911 203.952 24.3785 210.29C24.2037 210.802 23.8929 211.256 23.4796 211.603C23.0662 211.951 22.566 212.179 22.0328 212.262C20.7912 212.399 19.5444 212.055 18.5471 211.302C17.4385 210.638 16.5649 209.643 16.049 208.457C14.8895 205.509 14.2103 202.393 14.0374 199.23C13.9503 198.014 13.943 193.714 14.0374 186.364C14.0883 181.052 13.6816 176.904 12.8465 174.11C12.5923 173.099 11.6482 172.655 10.0869 172.735C8.08262 172.88 6.62297 172.931 6.29618 172.677C5.96939 172.422 5.96939 170.654 6.18725 167.837C7.28837 167.364 8.18462 166.513 8.71441 165.436C9.15563 164.466 9.84452 163.63 10.7115 163.013C11.0381 162.822 11.3837 162.666 11.7427 162.547C12.3286 157.808 12.4114 153.02 11.9896 148.263C11.4449 142.441 10.4137 136.525 9.53502 130.675C8.08959 131.656 6.41646 132.247 4.67677 132.392C3.07187 132.509 2.23675 131.992 2.13508 130.733C1.98984 128.987 3.34057 126.367 6.23809 122.932C14.2625 113.356 21.8803 103.161 29.7087 93.4176C37.922 83.2301 46.5565 72.6278 56.8031 64.6233C58.6331 63.1679 60.3251 62.4839 61.7993 62.4839C63.2735 62.4839 64.0505 63.379 64.174 65.1254Z" fill="#07203D"/>
<path d="M107.361 65.4892C101.696 70.6485 95.7414 75.5021 89.852 80.3266C83.9625 85.1512 78.1094 90.2231 72.6702 95.6589C71.4865 102.521 70.891 115.605 71.944 116.594C72.2998 116.936 75.6766 115.867 77.9206 114.826C80.5058 113.509 83.0173 112.051 85.444 110.46C87.8752 108.872 90.4133 107.454 93.04 106.218C96.09 104.915 99.5757 104.275 101.028 105.17C102.347 106.119 103.274 107.519 103.635 109.106C103.647 109.57 103.561 110.03 103.385 110.459C103.209 110.887 102.945 111.274 102.611 111.595C101.821 112.706 101.105 113.868 100.469 115.073C100.149 115.722 99.7023 116.3 99.1545 116.771C98.6067 117.243 97.9694 117.598 97.281 117.817C95.0225 119.323 90.8251 121.317 84.8049 123.951C80.4876 125.733 76.4724 128.176 72.9026 131.191C71.9149 138.294 70.8039 145.469 71.2323 152.614C71.4284 155.925 72.0529 158.436 73.026 160.124C81.6968 162.991 91.5222 159.207 99.721 156.486C100.83 156.028 101.773 155.241 102.422 154.23C103.345 152.993 104.144 152.265 104.797 152.047C107.818 150.349 110.011 152.389 111.376 158.167C111.824 160.117 111.628 162.159 110.817 163.988C110.493 164.876 109.98 165.683 109.312 166.351C108.645 167.02 107.84 167.535 106.954 167.859C95.7923 171.192 84.3619 174.227 72.6847 174.408C69.65 174.489 66.682 173.509 64.2899 171.636C63.0442 170.737 61.9906 169.597 61.1912 168.283C60.3917 166.97 59.8626 165.509 59.635 163.988C58.3714 155.423 57.4564 146.96 57.8703 138.279C54.8493 137.551 53.5131 136.176 53.6148 134.146C53.6729 133.164 54.3773 131.854 55.7934 130.289C57.2095 128.725 58.0664 127.415 58.1608 126.476C58.6691 121.382 58.3351 115.721 58.3278 110.351C52.4674 112.476 49.6135 112.032 49.4464 108.75C49.3302 105.686 50.8988 101.975 54.2611 98.1039C57.2821 94.6183 60.7969 91.089 63.8905 87.5816C68.4183 82.3623 73.2692 77.4334 78.4144 72.8243C83.4929 68.3563 88.6489 63.9902 93.8824 59.726C94.5015 59.2719 95.1573 58.8702 95.8431 58.5253C98.7987 57.0118 102.335 56.5679 106.467 57.3611C106.613 57.8122 106.947 58.6199 107.469 59.7915C107.901 60.6352 108.188 61.5452 108.319 62.4839C108.385 63.5704 108.043 64.6422 107.361 65.4892V65.4892Z" fill="#07203D"/>
<path d="M125.69 56.9754C126.13 60.6235 126.469 64.4366 126.706 68.4145C127.491 81.8038 127.077 95.3387 126.75 108.713C126.416 122.256 126.024 135.878 126.808 149.398C127.002 152.745 127.244 156.02 127.534 159.222C126.757 163.093 124.695 165.422 121.405 166.135C116.699 167.153 113.933 165.48 113.221 161.165C112.478 156.568 111.971 151.936 111.703 147.288C110.926 134.19 111.543 121.011 112.074 107.928C112.604 94.8439 113.228 81.7311 112.458 68.7056C112.262 65.4456 111.95 62.2802 111.536 59.2458C111.934 57.9091 112.628 56.6797 113.566 55.6491C114.504 54.6185 115.662 53.8132 116.954 53.2933C118.991 52.438 121.259 52.307 123.38 52.9222C123.625 52.5387 123.953 52.2154 124.339 51.9762C124.673 51.8525 124.927 52.4783 124.956 53.7081C124.927 54.6086 124.98 55.5099 125.116 56.4005C125.29 56.6916 125.457 56.9317 125.69 56.9754Z" fill="#07203D"/>
<path d="M201.156 142.783C201.485 143.276 201.668 143.851 201.686 144.443C201.839 147.353 199.624 149.74 194.896 151.93C187.046 145.585 180.111 138.017 173.198 130.646C166.096 123.063 158.855 115.364 150.686 108.961C150.402 117.991 150.446 127.044 150.41 136.074C150.373 144.966 150.228 153.851 148.957 162.664C148.238 163.062 147.571 163.552 146.975 164.119C145.871 165.036 144.92 165.458 144.143 165.378C139.263 165.218 136.619 161.849 136.234 155.19C136.15 152.533 136.218 149.872 136.438 147.222C136.685 143.38 136.823 140.899 136.852 139.989C137.12 131.257 136.525 121.892 136.125 112.861L134.884 91.6421C134.107 76.5645 133.671 61.4215 134.753 46.3731C135.479 36.3238 144.978 31.332 153.358 29.9566C159.691 28.9161 165.464 32.8674 169.131 37.9611C173.289 43.7483 175.71 50.6053 176.11 57.7249C176.343 64.3989 174.756 71.0103 171.52 76.8483C168.577 82.3605 164.821 87.3967 160.38 91.7876C158.514 93.4758 157.621 95.1277 157.708 96.6995C157.802 98.4022 159.059 100.258 161.441 102.113C163.213 103.489 165.072 104.864 166.865 106.261C173.067 111.813 179.16 117.482 185.216 123.202C191.273 128.921 197.14 135.303 201.156 142.783ZM163.801 59.5659C164.025 57.4568 164.025 55.3297 163.801 53.2206C163.412 50.6291 162.287 48.2043 160.562 46.2348C158.884 44.2847 156.306 43.637 152.821 44.4156C150.214 45.0051 148.464 46.5332 148.079 48.527C147.519 51.6415 147.665 55.7311 147.897 59.9079C147.999 61.6107 148.434 65.9695 149.139 72.9334C149.614 77.298 149.856 81.6849 149.865 86.0753C155.965 78.3765 162.668 69.9063 163.801 59.5659Z" fill="#07203D"/>
<path d="M239.173 133.724C239.69 135.259 240.014 136.853 240.138 138.468C240.224 139.456 240.111 140.45 239.806 141.393C239.5 142.336 239.008 143.207 238.359 143.955C237.052 145.461 236.13 146.174 235.629 146.029C230.117 144.057 227.902 137.144 226.914 131.817C225.565 124.055 223.717 116.389 221.381 108.866C218.25 108.809 215.119 108.911 211.998 109.172C208.425 109.514 204.482 111.355 203.436 113.538C201.149 118.297 201.185 127.539 200.256 134.524C199.29 141.75 198.273 149.041 196.45 156.136C195.768 158.53 194.061 159.447 191.425 158.807C188.048 157.985 186.044 156.253 185.768 153.888C184.984 147.186 186.567 140.222 188.099 133.702C189.661 127.051 191.774 120.102 192.064 113.167C192.115 112.017 191.382 110.773 189.886 109.485C188.39 108.197 187.613 107.163 187.569 106.392C187.559 105.655 187.761 104.93 188.15 104.304C188.571 103.576 189.602 102.848 191.258 102.332C192.914 101.815 193.8 101.058 193.952 100.149C196.581 88.4548 198.549 76.5718 200.604 64.7688C202.521 53.759 204.402 42.6619 207.438 31.9068C207.924 30.2914 209.079 29.7238 210.873 30.204C212.352 30.6872 213.63 31.6497 214.504 32.9401C217.467 36.9205 219.442 42.8875 220.146 47.7557C220.872 52.7912 221.693 57.9432 222.397 63.037C227.161 86.7739 232.252 110.533 239.173 133.724ZM218.483 97.3762C217.912 92.2041 217.052 87.0682 215.905 81.993C214.765 76.9866 213.574 71.8928 212.485 66.8282C210.11 76.7537 208.28 86.7957 206.675 96.8741C208.171 96.5612 212.238 96.4957 218.483 97.3762Z" fill="#07203D"/>
<path d="M58.0955 335.233C52.7175 337.89 47.1945 340.242 41.5528 342.277C36.1862 343.565 30.9213 344.795 25.424 343.354C24.8318 343.23 24.2771 342.968 23.8045 342.59C22.5264 341.615 21.2846 339.759 20.0864 337.067C18.3 333.334 17.3777 331.398 17.2833 331.245C16.2812 319.501 16.165 307.647 16.2231 295.924C16.2812 284.732 16.5426 273.366 15.7656 262.145C15.4315 257.32 14.9232 252.743 14.2769 248.45C15.3226 247.577 16.7241 247.358 18.5106 247.802C21.8946 248.654 24.3201 250.604 24.7704 253.318C26.7456 264.401 26.1792 277.79 26.3898 290.022C26.6149 302.517 26.8183 315.062 27.9075 327.52C31.2314 327.858 34.5891 327.491 37.762 326.443C42.1846 325.111 45.5759 323.823 47.6746 323.386C48.5203 323.659 49.3876 323.858 50.2671 323.983C51.1989 324.122 52.1207 324.321 53.0267 324.58C54.0415 324.91 54.9751 325.451 55.7661 326.169C56.5571 326.886 57.1876 327.763 57.6162 328.742C59.0396 331.66 59.1775 333.872 58.0955 335.233Z" fill="#07203D"/>
<path d="M65.4884 249.702C66.3236 252.918 67.0933 256.251 67.7614 259.743C69.94 271.168 71.1019 282.847 72.2856 294.439C73.4911 306.169 74.6675 317.972 76.897 329.543C77.4731 332.507 78.0928 335.417 78.756 338.275C78.4074 341.36 76.5774 342.641 73.3822 341.964C68.7708 340.982 65.8515 338.289 64.6678 334.331C63.4841 330.372 62.4892 326.246 61.6396 321.96C59.5481 311.161 58.6404 300.021 57.7109 289.003C56.7813 277.986 55.9172 266.977 53.8257 256.207C53.2811 253.405 52.6275 250.655 51.894 247.984C52.5186 245.881 54.0726 244.731 56.5344 244.506C58.6914 244.365 60.8479 244.786 62.7942 245.728C63.0061 245.445 63.3004 245.234 63.6366 245.124C63.9489 245.124 64.2612 245.67 64.4282 246.74C64.5038 247.534 64.657 248.319 64.8857 249.083C65.015 249.349 65.2264 249.566 65.4884 249.702V249.702Z" fill="#07203D"/>
<path d="M149.967 246.398C142.16 261.206 136.568 277.062 130.664 292.555C126.801 303.026 124.354 313.97 121.761 324.74C119.169 335.51 116.54 346.381 112.277 356.7C111.848 357.173 111.313 357.537 110.716 357.763C110.118 357.988 109.476 358.067 108.842 357.995C107.332 357.82 105.407 356.758 103.084 354.786C96.8455 337.969 93.229 320.381 89.3875 303.121C85.6475 286.311 81.7334 269.065 74.6094 252.911C76.0037 250.538 77.1874 249.381 78.1314 249.469C78.9134 249.052 79.7971 248.865 80.6804 248.93C82.3724 249.068 85.3208 250.844 89.569 254.264C93.9272 264.908 97.4692 275.87 100.164 287.053C102.924 298.201 105.429 309.735 108.152 321.065C112.51 307.88 116.7 294.519 121.064 281.487C125.528 268 130.765 254.782 136.75 241.901C138.471 238.946 141.361 237.848 145.406 238.561C146.043 238.772 146.606 239.164 147.026 239.689C147.338 240.018 147.718 240.275 148.139 240.444C148.56 240.612 149.013 240.687 149.466 240.664C150.453 240.664 150.918 241.391 150.918 242.956C150.864 244.16 150.538 245.337 149.967 246.398V246.398Z" fill="#07203D"/>
<path d="M204.424 308.84C204.656 309.175 204.755 309.585 204.7 309.99C204.54 312.253 202.463 314.989 198.36 317.994C192.311 314.727 187.409 309.721 182.798 304.656C177.576 298.915 172.5 292.737 166.916 287.25C165.79 294.57 164.919 301.934 164.011 309.277C163.103 316.619 162.087 323.758 160.191 330.809C159.58 331.091 159.002 331.443 158.47 331.857C157.81 332.423 156.955 332.708 156.088 332.65C152.232 332.06 150.475 328.895 150.831 323.416C151.033 321.236 151.356 319.069 151.796 316.925C152.377 313.81 152.733 311.831 152.842 311.059C153.939 303.914 154.403 296.208 154.977 288.756C155.355 282.896 155.737 277.038 156.125 271.183C157.018 258.747 158.064 246.18 160.562 234.071C162.181 226.248 170.293 223.883 176.894 223.294C182.035 222.843 186.008 226.503 188.68 230.185C191.636 234.253 192.761 240.242 192.311 245.677C191.875 251.302 189.58 256.673 186.77 261.359C184.048 266.049 180.523 270.222 176.356 273.686C174.701 275.032 173.822 276.335 173.735 277.608C173.648 278.881 174.461 280.519 176.182 282.047C177.46 283.168 178.811 284.23 180.118 285.314C184.359 289.404 188.782 293.26 193.284 297.03C197.46 300.37 201.664 304.11 204.424 308.84ZM182.275 247.708C182.654 246.023 182.856 244.304 182.878 242.578C182.834 240.531 182.176 238.546 180.99 236.88C179.835 235.264 177.845 234.646 175.006 235.002C172.871 235.264 171.324 236.298 170.837 237.913C170.111 240.387 169.784 243.735 169.559 247.147C169.465 248.544 169.378 252.139 169.247 257.866C169.189 261.461 168.946 265.051 168.521 268.621C174.287 262.683 180.314 256.163 182.275 247.708Z" fill="#07203D"/>
<path d="M245.519 231.975C245.425 252.183 242.927 273.526 234.815 289.971C234.005 291.539 233.072 293.04 232.027 294.461C227.43 300.843 221.134 298.507 215.368 295.698C209.674 291.332 206.726 282.345 205.201 274.443C202.507 260.522 202.703 245.874 203.473 231.888C203.918 225.384 204.944 218.933 206.537 212.612C208.273 205.822 210.241 201.398 212.543 199.513C213.108 199.002 213.827 198.693 214.587 198.635C215.347 198.578 216.104 198.774 216.74 199.193C218.193 200.03 221.751 199.841 226.907 198.327C230.93 197.141 234.082 198.371 236.485 201.966C240.391 207.631 243.141 214.013 244.575 220.747C245.271 224.448 245.587 228.21 245.519 231.975V231.975ZM234.881 230.141C232.419 220.492 229.71 215.784 226.892 216.221C226.472 216.312 226.087 216.521 225.781 216.825C224.866 217.749 223.98 220.376 223.189 224.72C222.288 229.647 221.439 232.936 220.72 234.391C220.248 235.352 219.369 235.716 218.047 235.352C216.726 234.988 215.869 234.93 215.564 235.228C215.29 235.509 215.107 235.867 215.041 236.254C212.862 244.258 213.233 253.333 214.946 261.817C216.283 268.454 218.222 273.387 220.756 276.247C224.227 280.177 226.776 281.115 228.185 279.376C232.92 273.504 234.314 263.775 235.324 255.472C236.289 247.511 237.03 238.553 234.881 230.141Z" fill="#07203D"/>
<path d="M62.0751 60.7229C62.1595 63.2597 61.6287 65.7791 60.5283 68.0652C59.4179 70.6549 57.7748 72.9808 55.7063 74.8909C54.7419 75.7567 53.5588 76.3407 52.2859 76.5791C51.0351 76.8263 49.8635 77.3758 48.8728 78.18C43.027 83.201 38.0453 89.1752 33.2088 95.164C28.3723 101.153 23.7682 107.2 18.8229 112.999C18.8229 118.675 19.1206 124.417 19.5491 130.056C19.9775 135.696 20.573 141.408 21.3936 147.019C22.2084 146.752 22.9943 146.403 23.7392 145.978C25.5837 144.93 28.8734 142.259 33.7607 137.973C38.3212 133.986 42.0902 131.424 44.6536 130.304C46.8322 129.38 47.9506 129.729 47.8489 131.388C47.5729 135.754 45.1983 140.622 41.0299 144.486C37.4788 147.739 33.2669 150.977 29.4108 154.259C27.9148 155.19 25.4966 156.857 22.2505 159.2C22.1997 161.128 22.2505 163.231 22.432 165.531C22.6136 167.83 22.9622 171.054 23.5286 175.544C24.095 180.033 24.4509 183.468 24.6252 185.731C25.1408 192.477 24.7994 199.623 22.2941 205.968C22.1146 206.478 21.8015 206.93 21.3875 207.277C20.9735 207.624 20.4739 207.853 19.9412 207.94C18.7012 208.07 17.4581 207.724 16.4627 206.972C15.3541 206.308 14.4805 205.313 13.9646 204.127C12.8043 201.182 12.1251 198.069 11.953 194.907C11.8586 193.685 11.8514 189.384 11.953 182.042C12.0039 176.73 11.5972 172.582 10.7621 169.78C10.5079 168.769 9.57112 168.325 8.00254 168.412C5.99824 168.551 4.53859 168.602 4.21906 168.347C3.89954 168.092 3.89227 166.324 4.10287 163.515C5.18849 163.024 6.06749 162.166 6.58646 161.092C7.02758 160.124 7.71661 159.29 8.5835 158.676C8.91062 158.484 9.25607 158.326 9.6147 158.203C10.2068 153.464 10.292 148.676 9.86886 143.919C9.31696 138.097 8.28576 132.188 7.41432 126.331C5.97055 127.315 4.29653 127.906 2.55607 128.048C0.943919 128.106 0.108795 127.597 -0.000134836 126.331C-0.138112 124.577 1.20535 121.964 4.10287 118.53C12.1419 108.954 19.7524 98.7661 27.5953 89.0151C35.8086 78.8276 44.4358 68.2253 54.6897 60.2281C56.5124 58.7727 58.2117 58.0815 59.6859 58.0815C61.1601 58.0815 61.9589 58.9765 62.0751 60.7229Z" fill="#088DA3"/>
<path d="M105.298 61.0868C99.6341 66.2533 93.6793 71.0996 87.7898 75.9314C81.8006 80.7505 76.0564 85.8677 70.579 91.2637C69.388 98.1184 68.7998 111.202 69.8528 112.199C70.2159 112.534 73.5854 111.471 75.8366 110.431C78.4203 109.111 80.9317 107.653 83.36 106.065C85.7884 104.474 88.3241 103.054 90.9488 101.815C93.9988 100.52 97.4845 99.8721 98.9369 100.774C100.26 101.717 101.189 103.116 101.544 104.704C101.56 105.168 101.477 105.63 101.3 106.059C101.124 106.488 100.858 106.875 100.52 107.193C99.7407 108.309 99.0278 109.47 98.385 110.671C98.0645 111.319 97.617 111.896 97.0693 112.367C96.5216 112.839 95.8849 113.195 95.197 113.414C92.9386 114.921 88.7339 116.914 82.7137 119.549C78.3979 121.334 74.3831 123.776 70.8114 126.789C69.831 133.891 68.7199 141.073 69.1411 148.212C69.3372 151.53 69.9617 154.033 70.9421 155.722C79.6056 158.596 89.431 154.805 97.6298 152.083C98.7395 151.622 99.6821 150.833 100.331 149.82C101.261 148.583 102.052 147.855 102.706 147.637C105.734 145.942 107.927 147.964 109.292 153.75C109.74 155.712 109.542 157.767 108.726 159.607C108.399 160.494 107.884 161.299 107.217 161.967C106.551 162.635 105.747 163.151 104.863 163.479C93.7011 166.811 82.2707 169.839 70.5935 170.028C67.5622 170.109 64.5971 169.131 62.206 167.263C60.9587 166.363 59.9037 165.222 59.103 163.907C58.3023 162.592 57.7722 161.13 57.5438 159.607C56.2875 151.043 55.3652 142.587 55.7864 133.898C52.7581 133.171 51.4292 131.795 51.5309 129.772C51.589 128.783 52.2571 127.473 53.7095 125.916C55.1619 124.359 55.9825 123.005 56.0769 122.103C56.5852 117.009 56.2511 111.348 56.2439 105.97C50.3907 108.095 47.5295 107.651 47.3698 104.376C47.2536 101.306 48.8222 97.6018 52.1845 93.7232C55.2054 90.2376 58.7202 86.7157 61.8065 83.201C66.3362 77.9833 71.187 73.0546 76.3305 68.4436C81.4138 63.9757 86.5722 59.6096 91.8057 55.3454C92.4215 54.8901 93.0751 54.4884 93.7592 54.1447C96.7148 52.6238 100.295 52.1872 104.391 52.9804C104.683 53.8047 105.018 54.6135 105.393 55.4036C105.82 56.2507 106.105 57.163 106.235 58.1033C106.301 59.1796 105.968 60.2423 105.298 61.0868V61.0868Z" fill="#088DA3"/>
<path d="M123.591 52.5802C124.034 56.2186 124.383 60.0389 124.615 64.0121C125.399 77.4014 124.978 90.9362 124.651 104.318C124.317 117.86 123.925 131.475 124.717 144.996C124.91 148.348 125.152 151.625 125.443 154.827C124.673 158.698 122.611 161.019 119.321 161.732C114.615 162.758 111.849 161.077 111.137 156.762C110.402 152.168 109.908 147.538 109.655 142.893C108.871 129.794 109.496 116.616 110.019 103.532C110.541 90.4487 111.18 77.3359 110.403 64.3104C110.207 61.0431 109.895 57.8777 109.481 54.8506C109.881 53.5146 110.575 52.2859 111.513 51.2555C112.45 50.2251 113.608 49.4194 114.899 48.8981C116.937 48.0404 119.208 47.9069 121.333 48.5197C121.575 48.1348 121.903 47.811 122.291 47.5738C122.625 47.4501 122.872 48.0831 122.901 49.3129C122.877 50.2133 122.93 51.1142 123.061 52.0053C123.199 52.2891 123.366 52.5293 123.591 52.5802Z" fill="#088DA3"/>
<path d="M199.043 138.388C199.368 138.879 199.551 139.451 199.573 140.04C199.725 142.951 197.511 145.345 192.776 147.528C184.926 141.183 177.99 133.622 171.084 126.251C163.975 118.661 156.742 110.969 148.572 104.558C148.289 113.596 148.325 122.641 148.289 131.672C148.289 140.564 148.115 149.449 146.837 158.261C146.116 158.662 145.447 159.151 144.847 159.717C143.743 160.641 142.799 161.063 142.022 160.983C137.142 160.815 134.491 157.453 134.106 150.795C134.021 148.125 134.089 145.453 134.31 142.791C134.564 138.949 134.695 136.467 134.724 135.558C134.992 126.825 134.404 117.467 133.997 108.437C133.586 101.364 133.174 94.2908 132.763 87.2178C131.979 72.133 131.55 56.9972 132.632 41.9415C133.358 31.8995 142.85 26.9077 151.23 25.5251C157.562 24.4845 163.336 28.4358 167.01 33.5295C171.164 39.319 173.585 46.1747 173.989 53.2933C174.224 59.9625 172.645 66.5703 169.421 72.4095C166.487 77.9219 162.741 82.9605 158.31 87.3561C156.451 89.0443 155.558 90.6961 155.645 92.2679C155.74 93.9707 156.996 95.819 159.378 97.6746C161.143 99.0499 163.009 100.432 164.795 101.83C170.997 107.375 177.09 113.05 183.154 118.77C189.217 124.49 195.041 130.908 199.043 138.388ZM161.702 55.1635C161.929 53.0545 161.929 50.9271 161.702 48.8181C161.308 46.228 160.184 43.8045 158.463 41.8324C156.778 39.8895 154.2 39.2346 150.722 40.0204C148.107 40.6026 146.365 42.1307 145.98 44.1318C145.42 47.239 145.558 51.3286 145.798 55.5128C145.893 57.2083 146.335 61.5671 147.04 68.531C147.511 72.8983 147.753 77.2874 147.766 81.6801C153.866 73.974 160.547 65.5038 161.702 55.1635Z" fill="#088DA3"/>
<path d="M237.073 129.321C237.59 130.857 237.915 132.45 238.039 134.066C238.129 135.054 238.018 136.05 237.714 136.994C237.409 137.938 236.917 138.811 236.267 139.56C234.953 141.059 234.038 141.743 233.53 141.626C228.018 139.662 225.803 132.741 224.852 127.415C223.502 119.648 221.652 111.976 219.311 104.449C216.18 104.392 213.049 104.494 209.928 104.755C206.363 105.097 202.412 106.974 201.374 109.121C199.079 113.873 199.123 123.122 198.193 130.1C197.227 137.333 196.21 144.654 194.38 151.712C193.705 154.106 191.999 155.023 189.362 154.383C185.986 153.56 183.981 151.828 183.705 149.464C182.914 142.762 184.504 135.805 186.029 129.285C187.591 122.627 189.704 115.677 189.994 108.75C190.045 107.6 189.312 106.356 187.816 105.06C186.32 103.765 185.543 102.739 185.499 101.968C185.493 101.231 185.694 100.507 186.08 99.8794C186.501 99.1517 187.532 98.4677 189.195 97.9074C190.858 97.3471 191.73 96.6412 191.89 95.7244C194.518 84.0305 196.479 72.1475 198.534 60.3373C200.43 49.3566 202.303 38.2813 205.339 27.5043C205.825 25.8889 206.98 25.3213 208.781 25.8089C210.259 26.2911 211.536 27.2508 212.412 28.5377C215.367 32.5181 217.343 38.485 218.054 43.3605C218.781 48.3888 219.594 53.548 220.298 58.6418C225.062 82.3714 230.153 106.13 237.073 129.321ZM216.406 92.9737C215.829 87.7962 214.961 82.6554 213.806 77.576C212.673 72.5696 211.482 67.4758 210.386 62.4112C208.018 72.3294 206.188 82.3714 204.576 92.4498C206.072 92.166 210.146 92.1296 216.406 92.9737Z" fill="#088DA3"/>
<path d="M88.8501 218.804C88.7993 219.27 88.7702 219.794 88.7339 220.318C88.6976 220.842 88.5233 221.169 88.2692 221.22C87.3977 221.395 85.8437 221.562 83.9701 221.948C82.692 222.224 80.7458 222.748 78.1968 223.403C77.2165 223.563 74.6167 224.378 70.4629 225.688C70.3022 225.736 70.1306 225.731 69.9726 225.675C69.8147 225.619 69.6787 225.514 69.5842 225.375C68.8967 224.575 68.7394 223.423 69.1121 221.919C69.163 221.729 69.1702 221.475 69.2211 221.344C69.3074 221.238 69.4282 221.166 69.5624 221.14C71.8935 220.354 74.2899 219.474 76.6646 218.666C79.0697 217.938 81.5299 217.408 84.0209 217.08C84.4635 217.001 84.8985 216.884 85.3208 216.73C85.7287 216.587 86.1461 216.473 86.5699 216.388C86.8736 216.32 87.1876 216.313 87.4942 216.367C87.8007 216.42 88.0937 216.534 88.3563 216.701C88.8211 217.05 88.9591 217.764 88.8501 218.804Z" fill="white"/>
<path d="M109.793 178.178C109.793 181.212 109.721 184.276 109.597 187.325C109.04 199.011 109.166 210.72 109.975 222.392C110.143 225.956 110.607 229.5 111.362 232.987C111.504 233.452 111.511 233.948 111.382 234.417C111.253 234.885 110.995 235.308 110.636 235.635C110.307 235.906 109.889 236.044 109.464 236.024C109.039 236.004 108.636 235.827 108.334 235.526C107.865 235.052 107.553 234.445 107.441 233.787C106.913 231.472 106.561 229.119 106.388 226.75C105.981 222.428 105.603 218.018 105.494 213.652C105.494 213.478 105.494 213.303 105.494 213.128H105.269C105.11 213.856 104.95 214.511 104.797 215.195C104.125 218.444 103.242 221.645 102.154 224.778C101.601 226.403 100.855 227.954 99.9318 229.399C97.5353 232.936 94.5143 232.965 92.343 229.559C90.8898 227.047 90.0303 224.234 89.8304 221.337C89.3988 217.124 89.8793 212.867 91.2392 208.857C91.4353 208.275 91.6676 207.7 91.9146 207.139C93.6792 202.926 97.5498 199.95 102.081 200.656C103.396 200.852 103.396 200.852 103.599 199.201C104.427 192.28 105.051 185.375 105.589 178.411C105.625 177.872 105.661 177.334 105.727 176.795C105.901 175.478 106.591 174.518 107.528 174.263C108.465 174.008 109.321 174.634 109.663 175.886C109.803 176.641 109.847 177.411 109.793 178.178V178.178ZM102.038 205.277C98.69 204.724 96.5259 205.953 95.1534 209.388C94.8904 210.044 94.6649 210.715 94.478 211.396C93.7448 214.107 93.4578 216.918 93.6284 219.721C93.6932 221.263 93.9369 222.791 94.3546 224.276C94.5566 224.955 94.8216 225.612 95.1461 226.241C95.9595 227.747 96.2863 227.747 97.1795 226.241C97.6429 225.448 98.0295 224.612 98.3341 223.745C98.7844 222.45 99.2346 221.147 99.605 219.823C100.841 215.432 101.799 210.967 102.473 206.455C102.611 205.852 102.677 205.386 102.038 205.277Z" fill="white"/>
<path d="M128.399 203.676C128.627 209.177 127.648 214.662 125.53 219.743C124.786 221.573 123.786 223.288 122.56 224.837C122.154 225.339 121.715 225.813 121.246 226.256C118.53 228.73 115.683 228.169 114.136 224.902C113.623 223.768 113.28 222.564 113.119 221.329C113.004 220.486 112.759 219.667 112.393 218.899C111.333 216.716 111.253 214.227 111.536 211.673C111.946 208.001 112.87 204.404 114.281 200.991C115.004 199.103 116.084 197.373 117.462 195.897C119.503 193.823 121.63 193.27 123.882 194.398C126.496 195.715 127.825 198.262 128.282 201.675C128.362 202.322 128.37 203.014 128.399 203.676ZM124.274 202.002C124.18 201.385 123.954 200.796 123.614 200.274C123.273 199.752 122.825 199.309 122.299 198.975C121.195 198.342 120.541 198.473 119.554 199.63C118.381 200.964 117.624 202.614 117.375 204.374C116.692 208.609 116.449 212.904 116.649 217.189C116.692 217.916 116.801 218.993 116.939 219.99C117.029 220.845 117.275 221.677 117.665 222.443C118.058 223.134 118.326 223.17 118.965 222.705C119.398 222.349 119.781 221.938 120.105 221.482C121.088 220.142 121.882 218.673 122.466 217.116C123.535 214.286 124.204 211.32 124.455 208.304C124.732 206.209 124.67 204.084 124.274 202.009V202.002Z" fill="white"/>
<path d="M149.262 206.223C149.211 206.717 149.182 207.256 149.146 207.802C149.11 208.347 148.95 208.704 148.703 208.784C147.882 209.031 146.372 209.33 144.556 209.927C143.315 210.334 141.427 211.062 138.899 212.044C136.258 213.034 133.669 214.161 131.144 215.42C130.99 215.491 130.817 215.505 130.654 215.461C130.491 215.418 130.348 215.318 130.25 215.18C129.524 214.38 129.394 213.114 129.778 211.396C129.836 211.178 129.844 210.902 129.902 210.749C129.986 210.626 130.105 210.532 130.243 210.48C132.625 209.352 135.036 208.158 137.403 207.074C139.738 206.098 142.156 205.338 144.629 204.804C145.059 204.684 145.479 204.531 145.885 204.345C146.276 204.169 146.679 204.02 147.091 203.901C147.373 203.81 147.672 203.781 147.966 203.816C148.261 203.851 148.545 203.95 148.797 204.105C149.248 204.411 149.371 205.138 149.262 206.223Z" fill="white"/>
<path d="M55.9751 330.809C50.5954 333.468 45.0699 335.819 39.4251 337.853C34.0586 339.148 28.8009 340.378 23.2963 338.937C22.706 338.814 22.1533 338.552 21.6842 338.173C20.4061 337.198 19.1643 335.335 17.9588 332.642C16.1796 328.909 15.2501 326.981 15.1557 326.821C14.1535 315.084 14.0446 303.23 14.1027 291.507C14.1535 280.315 14.415 268.949 13.6379 257.728C13.3039 252.903 12.7956 248.319 12.1855 244.033C13.2313 243.16 14.6328 242.941 16.4193 243.385C19.8033 244.229 22.2288 246.187 22.6791 248.901C24.6471 259.984 24.0806 273.373 24.2985 285.598C24.5163 298.1 24.7269 310.637 25.809 323.103C29.1364 323.455 32.5007 323.106 35.6852 322.077C40.1078 320.745 43.4991 319.457 45.6051 319.028C46.4518 319.296 47.3188 319.496 48.1976 319.624C49.1299 319.76 50.0519 319.96 50.9571 320.221C51.9715 320.552 52.9047 321.094 53.6956 321.811C54.4865 322.528 55.1173 323.405 55.5467 324.383C56.941 327.265 57.079 329.47 55.9751 330.809Z" fill="#088DA3"/>
<path d="M62.8883 245.823C63.7235 249.039 64.4932 252.372 65.1613 255.858C67.3399 267.282 68.5018 278.962 69.6928 290.553C70.891 302.284 72.0674 314.094 74.3041 325.657C74.8706 328.618 75.4951 331.536 76.1559 334.389C75.8146 337.467 73.9773 338.755 70.7821 338.071C66.1707 337.096 63.2514 334.396 62.0677 330.438C60.884 326.479 59.8891 322.353 59.0395 318.067C56.9335 307.225 56.033 296.106 55.1035 285.089C54.174 274.072 53.3243 263.135 51.2256 252.321C50.681 249.52 50.0274 246.776 49.2939 244.098C49.9185 242.003 51.4725 240.846 53.9343 240.627C56.0918 240.478 58.2504 240.9 60.1941 241.85C60.4036 241.564 60.6987 241.352 61.0365 241.246C61.3488 241.21 61.6611 241.784 61.8281 242.861C61.9081 243.652 62.0613 244.434 62.2856 245.197C62.4181 245.462 62.6285 245.681 62.8883 245.823V245.823Z" fill="#088DA3"/>
<path d="M148.311 241.508C140.562 255.69 135.022 270.892 129.183 285.744C125.363 295.778 122.952 306.271 120.403 316.597C117.854 326.923 115.262 337.351 111.043 347.24C110.605 347.696 110.068 348.045 109.473 348.258C108.878 348.471 108.242 348.544 107.615 348.47C106.097 348.302 104.173 347.276 101.842 345.37C95.5455 329.201 91.8637 312.297 87.964 295.742C84.1588 279.595 80.1792 262.996 73.0044 247.511C74.3914 245.241 75.5679 244.135 76.5119 244.222C77.2999 243.824 78.1809 243.648 79.0609 243.713C80.7529 243.858 83.7013 245.568 87.9568 248.865C92.3467 259.075 95.9282 269.615 98.6681 280.388C101.471 291.099 104.02 302.218 106.758 313.068C111.057 300.435 115.204 287.599 119.524 275.134C123.944 262.186 129.136 249.516 135.072 237.193C136.779 234.362 139.662 233.321 143.707 234.02C144.339 234.223 144.9 234.601 145.326 235.112C145.646 235.431 146.029 235.68 146.45 235.843C146.872 236.006 147.322 236.079 147.774 236.058C148.761 236.058 149.226 236.785 149.226 238.241C149.178 239.386 148.865 240.505 148.311 241.508V241.508Z" fill="#088DA3"/>
<path d="M202.325 304.438C202.56 304.774 202.658 305.188 202.601 305.595C202.441 307.858 200.372 310.594 196.261 313.599C190.212 310.332 185.31 305.325 180.706 300.261C175.478 294.527 170.401 288.341 164.817 282.862C163.699 290.175 162.82 297.539 161.912 304.881C161.004 312.224 159.995 319.362 158.1 326.421C157.484 326.696 156.903 327.046 156.371 327.461C155.398 328.131 154.607 328.393 153.997 328.255C150.133 327.665 148.376 324.507 148.739 319.02C148.935 316.84 149.255 314.673 149.698 312.529C150.279 309.422 150.634 307.436 150.751 306.672C151.847 299.518 152.312 291.812 152.878 284.368C153.266 278.513 153.648 272.653 154.026 266.787C154.919 254.359 155.965 241.784 158.463 229.676C160.082 221.846 168.201 219.488 174.795 218.899C179.936 218.44 183.916 222.108 186.588 225.783C189.544 229.85 190.662 235.839 190.219 241.275C189.791 246.907 187.489 252.277 184.686 256.956C181.971 261.658 178.451 265.843 174.287 269.32C172.621 270.659 171.747 271.964 171.665 273.235C171.571 274.625 172.391 276.145 174.112 277.681C175.383 278.794 176.734 279.864 178.041 280.948C182.282 285.038 186.705 288.887 191.207 292.656C195.346 295.975 199.565 299.708 202.325 304.438ZM180.205 243.312C180.584 241.64 180.788 239.933 180.815 238.219C180.773 236.171 180.112 234.184 178.92 232.521C177.772 230.906 175.778 230.277 172.936 230.636C170.808 230.906 169.254 231.939 168.767 233.547C168.041 236.021 167.722 239.368 167.489 242.789C167.402 244.178 167.308 247.773 167.177 253.5C167.119 257.095 166.877 260.685 166.451 264.255C172.181 258.281 178.223 251.761 180.205 243.305V243.312Z" fill="#088DA3"/>
<path d="M243.421 227.58C243.334 247.788 240.835 269.131 232.724 285.569C231.91 287.136 230.975 288.637 229.928 290.059C225.338 296.44 219.035 294.105 213.269 291.303C207.583 286.937 204.635 277.943 203.102 270.04C200.408 256.127 200.604 241.479 201.374 227.485C201.819 220.983 202.847 214.534 204.446 208.216C206.174 201.427 208.142 197.003 210.451 195.118C211.017 194.607 211.735 194.298 212.494 194.238C213.254 194.179 214.011 194.373 214.649 194.791C216.101 195.635 219.652 195.446 224.772 193.932C228.795 192.739 231.947 193.976 234.358 197.57C238.259 203.241 241.008 209.625 242.448 216.359C243.152 220.057 243.478 223.816 243.421 227.58V227.58ZM232.789 225.746C230.32 216.09 227.611 211.382 224.801 211.818C224.38 211.912 223.995 212.124 223.69 212.43C222.775 213.354 221.896 215.974 221.097 220.318C220.197 225.244 219.347 228.541 218.636 229.989C218.164 230.949 217.278 231.32 215.963 230.949C214.649 230.578 213.785 230.534 213.472 230.833C213.197 231.113 213.014 231.471 212.95 231.859C210.771 239.863 211.149 248.93 212.855 257.422C214.191 264.051 216.138 268.992 218.665 271.852C222.143 275.782 224.692 276.713 226.101 274.974C230.836 269.109 232.23 259.38 233.239 251.077C234.191 243.116 234.931 234.151 232.789 225.746Z" fill="#088DA3"/>
<path d="M160.373 410.708C159.271 412.688 157.663 414.337 155.714 415.488C153.765 416.639 151.546 417.25 149.284 417.257H24.8138C21.4444 417.248 18.2156 415.902 15.8331 413.515C13.4505 411.127 12.1077 407.892 12.0981 404.515V392.662C12.1077 389.285 13.4505 386.05 15.8331 383.662C18.2156 381.275 21.4444 379.929 24.8138 379.92H149.284" fill="#063163"/>
<path d="M149.284 418.13H24.8142C21.2138 418.127 17.762 416.692 15.2161 414.141C12.6702 411.589 11.2382 408.131 11.2344 404.523V392.662C11.2382 389.054 12.6702 385.595 15.2161 383.044C17.762 380.493 21.2138 379.058 24.8142 379.054H149.284V380.786H24.8142C21.6722 380.79 18.66 382.042 16.4382 384.268C14.2164 386.495 12.9666 389.513 12.9627 392.662V404.464C12.9666 407.613 14.2164 410.631 16.4382 412.858C18.66 415.084 21.6722 416.336 24.8142 416.34H149.284C151.391 416.335 153.459 415.769 155.276 414.7C157.093 413.631 158.594 412.098 159.625 410.257L161.128 411.108C159.953 413.226 158.236 414.992 156.155 416.226C154.074 417.46 151.702 418.117 149.284 418.13V418.13Z" fill="white"/>
<path d="M179.443 416.362H179.312C179.124 416.352 178.947 416.268 178.818 416.129L171.556 408.074L166.226 414.834C166.141 414.936 166.031 415.012 165.906 415.055C165.781 415.099 165.646 415.107 165.517 415.079C165.388 415.051 165.268 414.989 165.172 414.898C165.076 414.808 165.006 414.692 164.97 414.565L158.601 388.63C158.567 388.501 158.569 388.364 158.608 388.236C158.646 388.107 158.719 387.992 158.819 387.903L158.884 387.844C158.981 387.757 159.1 387.697 159.228 387.672C159.355 387.646 159.488 387.656 159.611 387.699L184.744 396.606C184.868 396.654 184.976 396.735 185.057 396.84C185.138 396.945 185.188 397.07 185.203 397.202C185.218 397.334 185.197 397.467 185.142 397.588C185.086 397.709 184.999 397.812 184.889 397.886L177.562 402.587L184.759 410.752C184.881 410.893 184.944 411.077 184.934 411.264C184.925 411.451 184.844 411.627 184.708 411.756L179.857 416.122C179.75 416.247 179.604 416.331 179.443 416.362V416.362ZM179.399 414.645L183.197 411.196L175.935 402.936C175.868 402.859 175.818 402.769 175.788 402.671C175.758 402.573 175.749 402.47 175.761 402.369C175.775 402.266 175.811 402.167 175.866 402.08C175.921 401.992 175.994 401.917 176.081 401.859L182.885 397.493L160.293 389.489L166.016 412.811L170.961 406.531C171.076 406.385 171.242 406.289 171.426 406.262H171.498C171.602 406.26 171.705 406.281 171.8 406.322C171.896 406.363 171.981 406.425 172.05 406.502L179.37 414.645" fill="white"/>
<path d="M159.763 384.606C159.591 384.627 159.419 384.579 159.283 384.472C159.147 384.366 159.058 384.21 159.037 384.038L158.463 379.862C158.451 379.776 158.456 379.689 158.478 379.605C158.499 379.522 158.537 379.443 158.589 379.374C158.641 379.306 158.706 379.248 158.78 379.204C158.855 379.16 158.937 379.131 159.022 379.119C159.107 379.107 159.194 379.112 159.278 379.134C159.361 379.156 159.439 379.194 159.508 379.246C159.577 379.298 159.635 379.363 159.679 379.437C159.722 379.512 159.751 379.594 159.763 379.68L160.329 383.864C160.352 384.037 160.305 384.213 160.199 384.352C160.093 384.491 159.936 384.583 159.763 384.606V384.606Z" fill="white"/>
<path d="M156.807 385.858C156.693 385.872 156.577 385.857 156.47 385.814C156.363 385.77 156.269 385.7 156.197 385.61L153.619 382.27C153.513 382.132 153.466 381.958 153.489 381.785C153.511 381.613 153.601 381.456 153.739 381.35C153.877 381.244 154.051 381.197 154.223 381.219C154.395 381.242 154.552 381.332 154.658 381.47L157.236 384.81C157.305 384.901 157.35 385.008 157.365 385.122C157.381 385.236 157.366 385.351 157.322 385.457C157.279 385.563 157.209 385.656 157.118 385.726C157.028 385.797 156.921 385.842 156.807 385.858V385.858Z" fill="white"/>
<path d="M154.846 388.441C154.733 388.455 154.618 388.44 154.512 388.397L150.613 386.796C150.527 386.769 150.447 386.724 150.379 386.665C150.311 386.605 150.256 386.532 150.218 386.45C150.18 386.368 150.159 386.279 150.156 386.188C150.154 386.098 150.171 386.008 150.205 385.924C150.239 385.84 150.291 385.764 150.355 385.701C150.42 385.638 150.498 385.59 150.582 385.558C150.667 385.527 150.757 385.513 150.848 385.518C150.938 385.523 151.026 385.547 151.107 385.589L155.006 387.182C155.166 387.25 155.293 387.378 155.36 387.538C155.426 387.699 155.427 387.88 155.362 388.041C155.319 388.147 155.249 388.241 155.158 388.311C155.068 388.381 154.96 388.426 154.846 388.441V388.441Z" fill="white"/>
<path d="M154.44 391.657L150.264 392.225C150.177 392.243 150.086 392.242 149.999 392.224C149.911 392.205 149.828 392.169 149.756 392.117C149.683 392.065 149.621 391.998 149.575 391.922C149.529 391.845 149.499 391.759 149.487 391.671C149.475 391.582 149.481 391.491 149.506 391.405C149.53 391.319 149.572 391.239 149.628 391.169C149.685 391.1 149.755 391.043 149.834 391.001C149.914 390.96 150.001 390.936 150.09 390.93L154.258 390.362C154.345 390.345 154.435 390.346 154.522 390.365C154.609 390.384 154.691 390.42 154.763 390.472C154.835 390.523 154.896 390.589 154.942 390.665C154.988 390.741 155.018 390.826 155.031 390.914C155.043 391.002 155.037 391.092 155.014 391.177C154.991 391.263 154.95 391.343 154.895 391.413C154.839 391.482 154.771 391.54 154.692 391.582C154.614 391.624 154.528 391.65 154.44 391.657Z" fill="white"/>
<path d="M152.356 397.239C152.214 397.253 152.072 397.222 151.95 397.149C151.827 397.076 151.732 396.966 151.677 396.834C151.623 396.703 151.612 396.557 151.646 396.419C151.681 396.281 151.759 396.157 151.869 396.067L155.203 393.484C155.34 393.378 155.513 393.331 155.684 393.353C155.856 393.375 156.011 393.464 156.118 393.6C156.171 393.668 156.21 393.745 156.233 393.828C156.256 393.911 156.262 393.998 156.252 394.083C156.241 394.168 156.213 394.251 156.17 394.325C156.127 394.4 156.07 394.465 156.001 394.517L152.668 397.108C152.578 397.179 152.47 397.225 152.356 397.239V397.239Z" fill="white"/>
<path d="M165.573 386.978C165.429 386.999 165.282 386.972 165.156 386.9C165.03 386.828 164.931 386.716 164.875 386.582C164.82 386.448 164.81 386.298 164.848 386.158C164.886 386.018 164.97 385.894 165.086 385.807L168.419 383.224C168.557 383.117 168.731 383.07 168.903 383.093C169.076 383.115 169.232 383.206 169.338 383.344C169.444 383.482 169.491 383.656 169.468 383.829C169.446 384.001 169.356 384.158 169.218 384.264L165.892 386.84C165.801 386.916 165.69 386.964 165.573 386.978V386.978Z" fill="white"/>
<path d="M163.002 385.014C162.889 385.028 162.774 385.013 162.668 384.97C162.588 384.938 162.516 384.891 162.455 384.83C162.394 384.77 162.345 384.698 162.312 384.619C162.279 384.54 162.262 384.455 162.262 384.369C162.262 384.283 162.279 384.198 162.312 384.119L163.91 380.211C163.937 380.125 163.982 380.045 164.041 379.977C164.101 379.909 164.174 379.854 164.256 379.815C164.337 379.777 164.426 379.756 164.517 379.754C164.607 379.752 164.697 379.768 164.78 379.802C164.864 379.837 164.94 379.888 165.002 379.953C165.065 380.018 165.114 380.096 165.145 380.181C165.177 380.265 165.19 380.356 165.185 380.446C165.18 380.537 165.156 380.625 165.115 380.706L163.525 384.613C163.48 384.72 163.408 384.813 163.316 384.883C163.225 384.954 163.116 384.998 163.002 385.014V385.014Z" fill="white"/>
<path d="M32.3445 391.483H30.5581V390.144C30.7576 389.967 30.9741 389.811 31.2044 389.678C31.4566 389.559 31.7161 389.457 31.9814 389.372C32.329 389.263 32.692 389.211 33.0562 389.22C33.4901 389.182 33.9251 389.276 34.3053 389.489C34.5267 389.627 34.6896 389.842 34.7628 390.093L39.2144 407.026C39.2144 407.121 39.2507 407.15 39.316 407.135C39.3282 407.134 39.34 407.13 39.3503 407.123C39.3607 407.116 39.3693 407.107 39.3757 407.097C39.382 407.086 39.3858 407.074 39.3868 407.062C39.3878 407.05 39.3859 407.037 39.3814 407.026L43.8911 390.093C44.0145 389.598 44.1888 389.365 44.3921 389.329C44.7467 389.341 45.095 389.425 45.4161 389.576C45.6848 389.678 45.9026 389.758 46.0624 389.802C46.1951 389.834 46.3206 389.891 46.4327 389.969C46.4737 390.004 46.5062 390.047 46.5276 390.097C46.549 390.146 46.5588 390.199 46.5562 390.253C46.5445 390.448 46.5079 390.642 46.4473 390.828L41.7197 407.943C41.6749 408.145 41.6117 408.342 41.5309 408.532C41.4234 408.796 41.2765 409.041 41.0952 409.26C40.8731 409.506 40.5937 409.694 40.2819 409.806C39.9667 409.915 39.635 409.969 39.3015 409.966H38.8948C38.8515 409.96 38.8075 409.96 38.7641 409.966C38.5146 409.928 38.2707 409.859 38.0379 409.762C37.8006 409.651 37.5919 409.486 37.4279 409.282C37.2519 409.059 37.1054 408.814 36.9922 408.554C36.9146 408.363 36.8515 408.166 36.8034 407.965L32.3445 391.483Z" fill="white"/>
<path d="M54.4139 409.667H50.1729C49.9776 409.673 49.7824 409.653 49.592 409.609C49.5329 409.6 49.4765 409.579 49.4264 409.546C49.3763 409.513 49.3338 409.47 49.3015 409.42C49.2419 409.308 49.2096 409.183 49.2071 409.056C49.2071 408.903 49.2071 408.7 49.2071 408.445C49.1856 408.158 49.2277 407.87 49.3305 407.601C49.4104 407.455 49.7009 407.383 50.1875 407.383H52.7437V391.643H50.1439C49.9493 391.647 49.7547 391.633 49.5629 391.599C49.5052 391.595 49.4495 391.577 49.4002 391.546C49.3509 391.516 49.3096 391.474 49.2797 391.424C49.2173 391.313 49.1825 391.188 49.178 391.061C49.178 390.901 49.178 390.697 49.178 390.442C49.1577 390.151 49.1973 389.859 49.2942 389.583C49.3814 389.431 49.6646 389.358 50.1511 389.358H58.0013C58.4879 389.358 58.7711 389.431 58.851 389.583C58.955 389.857 58.9971 390.15 58.9744 390.442C58.9744 390.697 58.9744 390.901 58.9744 391.061C58.9753 391.188 58.9427 391.314 58.88 391.424C58.8501 391.474 58.8088 391.516 58.7595 391.546C58.7103 391.577 58.6545 391.595 58.5968 391.599C58.4051 391.633 58.2105 391.647 58.0158 391.643H55.3362V407.383H57.9723C58.4588 407.383 58.7493 407.455 58.8292 407.601C58.932 407.87 58.9742 408.158 58.9526 408.445C58.9526 408.7 58.9526 408.903 58.9526 409.056C58.9468 409.183 58.9146 409.307 58.8582 409.42C58.826 409.47 58.7834 409.513 58.7333 409.546C58.6832 409.579 58.6268 409.6 58.5678 409.609C58.3774 409.653 58.1821 409.673 57.9868 409.667H54.4139Z" fill="white"/>
<path d="M73.3457 401.335C73.6144 402.005 73.9048 402.718 74.2026 403.475C74.5003 404.232 74.7835 404.93 75.0595 405.6C75.3354 406.269 75.5751 406.837 75.7857 407.324C75.922 407.65 76.0747 407.968 76.2432 408.278H77.7028V409.478C77.7028 409.478 77.4559 409.544 77.0275 409.682C76.4783 409.827 75.9071 409.869 75.3427 409.806C74.9951 409.769 74.6549 409.681 74.3333 409.544C74.0773 409.462 73.857 409.295 73.7088 409.071C73.6361 408.94 73.4836 408.627 73.2585 408.117C73.0334 407.608 72.772 406.997 72.4742 406.276C72.1765 405.556 71.857 404.821 71.5229 403.977C71.1889 403.133 70.8766 402.376 70.5861 401.634H70.1795C69.3806 401.634 68.7271 401.634 68.2332 401.568C67.7394 401.503 67.3836 401.481 67.1875 401.445C66.7143 401.337 66.2872 401.083 65.9675 400.717V408.67C65.9722 408.868 65.9576 409.065 65.9239 409.26C65.9156 409.317 65.8959 409.371 65.8659 409.42C65.836 409.469 65.7964 409.511 65.7497 409.544C65.6253 409.605 65.4888 409.637 65.3502 409.638H64.624H63.985C63.8466 409.64 63.7105 409.602 63.5929 409.529C63.5005 409.458 63.4341 409.358 63.404 409.245C63.36 409.057 63.3405 408.864 63.3459 408.67V391.206C62.4455 391.097 61.9517 390.893 61.8936 390.609V389.3H70.7967C72.8228 389.3 74.326 389.751 75.2919 390.66C76.2577 391.57 76.7443 392.938 76.7443 394.772V396.351C76.7443 399.058 75.6114 400.719 73.3457 401.335ZM70.6006 399.152C71.528 399.22 72.445 398.922 73.1569 398.323C73.4588 398.009 73.6917 397.635 73.8405 397.225C73.9894 396.815 74.0509 396.378 74.021 395.943V394.99C74.0491 394.554 73.9882 394.117 73.8421 393.705C73.6961 393.294 73.4678 392.916 73.1714 392.596C72.4596 391.985 71.5352 391.682 70.6006 391.752H65.9893V398.803C66.5122 398.912 67.0205 399 67.5216 399.072C68.0484 399.147 68.5799 399.183 69.1119 399.182L70.6006 399.152Z" fill="white"/>
<path d="M79.7651 391.643C79.5681 391.647 79.3711 391.633 79.1769 391.599C79.1194 391.594 79.0638 391.576 79.0147 391.545C78.9655 391.515 78.9241 391.474 78.8937 391.424C78.8341 391.312 78.8018 391.188 78.7993 391.061C78.7993 390.901 78.7993 390.697 78.7993 390.442C78.7805 390.15 78.8225 389.858 78.9228 389.583C79.0026 389.431 79.2859 389.358 79.7797 389.358H92.3574C92.8512 389.358 93.1344 389.431 93.2143 389.583C93.3146 389.858 93.3566 390.15 93.3377 390.442C93.3377 390.697 93.3377 390.901 93.3377 391.061C93.3353 391.188 93.3029 391.312 93.2433 391.424C93.2122 391.473 93.1705 391.514 93.1215 391.544C93.0725 391.574 93.0174 391.593 92.9601 391.599C92.7659 391.633 92.5689 391.647 92.3719 391.643H87.2885V408.671C87.3069 408.867 87.3069 409.064 87.2885 409.26C87.2802 409.317 87.2605 409.371 87.2305 409.42C87.2006 409.469 87.161 409.511 87.1142 409.544C86.9899 409.605 86.8534 409.637 86.7148 409.638H85.9886H85.3496C85.2112 409.64 85.0751 409.602 84.9574 409.529C84.8629 409.46 84.796 409.359 84.7686 409.245C84.7246 409.057 84.7051 408.864 84.7105 408.671V391.643H79.7651Z" fill="white"/>
<path d="M109.437 404.632C109.381 405.396 109.167 406.14 108.808 406.816C108.449 407.493 107.954 408.087 107.353 408.561C105.992 409.533 104.337 410.001 102.669 409.886C101.003 409.941 99.3612 409.476 97.9709 408.554C97.3691 408.082 96.8722 407.49 96.512 406.814C96.1519 406.139 95.9364 405.396 95.8794 404.632C95.786 403.937 95.7399 403.237 95.7415 402.536V390.333C95.7353 390.147 95.7524 389.961 95.7923 389.78C95.8184 389.659 95.8851 389.552 95.9811 389.474C96.1034 389.407 96.2409 389.372 96.3805 389.372C96.5475 389.372 96.7654 389.372 97.0196 389.372C97.2737 389.372 97.5642 389.372 97.7458 389.372C97.8824 389.37 98.0174 389.402 98.1379 389.467C98.1874 389.497 98.2291 389.538 98.2594 389.588C98.2897 389.637 98.3078 389.693 98.3122 389.751C98.3459 389.943 98.3605 390.138 98.3558 390.333V401.976C98.3558 402.522 98.3558 403.046 98.4211 403.555C98.4665 404.044 98.5392 404.53 98.639 405.01C98.7259 405.425 98.8884 405.819 99.1183 406.175C99.6104 406.694 100.244 407.056 100.941 407.215C101.705 407.432 102.504 407.501 103.294 407.419C104.066 407.348 104.812 407.099 105.472 406.691C106.096 406.327 106.562 405.744 106.78 405.054C106.883 404.622 106.941 404.181 106.954 403.737C106.983 403.198 106.997 402.449 106.997 401.488V390.333C106.991 390.147 107.008 389.961 107.048 389.78C107.075 389.658 107.144 389.549 107.244 389.474C107.364 389.406 107.499 389.371 107.637 389.372C107.811 389.372 108.021 389.372 108.276 389.372C108.53 389.372 108.82 389.372 109.002 389.372C109.139 389.369 109.274 389.401 109.394 389.467C109.443 389.497 109.485 389.538 109.515 389.588C109.546 389.637 109.564 389.693 109.568 389.751C109.602 389.943 109.616 390.138 109.612 390.333V401.525C109.611 402.563 109.553 403.6 109.437 404.632V404.632Z" fill="white"/>
<path d="M114.463 409.042C114.296 409.515 114.107 409.769 113.889 409.769C113.546 409.776 113.206 409.714 112.887 409.587L112.233 409.376C112.106 409.338 111.989 409.271 111.892 409.18C111.86 409.135 111.837 409.084 111.826 409.031C111.814 408.977 111.815 408.921 111.827 408.867C111.861 408.668 111.915 408.473 111.987 408.285L117.912 390.478C117.97 390.297 118.043 390.1 118.13 389.896C118.182 389.733 118.287 389.592 118.428 389.496C118.548 389.456 118.672 389.429 118.798 389.416C118.951 389.416 119.118 389.416 119.299 389.416H121.325C121.508 389.411 121.69 389.449 121.856 389.525C121.995 389.623 122.099 389.764 122.153 389.925C122.24 390.129 122.313 390.326 122.371 390.508L128.399 408.343H129.895V409.544L129.219 409.747C128.669 409.89 128.098 409.929 127.534 409.864C127.212 409.836 126.897 409.75 126.605 409.609C126.379 409.511 126.19 409.343 126.067 409.129C125.973 408.954 125.85 408.663 125.683 408.263C125.516 407.863 125.334 407.383 125.131 406.808C124.927 406.233 124.695 405.636 124.448 404.945C124.201 404.253 123.954 403.54 123.722 402.762H116.605L114.463 409.042ZM120.113 391.264C120.04 391.519 119.931 391.876 119.771 392.349L119.256 393.928C119.067 394.51 118.871 395.121 118.66 395.754C118.45 396.387 118.254 396.999 118.065 397.581C117.876 398.163 117.702 398.694 117.556 399.174C117.411 399.655 117.317 400.018 117.259 400.273H122.916C122.712 399.618 122.531 399.014 122.371 398.461C122.204 397.908 122.023 397.304 121.812 396.649C121.601 395.994 121.369 395.245 121.086 394.393C120.803 393.542 120.548 392.494 120.113 391.264Z" fill="white"/>
<path d="M133.075 409.624C132.904 409.612 132.741 409.546 132.61 409.435C132.495 409.316 132.423 409.162 132.407 408.998C132.382 408.756 132.37 408.513 132.371 408.27V390.333C132.365 390.147 132.382 389.961 132.422 389.78C132.448 389.659 132.514 389.552 132.61 389.474C132.733 389.407 132.87 389.372 133.01 389.372C133.177 389.372 133.395 389.372 133.649 389.372C133.903 389.372 134.194 389.372 134.375 389.372C134.512 389.371 134.646 389.403 134.767 389.467C134.815 389.498 134.854 389.54 134.882 389.589C134.91 389.639 134.925 389.694 134.927 389.751C134.941 389.945 134.941 390.139 134.927 390.333V407.215H143.38C143.867 407.215 144.157 407.295 144.237 407.448C144.338 407.722 144.38 408.015 144.36 408.307C144.36 408.561 144.36 408.772 144.36 408.947C144.354 409.092 144.322 409.235 144.266 409.369C144.203 409.481 144.099 409.565 143.975 409.602C143.786 409.653 143.59 409.675 143.395 409.667H133.881C133.612 409.671 133.343 409.657 133.075 409.624V409.624Z" fill="white"/>
<path d="M355.173 92.4299C350.322 126.929 250.47 74.3107 250.47 74.3107C302.822 49.3003 359.53 57.494 355.173 92.4299ZM292.154 24.188C302.321 28.0666 303.773 39.7095 292.64 46.6079C281.493 53.077 251.436 47.9031 251.436 47.9031C269.373 23.7296 282.459 20.7316 292.154 24.188ZM280.535 102.959C295.059 109.858 306.714 126.245 295.567 131.419C284.899 136.593 275.233 123.655 266.962 113.736C262.397 108.171 257.549 102.845 252.438 97.7783C252.438 97.7783 265.495 95.6244 280.52 102.959H280.535Z" fill="white"/>
</g>
<defs>
<clipPath id="clip0">
<rect width="355.277" height="395.101" fill="white" transform="translate(0 23)"/>
</clipPath>
</defs>
</svg>
