<svg width="1069" height="187" viewBox="0 0 1069 187" fill="none" xmlns="http://www.w3.org/2000/svg">
<path d="M1025 85.2479C1023.05 88.8001 1020.19 91.7608 1016.74 93.8261C1013.28 95.8915 1009.34 96.9869 1005.33 97H784.554C778.578 96.9828 772.851 94.5683 768.625 90.2842C764.399 86 762.017 80.1943 762 74.1356V52.8644C762.017 46.8057 764.399 41 768.625 36.7159C772.851 32.4317 778.578 30.0172 784.554 30H1005.33" fill="#003366"/>
<path d="M1004.98 98H784.099C777.709 97.9932 771.584 95.4595 767.066 90.9548C762.548 86.4502 760.007 80.3426 760 73.9721V53.0279C760.007 46.6574 762.548 40.5498 767.066 36.0452C771.584 31.5405 777.709 29.0068 784.099 29H1004.98V32.0581H784.099C778.523 32.0649 773.177 34.2764 769.235 38.2075C765.292 42.1387 763.074 47.4685 763.067 53.0279V73.8692C763.074 79.4287 765.292 84.7586 769.235 88.6897C773.177 92.6208 778.523 94.8323 784.099 94.8391H1004.98C1008.72 94.8294 1012.39 93.8298 1015.61 91.9425C1018.84 90.0551 1021.5 87.3477 1023.33 84.0972L1026 85.6005C1023.91 89.3398 1020.87 92.4587 1017.17 94.6375C1013.48 96.8164 1009.27 97.9769 1004.98 98V98Z" fill="white"/>
<path d="M1058.83 95H1058.59C1058.26 94.9816 1057.95 94.8332 1057.72 94.5863L1044.91 80.274L1035.5 92.2849C1035.35 92.4655 1035.15 92.6015 1034.93 92.6783C1034.71 92.755 1034.48 92.7695 1034.25 92.7203C1034.02 92.6711 1033.81 92.56 1033.64 92.399C1033.47 92.238 1033.35 92.0331 1033.28 91.8065L1022.04 45.7279C1021.98 45.4976 1021.99 45.255 1022.05 45.0269C1022.12 44.7987 1022.25 44.5939 1022.43 44.435L1022.54 44.3316C1022.71 44.1765 1022.92 44.0706 1023.15 44.0251C1023.37 43.9796 1023.61 43.9962 1023.82 44.073L1068.18 59.898C1068.4 59.9832 1068.59 60.127 1068.73 60.3138C1068.88 60.5005 1068.97 60.7232 1068.99 60.9575C1069.02 61.1919 1068.98 61.4291 1068.88 61.6434C1068.79 61.8578 1068.63 62.0411 1068.44 62.1735L1055.51 70.5256L1068.21 85.0318C1068.42 85.2837 1068.53 85.6097 1068.52 85.942C1068.5 86.2743 1068.36 86.5874 1068.12 86.816L1059.56 94.5733C1059.37 94.7947 1059.11 94.9451 1058.83 95V95ZM1058.75 91.9488L1065.45 85.8204L1052.64 71.1461C1052.52 71.0093 1052.43 70.8488 1052.37 70.675C1052.32 70.5013 1052.31 70.3182 1052.33 70.1377C1052.35 69.955 1052.42 69.7797 1052.51 69.6236C1052.61 69.4675 1052.74 69.3343 1052.89 69.2327L1064.9 61.4753L1025.03 47.2535L1035.13 88.6907L1043.86 77.533C1044.06 77.2737 1044.35 77.1026 1044.68 77.0547H1044.8C1044.99 77.0514 1045.17 77.0878 1045.34 77.1614C1045.51 77.235 1045.66 77.3441 1045.78 77.4813L1058.7 91.9488" fill="#003366"/>
<path d="M1014.03 51.0774L1007.27 51.9793C1007.13 52.0076 1006.98 52.0069 1006.84 51.9773C1006.7 51.9477 1006.56 51.8898 1006.44 51.8072C1006.33 51.7247 1006.23 51.6191 1006.15 51.4972C1006.08 51.3753 1006.03 51.2395 1006.01 51.0984C1005.99 50.9573 1006 50.8137 1006.04 50.6766C1006.08 50.5396 1006.15 50.4119 1006.24 50.3016C1006.33 50.1912 1006.44 50.1005 1006.57 50.0351C1006.7 49.9696 1006.84 49.9308 1006.99 49.9211L1013.74 49.0192C1013.88 48.9922 1014.03 48.9937 1014.17 49.0236C1014.31 49.0535 1014.44 49.1113 1014.56 49.1933C1014.67 49.2753 1014.77 49.3799 1014.85 49.5007C1014.92 49.6215 1014.97 49.756 1014.99 49.8959C1015.01 50.0358 1015 50.1783 1014.96 50.3146C1014.92 50.451 1014.86 50.5783 1014.77 50.6888C1014.68 50.7994 1014.57 50.8908 1014.44 50.9576C1014.32 51.0244 1014.18 51.0652 1014.03 51.0774Z" fill="white"/>
<path d="M1011.26 60.9936C1011.02 61.0202 1010.77 60.9639 1010.56 60.833C1010.35 60.7021 1010.18 60.5037 1010.09 60.2671C1009.99 60.0306 1009.97 59.7686 1010.03 59.5201C1010.09 59.2717 1010.23 59.0499 1010.42 58.8879L1016.18 54.245C1016.42 54.0549 1016.71 53.9702 1017.01 54.0094C1017.31 54.0486 1017.58 54.2086 1017.76 54.4543C1017.85 54.5757 1017.92 54.7149 1017.96 54.864C1018 55.013 1018.01 55.1687 1017.99 55.3221C1017.97 55.4755 1017.92 55.6235 1017.85 55.7575C1017.78 55.8914 1017.68 56.0086 1017.56 56.1022L1011.8 60.7582C1011.64 60.8869 1011.46 60.9684 1011.26 60.9936V60.9936Z" fill="white"/>
<path d="M797.238 51.0488H794V48.6619C794.362 48.3475 794.754 48.0694 795.172 47.8316C795.629 47.6201 796.099 47.4382 796.58 47.2867C797.21 47.0916 797.868 46.9996 798.528 47.0143C799.315 46.9477 800.103 47.1149 800.792 47.4943C801.194 47.7405 801.489 48.1238 801.622 48.571L809.691 78.7587C809.691 78.9273 809.757 78.9792 809.875 78.9533C809.897 78.9509 809.919 78.9434 809.937 78.9315C809.956 78.9197 809.972 78.9037 809.983 78.8849C809.995 78.8661 810.002 78.8449 810.003 78.823C810.005 78.8011 810.002 78.7791 809.994 78.7587L818.168 48.571C818.392 47.6889 818.708 47.2738 819.077 47.2089C819.719 47.2303 820.351 47.3804 820.933 47.65C821.42 47.8316 821.815 47.9743 822.104 48.0521C822.345 48.1101 822.572 48.2112 822.775 48.3505C822.85 48.4122 822.909 48.4899 822.947 48.5777C822.986 48.6654 823.004 48.7608 822.999 48.8564C822.978 49.2049 822.912 49.5494 822.802 49.8813L814.232 80.3933C814.151 80.7531 814.037 81.1049 813.89 81.444C813.695 81.9135 813.429 82.3509 813.1 82.7413C812.698 83.1803 812.191 83.5145 811.626 83.7143C811.055 83.9093 810.453 84.0058 809.849 83.9997H809.112C809.033 83.9889 808.953 83.9889 808.875 83.9997C808.423 83.9323 807.98 83.8102 807.558 83.6365C807.128 83.4381 806.75 83.1452 806.453 82.7803C806.134 82.3834 805.868 81.9473 805.663 81.483C805.522 81.1417 805.408 80.7904 805.321 80.4322L797.238 51.0488Z" fill="white"/>
<path d="M837.085 82.9985H829.733C829.395 83.008 829.057 82.9733 828.726 82.8953C828.624 82.8791 828.526 82.8409 828.44 82.7831C828.353 82.7253 828.279 82.6493 828.223 82.56C828.12 82.3612 828.064 82.1402 828.059 81.9151C828.059 81.6442 828.059 81.283 828.059 80.8316C828.022 80.3228 828.095 79.8119 828.273 79.3355C828.412 79.0775 828.915 78.9485 829.759 78.9485H834.189V51.05H829.683C829.346 51.0583 829.008 51.0324 828.676 50.9726C828.576 50.9648 828.479 50.9327 828.394 50.8788C828.309 50.825 828.237 50.751 828.185 50.663C828.077 50.4656 828.017 50.2444 828.009 50.0181C828.009 49.7344 828.009 49.3733 828.009 48.9218C827.974 48.4057 828.042 47.8877 828.21 47.3998C828.361 47.129 828.852 47 829.696 47H843.303C844.146 47 844.637 47.129 844.776 47.3998C844.956 47.8847 845.029 48.4045 844.99 48.9218C844.99 49.3733 844.99 49.7344 844.99 50.0181C844.991 50.2441 844.935 50.4665 844.826 50.663C844.774 50.751 844.703 50.825 844.617 50.8788C844.532 50.9327 844.435 50.9648 844.335 50.9726C844.003 51.0324 843.665 51.0583 843.328 51.05H838.683V78.9485H843.253C844.096 78.9485 844.599 79.0775 844.738 79.3355C844.916 79.8119 844.989 80.3228 844.952 80.8316C844.952 81.283 844.952 81.6442 844.952 81.9151C844.942 82.1394 844.886 82.359 844.788 82.56C844.732 82.6493 844.658 82.7253 844.572 82.7831C844.485 82.8409 844.387 82.8791 844.285 82.8953C843.955 82.9733 843.616 83.008 843.278 82.9985H837.085Z" fill="white"/>
<path d="M870.283 68.1003C870.759 69.274 871.273 70.5242 871.801 71.851C872.328 73.1777 872.83 74.4024 873.318 75.5761C873.807 76.7498 874.232 77.7448 874.605 78.5996C874.846 79.1699 875.116 79.7276 875.415 80.2707H878V82.3756C878 82.3756 877.563 82.4905 876.804 82.7329C875.831 82.9874 874.82 83.0609 873.82 82.9497C873.204 82.8858 872.602 82.7311 872.032 82.4905C871.579 82.3474 871.188 82.0548 870.926 81.6612C870.797 81.4316 870.527 80.883 870.129 79.99C869.73 79.097 869.267 78.0255 868.74 76.7625C868.212 75.4996 867.646 74.211 867.055 72.7312C866.463 71.2514 865.91 69.9247 865.395 68.6234H864.675C863.26 68.6234 862.103 68.6234 861.228 68.5086C860.354 68.3938 859.723 68.3555 859.376 68.2917C858.538 68.1037 857.782 67.6571 857.215 67.016V80.9596C857.224 81.3057 857.198 81.6518 857.138 81.9929C857.124 82.0923 857.089 82.1876 857.036 82.2732C856.982 82.3587 856.912 82.4327 856.83 82.4905C856.609 82.5978 856.368 82.6544 856.122 82.6563H854.836H853.704C853.459 82.6595 853.218 82.5931 853.01 82.4649C852.846 82.3401 852.729 82.1652 852.675 81.9674C852.597 81.6373 852.563 81.2985 852.572 80.9596V50.3424C850.977 50.151 850.103 49.7938 850 49.2963V47H865.768C869.357 47 872.019 47.7909 873.73 49.3856C875.441 50.9802 876.302 53.3786 876.302 56.5934V59.3617C876.302 64.1074 874.296 67.0202 870.283 68.1003ZM865.421 64.2732C867.064 64.3912 868.688 63.8695 869.949 62.8189C870.483 62.2682 870.896 61.6124 871.159 60.8939C871.423 60.1754 871.532 59.4101 871.479 58.6473V56.9761C871.529 56.2118 871.421 55.4455 871.162 54.7239C870.904 54.0023 870.499 53.3406 869.974 52.779C868.714 51.708 867.076 51.1759 865.421 51.2992H857.254V63.6609C858.18 63.8522 859.08 64.0053 859.968 64.1329C860.901 64.2636 861.842 64.3276 862.785 64.3243L865.421 64.2732Z" fill="white"/>
<path d="M882.734 51.056C882.382 51.0643 882.03 51.0383 881.683 50.9785C881.58 50.9696 881.481 50.937 881.393 50.8832C881.305 50.8294 881.231 50.7558 881.177 50.6684C881.07 50.4694 881.012 50.2481 881.008 50.0226C881.008 49.7384 881.008 49.3768 881.008 48.9247C880.974 48.4069 881.049 47.8877 881.228 47.4004C881.371 47.1292 881.877 47 882.76 47H905.24C906.123 47 906.629 47.1292 906.772 47.4004C906.951 47.8877 907.026 48.4069 906.992 48.9247C906.992 49.3768 906.992 49.7384 906.992 50.0226C906.988 50.2481 906.93 50.4694 906.823 50.6684C906.768 50.7545 906.693 50.827 906.606 50.8807C906.518 50.9343 906.42 50.9678 906.317 50.9785C905.97 51.0383 905.618 51.0643 905.266 51.056H896.18V81.2819C896.213 81.6299 896.213 81.9802 896.18 82.3282C896.166 82.4288 896.13 82.5253 896.077 82.6119C896.023 82.6985 895.953 82.7734 895.869 82.832C895.647 82.9406 895.403 82.998 895.155 82.9999H893.857H892.715C892.468 83.0031 892.224 82.9359 892.014 82.8061C891.845 82.6833 891.726 82.5047 891.677 82.3023C891.598 81.9681 891.563 81.6251 891.573 81.2819V51.056H882.734Z" fill="white"/>
<path d="M934.697 73.7575C934.599 75.0972 934.228 76.4015 933.608 77.5877C932.987 78.7739 932.13 79.816 931.091 80.6477C928.736 82.3511 925.872 83.1719 922.988 82.97C920.105 83.0672 917.264 82.2512 914.859 80.635C913.818 79.8075 912.958 78.7684 912.335 77.5841C911.712 76.3998 911.339 75.0965 911.241 73.7575C911.079 72.5395 910.999 71.3117 911.002 70.0827V48.6847C910.991 48.359 911.021 48.0333 911.09 47.715C911.135 47.5037 911.251 47.3145 911.417 47.1791C911.628 47.0608 911.866 46.9993 912.108 47.0005C912.397 47.0005 912.774 47.0005 913.213 47.0005C913.653 47.0005 914.156 47.0005 914.47 47.0005C914.706 46.9959 914.94 47.053 915.148 47.1663C915.234 47.2189 915.306 47.2915 915.358 47.378C915.411 47.4646 915.442 47.5626 915.45 47.664C915.508 48.0009 915.533 48.3428 915.525 48.6847V69.1002C915.525 70.0572 915.525 70.9758 915.638 71.869C915.717 72.7262 915.842 73.5782 916.015 74.421C916.165 75.1475 916.447 75.8396 916.844 76.4626C917.696 77.3726 918.793 78.0073 919.998 78.2872C921.32 78.6669 922.701 78.7882 924.068 78.6445C925.405 78.5199 926.695 78.0832 927.837 77.3685C928.916 76.7301 929.722 75.7067 930.099 74.4976C930.277 73.7404 930.379 72.9664 930.4 72.188C930.451 71.2438 930.476 69.9296 930.476 68.2453V48.6847C930.465 48.359 930.495 48.0333 930.564 47.715C930.609 47.5006 930.73 47.3101 930.903 47.1791C931.109 47.0591 931.343 46.9974 931.581 47.0005C931.883 47.0005 932.247 47.0005 932.687 47.0005C933.127 47.0005 933.629 47.0005 933.943 47.0005C934.18 46.9942 934.414 47.0513 934.622 47.1663C934.707 47.2189 934.779 47.2915 934.832 47.378C934.884 47.4646 934.916 47.5626 934.923 47.664C934.981 48.0009 935.007 48.3428 934.999 48.6847V68.3091C934.997 70.1295 934.896 71.9484 934.697 73.7575V73.7575Z" fill="white"/>
<path d="M943.683 81.5008C943.387 82.3323 943.053 82.78 942.667 82.78C942.061 82.7915 941.458 82.6828 940.893 82.4602L939.736 82.0892C939.511 82.0222 939.304 81.904 939.132 81.7438C939.075 81.6657 939.034 81.5761 939.014 81.4813C938.994 81.3864 938.995 81.2884 939.017 81.1938C939.078 80.8445 939.173 80.5017 939.299 80.1704L949.789 48.8684C949.892 48.5486 950.021 48.2032 950.175 47.845C950.266 47.5584 950.452 47.3106 950.702 47.1414C950.914 47.0703 951.134 47.0231 951.357 47.0007C951.627 47.0007 951.923 47.0007 952.244 47.0007H955.831C956.154 46.9922 956.476 47.0578 956.769 47.1926C957.016 47.3652 957.201 47.6117 957.297 47.8962C957.451 48.2543 957.579 48.5997 957.682 48.9195L968.352 80.2727H971V82.3834L969.804 82.7416C968.831 82.9916 967.82 83.061 966.822 82.9463C966.251 82.898 965.693 82.7463 965.177 82.4985C964.776 82.3267 964.443 82.0306 964.225 81.6543C964.058 81.3473 963.84 80.8356 963.544 80.132C963.248 79.4285 962.927 78.5842 962.567 77.5736C962.207 76.563 961.796 75.5141 961.359 74.2989C960.922 73.0836 960.485 71.83 960.073 70.4613H947.475L943.683 81.5008ZM953.684 50.2499C953.556 50.6976 953.363 51.3244 953.08 52.1559L952.167 54.9318C951.833 55.9551 951.486 57.0297 951.113 58.1426C950.74 59.2555 950.393 60.33 950.059 61.3534C949.725 62.3767 949.416 63.3105 949.159 64.1548C948.902 64.9991 948.735 65.6387 948.632 66.0864H958.646C958.286 64.9351 957.965 63.8733 957.682 62.9011C957.386 61.929 957.065 60.8672 956.692 59.716C956.32 58.5647 955.908 57.2471 955.407 55.7505C954.905 54.2538 954.456 52.4117 953.684 50.2499Z" fill="white"/>
<path d="M976.294 82.9201C975.98 82.8998 975.681 82.7822 975.442 82.5845C975.23 82.3749 975.099 82.1018 975.069 81.8101C975.022 81.3814 975 80.9505 975.002 80.5194V48.7038C974.991 48.3743 975.022 48.0448 975.095 47.7229C975.143 47.5091 975.266 47.3177 975.442 47.1808C975.666 47.0611 975.918 46.999 976.174 47.0001C976.481 47.0001 976.88 47.0001 977.346 47.0001C977.812 47.0001 978.345 47.0001 978.678 47.0001C978.929 46.9972 979.176 47.0548 979.397 47.1679C979.485 47.2224 979.557 47.2967 979.608 47.3844C979.659 47.4721 979.687 47.5706 979.69 47.6713C979.716 48.015 979.716 48.3601 979.69 48.7038V78.6479H995.193C996.086 78.6479 996.618 78.7899 996.765 79.0609C996.95 79.5475 997.027 80.0665 996.991 80.5839C996.991 81.0357 996.991 81.41 996.991 81.7198C996.979 81.9771 996.92 82.2305 996.818 82.4684C996.702 82.6672 996.511 82.8151 996.285 82.8814C995.938 82.9715 995.579 83.0106 995.22 82.9975H977.773C977.278 83.0044 976.785 82.9785 976.294 82.9201V82.9201Z" fill="white"/>
<path d="M722.261 72.6708C722.152 97.9661 719.025 124.682 708.871 145.259C707.852 147.221 706.682 149.1 705.371 150.879C699.626 158.868 691.736 155.944 684.518 152.437C677.4 146.972 673.71 135.713 671.792 125.821C668.419 108.405 668.665 90.0687 669.628 72.5524C670.185 64.413 671.472 56.3403 673.473 48.4322C675.637 39.9336 678.1 34.3954 680.991 32.0362C681.699 31.3963 682.598 31.0091 683.549 30.9349C684.499 30.8608 685.447 31.1039 686.245 31.6263C688.063 32.683 692.508 32.4461 698.917 30.5515C703.953 29.0576 707.898 30.6061 710.916 35.1059C715.8 42.2036 719.241 50.1953 721.043 58.625C721.925 63.2532 722.333 67.9595 722.261 72.6708V72.6708ZM708.953 70.3754C705.862 58.2879 702.471 52.3945 698.953 52.9411C698.427 53.0583 697.944 53.3238 697.563 53.7062C696.417 54.863 695.317 58.1422 694.317 63.5802C693.19 69.7469 692.127 73.8732 691.236 75.6859C690.645 76.8882 689.536 77.3528 687.891 76.8882C686.245 76.4237 685.164 76.369 684.773 76.7425C684.428 77.0927 684.199 77.5413 684.118 78.0268C681.391 88.0465 681.864 99.3962 684 110.026C685.673 118.324 688.109 124.509 691.272 128.089C695.626 133.008 698.817 134.174 700.581 131.997C706.507 124.655 708.253 112.476 709.516 102.083C710.707 92.1182 711.634 80.8961 708.953 70.3754Z" fill="#003366"/>
<path d="M665.135 139.123C665.429 139.545 665.553 140.062 665.481 140.572C665.281 143.404 662.69 146.829 657.545 150.591C649.973 146.501 643.837 140.235 638.074 133.895C631.529 126.717 625.175 118.975 618.184 112.116C616.784 121.27 615.684 130.488 614.548 139.679C613.412 148.87 612.148 157.806 609.776 166.641C609.005 166.986 608.278 167.424 607.612 167.944C606.394 168.782 605.403 169.11 604.64 168.937C599.804 168.199 597.604 164.246 598.058 157.377C598.304 154.648 598.704 151.936 599.258 149.252C599.986 145.363 600.431 142.876 600.576 141.92C601.949 132.966 602.531 123.319 603.24 114.001C603.725 106.672 604.203 99.3358 604.676 91.9941C605.794 76.4362 607.103 60.6961 610.23 45.539C612.257 35.7378 622.42 32.7866 630.674 32.0487C637.11 31.4749 642.092 36.0658 645.437 40.6657C649.137 45.7576 650.537 53.2542 649.982 60.0585C649.446 67.1087 646.564 73.8311 643.055 79.6881C639.657 85.5728 635.25 90.8115 630.038 95.164C627.953 96.84 626.859 98.4736 626.756 100.065C626.638 101.804 627.665 103.708 629.82 105.63C631.411 107.024 633.101 108.363 634.738 109.72C640.046 114.839 645.582 119.658 651.218 124.376C656.4 128.53 661.681 133.203 665.135 139.123ZM637.447 62.609C637.92 60.5157 638.176 58.3789 638.21 56.2328C638.158 53.6696 637.33 51.1827 635.838 49.1005C634.401 47.0784 631.904 46.292 628.347 46.7413C625.684 47.0784 623.738 48.3718 623.129 50.3849C622.22 53.4819 621.82 57.672 621.529 61.9531C621.42 63.6929 621.302 68.1927 621.139 75.3614C621.066 79.8616 620.763 84.3552 620.23 88.8242C627.402 81.3459 634.965 73.1843 637.447 62.5998V62.609Z" fill="#003366"/>
<path d="M483.814 141.42C477.08 144.748 470.164 147.692 463.098 150.237C456.38 151.858 449.799 153.398 442.908 151.594C442.169 151.441 441.477 151.113 440.89 150.638C439.29 149.417 437.736 147.085 436.227 143.715C434 139.042 432.836 136.628 432.718 136.428C431.463 121.736 431.327 106.897 431.4 92.2228C431.463 78.2134 431.791 63.9854 430.818 49.9396C430.4 43.9004 429.764 38.1618 429 32.7967C430.309 31.7036 432.063 31.4303 434.3 31.986C438.536 33.0426 441.572 35.4929 442.135 38.8905C444.599 52.7633 443.89 69.5236 444.163 84.8264C444.435 100.475 444.699 116.17 446.053 131.773C450.219 132.215 454.43 131.777 458.416 130.489C463.952 128.822 468.197 127.21 470.833 126.673C471.893 127.009 472.979 127.259 474.079 127.419C475.246 127.59 476.4 127.839 477.533 128.166C478.803 128.58 479.971 129.259 480.961 130.157C481.951 131.054 482.741 132.152 483.278 133.377C485.023 136.984 485.196 139.744 483.814 141.42Z" fill="#003366"/>
<path d="M492.468 35.0374C493.514 39.0635 494.477 43.2354 495.313 47.5985C498.04 61.8994 499.495 76.5191 500.986 91.0295C502.486 105.713 503.958 120.497 506.758 134.971C507.467 138.678 508.249 142.331 509.076 145.901C508.649 149.754 506.349 151.367 502.349 150.51C496.577 149.29 492.923 145.91 491.441 140.955C489.959 136 488.714 130.835 487.65 125.47C485.014 111.898 483.887 97.9796 482.723 84.1888C481.56 70.398 480.496 56.7074 477.869 43.1716C477.187 39.6647 476.369 36.2307 475.451 32.8786C476.233 30.2552 478.178 28.807 481.26 28.5337C483.96 28.3473 486.663 28.875 489.096 30.064C489.358 29.7059 489.727 29.441 490.15 29.3079C490.541 29.2624 490.932 29.982 491.141 31.3301C491.241 32.3204 491.433 33.2993 491.714 34.254C491.88 34.5861 492.143 34.8594 492.468 35.0374V35.0374Z" fill="#003366"/>
<path d="M599.397 29.6359C589.698 47.3891 582.762 66.4175 575.453 85.0086C570.672 97.5697 567.654 110.705 564.463 123.63C561.273 136.556 558.027 149.609 552.746 161.988C552.198 162.559 551.526 162.995 550.781 163.262C550.037 163.529 549.241 163.62 548.455 163.527C546.555 163.317 544.147 162.033 541.229 159.647C533.347 139.407 528.739 118.247 523.857 97.5242C519.094 77.3117 514.112 56.5344 505.131 37.1507C506.867 34.3088 508.34 32.9242 509.522 33.0335C510.508 32.5354 511.611 32.3151 512.712 32.3959C514.83 32.5781 518.521 34.7187 523.848 38.845C529.343 51.6255 533.826 64.8193 537.256 78.3045C540.765 91.7127 543.956 105.631 547.383 119.212C552.764 103.399 557.955 87.3314 563.363 71.7279C568.895 55.5202 575.394 39.6604 582.826 24.2344C584.962 20.691 588.571 19.3885 593.634 20.2629C594.425 20.517 595.128 20.9908 595.661 21.6292C596.061 22.0293 596.541 22.3413 597.068 22.5452C597.596 22.7491 598.16 22.8405 598.725 22.8134C599.961 22.8134 600.543 23.7243 600.543 25.5461C600.483 26.98 600.091 28.3802 599.397 29.6359V29.6359Z" fill="#003366"/>
<path d="M328.7 97.5541C328.505 98.1069 328.319 98.737 328.124 99.3649C327.93 99.9928 327.623 100.342 327.299 100.331C326.187 100.294 324.245 100.051 321.852 99.9835C320.215 99.9535 317.694 100.033 314.4 100.1C313.16 100.013 309.758 100.26 304.321 100.664C304.112 100.676 303.904 100.621 303.727 100.507C303.551 100.393 303.416 100.226 303.34 100.03C302.732 98.8574 302.871 97.4085 303.757 95.6831C303.873 95.4672 303.955 95.159 304.055 95.014C304.191 94.9096 304.359 94.8564 304.529 94.8637C307.595 94.5753 310.768 94.1904 313.893 93.8878C317.032 93.6915 320.182 93.7513 323.311 94.0666C323.873 94.0982 324.437 94.0806 324.995 94.0142C325.533 93.9569 326.075 93.9375 326.615 93.956C327.005 93.9602 327.39 94.0414 327.748 94.1948C328.106 94.3482 328.43 94.5708 328.702 94.85C329.168 95.409 329.132 96.3175 328.7 97.5541Z" fill="#97BD30"/>
<path d="M365.88 54.0663C365.009 57.7634 364.041 61.4752 363.015 65.1547C358.982 79.2336 355.775 93.5361 353.409 107.989C352.591 112.38 352.139 116.831 352.058 121.296C352.097 121.904 351.963 122.51 351.672 123.044C351.381 123.578 350.944 124.019 350.413 124.315C349.934 124.55 349.386 124.599 348.874 124.452C348.361 124.305 347.922 123.974 347.64 123.521C347.205 122.809 346.999 121.98 347.051 121.146C347.072 118.173 347.318 115.206 347.787 112.27C348.533 106.887 349.338 101.406 350.459 96.0546C350.509 95.8418 350.559 95.629 350.609 95.4163L350.335 95.3516C349.931 96.1924 349.549 96.9445 349.167 97.7341C347.415 101.499 345.42 105.146 343.195 108.652C342.056 110.472 340.701 112.149 339.161 113.644C335.226 117.265 331.537 116.434 329.869 111.661C328.82 108.182 328.58 104.508 329.168 100.921C329.851 95.6639 331.659 90.6154 334.467 86.12C334.873 85.467 335.321 84.8332 335.782 84.2214C339.142 79.5945 344.712 77.0793 350.031 79.24C351.576 79.8567 351.576 79.8567 352.298 77.9024C355.293 69.7084 358.036 61.4737 360.69 53.1431C360.889 52.4974 361.087 51.8517 361.322 51.2144C361.912 49.6596 363.028 48.6873 364.243 48.6459C365.457 48.6045 366.322 49.613 366.378 51.2359C366.333 52.1967 366.165 53.1478 365.88 54.0663V54.0663ZM348.651 84.8575C344.731 83.2227 341.741 84.0999 339.083 87.8908C338.574 88.6146 338.107 89.3669 337.684 90.1439C336.013 93.2355 334.856 96.5791 334.259 100.043C333.896 101.94 333.754 103.872 333.836 105.802C333.888 106.686 334.022 107.563 334.237 108.423C334.795 110.491 335.194 110.585 336.714 109.006C337.507 108.173 338.218 107.266 338.838 106.297C339.758 104.848 340.68 103.39 341.512 101.883C344.278 96.8874 346.727 91.7225 348.844 86.4189C349.185 85.7226 349.399 85.1739 348.651 84.8575Z" fill="#97BD30"/>
<path d="M381.229 90.4735C379.929 97.2424 377.161 103.644 373.122 109.227C371.69 111.243 369.979 113.045 368.041 114.58C367.403 115.075 366.731 115.527 366.032 115.932C362.013 118.167 358.705 116.667 357.759 112.242C357.458 110.713 357.387 109.148 357.545 107.597C357.646 106.537 357.583 105.468 357.358 104.427C356.693 101.463 357.31 98.4079 358.388 95.3772C359.941 91.0202 362.099 86.9038 364.799 83.1497C366.221 81.0569 368.034 79.2594 370.137 77.8564C373.218 75.9153 375.97 75.8522 378.389 77.8727C381.196 80.2279 382.084 83.7125 381.662 88.002C381.573 88.814 381.384 89.6584 381.229 90.4735ZM376.684 87.2504C376.746 86.4719 376.641 85.6893 376.376 84.9553C376.11 84.2212 375.691 83.5528 375.146 82.9951C373.983 81.9069 373.149 81.8788 371.614 83.0051C369.802 84.2945 368.405 86.0866 367.597 88.1604C365.549 93.1242 364.02 98.2867 363.034 103.565C362.878 104.464 362.702 105.808 362.584 107.062C362.448 108.13 362.509 109.213 362.765 110.258C363.044 111.213 363.361 111.335 364.273 110.951C364.902 110.642 365.487 110.251 366.013 109.788C367.596 108.438 368.985 106.876 370.142 105.146C372.257 102.005 373.925 98.583 375.096 94.9805C376.034 92.508 376.569 89.9011 376.682 87.2592L376.684 87.2504Z" fill="#97BD30"/>
<path d="M405.919 99.5655C405.715 100.154 405.525 100.802 405.324 101.456C405.123 102.111 404.826 102.499 404.502 102.526C403.431 102.592 401.505 102.522 399.122 102.728C397.492 102.868 394.983 103.212 391.622 103.684C388.118 104.132 384.641 104.762 381.203 105.571C380.995 105.613 380.78 105.581 380.594 105.481C380.408 105.38 380.263 105.218 380.183 105.022C379.528 103.839 379.732 102.259 380.694 100.277C380.828 100.027 380.916 99.6925 381.031 99.523C381.168 99.3977 381.34 99.3174 381.524 99.2929C384.75 98.6024 388.03 97.8404 391.225 97.1989C394.35 96.6799 397.515 96.4482 400.681 96.5067C401.239 96.4843 401.795 96.4181 402.343 96.3087C402.87 96.2057 403.403 96.1406 403.939 96.1139C404.31 96.0835 404.682 96.1337 405.031 96.2611C405.38 96.3885 405.697 96.5901 405.96 96.852C406.421 97.3537 406.363 98.2757 405.919 99.5655Z" fill="#97BD30"/>
<path d="M111.085 21.7841C110.424 24.5623 109.1 27.139 107.227 29.2935C105.253 31.7745 102.78 33.811 99.9678 35.2701C98.6642 35.9235 97.2068 36.2061 95.7546 36.087C94.3238 35.984 92.8891 36.2327 91.5752 36.8114C83.7404 40.5254 76.5605 45.5306 69.534 50.5946C62.5074 55.6587 55.7157 60.8549 48.6271 65.6812C46.9424 71.8413 45.5613 78.1607 44.3524 84.4084C43.1435 90.6561 42.0942 97.0324 41.3195 103.365C42.2831 103.317 43.2395 103.172 44.1741 102.932C46.487 102.342 50.8499 100.42 57.4262 97.2192C63.5593 94.245 68.41 92.5838 71.5248 92.1285C74.1635 91.7722 75.2735 92.4832 74.6707 94.2536C73.0753 98.9102 69.0531 103.489 63.3823 106.445C58.5629 108.921 53.0305 111.185 47.8714 113.603C45.9714 114.169 42.8523 115.26 38.6339 116.84C38.0063 118.917 37.4373 121.215 36.9518 123.764C36.4663 126.314 35.8877 129.916 35.1698 134.957C34.4519 139.997 33.8186 143.831 33.336 146.339C31.8934 153.813 29.4019 161.467 24.7994 167.609C24.4533 168.11 23.9792 168.508 23.4269 168.761C22.8746 169.015 22.2645 169.115 21.6606 169.051C20.2761 168.825 19.0296 168.08 18.1727 166.968C17.1665 165.919 16.5138 164.58 16.306 163.139C15.9209 159.598 16.1078 156.018 16.8595 152.536C17.1199 151.181 18.3885 146.512 20.6782 138.573C22.3101 132.823 23.0999 128.201 23.0251 124.912C23.0495 123.739 22.1645 122.979 20.4362 122.609C18.2199 122.164 16.6207 121.786 16.3495 121.415C16.0783 121.043 16.5953 119.122 17.6576 116.136C18.9816 115.925 20.1901 115.255 21.0722 114.243C21.8383 113.324 22.8335 112.624 23.9567 112.214C24.3686 112.103 24.7906 112.034 25.2162 112.007C27.2654 107.04 28.7792 101.868 29.732 96.5798C30.8609 90.098 31.4956 83.3792 32.2886 76.7631C30.4295 77.4027 28.4371 77.548 26.5062 77.1849C24.7393 76.7695 23.9841 75.9688 24.2417 74.5623C24.6125 72.6181 26.846 70.1817 31.0101 67.3141C42.5772 59.3072 53.8607 50.5097 65.2668 42.2551C77.2045 33.6365 89.7145 24.6907 103.217 19.0549C105.627 18.0165 107.676 17.7706 109.276 18.2082C110.876 18.6457 111.477 19.8542 111.085 21.7841Z" fill="#003366"/>
<path d="M157.887 35.0085C150.206 38.9344 142.305 42.4266 134.479 45.9224C126.548 49.3747 118.795 53.2234 111.249 57.4537C107.922 64.5396 103.4 78.5647 104.247 79.9592C104.542 80.4302 108.514 80.2773 111.266 79.8162C114.462 79.1505 117.62 78.3142 120.727 77.3108C123.835 76.3051 127.008 75.5167 130.224 74.9512C133.919 74.4508 137.894 74.7825 139.203 76.1929C140.36 77.6083 140.952 79.4031 140.866 81.2314C140.745 81.7397 140.518 82.2164 140.199 82.6298C139.88 83.0432 139.477 83.3837 139.016 83.6284C137.839 84.6086 136.72 85.6576 135.666 86.7697C135.126 87.378 134.469 87.8713 133.735 88.2202C133.001 88.5691 132.204 88.7666 131.392 88.8007C128.494 89.7651 123.339 90.681 116.023 91.753C110.81 92.4091 105.727 93.868 100.957 96.0781C97.7846 103.495 94.447 110.96 92.7852 118.832C92.0131 122.492 91.9479 125.394 92.5108 127.517C101.06 133.208 112.849 132.01 122.555 131.49C123.896 131.319 125.153 130.742 126.158 129.836C127.534 128.769 128.609 128.214 129.383 128.171C133.173 127.23 134.953 130.076 134.717 136.76C134.621 139.023 133.795 141.195 132.364 142.949C131.746 143.814 130.948 144.535 130.026 145.062C129.104 145.59 128.079 145.911 127.022 146.004C113.919 146.308 100.615 146.201 87.8861 142.94C84.5722 142.128 81.6443 140.187 79.6039 137.449C78.5174 136.102 77.711 134.551 77.2323 132.887C76.7536 131.222 76.6121 129.478 76.8163 127.757C77.995 118.089 79.5039 108.639 82.54 99.3342C79.4694 97.6456 78.4354 95.7585 79.1462 93.5932C79.503 92.5364 80.6168 91.3131 82.6553 90.0542C84.6938 88.7952 85.9861 87.5699 86.3564 86.6186C88.42 81.2413 89.7379 74.9979 91.3262 69.1595C84.3431 69.7283 81.3696 68.3973 82.1682 64.796C82.9536 61.4288 85.7553 57.8746 90.5556 54.6632C94.8689 51.777 99.7288 48.9979 104.122 46.0995C110.586 41.7814 117.314 37.8721 124.265 34.3945C131.108 31.0543 138.002 27.847 144.948 24.7725C145.751 24.4612 146.58 24.2192 147.424 24.0492C151.083 23.2759 155.098 23.8647 159.308 25.9413C159.381 26.9227 159.504 27.8998 159.676 28.8686C159.889 29.9149 159.927 30.9894 159.789 32.0486C159.541 33.2363 158.864 34.2906 157.887 35.0085V35.0085Z" fill="#003366"/>
<path d="M180.265 31.206C179.666 35.2862 178.91 39.5358 177.983 43.9168C174.86 58.6809 170.386 73.2451 166.059 87.6715C161.677 102.27 157.21 116.929 154.056 131.838C153.271 135.533 152.561 139.162 151.926 142.723C149.942 146.696 147.014 148.603 143.232 148.4C137.821 148.117 135.317 145.472 135.825 140.577C136.391 135.373 137.229 130.202 138.334 125.085C141.371 110.637 145.96 96.5197 150.411 82.4753C154.862 68.4309 159.448 54.3894 162.471 40.0223C163.228 36.4181 163.829 32.89 164.278 29.4818C165.108 28.1505 166.226 27.0231 167.55 26.1831C168.873 25.3432 170.368 24.8123 171.924 24.6297C174.391 24.304 176.895 24.833 179.019 26.1288C179.397 25.7831 179.849 25.5291 180.34 25.3867C180.74 25.3516 180.82 26.112 180.486 27.4552C180.192 28.4251 179.983 29.4187 179.86 30.4247C179.926 30.7737 180.036 31.0839 180.265 31.206Z" fill="#003366"/>
<path d="M236.683 146.728C236.89 147.358 236.919 148.033 236.768 148.679C236.069 151.883 232.955 153.824 227.168 154.787C220.532 145.571 215.249 135.307 209.942 125.257C204.479 114.91 198.912 104.415 191.949 95.0325C188.959 104.757 186.313 114.584 183.594 124.374C180.954 134.025 178.128 143.616 174.125 152.801C173.224 153.021 172.353 153.354 171.534 153.789C170.061 154.465 168.911 154.643 168.092 154.325C162.845 152.695 160.966 148.26 162.525 140.919C163.225 137.996 164.092 135.116 165.122 132.292C166.538 128.198 167.416 125.544 167.718 124.565C170.601 115.168 172.741 104.837 174.98 94.9157C176.632 87.1173 178.285 79.3188 179.938 71.5203C183.564 54.9161 187.592 38.3622 193.235 22.3436C197.004 11.6606 208.787 9.06023 218.292 10.0472C225.473 10.7974 230.566 16.7994 233.042 23.4183C235.832 30.9343 236.424 39.0933 234.75 46.9392C233.026 54.2471 229.351 60.9498 224.119 66.33C219.298 71.4415 213.737 75.7981 207.624 79.2534C205.105 80.5338 203.645 82.0614 203.273 83.7931C202.87 85.6692 203.685 88.048 205.719 90.7689C207.226 92.7853 208.841 94.8397 210.366 96.8863C215.45 104.745 220.378 112.713 225.261 120.721C230.145 128.728 234.56 137.422 236.683 146.728ZM220.86 45.3217C221.733 43.1004 222.364 40.7915 222.743 38.4351C223.084 35.5072 222.584 32.5435 221.301 29.8922C220.05 27.2835 217.446 25.8076 213.438 25.628C210.428 25.4838 208.083 26.625 207.071 28.6825C205.542 31.8888 204.478 36.3681 203.496 40.9802C203.095 42.8484 202.282 47.7104 200.979 55.4774C200.194 60.357 199.155 65.1924 197.865 69.9636C206.772 63.4108 216.537 56.2013 220.86 45.3217Z" fill="#003366"/>
<path d="M280.648 148.177C280.754 149.996 280.633 151.822 280.288 153.612C280.092 154.711 279.677 155.76 279.066 156.694C278.455 157.628 277.662 158.429 276.735 159.049C274.863 160.286 273.667 160.756 273.15 160.479C267.751 156.711 267.401 148.543 267.95 142.48C268.791 133.649 269.06 124.774 268.753 115.911C265.373 114.919 261.944 114.1 258.48 113.457C254.509 112.77 249.664 113.635 247.9 115.657C243.999 120.133 241.301 130.183 238.221 137.481C235.026 145.044 231.749 152.687 227.668 159.805C226.224 162.203 224.1 162.691 221.429 161.214C218.009 159.319 216.347 156.844 216.75 154.196C217.88 146.687 221.671 139.609 225.261 132.986C228.932 126.223 233.288 119.308 235.66 111.876C236.056 110.644 235.63 109.075 234.39 107.226C233.151 105.376 232.613 104.032 232.794 103.182C233.007 102.38 233.44 101.654 234.045 101.088C234.718 100.423 236.04 99.9865 238.011 99.872C239.982 99.7575 241.138 99.2501 241.583 98.3025C247.907 86.3916 253.562 74.077 259.298 61.8695C264.614 50.5148 269.935 39.051 276.428 28.2559C277.436 26.647 278.858 26.3738 280.667 27.4375C282.128 28.3996 283.229 29.8201 283.798 31.4768C285.824 36.6739 286.197 43.7361 285.522 49.2387C284.818 54.9114 284.169 60.7521 283.422 66.4894C281.548 93.657 280.021 120.953 280.648 148.177ZM269.007 102.594C269.918 96.8039 270.502 90.9671 270.756 85.1115C271.012 79.3418 271.232 73.4601 271.545 67.638C266.032 77.6995 261.065 88.0548 256.324 98.5143C258.031 98.6503 262.464 99.8201 269.007 102.594Z" fill="#003366"/>
<path d="M808.484 84.5248C806.684 84.5248 806.204 88.0048 806.204 88.0048C805.964 91.8448 805.844 102.045 805.844 113.085C803.804 109.605 800.324 107.325 794.564 109.005C779.204 113.325 775.124 149.205 786.524 152.805C794.324 155.325 802.004 144.525 806.084 137.325C806.204 144.165 806.444 149.325 806.684 150.645C807.404 155.085 812.204 154.725 814.004 154.605C816.284 154.485 816.164 150.645 816.164 150.645C815.564 143.325 817.004 96.1648 817.604 90.1648C818.324 84.0448 810.164 84.5248 808.484 84.5248ZM790.124 147.885C786.044 142.965 794.204 111.285 799.364 112.005C804.164 112.605 805.724 125.085 805.964 127.365C805.964 128.685 805.964 129.885 805.964 131.205C805.244 133.005 794.084 152.685 790.124 147.885Z" fill="#97BD30"/>
<path d="M833.793 108.405C833.793 108.405 824.433 106.605 823.353 118.485C822.873 123.165 823.953 127.125 826.113 130.245C824.913 129.885 823.833 129.765 822.993 129.885C820.833 130.125 819.753 132.885 819.753 137.205C819.753 137.205 819.033 154.125 831.153 154.365C843.393 154.605 845.673 138.165 846.033 131.805C846.273 125.445 845.193 108.765 833.793 108.405ZM832.713 112.245C836.553 113.445 837.513 122.685 837.033 132.285C837.033 132.885 837.033 133.605 836.913 134.205C829.953 130.845 829.353 122.205 829.353 122.205C828.993 119.325 828.993 111.165 832.713 112.245ZM832.113 149.565C829.593 149.325 830.673 140.805 831.153 136.365C831.153 135.765 831.153 135.285 831.153 134.805C832.833 135.765 834.633 136.485 836.673 136.965C835.953 144.285 834.273 149.685 832.113 149.565Z" fill="#97BD30"/>
<path d="M927.904 117.165C927.904 106.965 928.024 96.4048 926.584 86.4448C926.224 84.0448 924.424 81.6448 922.144 82.4848C920.944 82.9648 921.064 85.4848 921.184 86.6848C922.024 97.1248 922.024 107.925 921.904 118.605C921.904 120.045 921.904 121.485 921.904 122.925C914.824 121.845 901.504 121.845 893.584 121.965C893.584 120.885 893.704 119.685 893.704 118.605C893.944 108.645 894.304 98.3248 896.104 88.4848C896.944 83.4448 891.064 82.0048 887.464 82.0048C885.904 81.8848 885.184 84.0448 884.944 85.3648C882.784 96.4048 883.024 108.645 883.144 120.165C883.264 130.005 883.024 140.925 885.304 150.645C886.144 154.365 889.864 154.725 892.984 154.125C894.784 153.765 894.904 151.365 894.784 149.925C893.824 142.485 893.584 134.565 893.584 126.645C906.664 126.645 917.104 127.125 920.944 127.125C921.184 127.125 921.544 127.125 921.784 127.125C921.664 134.565 921.304 142.005 920.464 149.325C919.984 152.925 922.504 156.045 925.384 155.445C926.344 155.325 926.704 153.045 926.824 151.965C928.144 140.565 928.024 128.685 927.904 117.165Z" fill="#97BD30"/>
<path d="M936.713 111.525C933.353 111.525 933.593 116.325 933.593 116.325C933.593 116.325 933.473 138.285 933.713 147.045C933.953 155.925 939.713 154.245 939.713 154.245C943.433 153.765 943.673 117.885 943.913 114.765C944.153 111.765 940.193 111.525 936.713 111.525ZM939.233 109.725C941.033 109.725 942.353 108.885 942.353 107.805C942.353 106.845 941.033 106.005 939.233 106.005C937.433 106.005 935.993 106.845 935.993 107.805C935.993 108.885 937.433 109.725 939.233 109.725Z" fill="#97BD30"/>
<path d="M978.819 108.405C976.779 108.405 975.339 111.525 974.499 114.645C972.699 110.325 969.099 107.085 962.379 109.005C947.019 113.325 942.939 149.205 954.459 152.805C961.899 155.205 969.219 145.485 973.419 138.285C973.419 141.525 973.419 144.765 973.419 147.765C968.739 149.805 960.339 154.605 958.899 161.805C956.859 171.885 966.339 172.725 966.339 172.725C977.859 173.685 979.779 168.765 981.099 160.365C982.419 152.685 983.019 111.885 983.019 109.845C983.019 107.685 978.819 108.405 978.819 108.405ZM958.059 147.885C953.979 142.965 962.019 111.285 967.299 112.005C970.899 112.485 972.699 119.925 973.419 124.365C973.419 126.405 973.419 129.045 973.419 132.165C971.139 136.365 961.539 152.325 958.059 147.885ZM965.859 169.245C965.859 169.245 960.699 168.765 962.019 162.045C963.099 157.125 969.459 154.005 973.299 152.565C973.299 156.045 973.299 158.445 973.299 159.045C973.299 161.565 972.459 169.965 965.859 169.245Z" fill="#97BD30"/>
<path d="M991.557 111.525C988.197 111.525 988.437 116.325 988.437 116.325C988.437 116.325 988.317 138.285 988.557 147.045C988.797 155.925 994.557 154.245 994.557 154.245C998.277 153.765 998.517 117.885 998.757 114.765C998.997 111.765 995.037 111.525 991.557 111.525ZM994.077 109.725C995.877 109.725 997.197 108.885 997.197 107.805C997.197 106.845 995.877 106.005 994.077 106.005C992.277 106.005 990.837 106.845 990.837 107.805C990.837 108.885 992.277 109.725 994.077 109.725Z" fill="#97BD30"/>
</svg>
