<svg width="356" height="396" viewBox="0 0 356 396" fill="none" xmlns="http://www.w3.org/2000/svg">
<g clip-path="url(#clip0)">
<path d="M156.241 340.183C152.944 333.801 163.132 328.257 175.006 329.304C175.013 329.304 159.603 346.441 156.241 340.183ZM164.411 325.44C161.796 324.909 161.157 322.61 162.835 321.147C164.512 319.684 167.257 319.415 172.275 322.806C172.297 322.806 167.025 325.892 164.411 325.44ZM175.405 340.132C174.526 342.614 173.582 345.772 171.084 345.575C168.586 345.379 169.755 341.377 172.05 339.026C173.403 337.573 175.145 336.54 177.068 336.05C176.403 337.363 175.847 338.728 175.405 340.132V340.132Z" fill="#97BD30"/>
<path d="M189.704 309.693C190.771 312.837 200.822 336.749 202.775 340.256C202.775 340.256 203.712 342.148 202.601 342.73C201.73 343.203 199.42 344.477 198.048 342.424C197.627 341.821 196.327 339.295 194.707 335.875C194.315 340.409 192.943 347.569 188.476 348.093C181.941 348.901 175.812 330.025 182.493 324.349C184.983 322.166 187.242 322.537 189.028 323.81C186.508 318.287 184.243 313.164 183.488 311.185C183.488 311.185 182.928 309.337 183.829 308.922C184.729 308.507 188.665 306.47 189.704 309.693ZM193.262 332.885C192.964 332.222 192.688 331.618 192.383 330.964C191.744 329.879 188.121 323.992 185.586 324.793C182.848 325.608 186.007 343.32 189.166 344.848C192.325 346.376 193.313 333.947 193.262 332.885Z" fill="white"/>
<path d="M211.896 324.349C213.203 327.602 215.912 336.312 209.776 339.063C203.639 341.813 200.11 333.19 200.11 333.19C199.101 331.044 198.992 329.414 200.008 328.788C200.507 328.49 201.065 328.304 201.642 328.242C199.682 327.066 198.218 325.213 197.525 323.032C195.281 316.868 200.35 315.573 200.35 315.573C206.094 313.084 210.531 321.133 211.896 324.349ZM201.374 323.483C201.374 323.483 203.683 327.638 207.909 327.682C207.811 327.343 207.683 327.014 207.525 326.699C205.52 321.809 202.884 317.436 200.698 317.734C198.512 318.033 200.517 322.13 201.374 323.483ZM208.454 329.108C207.389 329.341 206.295 329.415 205.208 329.326L205.571 330.105C206.37 332.426 207.822 336.916 209.129 336.443C210.233 335.999 209.805 332.921 208.454 329.108V329.108Z" fill="white"/>
<path d="M259.157 314.489C259.411 315.027 259.884 316.192 259.491 316.526C258.322 317.647 256.245 316.919 255.425 315.071C253.704 311.433 251.714 307.831 249.615 304.316L249.223 304.563C247.429 305.677 242.426 308.478 236.326 312.269C238.52 315.931 240.945 319.448 243.588 322.799C244.06 323.439 244.699 324.596 243.965 325.288C242.687 326.466 240.85 327.376 239.376 325.884C235.505 322.006 232.455 316.832 229.55 312.269C226.166 306.921 222.513 301.274 220.32 295.489C220.052 294.805 219.761 293.583 220.524 293.19C222.201 292.142 225.36 291.108 226.428 293.714C228.439 298.807 231.257 303.756 234.024 308.478C234.336 308.98 234.626 309.577 234.939 310.086C238.57 307.729 244.808 303.872 248.424 302.322C248.01 301.645 247.589 300.976 247.175 300.306C244.14 295.278 241.017 290.235 237.604 285.6C237.197 285.076 236.413 283.926 236.834 283.359C237.655 282.304 239.187 282.9 240.051 283.919C243.602 288.154 246.587 293.124 249.557 297.89C252.977 303.261 256.47 308.777 259.157 314.489Z" fill="white"/>
<path d="M249.978 283.606C249.499 283.38 249.412 282.471 249.826 281.576C250.24 280.681 250.966 280.208 251.445 280.433C251.924 280.659 252.099 281.532 251.685 282.435C251.271 283.337 250.537 283.853 249.978 283.606ZM255.272 281.256C256.768 282.1 274.589 290.497 273.972 292.462C273.972 292.462 273.478 295.722 268.997 293.794C264.517 291.865 253.667 286.771 253.667 286.771C253.667 286.771 251.227 285.782 251.997 284.101C252.767 282.42 253.827 280.448 255.272 281.256V281.256Z" fill="white"/>
<path d="M258.744 258.567C259.833 258.829 281.532 264.388 285.468 266.04C289.781 267.815 292.163 269.475 290.181 275.5C290.181 275.5 288.525 280.463 283.405 278.083C279.774 276.395 278.257 271.294 277.763 268.529L272.679 267.321C275.984 270.486 280.246 275.638 278.017 279.313C274.626 285.018 255.991 278.258 255.643 269.489C255.476 265.647 257.662 264.133 260.196 263.726C258.642 262.875 257.153 261.71 257.415 260.619C257.436 260.633 257.589 258.327 258.744 258.567ZM269.433 266.571L265.272 265.581C262.81 265.4 258.606 265.414 257.894 267.277C256.834 270.006 272.723 278.352 275.867 276.795C278.685 275.478 271.387 268.31 269.419 266.549L269.433 266.571ZM283.768 270.064L280.312 269.242C280.595 271.476 281.452 275.281 283.943 276.482C287.363 278.047 288.3 275.347 288.3 275.347C289.491 271.89 285.112 270.37 283.768 270.042V270.064Z" fill="white"/>
<path d="M257.727 254.15C257.204 254.099 256.819 253.262 256.921 252.279C257.022 251.297 257.56 250.62 258.083 250.671C258.605 250.722 259.056 251.501 258.954 252.483C258.852 253.466 258.315 254.215 257.727 254.15ZM261.968 250.213C263.66 250.519 283.231 252.672 283.282 254.732C283.282 254.732 283.877 257.977 279.019 257.606C274.161 257.235 262.236 255.94 262.236 255.94C262.236 255.94 259.608 255.801 259.796 253.968C259.985 252.134 260.341 249.907 261.968 250.213V250.213Z" fill="white"/>
<path d="M248.548 239.312C249.339 237.231 251.706 236.933 253.108 239.218C254.51 241.503 253.369 247.637 253.369 247.637C248.453 243.969 247.843 241.291 248.548 239.312ZM264.095 226.44C271.118 227.436 260.392 247.841 260.392 247.841C255.308 237.136 256.979 225.581 264.095 226.44ZM268.453 241.721C269.861 238.752 273.195 236.372 274.262 238.657C275.33 240.942 272.679 242.812 270.631 244.479C269.497 245.413 268.411 246.404 267.378 247.448C267.19 245.466 267.571 243.472 268.474 241.699L268.453 241.721Z" fill="#97BD30"/>
<path d="M64.174 42.1254C64.2527 44.6663 63.7223 47.1891 62.6272 49.4822C61.5168 52.0719 59.8737 54.3978 57.8052 56.3079C56.8339 57.1718 55.6467 57.7553 54.3703 57.9961C53.119 58.2442 51.9457 58.7908 50.95 59.5897C45.1404 64.6107 40.1224 70.5922 35.2932 76.5811C30.464 82.5699 25.8526 88.6096 20.9 94.4092C20.9 100.085 21.205 105.834 21.6262 111.466C22.0474 117.098 22.6501 122.825 23.4707 128.436C24.2949 128.154 25.0882 127.788 25.8381 127.344C27.6826 126.296 30.9723 123.618 35.8523 119.34C40.4129 115.345 44.1891 112.79 46.7453 111.67C48.9239 110.738 50.0495 111.088 49.9478 112.754C49.6718 117.12 47.2899 121.981 43.1216 125.809C39.5705 129.069 35.3658 132.3 31.5024 135.589C29.9992 136.513 27.5882 138.179 24.3421 140.53C24.2954 142.639 24.356 144.75 24.5237 146.853C24.6835 149.036 25.0466 152.384 25.613 156.873C26.1794 161.363 26.5353 164.798 26.7095 167.061C27.2324 173.806 26.8911 180.952 24.3785 187.29C24.2037 187.802 23.8929 188.256 23.4796 188.603C23.0662 188.951 22.566 189.179 22.0328 189.262C20.7912 189.399 19.5444 189.055 18.5471 188.302C17.4385 187.638 16.5649 186.643 16.049 185.457C14.8895 182.509 14.2103 179.393 14.0374 176.23C13.9503 175.014 13.943 170.714 14.0374 163.364C14.0883 158.052 13.6816 153.904 12.8465 151.11C12.5923 150.099 11.6482 149.655 10.0869 149.735C8.08262 149.88 6.62297 149.931 6.29618 149.677C5.96939 149.422 5.96939 147.654 6.18725 144.837C7.28837 144.364 8.18462 143.513 8.71441 142.436C9.15563 141.466 9.84452 140.63 10.7115 140.013C11.0381 139.822 11.3837 139.666 11.7427 139.547C12.3286 134.808 12.4114 130.02 11.9896 125.263C11.4449 119.441 10.4137 113.525 9.53502 107.675C8.08959 108.656 6.41646 109.247 4.67677 109.392C3.07187 109.509 2.23675 108.992 2.13508 107.733C1.98984 105.987 3.34057 103.367 6.23809 99.9323C14.2625 90.356 21.8803 80.1612 29.7087 70.4176C37.922 60.2301 46.5565 49.6278 56.8031 41.6233C58.6331 40.1679 60.3251 39.4839 61.7993 39.4839C63.2735 39.4839 64.0505 40.379 64.174 42.1254Z" fill="#07203D"/>
<path d="M107.361 42.4892C101.696 47.6485 95.7414 52.5021 89.852 57.3266C83.9625 62.1512 78.1094 67.2231 72.6702 72.6589C71.4865 79.5209 70.891 92.6046 71.944 93.5942C72.2998 93.9362 75.6766 92.8666 77.9206 91.826C80.5058 90.5089 83.0173 89.0514 85.444 87.4599C87.8752 85.8718 90.4133 84.4542 93.04 83.2175C96.09 81.915 99.5757 81.2746 101.028 82.1696C102.347 83.1194 103.274 84.5195 103.635 86.1064C103.647 86.5698 103.561 87.0304 103.385 87.4589C103.209 87.8874 102.945 88.2744 102.611 88.5951C101.821 89.7057 101.105 90.8677 100.469 92.0734C100.149 92.7223 99.7023 93.2998 99.1545 93.7712C98.6067 94.2426 97.9694 94.5983 97.281 94.8167C95.0225 96.323 90.8251 98.3169 84.8049 100.951C80.4876 102.733 76.4724 105.176 72.9026 108.191C71.9149 115.294 70.8039 122.469 71.2323 129.614C71.4284 132.925 72.0529 135.436 73.026 137.124C81.6968 139.991 91.5222 136.207 99.721 133.486C100.83 133.028 101.773 132.241 102.422 131.23C103.345 129.993 104.144 129.265 104.797 129.047C107.818 127.349 110.011 129.389 111.376 135.167C111.824 137.117 111.628 139.159 110.817 140.988C110.493 141.876 109.98 142.683 109.312 143.351C108.645 144.02 107.84 144.535 106.954 144.859C95.7923 148.192 84.3619 151.227 72.6847 151.408C69.65 151.489 66.682 150.509 64.2899 148.636C63.0442 147.737 61.9906 146.597 61.1912 145.283C60.3917 143.97 59.8626 142.509 59.635 140.988C58.3714 132.423 57.4564 123.96 57.8703 115.279C54.8493 114.551 53.5131 113.176 53.6148 111.146C53.6729 110.164 54.3773 108.854 55.7934 107.289C57.2095 105.725 58.0664 104.415 58.1608 103.476C58.6691 98.3824 58.3351 92.721 58.3278 87.3507C52.4674 89.4756 49.6135 89.0317 49.4464 85.7498C49.3302 82.6863 50.8988 78.9751 54.2611 75.1039C57.2821 71.6183 60.7969 68.089 63.8905 64.5816C68.4183 59.3623 73.2692 54.4334 78.4144 49.8243C83.4929 45.3563 88.6489 40.9902 93.8824 36.726C94.5015 36.2719 95.1573 35.8702 95.8431 35.5253C98.7987 34.0118 102.335 33.5679 106.467 34.3611C106.613 34.8122 106.947 35.6199 107.469 36.7915C107.901 37.6352 108.188 38.5452 108.319 39.4839C108.385 40.5704 108.043 41.6422 107.361 42.4892V42.4892Z" fill="#07203D"/>
<path d="M125.69 33.9754C126.13 37.6235 126.469 41.4366 126.706 45.4145C127.491 58.8038 127.077 72.3387 126.75 85.7135C126.416 99.2556 126.024 112.878 126.808 126.398C127.002 129.745 127.244 133.02 127.534 136.222C126.757 140.093 124.695 142.422 121.405 143.135C116.699 144.153 113.933 142.48 113.221 138.165C112.478 133.568 111.971 128.936 111.703 124.288C110.926 111.19 111.543 98.0113 112.074 84.9276C112.604 71.8439 113.228 58.7311 112.458 45.7056C112.262 42.4456 111.95 39.2802 111.536 36.2458C111.934 34.9091 112.628 33.6797 113.566 32.6491C114.504 31.6185 115.662 30.8132 116.954 30.2933C118.991 29.438 121.259 29.307 123.38 29.9222C123.625 29.5387 123.953 29.2154 124.339 28.9762C124.673 28.8525 124.927 29.4783 124.956 30.7081C124.927 31.6086 124.98 32.5099 125.116 33.4005C125.29 33.6916 125.457 33.9317 125.69 33.9754Z" fill="#07203D"/>
<path d="M201.156 119.783C201.485 120.276 201.668 120.851 201.686 121.443C201.839 124.353 199.624 126.74 194.896 128.93C187.046 122.585 180.111 115.017 173.198 107.646C166.096 100.063 158.855 92.3644 150.686 85.9609C150.402 94.9914 150.446 104.044 150.41 113.074C150.373 121.966 150.228 130.851 148.957 139.664C148.238 140.062 147.571 140.552 146.975 141.119C145.871 142.036 144.92 142.458 144.143 142.378C139.263 142.218 136.619 138.849 136.234 132.19C136.15 129.533 136.218 126.872 136.438 124.222C136.685 120.38 136.823 117.899 136.852 116.989C137.12 108.257 136.525 98.8917 136.125 89.8612L134.884 68.6421C134.107 53.5645 133.671 38.4215 134.753 23.3731C135.479 13.3238 144.978 8.33195 153.358 6.95664C159.691 5.91605 165.464 9.86736 169.131 14.9611C173.289 20.7483 175.71 27.6053 176.11 34.7249C176.343 41.3989 174.756 48.0103 171.52 53.8483C168.577 59.3605 164.821 64.3967 160.38 68.7876C158.514 70.4758 157.621 72.1277 157.708 73.6995C157.802 75.4022 159.059 77.2578 161.441 79.1134C163.213 80.4887 165.072 81.864 166.865 83.2612C173.067 88.8134 179.16 94.482 185.216 100.202C191.273 105.921 197.14 112.303 201.156 119.783ZM163.801 36.5659C164.025 34.4568 164.025 32.3297 163.801 30.2206C163.412 27.6291 162.287 25.2043 160.562 23.2348C158.884 21.2847 156.306 20.637 152.821 21.4156C150.214 22.0051 148.464 23.5332 148.079 25.527C147.519 28.6415 147.665 32.7311 147.897 36.9079C147.999 38.6107 148.434 42.9695 149.139 49.9334C149.614 54.298 149.856 58.6849 149.865 63.0753C155.965 55.3765 162.668 46.9063 163.801 36.5659Z" fill="#07203D"/>
<path d="M239.173 110.724C239.69 112.259 240.014 113.853 240.138 115.468C240.224 116.456 240.111 117.45 239.806 118.393C239.5 119.336 239.008 120.207 238.359 120.955C237.052 122.461 236.13 123.174 235.629 123.029C230.117 121.057 227.902 114.144 226.914 108.817C225.565 101.055 223.717 93.3891 221.381 85.8663C218.25 85.8087 215.119 85.9107 211.998 86.1719C208.425 86.5139 204.482 88.3549 203.436 90.538C201.149 95.297 201.185 104.539 200.256 111.524C199.29 118.75 198.273 126.041 196.45 133.136C195.768 135.53 194.061 136.447 191.425 135.807C188.048 134.985 186.044 133.253 185.768 130.888C184.984 124.186 186.567 117.222 188.099 110.702C189.661 104.051 191.774 97.1016 192.064 90.1668C192.115 89.0171 191.382 87.7728 189.886 86.4848C188.39 85.1968 187.613 84.1635 187.569 83.3921C187.559 82.6547 187.761 81.9299 188.15 81.3037C188.571 80.576 189.602 79.8483 191.258 79.3317C192.914 78.815 193.8 78.0582 193.952 77.1486C196.581 65.4548 198.549 53.5718 200.604 41.7688C202.521 30.759 204.402 19.6619 207.438 8.9068C207.924 7.29135 209.079 6.72376 210.873 7.20403C212.352 7.68722 213.63 8.64974 214.504 9.94011C217.467 13.9205 219.442 19.8875 220.146 24.7557C220.872 29.7912 221.693 34.9432 222.397 40.037C227.161 63.7739 232.252 87.5326 239.173 110.724ZM218.483 74.3762C217.912 69.2041 217.052 64.0682 215.905 58.993C214.765 53.9866 213.574 48.8928 212.485 43.8282C210.11 53.7537 208.28 63.7957 206.675 73.8741C208.171 73.5612 212.238 73.4957 218.483 74.3762Z" fill="#07203D"/>
<path d="M58.0955 312.233C52.7175 314.89 47.1945 317.242 41.5528 319.277C36.1862 320.565 30.9213 321.795 25.424 320.354C24.8318 320.23 24.2771 319.968 23.8045 319.59C22.5264 318.615 21.2846 316.759 20.0864 314.067C18.3 310.334 17.3777 308.398 17.2833 308.245C16.2812 296.501 16.165 284.647 16.2231 272.924C16.2812 261.732 16.5426 250.366 15.7656 239.145C15.4315 234.32 14.9232 229.743 14.2769 225.45C15.3226 224.577 16.7241 224.358 18.5106 224.802C21.8946 225.654 24.3201 227.604 24.7704 230.318C26.7456 241.401 26.1792 254.79 26.3898 267.022C26.6149 279.517 26.8183 292.062 27.9075 304.52C31.2314 304.858 34.5891 304.491 37.762 303.443C42.1846 302.111 45.5759 300.823 47.6746 300.386C48.5203 300.659 49.3876 300.858 50.2671 300.983C51.1989 301.122 52.1207 301.321 53.0267 301.58C54.0415 301.91 54.9751 302.451 55.7661 303.169C56.5571 303.886 57.1876 304.763 57.6162 305.742C59.0396 308.66 59.1775 310.872 58.0955 312.233Z" fill="#07203D"/>
<path d="M65.4884 226.702C66.3236 229.918 67.0933 233.251 67.7614 236.743C69.94 248.168 71.1019 259.847 72.2856 271.439C73.4911 283.169 74.6675 294.972 76.897 306.543C77.4731 309.507 78.0928 312.417 78.756 315.275C78.4074 318.36 76.5774 319.641 73.3822 318.964C68.7708 317.982 65.8515 315.289 64.6678 311.331C63.4841 307.372 62.4892 303.246 61.6396 298.96C59.5481 288.161 58.6404 277.021 57.7109 266.003C56.7813 254.986 55.9172 243.977 53.8257 233.207C53.2811 230.405 52.6275 227.655 51.894 224.984C52.5186 222.881 54.0726 221.731 56.5344 221.506C58.6914 221.365 60.8479 221.786 62.7942 222.728C63.0061 222.445 63.3004 222.234 63.6366 222.124C63.9489 222.124 64.2612 222.67 64.4282 223.74C64.5038 224.534 64.657 225.319 64.8857 226.083C65.015 226.349 65.2264 226.566 65.4884 226.702V226.702Z" fill="#07203D"/>
<path d="M149.967 223.398C142.16 238.206 136.568 254.062 130.664 269.555C126.801 280.026 124.354 290.97 121.761 301.74C119.169 312.51 116.54 323.381 112.277 333.7C111.848 334.173 111.313 334.537 110.716 334.763C110.118 334.988 109.476 335.067 108.842 334.995C107.332 334.82 105.407 333.758 103.084 331.786C96.8455 314.969 93.229 297.381 89.3875 280.121C85.6475 263.311 81.7334 246.065 74.6094 229.911C76.0037 227.538 77.1874 226.381 78.1314 226.469C78.9134 226.052 79.7971 225.865 80.6804 225.93C82.3724 226.068 85.3208 227.844 89.569 231.264C93.9272 241.908 97.4692 252.87 100.164 264.053C102.924 275.201 105.429 286.735 108.152 298.065C112.51 284.88 116.7 271.519 121.064 258.487C125.528 245 130.765 231.782 136.75 218.901C138.471 215.946 141.361 214.848 145.406 215.561C146.043 215.772 146.606 216.164 147.026 216.689C147.338 217.018 147.718 217.275 148.139 217.444C148.56 217.612 149.013 217.687 149.466 217.664C150.453 217.664 150.918 218.391 150.918 219.956C150.864 221.16 150.538 222.337 149.967 223.398V223.398Z" fill="#07203D"/>
<path d="M204.424 285.84C204.656 286.175 204.755 286.585 204.7 286.99C204.54 289.253 202.463 291.989 198.36 294.994C192.311 291.727 187.409 286.721 182.798 281.656C177.576 275.915 172.5 269.737 166.916 264.25C165.79 271.57 164.919 278.934 164.011 286.277C163.103 293.619 162.087 300.758 160.191 307.809C159.58 308.091 159.002 308.443 158.47 308.857C157.81 309.423 156.955 309.708 156.088 309.65C152.232 309.06 150.475 305.895 150.831 300.416C151.033 298.236 151.356 296.069 151.796 293.925C152.377 290.81 152.733 288.831 152.842 288.059C153.939 280.914 154.403 273.208 154.977 265.756C155.355 259.896 155.737 254.038 156.125 248.183C157.018 235.747 158.064 223.18 160.562 211.071C162.181 203.248 170.293 200.883 176.894 200.294C182.035 199.843 186.008 203.503 188.68 207.185C191.636 211.253 192.761 217.242 192.311 222.677C191.875 228.302 189.58 233.673 186.77 238.359C184.048 243.049 180.523 247.222 176.356 250.686C174.701 252.032 173.822 253.335 173.735 254.608C173.648 255.881 174.461 257.519 176.182 259.047C177.46 260.168 178.811 261.23 180.118 262.314C184.359 266.404 188.782 270.26 193.284 274.03C197.46 277.37 201.664 281.11 204.424 285.84ZM182.275 224.708C182.654 223.023 182.856 221.304 182.878 219.578C182.834 217.531 182.176 215.546 180.99 213.88C179.835 212.264 177.845 211.646 175.006 212.002C172.871 212.264 171.324 213.298 170.837 214.913C170.111 217.387 169.784 220.735 169.559 224.147C169.465 225.544 169.378 229.139 169.247 234.866C169.189 238.461 168.946 242.051 168.521 245.621C174.287 239.683 180.314 233.163 182.275 224.708Z" fill="#07203D"/>
<path d="M245.519 208.975C245.425 229.183 242.927 250.526 234.815 266.971C234.005 268.539 233.072 270.04 232.027 271.461C227.43 277.843 221.134 275.507 215.368 272.698C209.674 268.332 206.726 259.345 205.201 251.443C202.507 237.522 202.703 222.874 203.473 208.888C203.918 202.384 204.944 195.933 206.537 189.612C208.273 182.822 210.241 178.398 212.543 176.513C213.108 176.002 213.827 175.693 214.587 175.635C215.347 175.578 216.104 175.774 216.74 176.193C218.193 177.03 221.751 176.841 226.907 175.327C230.93 174.141 234.082 175.371 236.485 178.966C240.391 184.631 243.141 191.013 244.575 197.747C245.271 201.448 245.587 205.21 245.519 208.975V208.975ZM234.881 207.141C232.419 197.492 229.71 192.784 226.892 193.221C226.472 193.312 226.087 193.521 225.781 193.825C224.866 194.749 223.98 197.376 223.189 201.72C222.288 206.647 221.439 209.936 220.72 211.391C220.248 212.352 219.369 212.716 218.047 212.352C216.726 211.988 215.869 211.93 215.564 212.228C215.29 212.509 215.107 212.867 215.041 213.254C212.862 221.258 213.233 230.333 214.946 238.817C216.283 245.454 218.222 250.387 220.756 253.247C224.227 257.177 226.776 258.115 228.185 256.376C232.92 250.504 234.314 240.775 235.324 232.472C236.289 224.511 237.03 215.553 234.881 207.141Z" fill="#07203D"/>
<path d="M62.0751 37.7229C62.1595 40.2597 61.6287 42.7791 60.5283 45.0652C59.4179 47.6549 57.7748 49.9808 55.7063 51.8909C54.7419 52.7567 53.5588 53.3407 52.2859 53.5791C51.0351 53.8263 49.8635 54.3758 48.8728 55.18C43.027 60.201 38.0453 66.1752 33.2088 72.164C28.3723 78.1528 23.7682 84.1999 18.8229 89.9995C18.8229 95.6754 19.1206 101.417 19.5491 107.056C19.9775 112.696 20.573 118.408 21.3936 124.019C22.2084 123.752 22.9943 123.403 23.7392 122.978C25.5837 121.93 28.8734 119.259 33.7607 114.973C38.3212 110.986 42.0902 108.424 44.6536 107.304C46.8322 106.38 47.9506 106.729 47.8489 108.388C47.5729 112.754 45.1983 117.622 41.0299 121.486C37.4788 124.739 33.2669 127.977 29.4108 131.259C27.9148 132.19 25.4966 133.857 22.2505 136.2C22.1997 138.128 22.2505 140.231 22.432 142.531C22.6136 144.83 22.9622 148.054 23.5286 152.544C24.095 157.033 24.4509 160.468 24.6252 162.731C25.1408 169.477 24.7994 176.623 22.2941 182.968C22.1146 183.478 21.8015 183.93 21.3875 184.277C20.9735 184.624 20.4739 184.853 19.9412 184.94C18.7012 185.07 17.4581 184.724 16.4627 183.972C15.3541 183.308 14.4805 182.313 13.9646 181.127C12.8043 178.182 12.1251 175.069 11.953 171.907C11.8586 170.685 11.8514 166.384 11.953 159.042C12.0039 153.73 11.5972 149.582 10.7621 146.78C10.5079 145.769 9.57112 145.325 8.00254 145.412C5.99824 145.551 4.53859 145.602 4.21906 145.347C3.89954 145.092 3.89227 143.324 4.10287 140.515C5.18849 140.024 6.06749 139.166 6.58646 138.092C7.02758 137.124 7.71661 136.29 8.5835 135.676C8.91062 135.484 9.25607 135.326 9.6147 135.203C10.2068 130.464 10.292 125.676 9.86886 120.919C9.31696 115.097 8.28576 109.188 7.41432 103.331C5.97055 104.315 4.29653 104.906 2.55607 105.048C0.943919 105.106 0.108795 104.597 -0.000134836 103.331C-0.138112 101.577 1.20535 98.9645 4.10287 95.5298C12.1419 85.9536 19.7524 75.7661 27.5953 66.0151C35.8086 55.8276 44.4358 45.2253 54.6897 37.2281C56.5124 35.7727 58.2117 35.0815 59.6859 35.0815C61.1601 35.0815 61.9589 35.9765 62.0751 37.7229Z" fill="#088DA3"/>
<path d="M105.298 38.0868C99.6341 43.2533 93.6793 48.0996 87.7898 52.9314C81.8006 57.7505 76.0564 62.8677 70.579 68.2637C69.388 75.1184 68.7998 88.2021 69.8528 89.199C70.2159 89.5337 73.5854 88.4713 75.8366 87.4307C78.4203 86.1108 80.9317 84.6533 83.36 83.0647C85.7884 81.4738 88.3241 80.0539 90.9488 78.815C93.9988 77.5197 97.4845 76.8721 98.9369 77.7744C100.26 78.7166 101.189 80.1164 101.544 81.7039C101.56 82.1679 101.477 82.6299 101.3 83.0591C101.124 83.4883 100.858 83.8747 100.52 84.1926C99.7407 85.3089 99.0278 86.4704 98.385 87.6709C98.0645 88.3191 97.617 88.896 97.0693 89.3673C96.5216 89.8386 95.8849 90.1946 95.197 90.4142C92.9386 91.9205 88.7339 93.9144 82.7137 96.5486C78.3979 98.3335 74.3831 100.776 70.8114 103.789C69.831 110.891 68.7199 118.073 69.1411 125.212C69.3372 128.53 69.9617 131.033 70.9421 132.722C79.6056 135.596 89.431 131.805 97.6298 129.083C98.7395 128.622 99.6821 127.833 100.331 126.82C101.261 125.583 102.052 124.855 102.706 124.637C105.734 122.942 107.927 124.964 109.292 130.75C109.74 132.712 109.542 134.767 108.726 136.607C108.399 137.494 107.884 138.299 107.217 138.967C106.551 139.635 105.747 140.151 104.863 140.479C93.7011 143.811 82.2707 146.839 70.5935 147.028C67.5622 147.109 64.5971 146.131 62.206 144.263C60.9587 143.363 59.9037 142.222 59.103 140.907C58.3023 139.592 57.7722 138.13 57.5438 136.607C56.2875 128.043 55.3652 119.587 55.7864 110.898C52.7581 110.171 51.4292 108.795 51.5309 106.772C51.589 105.783 52.2571 104.473 53.7095 102.916C55.1619 101.359 55.9825 100.005 56.0769 99.1027C56.5852 94.009 56.2511 88.3476 56.2439 82.9701C50.3907 85.0949 47.5295 84.651 47.3698 81.3765C47.2536 78.3056 48.8222 74.6018 52.1845 70.7232C55.2054 67.2376 58.7202 63.7157 61.8065 60.201C66.3362 54.9833 71.187 50.0546 76.3305 45.4436C81.4138 40.9757 86.5722 36.6096 91.8057 32.3454C92.4215 31.8901 93.0751 31.4884 93.7592 31.1447C96.7148 29.6238 100.295 29.1872 104.391 29.9804C104.683 30.8047 105.018 31.6135 105.393 32.4036C105.82 33.2507 106.105 34.163 106.235 35.1033C106.301 36.1796 105.968 37.2423 105.298 38.0868V38.0868Z" fill="#088DA3"/>
<path d="M123.591 29.5802C124.034 33.2186 124.383 37.0389 124.615 41.0121C125.399 54.4014 124.978 67.9362 124.651 81.3183C124.317 94.8604 123.925 108.475 124.717 121.996C124.91 125.348 125.152 128.625 125.443 131.827C124.673 135.698 122.611 138.019 119.321 138.732C114.615 139.758 111.849 138.077 111.137 133.762C110.402 129.168 109.908 124.538 109.655 119.893C108.871 106.794 109.496 93.616 110.019 80.5324C110.541 67.4487 111.18 54.3359 110.403 41.3104C110.207 38.0431 109.895 34.8777 109.481 31.8506C109.881 30.5146 110.575 29.2859 111.513 28.2555C112.45 27.2251 113.608 26.4194 114.899 25.8981C116.937 25.0404 119.208 24.9069 121.333 25.5197C121.575 25.1348 121.903 24.811 122.291 24.5738C122.625 24.4501 122.872 25.0831 122.901 26.3129C122.877 27.2133 122.93 28.1142 123.061 29.0053C123.199 29.2891 123.366 29.5293 123.591 29.5802Z" fill="#088DA3"/>
<path d="M199.043 115.388C199.368 115.879 199.551 116.451 199.573 117.04C199.725 119.951 197.511 122.345 192.776 124.528C184.926 118.183 177.99 110.622 171.084 103.251C163.975 95.6609 156.742 87.9693 148.572 81.5584C148.289 90.5962 148.325 99.6413 148.289 108.672C148.289 117.564 148.115 126.449 146.837 135.261C146.116 135.662 145.447 136.151 144.847 136.717C143.743 137.641 142.799 138.063 142.022 137.983C137.142 137.815 134.491 134.453 134.106 127.795C134.021 125.125 134.089 122.453 134.31 119.791C134.564 115.949 134.695 113.467 134.724 112.558C134.992 103.825 134.404 94.4675 133.997 85.4369C133.586 78.3639 133.174 71.2908 132.763 64.2178C131.979 49.133 131.55 33.9972 132.632 18.9415C133.358 8.89954 142.85 3.90765 151.23 2.52506C157.562 1.48447 163.336 5.43578 167.01 10.5295C171.164 16.319 173.585 23.1747 173.989 30.2933C174.224 36.9625 172.645 43.5703 169.421 49.4095C166.487 54.9219 162.741 59.9605 158.31 64.3561C156.451 66.0443 155.558 67.6961 155.645 69.2679C155.74 70.9707 156.996 72.819 159.378 74.6746C161.143 76.0499 163.009 77.4325 164.795 78.8296C170.997 84.3745 177.09 90.0504 183.154 95.77C189.217 101.49 195.041 107.908 199.043 115.388ZM161.702 32.1635C161.929 30.0545 161.929 27.9271 161.702 25.8181C161.308 23.228 160.184 20.8045 158.463 18.8324C156.778 16.8895 154.2 16.2346 150.722 17.0204C148.107 17.6026 146.365 19.1307 145.98 21.1318C145.42 24.239 145.558 28.3286 145.798 32.5128C145.893 34.2083 146.335 38.5671 147.04 45.531C147.511 49.8983 147.753 54.2874 147.766 58.6801C153.866 50.974 160.547 42.5038 161.702 32.1635Z" fill="#088DA3"/>
<path d="M237.073 106.321C237.59 107.857 237.915 109.45 238.039 111.066C238.129 112.054 238.018 113.05 237.714 113.994C237.409 114.938 236.917 115.811 236.267 116.56C234.953 118.059 234.038 118.743 233.53 118.626C228.018 116.662 225.803 109.741 224.852 104.415C223.502 96.6476 221.652 88.9762 219.311 81.4492C216.18 81.392 213.049 81.494 209.928 81.7549C206.363 82.0969 202.412 83.9743 201.374 86.121C199.079 90.8727 199.123 100.122 198.193 107.1C197.227 114.333 196.21 121.654 194.38 128.712C193.705 131.106 191.999 132.023 189.362 131.383C185.986 130.56 183.981 128.828 183.705 126.464C182.914 119.762 184.504 112.805 186.029 106.285C187.591 99.6267 189.704 92.6773 189.994 85.7498C190.045 84.6001 189.312 83.3558 187.816 82.0605C186.32 80.7652 185.543 79.7392 185.499 78.9679C185.493 78.2308 185.694 77.507 186.08 76.8794C186.501 76.1517 187.532 75.4677 189.195 74.9074C190.858 74.3471 191.73 73.6412 191.89 72.7244C194.518 61.0305 196.479 49.1475 198.534 37.3373C200.43 26.3566 202.303 15.2813 205.339 4.50435C205.825 2.8889 206.98 2.3213 208.781 2.80885C210.259 3.29113 211.536 4.25077 212.412 5.53765C215.367 9.51806 217.343 15.485 218.054 20.3605C218.781 25.3888 219.594 30.548 220.298 35.6418C225.062 59.3714 230.153 83.1302 237.073 106.321ZM216.406 69.9737C215.829 64.7962 214.961 59.6554 213.806 54.576C212.673 49.5696 211.482 44.4758 210.386 39.4112C208.018 49.3294 206.188 59.3714 204.576 69.4498C206.072 69.166 210.146 69.1296 216.406 69.9737Z" fill="#088DA3"/>
<path d="M88.8501 195.804C88.7993 196.27 88.7702 196.794 88.7339 197.318C88.6976 197.842 88.5233 198.169 88.2692 198.22C87.3977 198.395 85.8437 198.562 83.9701 198.948C82.692 199.224 80.7458 199.748 78.1968 200.403C77.2165 200.563 74.6167 201.378 70.4629 202.688C70.3022 202.736 70.1306 202.731 69.9726 202.675C69.8147 202.619 69.6787 202.514 69.5842 202.375C68.8967 201.575 68.7394 200.423 69.1121 198.919C69.163 198.729 69.1702 198.475 69.2211 198.344C69.3074 198.238 69.4282 198.166 69.5624 198.14C71.8935 197.354 74.2899 196.474 76.6646 195.666C79.0697 194.938 81.5299 194.408 84.0209 194.08C84.4635 194.001 84.8985 193.884 85.3208 193.73C85.7287 193.587 86.1461 193.473 86.5699 193.388C86.8736 193.32 87.1876 193.313 87.4942 193.367C87.8007 193.42 88.0937 193.534 88.3563 193.701C88.8211 194.05 88.9591 194.764 88.8501 195.804Z" fill="white"/>
<path d="M109.793 155.178C109.793 158.212 109.721 161.276 109.597 164.325C109.04 176.011 109.166 187.72 109.975 199.392C110.143 202.956 110.607 206.5 111.362 209.987C111.504 210.452 111.511 210.948 111.382 211.417C111.253 211.885 110.995 212.308 110.636 212.635C110.307 212.906 109.889 213.044 109.464 213.024C109.039 213.004 108.636 212.827 108.334 212.526C107.865 212.052 107.553 211.445 107.441 210.787C106.913 208.472 106.561 206.119 106.388 203.75C105.981 199.428 105.603 195.018 105.494 190.652C105.494 190.478 105.494 190.303 105.494 190.128H105.269C105.11 190.856 104.95 191.511 104.797 192.195C104.125 195.444 103.242 198.645 102.154 201.778C101.601 203.403 100.855 204.954 99.9318 206.399C97.5353 209.936 94.5143 209.965 92.343 206.559C90.8898 204.047 90.0303 201.234 89.8304 198.337C89.3988 194.124 89.8793 189.867 91.2392 185.857C91.4353 185.275 91.6676 184.7 91.9146 184.139C93.6792 179.926 97.5498 176.95 102.081 177.656C103.396 177.852 103.396 177.852 103.599 176.201C104.427 169.28 105.051 162.375 105.589 155.411C105.625 154.872 105.661 154.334 105.727 153.795C105.901 152.478 106.591 151.518 107.528 151.263C108.465 151.008 109.321 151.634 109.663 152.886C109.803 153.641 109.847 154.411 109.793 155.178V155.178ZM102.038 182.277C98.69 181.724 96.5259 182.953 95.1534 186.388C94.8904 187.044 94.6649 187.715 94.478 188.396C93.7448 191.107 93.4578 193.918 93.6284 196.721C93.6932 198.263 93.9369 199.791 94.3546 201.276C94.5566 201.955 94.8216 202.612 95.1461 203.241C95.9595 204.747 96.2863 204.747 97.1795 203.241C97.6429 202.448 98.0295 201.612 98.3341 200.745C98.7844 199.45 99.2346 198.147 99.605 196.823C100.841 192.432 101.799 187.967 102.473 183.455C102.611 182.852 102.677 182.386 102.038 182.277Z" fill="white"/>
<path d="M128.399 180.676C128.627 186.177 127.648 191.662 125.53 196.743C124.786 198.573 123.786 200.288 122.56 201.837C122.154 202.339 121.715 202.813 121.246 203.256C118.53 205.73 115.683 205.169 114.136 201.902C113.623 200.768 113.28 199.564 113.119 198.329C113.004 197.486 112.759 196.667 112.393 195.899C111.333 193.716 111.253 191.227 111.536 188.673C111.946 185.001 112.87 181.404 114.281 177.991C115.004 176.103 116.084 174.373 117.462 172.897C119.503 170.823 121.63 170.27 123.882 171.398C126.496 172.715 127.825 175.262 128.282 178.675C128.362 179.322 128.37 180.014 128.399 180.676ZM124.274 179.002C124.18 178.385 123.954 177.796 123.614 177.274C123.273 176.752 122.825 176.309 122.299 175.975C121.195 175.342 120.541 175.473 119.554 176.63C118.381 177.964 117.624 179.614 117.375 181.374C116.692 185.609 116.449 189.904 116.649 194.189C116.692 194.916 116.801 195.993 116.939 196.99C117.029 197.845 117.275 198.677 117.665 199.443C118.058 200.134 118.326 200.17 118.965 199.705C119.398 199.349 119.781 198.938 120.105 198.482C121.088 197.142 121.882 195.673 122.466 194.116C123.535 191.286 124.204 188.32 124.455 185.304C124.732 183.209 124.67 181.084 124.274 179.009V179.002Z" fill="white"/>
<path d="M149.262 183.223C149.211 183.717 149.182 184.256 149.146 184.802C149.11 185.347 148.95 185.704 148.703 185.784C147.882 186.031 146.372 186.33 144.556 186.927C143.315 187.334 141.427 188.062 138.899 189.044C136.258 190.034 133.669 191.161 131.144 192.42C130.99 192.491 130.817 192.505 130.654 192.461C130.491 192.418 130.348 192.318 130.25 192.18C129.524 191.38 129.394 190.114 129.778 188.396C129.836 188.178 129.844 187.902 129.902 187.749C129.986 187.626 130.105 187.532 130.243 187.48C132.625 186.352 135.036 185.158 137.403 184.074C139.738 183.098 142.156 182.338 144.629 181.804C145.059 181.684 145.479 181.531 145.885 181.345C146.276 181.169 146.679 181.02 147.091 180.901C147.373 180.81 147.672 180.781 147.966 180.816C148.261 180.851 148.545 180.95 148.797 181.105C149.248 181.411 149.371 182.138 149.262 183.223Z" fill="white"/>
<path d="M55.9751 307.809C50.5954 310.468 45.0699 312.819 39.4251 314.853C34.0586 316.148 28.8009 317.378 23.2963 315.937C22.706 315.814 22.1533 315.552 21.6842 315.173C20.4061 314.198 19.1643 312.335 17.9588 309.642C16.1796 305.909 15.2501 303.981 15.1557 303.821C14.1535 292.084 14.0446 280.23 14.1027 268.507C14.1535 257.315 14.415 245.949 13.6379 234.728C13.3039 229.903 12.7956 225.319 12.1855 221.033C13.2313 220.16 14.6328 219.941 16.4193 220.385C19.8033 221.229 22.2288 223.187 22.6791 225.901C24.6471 236.984 24.0806 250.373 24.2985 262.598C24.5163 275.1 24.7269 287.637 25.809 300.103C29.1364 300.455 32.5007 300.106 35.6852 299.077C40.1078 297.745 43.4991 296.457 45.6051 296.028C46.4518 296.296 47.3188 296.496 48.1976 296.624C49.1299 296.76 50.0519 296.96 50.9571 297.221C51.9715 297.552 52.9047 298.094 53.6956 298.811C54.4865 299.528 55.1173 300.405 55.5467 301.383C56.941 304.265 57.079 306.47 55.9751 307.809Z" fill="#088DA3"/>
<path d="M62.8883 222.823C63.7235 226.039 64.4932 229.372 65.1613 232.858C67.3399 244.282 68.5018 255.962 69.6928 267.553C70.891 279.284 72.0674 291.094 74.3041 302.657C74.8706 305.618 75.4951 308.536 76.1559 311.389C75.8146 314.467 73.9773 315.755 70.7821 315.071C66.1707 314.096 63.2514 311.396 62.0677 307.438C60.884 303.479 59.8891 299.353 59.0395 295.067C56.9335 284.225 56.033 273.106 55.1035 262.089C54.174 251.072 53.3243 240.135 51.2256 229.321C50.681 226.52 50.0274 223.776 49.2939 221.098C49.9185 219.003 51.4725 217.846 53.9343 217.627C56.0918 217.478 58.2504 217.9 60.1941 218.85C60.4036 218.564 60.6987 218.352 61.0365 218.246C61.3488 218.21 61.6611 218.784 61.8281 219.861C61.9081 220.652 62.0613 221.434 62.2856 222.197C62.4181 222.462 62.6285 222.681 62.8883 222.823V222.823Z" fill="#088DA3"/>
<path d="M148.311 218.508C140.562 232.69 135.022 247.892 129.183 262.744C125.363 272.778 122.952 283.271 120.403 293.597C117.854 303.923 115.262 314.351 111.043 324.24C110.605 324.696 110.068 325.045 109.473 325.258C108.878 325.471 108.242 325.544 107.615 325.47C106.097 325.302 104.173 324.276 101.842 322.37C95.5455 306.201 91.8637 289.297 87.964 272.742C84.1588 256.595 80.1792 239.996 73.0044 224.511C74.3914 222.241 75.5679 221.135 76.5119 221.222C77.2999 220.824 78.1809 220.648 79.0609 220.713C80.7529 220.858 83.7013 222.568 87.9568 225.865C92.3467 236.075 95.9282 246.615 98.6681 257.388C101.471 268.099 104.02 279.218 106.758 290.068C111.057 277.435 115.204 264.599 119.524 252.134C123.944 239.186 129.136 226.516 135.072 214.193C136.779 211.362 139.662 210.321 143.707 211.02C144.339 211.223 144.9 211.601 145.326 212.112C145.646 212.431 146.029 212.68 146.45 212.843C146.872 213.006 147.322 213.079 147.774 213.058C148.761 213.058 149.226 213.785 149.226 215.241C149.178 216.386 148.865 217.505 148.311 218.508V218.508Z" fill="#088DA3"/>
<path d="M202.325 281.438C202.56 281.774 202.658 282.188 202.601 282.595C202.441 284.858 200.372 287.594 196.261 290.599C190.212 287.332 185.31 282.325 180.706 277.261C175.478 271.527 170.401 265.341 164.817 259.862C163.699 267.175 162.82 274.539 161.912 281.881C161.004 289.224 159.995 296.362 158.1 303.421C157.484 303.696 156.903 304.046 156.371 304.461C155.398 305.131 154.607 305.393 153.997 305.255C150.133 304.665 148.376 301.507 148.739 296.02C148.935 293.84 149.255 291.673 149.698 289.529C150.279 286.422 150.634 284.436 150.751 283.672C151.847 276.518 152.312 268.812 152.878 261.368C153.266 255.513 153.648 249.653 154.026 243.787C154.919 231.359 155.965 218.784 158.463 206.676C160.082 198.846 168.201 196.488 174.795 195.899C179.936 195.44 183.916 199.108 186.588 202.783C189.544 206.85 190.662 212.839 190.219 218.275C189.791 223.907 187.489 229.277 184.686 233.956C181.971 238.658 178.451 242.843 174.287 246.32C172.621 247.659 171.747 248.964 171.665 250.235C171.571 251.625 172.391 253.145 174.112 254.681C175.383 255.794 176.734 256.864 178.041 257.948C182.282 262.038 186.705 265.887 191.207 269.656C195.346 272.975 199.565 276.708 202.325 281.438ZM180.205 220.312C180.584 218.64 180.788 216.933 180.815 215.219C180.773 213.171 180.112 211.184 178.92 209.521C177.772 207.906 175.778 207.277 172.936 207.636C170.808 207.906 169.254 208.939 168.767 210.547C168.041 213.021 167.722 216.368 167.489 219.789C167.402 221.178 167.308 224.773 167.177 230.5C167.119 234.095 166.877 237.685 166.451 241.255C172.181 235.281 178.223 228.761 180.205 220.305V220.312Z" fill="#088DA3"/>
<path d="M243.421 204.58C243.334 224.788 240.835 246.131 232.724 262.569C231.91 264.136 230.975 265.637 229.928 267.059C225.338 273.44 219.035 271.105 213.269 268.303C207.583 263.937 204.635 254.943 203.102 247.04C200.408 233.127 200.604 218.479 201.374 204.485C201.819 197.983 202.847 191.534 204.446 185.216C206.174 178.427 208.142 174.003 210.451 172.118C211.017 171.607 211.735 171.298 212.494 171.238C213.254 171.179 214.011 171.373 214.649 171.791C216.101 172.635 219.652 172.446 224.772 170.932C228.795 169.739 231.947 170.976 234.358 174.57C238.259 180.241 241.008 186.625 242.448 193.359C243.152 197.057 243.478 200.816 243.421 204.58V204.58ZM232.789 202.746C230.32 193.09 227.611 188.382 224.801 188.818C224.38 188.912 223.995 189.124 223.69 189.43C222.775 190.354 221.896 192.974 221.097 197.318C220.197 202.244 219.347 205.541 218.636 206.989C218.164 207.949 217.278 208.32 215.963 207.949C214.649 207.578 213.785 207.534 213.472 207.833C213.197 208.113 213.014 208.471 212.95 208.859C210.771 216.863 211.149 225.93 212.855 234.422C214.191 241.051 216.138 245.992 218.665 248.852C222.143 252.782 224.692 253.713 226.101 251.974C230.836 246.109 232.23 236.38 233.239 228.077C234.191 220.116 234.931 211.151 232.789 202.746Z" fill="#088DA3"/>
<path d="M160.373 387.708C159.271 389.688 157.663 391.337 155.714 392.488C153.765 393.639 151.546 394.25 149.284 394.257H24.8138C21.4444 394.248 18.2156 392.902 15.8331 390.515C13.4505 388.127 12.1077 384.892 12.0981 381.515V369.662C12.1077 366.285 13.4505 363.05 15.8331 360.662C18.2156 358.275 21.4444 356.929 24.8138 356.92H149.284" fill="#063163"/>
<path d="M149.284 395.13H24.8142C21.2138 395.127 17.762 393.692 15.2161 391.141C12.6702 388.589 11.2382 385.131 11.2344 381.523V369.662C11.2382 366.054 12.6702 362.595 15.2161 360.044C17.762 357.493 21.2138 356.058 24.8142 356.054H149.284V357.786H24.8142C21.6722 357.79 18.66 359.042 16.4382 361.268C14.2164 363.495 12.9666 366.513 12.9627 369.662V381.464C12.9666 384.613 14.2164 387.631 16.4382 389.858C18.66 392.084 21.6722 393.336 24.8142 393.34H149.284C151.391 393.335 153.459 392.769 155.276 391.7C157.093 390.631 158.594 389.098 159.625 387.257L161.128 388.108C159.953 390.226 158.236 391.992 156.155 393.226C154.074 394.46 151.702 395.117 149.284 395.13V395.13Z" fill="white"/>
<path d="M179.443 393.362H179.312C179.124 393.352 178.947 393.268 178.818 393.129L171.556 385.074L166.226 391.834C166.141 391.936 166.031 392.012 165.906 392.055C165.781 392.099 165.646 392.107 165.517 392.079C165.388 392.051 165.268 391.989 165.172 391.898C165.076 391.808 165.006 391.692 164.97 391.565L158.601 365.63C158.567 365.501 158.569 365.364 158.608 365.236C158.646 365.107 158.719 364.992 158.819 364.903L158.884 364.844C158.981 364.757 159.1 364.697 159.228 364.672C159.355 364.646 159.488 364.656 159.611 364.699L184.744 373.606C184.868 373.654 184.976 373.735 185.057 373.84C185.138 373.945 185.188 374.07 185.203 374.202C185.218 374.334 185.197 374.467 185.142 374.588C185.086 374.709 184.999 374.812 184.889 374.886L177.562 379.587L184.759 387.752C184.881 387.893 184.944 388.077 184.934 388.264C184.925 388.451 184.844 388.627 184.708 388.756L179.857 393.122C179.75 393.247 179.604 393.331 179.443 393.362V393.362ZM179.399 391.645L183.197 388.196L175.935 379.936C175.868 379.859 175.818 379.769 175.788 379.671C175.758 379.573 175.749 379.47 175.761 379.369C175.775 379.266 175.811 379.167 175.866 379.08C175.921 378.992 175.994 378.917 176.081 378.859L182.885 374.493L160.293 366.489L166.016 389.811L170.961 383.531C171.076 383.385 171.242 383.289 171.426 383.262H171.498C171.602 383.26 171.705 383.281 171.8 383.322C171.896 383.363 171.981 383.425 172.05 383.502L179.37 391.645" fill="white"/>
<path d="M159.763 361.606C159.591 361.627 159.419 361.579 159.283 361.472C159.147 361.366 159.058 361.21 159.037 361.038L158.463 356.862C158.451 356.776 158.456 356.689 158.478 356.605C158.499 356.522 158.537 356.443 158.589 356.374C158.641 356.306 158.706 356.248 158.78 356.204C158.855 356.16 158.937 356.131 159.022 356.119C159.107 356.107 159.194 356.112 159.278 356.134C159.361 356.156 159.439 356.194 159.508 356.246C159.577 356.298 159.635 356.363 159.679 356.437C159.722 356.512 159.751 356.594 159.763 356.68L160.329 360.864C160.352 361.037 160.305 361.213 160.199 361.352C160.093 361.491 159.936 361.583 159.763 361.606V361.606Z" fill="white"/>
<path d="M156.807 362.858C156.693 362.872 156.577 362.857 156.47 362.814C156.363 362.77 156.269 362.7 156.197 362.61L153.619 359.27C153.513 359.132 153.466 358.958 153.489 358.785C153.511 358.613 153.601 358.456 153.739 358.35C153.877 358.244 154.051 358.197 154.223 358.219C154.395 358.242 154.552 358.332 154.658 358.47L157.236 361.81C157.305 361.901 157.35 362.008 157.365 362.122C157.381 362.236 157.366 362.351 157.322 362.457C157.279 362.563 157.209 362.656 157.118 362.726C157.028 362.797 156.921 362.842 156.807 362.858V362.858Z" fill="white"/>
<path d="M154.846 365.441C154.733 365.455 154.618 365.44 154.512 365.397L150.613 363.796C150.527 363.769 150.447 363.724 150.379 363.665C150.311 363.605 150.256 363.532 150.218 363.45C150.18 363.368 150.159 363.279 150.156 363.188C150.154 363.098 150.171 363.008 150.205 362.924C150.239 362.84 150.291 362.764 150.355 362.701C150.42 362.638 150.498 362.59 150.582 362.558C150.667 362.527 150.757 362.513 150.848 362.518C150.938 362.523 151.026 362.547 151.107 362.589L155.006 364.182C155.166 364.25 155.293 364.378 155.36 364.538C155.426 364.699 155.427 364.88 155.362 365.041C155.319 365.147 155.249 365.241 155.158 365.311C155.068 365.381 154.96 365.426 154.846 365.441V365.441Z" fill="white"/>
<path d="M154.44 368.657L150.264 369.225C150.177 369.243 150.086 369.242 149.999 369.224C149.911 369.205 149.828 369.169 149.756 369.117C149.683 369.065 149.621 368.998 149.575 368.922C149.529 368.845 149.499 368.759 149.487 368.671C149.475 368.582 149.481 368.491 149.506 368.405C149.53 368.319 149.572 368.239 149.628 368.169C149.685 368.1 149.755 368.043 149.834 368.001C149.914 367.96 150.001 367.936 150.09 367.93L154.258 367.362C154.345 367.345 154.435 367.346 154.522 367.365C154.609 367.384 154.691 367.42 154.763 367.472C154.835 367.523 154.896 367.589 154.942 367.665C154.988 367.741 155.018 367.826 155.031 367.914C155.043 368.002 155.037 368.092 155.014 368.177C154.991 368.263 154.95 368.343 154.895 368.413C154.839 368.482 154.771 368.54 154.692 368.582C154.614 368.624 154.528 368.65 154.44 368.657Z" fill="white"/>
<path d="M152.356 374.239C152.214 374.253 152.072 374.222 151.95 374.149C151.827 374.076 151.732 373.966 151.677 373.834C151.623 373.703 151.612 373.557 151.646 373.419C151.681 373.281 151.759 373.157 151.869 373.067L155.203 370.484C155.34 370.378 155.513 370.331 155.684 370.353C155.856 370.375 156.011 370.464 156.118 370.6C156.171 370.668 156.21 370.745 156.233 370.828C156.256 370.911 156.262 370.998 156.252 371.083C156.241 371.168 156.213 371.251 156.17 371.325C156.127 371.4 156.07 371.465 156.001 371.517L152.668 374.108C152.578 374.179 152.47 374.225 152.356 374.239V374.239Z" fill="white"/>
<path d="M165.573 363.978C165.429 363.999 165.282 363.972 165.156 363.9C165.03 363.828 164.931 363.716 164.875 363.582C164.82 363.448 164.81 363.298 164.848 363.158C164.886 363.018 164.97 362.894 165.086 362.807L168.419 360.224C168.557 360.117 168.731 360.07 168.903 360.093C169.076 360.115 169.232 360.206 169.338 360.344C169.444 360.482 169.491 360.656 169.468 360.829C169.446 361.001 169.356 361.158 169.218 361.264L165.892 363.84C165.801 363.916 165.69 363.964 165.573 363.978V363.978Z" fill="white"/>
<path d="M163.002 362.014C162.889 362.028 162.774 362.013 162.668 361.97C162.588 361.938 162.516 361.891 162.455 361.83C162.394 361.77 162.345 361.698 162.312 361.619C162.279 361.54 162.262 361.455 162.262 361.369C162.262 361.283 162.279 361.198 162.312 361.119L163.91 357.211C163.937 357.125 163.982 357.045 164.041 356.977C164.101 356.909 164.174 356.854 164.256 356.815C164.337 356.777 164.426 356.756 164.517 356.754C164.607 356.752 164.697 356.768 164.78 356.802C164.864 356.837 164.94 356.888 165.002 356.953C165.065 357.018 165.114 357.096 165.145 357.181C165.177 357.265 165.19 357.356 165.185 357.446C165.18 357.537 165.156 357.625 165.115 357.706L163.525 361.613C163.48 361.72 163.408 361.813 163.316 361.883C163.225 361.954 163.116 361.998 163.002 362.014V362.014Z" fill="white"/>
<path d="M32.3445 368.483H30.5581V367.144C30.7576 366.967 30.9741 366.811 31.2044 366.678C31.4566 366.559 31.7161 366.457 31.9814 366.372C32.329 366.263 32.692 366.211 33.0562 366.22C33.4901 366.182 33.9251 366.276 34.3053 366.489C34.5267 366.627 34.6896 366.842 34.7628 367.093L39.2144 384.026C39.2144 384.121 39.2507 384.15 39.316 384.135C39.3282 384.134 39.34 384.13 39.3503 384.123C39.3607 384.116 39.3693 384.107 39.3757 384.097C39.382 384.086 39.3858 384.074 39.3868 384.062C39.3878 384.05 39.3859 384.037 39.3814 384.026L43.8911 367.093C44.0145 366.598 44.1888 366.365 44.3921 366.329C44.7467 366.341 45.095 366.425 45.4161 366.576C45.6848 366.678 45.9026 366.758 46.0624 366.802C46.1951 366.834 46.3206 366.891 46.4327 366.969C46.4737 367.004 46.5062 367.047 46.5276 367.097C46.549 367.146 46.5588 367.199 46.5562 367.253C46.5445 367.448 46.5079 367.642 46.4473 367.828L41.7197 384.943C41.6749 385.145 41.6117 385.342 41.5309 385.532C41.4234 385.796 41.2765 386.041 41.0952 386.26C40.8731 386.506 40.5937 386.694 40.2819 386.806C39.9667 386.915 39.635 386.969 39.3015 386.966H38.8948C38.8515 386.96 38.8075 386.96 38.7641 386.966C38.5146 386.928 38.2707 386.859 38.0379 386.762C37.8006 386.651 37.5919 386.486 37.4279 386.282C37.2519 386.059 37.1054 385.814 36.9922 385.554C36.9146 385.363 36.8515 385.166 36.8034 384.965L32.3445 368.483Z" fill="white"/>
<path d="M54.4139 386.667H50.1729C49.9776 386.673 49.7824 386.653 49.592 386.609C49.5329 386.6 49.4765 386.579 49.4264 386.546C49.3763 386.513 49.3338 386.47 49.3015 386.42C49.2419 386.308 49.2096 386.183 49.2071 386.056C49.2071 385.903 49.2071 385.7 49.2071 385.445C49.1856 385.158 49.2277 384.87 49.3305 384.601C49.4104 384.455 49.7009 384.383 50.1875 384.383H52.7437V368.643H50.1439C49.9493 368.647 49.7547 368.633 49.5629 368.599C49.5052 368.595 49.4495 368.577 49.4002 368.546C49.3509 368.516 49.3096 368.474 49.2797 368.424C49.2173 368.313 49.1825 368.188 49.178 368.061C49.178 367.901 49.178 367.697 49.178 367.442C49.1577 367.151 49.1973 366.859 49.2942 366.583C49.3814 366.431 49.6646 366.358 50.1511 366.358H58.0013C58.4879 366.358 58.7711 366.431 58.851 366.583C58.955 366.857 58.9971 367.15 58.9744 367.442C58.9744 367.697 58.9744 367.901 58.9744 368.061C58.9753 368.188 58.9427 368.314 58.88 368.424C58.8501 368.474 58.8088 368.516 58.7595 368.546C58.7103 368.577 58.6545 368.595 58.5968 368.599C58.4051 368.633 58.2105 368.647 58.0158 368.643H55.3362V384.383H57.9723C58.4588 384.383 58.7493 384.455 58.8292 384.601C58.932 384.87 58.9742 385.158 58.9526 385.445C58.9526 385.7 58.9526 385.903 58.9526 386.056C58.9468 386.183 58.9146 386.307 58.8582 386.42C58.826 386.47 58.7834 386.513 58.7333 386.546C58.6832 386.579 58.6268 386.6 58.5678 386.609C58.3774 386.653 58.1821 386.673 57.9868 386.667H54.4139Z" fill="white"/>
<path d="M73.3457 378.335C73.6144 379.005 73.9048 379.718 74.2026 380.475C74.5003 381.232 74.7835 381.93 75.0595 382.6C75.3354 383.269 75.5751 383.837 75.7857 384.324C75.922 384.65 76.0747 384.968 76.2432 385.278H77.7028V386.478C77.7028 386.478 77.4559 386.544 77.0275 386.682C76.4783 386.827 75.9071 386.869 75.3427 386.806C74.9951 386.769 74.6549 386.681 74.3333 386.544C74.0773 386.462 73.857 386.295 73.7088 386.071C73.6361 385.94 73.4836 385.627 73.2585 385.117C73.0334 384.608 72.772 383.997 72.4742 383.276C72.1765 382.556 71.857 381.821 71.5229 380.977C71.1889 380.133 70.8766 379.376 70.5861 378.634H70.1795C69.3806 378.634 68.7271 378.634 68.2332 378.568C67.7394 378.503 67.3836 378.481 67.1875 378.445C66.7143 378.337 66.2872 378.083 65.9675 377.717V385.67C65.9722 385.868 65.9576 386.065 65.9239 386.26C65.9156 386.317 65.8959 386.371 65.8659 386.42C65.836 386.469 65.7964 386.511 65.7497 386.544C65.6253 386.605 65.4888 386.637 65.3502 386.638H64.624H63.985C63.8466 386.64 63.7105 386.602 63.5929 386.529C63.5005 386.458 63.4341 386.358 63.404 386.245C63.36 386.057 63.3405 385.864 63.3459 385.67V368.206C62.4455 368.097 61.9517 367.893 61.8936 367.609V366.3H70.7967C72.8228 366.3 74.326 366.751 75.2919 367.66C76.2577 368.57 76.7443 369.938 76.7443 371.772V373.351C76.7443 376.058 75.6114 377.719 73.3457 378.335ZM70.6006 376.152C71.528 376.22 72.445 375.922 73.1569 375.323C73.4588 375.009 73.6917 374.635 73.8405 374.225C73.9894 373.815 74.0509 373.378 74.021 372.943V371.99C74.0491 371.554 73.9882 371.117 73.8421 370.705C73.6961 370.294 73.4678 369.916 73.1714 369.596C72.4596 368.985 71.5352 368.682 70.6006 368.752H65.9893V375.803C66.5122 375.912 67.0205 376 67.5216 376.072C68.0484 376.147 68.5799 376.183 69.1119 376.182L70.6006 376.152Z" fill="white"/>
<path d="M79.7651 368.643C79.5681 368.647 79.3711 368.633 79.1769 368.599C79.1194 368.594 79.0638 368.576 79.0147 368.545C78.9655 368.515 78.9241 368.474 78.8937 368.424C78.8341 368.312 78.8018 368.188 78.7993 368.061C78.7993 367.901 78.7993 367.697 78.7993 367.442C78.7805 367.15 78.8225 366.858 78.9228 366.583C79.0026 366.431 79.2859 366.358 79.7797 366.358H92.3574C92.8512 366.358 93.1344 366.431 93.2143 366.583C93.3146 366.858 93.3566 367.15 93.3377 367.442C93.3377 367.697 93.3377 367.901 93.3377 368.061C93.3353 368.188 93.3029 368.312 93.2433 368.424C93.2122 368.473 93.1705 368.514 93.1215 368.544C93.0725 368.574 93.0174 368.593 92.9601 368.599C92.7659 368.633 92.5689 368.647 92.3719 368.643H87.2885V385.671C87.3069 385.867 87.3069 386.064 87.2885 386.26C87.2802 386.317 87.2605 386.371 87.2305 386.42C87.2006 386.469 87.161 386.511 87.1142 386.544C86.9899 386.605 86.8534 386.637 86.7148 386.638H85.9886H85.3496C85.2112 386.64 85.0751 386.602 84.9574 386.529C84.8629 386.46 84.796 386.359 84.7686 386.245C84.7246 386.057 84.7051 385.864 84.7105 385.671V368.643H79.7651Z" fill="white"/>
<path d="M109.437 381.632C109.381 382.396 109.167 383.14 108.808 383.816C108.449 384.493 107.954 385.087 107.353 385.561C105.992 386.533 104.337 387.001 102.669 386.886C101.003 386.941 99.3612 386.476 97.9709 385.554C97.3691 385.082 96.8722 384.49 96.512 383.814C96.1519 383.139 95.9364 382.396 95.8794 381.632C95.786 380.937 95.7399 380.237 95.7415 379.536V367.333C95.7353 367.147 95.7524 366.961 95.7923 366.78C95.8184 366.659 95.8851 366.552 95.9811 366.474C96.1034 366.407 96.2409 366.372 96.3805 366.372C96.5475 366.372 96.7654 366.372 97.0196 366.372C97.2737 366.372 97.5642 366.372 97.7458 366.372C97.8824 366.37 98.0174 366.402 98.1379 366.467C98.1874 366.497 98.2291 366.538 98.2594 366.588C98.2897 366.637 98.3078 366.693 98.3122 366.751C98.3459 366.943 98.3605 367.138 98.3558 367.333V378.976C98.3558 379.522 98.3558 380.046 98.4211 380.555C98.4665 381.044 98.5392 381.53 98.639 382.01C98.7259 382.425 98.8884 382.819 99.1183 383.175C99.6104 383.694 100.244 384.056 100.941 384.215C101.705 384.432 102.504 384.501 103.294 384.419C104.066 384.348 104.812 384.099 105.472 383.691C106.096 383.327 106.562 382.744 106.78 382.054C106.883 381.622 106.941 381.181 106.954 380.737C106.983 380.198 106.997 379.449 106.997 378.488V367.333C106.991 367.147 107.008 366.961 107.048 366.78C107.075 366.658 107.144 366.549 107.244 366.474C107.364 366.406 107.499 366.371 107.637 366.372C107.811 366.372 108.021 366.372 108.276 366.372C108.53 366.372 108.82 366.372 109.002 366.372C109.139 366.369 109.274 366.401 109.394 366.467C109.443 366.497 109.485 366.538 109.515 366.588C109.546 366.637 109.564 366.693 109.568 366.751C109.602 366.943 109.616 367.138 109.612 367.333V378.525C109.611 379.563 109.553 380.6 109.437 381.632V381.632Z" fill="white"/>
<path d="M114.463 386.042C114.296 386.515 114.107 386.769 113.889 386.769C113.546 386.776 113.206 386.714 112.887 386.587L112.233 386.376C112.106 386.338 111.989 386.271 111.892 386.18C111.86 386.135 111.837 386.084 111.826 386.031C111.814 385.977 111.815 385.921 111.827 385.867C111.861 385.668 111.915 385.473 111.987 385.285L117.912 367.478C117.97 367.297 118.043 367.1 118.13 366.896C118.182 366.733 118.287 366.592 118.428 366.496C118.548 366.456 118.672 366.429 118.798 366.416C118.951 366.416 119.118 366.416 119.299 366.416H121.325C121.508 366.411 121.69 366.449 121.856 366.525C121.995 366.623 122.099 366.764 122.153 366.925C122.24 367.129 122.313 367.326 122.371 367.508L128.399 385.343H129.895V386.544L129.219 386.747C128.669 386.89 128.098 386.929 127.534 386.864C127.212 386.836 126.897 386.75 126.605 386.609C126.379 386.511 126.19 386.343 126.067 386.129C125.973 385.954 125.85 385.663 125.683 385.263C125.516 384.863 125.334 384.383 125.131 383.808C124.927 383.233 124.695 382.636 124.448 381.945C124.201 381.253 123.954 380.54 123.722 379.762H116.605L114.463 386.042ZM120.113 368.264C120.04 368.519 119.931 368.876 119.771 369.349L119.256 370.928C119.067 371.51 118.871 372.121 118.66 372.754C118.45 373.387 118.254 373.999 118.065 374.581C117.876 375.163 117.702 375.694 117.556 376.174C117.411 376.655 117.317 377.018 117.259 377.273H122.916C122.712 376.618 122.531 376.014 122.371 375.461C122.204 374.908 122.023 374.304 121.812 373.649C121.601 372.994 121.369 372.245 121.086 371.393C120.803 370.542 120.548 369.494 120.113 368.264Z" fill="white"/>
<path d="M133.075 386.624C132.904 386.612 132.741 386.546 132.61 386.435C132.495 386.316 132.423 386.162 132.407 385.998C132.382 385.756 132.37 385.513 132.371 385.27V367.333C132.365 367.147 132.382 366.961 132.422 366.78C132.448 366.659 132.514 366.552 132.61 366.474C132.733 366.407 132.87 366.372 133.01 366.372C133.177 366.372 133.395 366.372 133.649 366.372C133.903 366.372 134.194 366.372 134.375 366.372C134.512 366.371 134.646 366.403 134.767 366.467C134.815 366.498 134.854 366.54 134.882 366.589C134.91 366.639 134.925 366.694 134.927 366.751C134.941 366.945 134.941 367.139 134.927 367.333V384.215H143.38C143.867 384.215 144.157 384.295 144.237 384.448C144.338 384.722 144.38 385.015 144.36 385.307C144.36 385.561 144.36 385.772 144.36 385.947C144.354 386.092 144.322 386.235 144.266 386.369C144.203 386.481 144.099 386.565 143.975 386.602C143.786 386.653 143.59 386.675 143.395 386.667H133.881C133.612 386.671 133.343 386.657 133.075 386.624V386.624Z" fill="white"/>
<path d="M355.173 69.4299C350.322 103.929 250.47 51.3107 250.47 51.3107C302.822 26.3003 359.53 34.494 355.173 69.4299ZM292.154 1.18805C302.321 5.06658 303.773 16.7095 292.64 23.6079C281.493 30.077 251.436 24.9031 251.436 24.9031C269.373 0.729609 282.459 -2.26843 292.154 1.18805ZM280.535 79.9594C295.059 86.8578 306.714 103.245 295.567 108.419C284.899 113.593 275.233 100.655 266.962 90.7364C262.397 85.1711 257.549 79.8448 252.438 74.7783C252.438 74.7783 265.495 72.6244 280.52 79.9594H280.535Z" fill="white"/>
</g>
<defs>
<clipPath id="clip0">
<rect width="355.277" height="395.101" fill="white"/>
</clipPath>
</defs>
</svg>
