<svg width="1059" height="182" viewBox="0 0 1059 182" fill="none" xmlns="http://www.w3.org/2000/svg">
<path d="M722.261 72.6708C722.152 97.9661 719.025 124.682 708.871 145.259C707.852 147.221 706.682 149.1 705.371 150.879C699.626 158.868 691.736 155.944 684.518 152.437C677.4 146.972 673.71 135.713 671.792 125.821C668.419 108.405 668.665 90.0687 669.628 72.5524C670.185 64.413 671.472 56.3403 673.473 48.4322C675.637 39.9336 678.1 34.3954 680.991 32.0362C681.699 31.3963 682.598 31.0091 683.549 30.9349C684.499 30.8608 685.447 31.1039 686.245 31.6263C688.063 32.683 692.508 32.4461 698.917 30.5515C703.953 29.0576 707.898 30.6061 710.916 35.1059C715.8 42.2036 719.241 50.1953 721.043 58.625C721.925 63.2532 722.333 67.9595 722.261 72.6708ZM708.953 70.3754C705.862 58.2879 702.471 52.3945 698.953 52.9411C698.427 53.0583 697.944 53.3238 697.563 53.7062C696.417 54.863 695.317 58.1422 694.317 63.5802C693.19 69.7469 692.127 73.8732 691.236 75.6859C690.645 76.8882 689.536 77.3528 687.891 76.8882C686.245 76.4237 685.164 76.369 684.773 76.7425C684.428 77.0927 684.199 77.5413 684.118 78.0268C681.391 88.0465 681.864 99.3962 684 110.026C685.673 118.324 688.109 124.509 691.272 128.089C695.626 133.008 698.817 134.174 700.581 131.997C706.507 124.655 708.253 112.476 709.516 102.083C710.707 92.1182 711.634 80.8961 708.953 70.3754Z" fill="#003366"/>
<path d="M665.135 139.123C665.429 139.545 665.553 140.062 665.481 140.572C665.281 143.404 662.69 146.829 657.545 150.591C649.973 146.502 643.837 140.235 638.074 133.895C631.529 126.717 625.175 118.975 618.184 112.116C616.784 121.27 615.684 130.488 614.548 139.679C613.412 148.87 612.148 157.806 609.776 166.641C609.005 166.986 608.278 167.424 607.612 167.944C606.394 168.782 605.403 169.11 604.64 168.937C599.804 168.199 597.604 164.246 598.058 157.377C598.304 154.648 598.704 151.936 599.258 149.252C599.986 145.363 600.431 142.876 600.576 141.92C601.949 132.966 602.531 123.319 603.24 114.001C603.725 106.672 604.203 99.3358 604.676 91.9941C605.794 76.4362 607.103 60.6961 610.23 45.539C612.257 35.7378 622.42 32.7866 630.674 32.0487C637.11 31.4749 642.092 36.0658 645.437 40.6657C649.137 45.7576 650.537 53.2542 649.982 60.0585C649.446 67.1087 646.564 73.8311 643.055 79.6881C639.657 85.5728 635.25 90.8115 630.038 95.164C627.953 96.84 626.859 98.4735 626.756 100.065C626.638 101.804 627.665 103.708 629.82 105.63C631.411 107.024 633.101 108.363 634.738 109.72C640.046 114.839 645.582 119.658 651.218 124.376C656.4 128.53 661.681 133.203 665.135 139.123ZM637.447 62.609C637.92 60.5157 638.176 58.3789 638.21 56.2328C638.158 53.6696 637.33 51.1827 635.838 49.1005C634.401 47.0784 631.904 46.292 628.347 46.7413C625.684 47.0784 623.738 48.3718 623.129 50.3849C622.22 53.4819 621.82 57.672 621.529 61.9531C621.42 63.6929 621.302 68.1927 621.139 75.3614C621.066 79.8616 620.763 84.3552 620.23 88.8242C627.402 81.3459 634.965 73.1843 637.447 62.5998V62.609Z" fill="#003366"/>
<path d="M483.814 141.42C477.08 144.748 470.164 147.692 463.098 150.237C456.38 151.858 449.799 153.398 442.908 151.594C442.169 151.441 441.477 151.113 440.89 150.638C439.29 149.417 437.736 147.085 436.227 143.715C434 139.042 432.836 136.628 432.718 136.428C431.463 121.736 431.327 106.897 431.4 92.2228C431.463 78.2134 431.791 63.9854 430.818 49.9396C430.4 43.9004 429.764 38.1618 429 32.7967C430.309 31.7036 432.063 31.4303 434.3 31.986C438.536 33.0426 441.572 35.4929 442.135 38.8905C444.599 52.7633 443.89 69.5236 444.163 84.8265C444.435 100.475 444.699 116.17 446.053 131.773C450.219 132.215 454.43 131.777 458.416 130.489C463.952 128.822 468.197 127.21 470.833 126.673C471.893 127.009 472.979 127.259 474.079 127.419C475.246 127.59 476.4 127.839 477.533 128.166C478.803 128.58 479.971 129.259 480.961 130.157C481.951 131.054 482.741 132.152 483.278 133.377C485.023 136.984 485.196 139.744 483.814 141.42Z" fill="#003366"/>
<path d="M492.468 35.0374C493.514 39.0635 494.477 43.2354 495.313 47.5985C498.04 61.8994 499.495 76.5191 500.986 91.0295C502.486 105.713 503.958 120.497 506.758 134.971C507.467 138.678 508.249 142.331 509.076 145.901C508.649 149.754 506.349 151.367 502.349 150.51C496.577 149.29 492.923 145.91 491.441 140.955C489.959 136 488.714 130.835 487.65 125.47C485.014 111.898 483.887 97.9796 482.723 84.1888C481.56 70.398 480.496 56.7074 477.869 43.1716C477.187 39.6647 476.369 36.2307 475.451 32.8786C476.233 30.2552 478.178 28.807 481.26 28.5337C483.96 28.3473 486.663 28.875 489.096 30.064C489.358 29.7059 489.727 29.441 490.15 29.3079C490.541 29.2624 490.932 29.982 491.141 31.3301C491.241 32.3204 491.433 33.2993 491.714 34.254C491.88 34.5861 492.143 34.8594 492.468 35.0374Z" fill="#003366"/>
<path d="M599.397 29.6359C589.698 47.3891 582.762 66.4175 575.453 85.0086C570.672 97.5697 567.654 110.705 564.463 123.63C561.273 136.556 558.027 149.609 552.746 161.988C552.198 162.559 551.526 162.995 550.781 163.262C550.037 163.529 549.241 163.62 548.455 163.527C546.555 163.317 544.147 162.033 541.229 159.647C533.347 139.407 528.739 118.247 523.857 97.5242C519.094 77.3117 514.112 56.5344 505.131 37.1507C506.867 34.3088 508.34 32.9242 509.522 33.0335C510.508 32.5354 511.611 32.3151 512.712 32.3959C514.83 32.5781 518.521 34.7187 523.848 38.845C529.343 51.6255 533.826 64.8193 537.256 78.3045C540.765 91.7127 543.956 105.631 547.383 119.212C552.764 103.399 557.955 87.3314 563.363 71.7279C568.895 55.5202 575.394 39.6604 582.826 24.2344C584.962 20.691 588.571 19.3885 593.634 20.2629C594.425 20.517 595.128 20.9908 595.661 21.6292C596.061 22.0293 596.541 22.3413 597.068 22.5452C597.596 22.7491 598.16 22.8405 598.725 22.8134C599.961 22.8134 600.543 23.7243 600.543 25.5461C600.483 26.98 600.091 28.3802 599.397 29.6359Z" fill="#003366"/>
<path d="M328.7 97.5541C328.505 98.1069 328.319 98.737 328.124 99.3649C327.93 99.9928 327.623 100.342 327.299 100.331C326.187 100.294 324.245 100.051 321.852 99.9835C320.215 99.9535 317.694 100.033 314.4 100.1C313.16 100.013 309.758 100.26 304.321 100.664C304.112 100.676 303.904 100.621 303.727 100.507C303.551 100.393 303.416 100.226 303.34 100.03C302.732 98.8574 302.871 97.4085 303.757 95.6831C303.873 95.4672 303.955 95.159 304.055 95.014C304.191 94.9096 304.359 94.8564 304.529 94.8637C307.595 94.5753 310.768 94.1904 313.893 93.8878C317.032 93.6915 320.182 93.7513 323.311 94.0666C323.873 94.0982 324.437 94.0806 324.995 94.0142C325.533 93.9569 326.075 93.9375 326.615 93.956C327.005 93.9602 327.39 94.0414 327.748 94.1948C328.106 94.3482 328.43 94.5708 328.702 94.85C329.168 95.409 329.132 96.3175 328.7 97.5541Z" fill="#97BD30"/>
<path d="M365.88 54.0663C365.009 57.7634 364.041 61.4752 363.015 65.1547C358.982 79.2336 355.775 93.5361 353.409 107.989C352.591 112.38 352.139 116.831 352.058 121.296C352.097 121.904 351.963 122.51 351.672 123.044C351.381 123.578 350.944 124.019 350.413 124.315C349.934 124.55 349.386 124.599 348.874 124.452C348.361 124.305 347.922 123.974 347.64 123.521C347.205 122.809 346.999 121.98 347.051 121.146C347.072 118.173 347.318 115.206 347.787 112.27C348.533 106.887 349.338 101.406 350.459 96.0546C350.509 95.8418 350.559 95.629 350.609 95.4163L350.335 95.3516C349.931 96.1924 349.549 96.9445 349.167 97.7341C347.415 101.499 345.42 105.146 343.195 108.652C342.056 110.472 340.701 112.149 339.161 113.644C335.226 117.265 331.537 116.434 329.869 111.661C328.82 108.182 328.58 104.508 329.168 100.921C329.851 95.6639 331.659 90.6154 334.467 86.12C334.873 85.467 335.321 84.8332 335.782 84.2214C339.142 79.5945 344.712 77.0793 350.031 79.24C351.576 79.8567 351.576 79.8567 352.298 77.9024C355.293 69.7084 358.036 61.4737 360.69 53.1431C360.889 52.4974 361.087 51.8517 361.322 51.2144C361.912 49.6596 363.028 48.6873 364.243 48.6459C365.457 48.6045 366.322 49.613 366.378 51.2359C366.333 52.1967 366.165 53.1478 365.88 54.0663ZM348.651 84.8575C344.731 83.2227 341.741 84.0999 339.083 87.8907C338.574 88.6146 338.107 89.3669 337.684 90.1439C336.013 93.2355 334.856 96.5791 334.259 100.043C333.896 101.94 333.754 103.872 333.836 105.802C333.888 106.686 334.022 107.563 334.237 108.423C334.795 110.491 335.194 110.585 336.714 109.006C337.507 108.173 338.218 107.266 338.838 106.297C339.758 104.848 340.68 103.39 341.512 101.883C344.278 96.8874 346.727 91.7225 348.844 86.4189C349.185 85.7226 349.399 85.1739 348.651 84.8575Z" fill="#97BD30"/>
<path d="M381.229 90.4735C379.929 97.2424 377.161 103.644 373.122 109.227C371.69 111.243 369.979 113.045 368.041 114.58C367.403 115.075 366.731 115.527 366.032 115.932C362.013 118.167 358.705 116.667 357.759 112.242C357.458 110.713 357.387 109.148 357.545 107.597C357.646 106.537 357.583 105.468 357.358 104.427C356.693 101.463 357.31 98.4079 358.388 95.3772C359.941 91.0202 362.099 86.9038 364.799 83.1497C366.221 81.0569 368.034 79.2594 370.137 77.8564C373.218 75.9153 375.97 75.8522 378.389 77.8727C381.196 80.2279 382.084 83.7125 381.662 88.002C381.573 88.814 381.384 89.6584 381.229 90.4735ZM376.684 87.2504C376.746 86.4719 376.641 85.6893 376.376 84.9553C376.11 84.2212 375.691 83.5528 375.146 82.9951C373.983 81.9069 373.149 81.8788 371.614 83.0051C369.802 84.2945 368.405 86.0866 367.597 88.1604C365.549 93.1242 364.02 98.2867 363.034 103.565C362.878 104.464 362.702 105.808 362.584 107.062C362.448 108.13 362.509 109.213 362.765 110.258C363.044 111.213 363.361 111.335 364.273 110.951C364.902 110.642 365.487 110.251 366.013 109.788C367.596 108.438 368.985 106.876 370.142 105.146C372.257 102.005 373.925 98.583 375.096 94.9805C376.034 92.508 376.569 89.9011 376.682 87.2592L376.684 87.2504Z" fill="#97BD30"/>
<path d="M405.919 99.5655C405.715 100.154 405.525 100.802 405.324 101.456C405.123 102.111 404.826 102.499 404.502 102.526C403.431 102.592 401.505 102.522 399.122 102.728C397.492 102.868 394.983 103.212 391.622 103.684C388.118 104.132 384.641 104.762 381.203 105.571C380.995 105.613 380.78 105.581 380.594 105.481C380.408 105.38 380.263 105.218 380.183 105.022C379.528 103.839 379.732 102.259 380.694 100.277C380.828 100.027 380.916 99.6925 381.031 99.523C381.168 99.3977 381.34 99.3174 381.524 99.2929C384.75 98.6024 388.03 97.8404 391.225 97.1989C394.35 96.6799 397.515 96.4482 400.681 96.5067C401.239 96.4843 401.795 96.4181 402.343 96.3087C402.87 96.2057 403.403 96.1406 403.939 96.1139C404.31 96.0835 404.682 96.1337 405.031 96.2611C405.38 96.3885 405.697 96.5901 405.96 96.852C406.421 97.3537 406.363 98.2757 405.919 99.5655Z" fill="#97BD30"/>
<path d="M111.085 21.7841C110.424 24.5623 109.1 27.139 107.227 29.2935C105.253 31.7745 102.78 33.811 99.9678 35.2701C98.6642 35.9235 97.2068 36.2061 95.7546 36.087C94.3238 35.984 92.8891 36.2327 91.5752 36.8114C83.7404 40.5254 76.5605 45.5306 69.534 50.5946C62.5074 55.6587 55.7157 60.8549 48.6271 65.6812C46.9424 71.8413 45.5613 78.1607 44.3524 84.4084C43.1435 90.6561 42.0942 97.0324 41.3195 103.365C42.2831 103.317 43.2395 103.172 44.1741 102.932C46.487 102.342 50.8499 100.42 57.4262 97.2192C63.5593 94.245 68.41 92.5838 71.5248 92.1285C74.1635 91.7722 75.2735 92.4832 74.6707 94.2536C73.0753 98.9102 69.0531 103.489 63.3823 106.445C58.5629 108.921 53.0305 111.185 47.8714 113.603C45.9714 114.169 42.8523 115.26 38.6339 116.84C38.0063 118.917 37.4373 121.215 36.9518 123.764C36.4663 126.314 35.8877 129.916 35.1698 134.957C34.4519 139.997 33.8186 143.831 33.336 146.339C31.8934 153.813 29.4019 161.467 24.7994 167.609C24.4533 168.11 23.9792 168.508 23.4269 168.761C22.8746 169.015 22.2645 169.115 21.6606 169.051C20.2761 168.825 19.0296 168.08 18.1727 166.968C17.1665 165.919 16.5138 164.58 16.306 163.139C15.9209 159.598 16.1078 156.018 16.8595 152.536C17.1199 151.181 18.3885 146.512 20.6782 138.573C22.3101 132.823 23.0999 128.201 23.0251 124.912C23.0495 123.739 22.1645 122.979 20.4362 122.609C18.2199 122.164 16.6207 121.786 16.3495 121.415C16.0783 121.043 16.5953 119.122 17.6576 116.136C18.9816 115.925 20.1901 115.255 21.0722 114.243C21.8383 113.324 22.8335 112.624 23.9567 112.214C24.3686 112.103 24.7906 112.034 25.2162 112.007C27.2654 107.04 28.7792 101.868 29.732 96.5798C30.8609 90.098 31.4956 83.3792 32.2886 76.7631C30.4295 77.4027 28.4371 77.548 26.5062 77.1849C24.7393 76.7695 23.9841 75.9688 24.2417 74.5623C24.6125 72.6181 26.846 70.1817 31.0101 67.3141C42.5772 59.3072 53.8607 50.5097 65.2668 42.2551C77.2045 33.6365 89.7145 24.6907 103.217 19.0549C105.627 18.0165 107.676 17.7706 109.276 18.2082C110.876 18.6457 111.477 19.8542 111.085 21.7841Z" fill="#003366"/>
<path d="M157.887 35.0085C150.206 38.9344 142.305 42.4266 134.479 45.9224C126.548 49.3747 118.795 53.2234 111.249 57.4537C107.922 64.5396 103.4 78.5647 104.247 79.9592C104.542 80.4302 108.514 80.2773 111.266 79.8162C114.462 79.1505 117.62 78.3142 120.727 77.3108C123.835 76.3051 127.008 75.5167 130.224 74.9512C133.919 74.4508 137.894 74.7826 139.203 76.1929C140.36 77.6083 140.952 79.4031 140.866 81.2314C140.745 81.7397 140.518 82.2164 140.199 82.6298C139.88 83.0432 139.477 83.3836 139.016 83.6284C137.839 84.6086 136.72 85.6576 135.666 86.7697C135.126 87.378 134.469 87.8713 133.735 88.2202C133.001 88.5691 132.204 88.7666 131.392 88.8007C128.494 89.7651 123.339 90.681 116.023 91.753C110.81 92.4091 105.727 93.868 100.957 96.0781C97.7846 103.495 94.447 110.96 92.7852 118.832C92.0131 122.492 91.9479 125.394 92.5108 127.517C101.06 133.208 112.849 132.01 122.555 131.49C123.896 131.319 125.153 130.742 126.158 129.836C127.534 128.769 128.609 128.214 129.383 128.171C133.173 127.23 134.953 130.076 134.717 136.76C134.621 139.023 133.795 141.195 132.364 142.949C131.746 143.814 130.948 144.535 130.026 145.062C129.104 145.59 128.079 145.911 127.022 146.004C113.919 146.308 100.615 146.201 87.8861 142.94C84.5722 142.128 81.6443 140.187 79.6039 137.449C78.5174 136.102 77.711 134.551 77.2323 132.887C76.7536 131.222 76.6121 129.478 76.8163 127.757C77.995 118.089 79.5039 108.639 82.54 99.3342C79.4694 97.6456 78.4354 95.7585 79.1462 93.5932C79.503 92.5364 80.6168 91.3131 82.6553 90.0542C84.6938 88.7952 85.9861 87.5699 86.3564 86.6186C88.42 81.2413 89.7379 74.9979 91.3262 69.1595C84.3431 69.7283 81.3696 68.3973 82.1682 64.796C82.9536 61.4288 85.7553 57.8746 90.5556 54.6632C94.8689 51.777 99.7288 48.9979 104.122 46.0995C110.586 41.7814 117.314 37.8721 124.265 34.3945C131.108 31.0543 138.002 27.847 144.948 24.7725C145.751 24.4612 146.58 24.2192 147.424 24.0492C151.083 23.2759 155.098 23.8647 159.308 25.9413C159.381 26.9227 159.504 27.8998 159.676 28.8686C159.889 29.9149 159.927 30.9894 159.789 32.0486C159.541 33.2363 158.864 34.2906 157.887 35.0085Z" fill="#003366"/>
<path d="M180.265 31.206C179.666 35.2862 178.91 39.5358 177.983 43.9168C174.86 58.6809 170.386 73.2451 166.059 87.6715C161.677 102.27 157.21 116.929 154.056 131.838C153.271 135.533 152.561 139.162 151.926 142.723C149.942 146.696 147.014 148.603 143.232 148.4C137.821 148.117 135.317 145.472 135.825 140.577C136.391 135.373 137.229 130.202 138.334 125.085C141.371 110.637 145.96 96.5197 150.411 82.4753C154.862 68.4309 159.448 54.3894 162.471 40.0223C163.228 36.4181 163.829 32.89 164.278 29.4818C165.108 28.1505 166.226 27.0231 167.55 26.1831C168.873 25.3432 170.368 24.8123 171.924 24.6297C174.391 24.304 176.895 24.833 179.019 26.1288C179.397 25.7831 179.849 25.5291 180.34 25.3867C180.74 25.3516 180.82 26.112 180.486 27.4552C180.192 28.4251 179.983 29.4187 179.86 30.4247C179.926 30.7737 180.036 31.0839 180.265 31.206Z" fill="#003366"/>
<path d="M236.683 146.728C236.89 147.358 236.919 148.033 236.768 148.679C236.069 151.883 232.955 153.824 227.168 154.787C220.532 145.571 215.249 135.307 209.942 125.257C204.479 114.91 198.912 104.415 191.949 95.0325C188.959 104.757 186.313 114.584 183.594 124.374C180.954 134.025 178.128 143.616 174.125 152.801C173.224 153.021 172.353 153.354 171.534 153.789C170.061 154.465 168.911 154.643 168.092 154.325C162.845 152.695 160.966 148.26 162.525 140.919C163.225 137.996 164.092 135.116 165.122 132.292C166.538 128.198 167.416 125.544 167.718 124.565C170.601 115.168 172.741 104.837 174.98 94.9157C176.632 87.1173 178.285 79.3188 179.938 71.5203C183.564 54.9161 187.592 38.3622 193.235 22.3436C197.004 11.6606 208.787 9.06023 218.292 10.0472C225.473 10.7974 230.566 16.7994 233.042 23.4183C235.832 30.9343 236.424 39.0933 234.75 46.9392C233.026 54.2471 229.351 60.9498 224.119 66.33C219.298 71.4415 213.737 75.7981 207.624 79.2534C205.105 80.5338 203.645 82.0614 203.273 83.7931C202.87 85.6692 203.685 88.048 205.719 90.7689C207.226 92.7853 208.841 94.8398 210.366 96.8863C215.45 104.745 220.378 112.713 225.261 120.721C230.145 128.728 234.56 137.422 236.683 146.728ZM220.86 45.3217C221.733 43.1004 222.364 40.7915 222.743 38.4351C223.084 35.5072 222.584 32.5435 221.301 29.8922C220.05 27.2835 217.446 25.8076 213.438 25.628C210.428 25.4838 208.083 26.625 207.071 28.6825C205.542 31.8888 204.478 36.3681 203.496 40.9802C203.095 42.8484 202.282 47.7104 200.979 55.4774C200.194 60.357 199.155 65.1924 197.865 69.9636C206.772 63.4108 216.537 56.2013 220.86 45.3217Z" fill="#003366"/>
<path d="M280.648 148.177C280.754 149.996 280.633 151.822 280.288 153.612C280.092 154.711 279.677 155.76 279.066 156.694C278.455 157.628 277.662 158.429 276.735 159.049C274.863 160.286 273.667 160.756 273.15 160.479C267.751 156.711 267.401 148.543 267.95 142.48C268.791 133.649 269.06 124.774 268.753 115.911C265.373 114.919 261.944 114.1 258.48 113.457C254.509 112.77 249.664 113.635 247.9 115.657C243.999 120.133 241.301 130.183 238.221 137.481C235.026 145.044 231.749 152.687 227.668 159.805C226.224 162.203 224.1 162.691 221.429 161.214C218.009 159.319 216.347 156.844 216.75 154.196C217.88 146.687 221.671 139.609 225.261 132.986C228.932 126.223 233.288 119.308 235.66 111.876C236.056 110.644 235.63 109.075 234.39 107.226C233.151 105.376 232.613 104.032 232.794 103.182C233.007 102.38 233.44 101.654 234.045 101.088C234.718 100.423 236.04 99.9865 238.011 99.872C239.982 99.7575 241.138 99.2501 241.583 98.3025C247.907 86.3916 253.562 74.077 259.298 61.8695C264.614 50.5148 269.935 39.051 276.428 28.2559C277.436 26.647 278.858 26.3738 280.667 27.4375C282.128 28.3996 283.229 29.8201 283.798 31.4768C285.824 36.6739 286.197 43.7361 285.522 49.2387C284.818 54.9114 284.169 60.7521 283.422 66.4894C281.548 93.657 280.021 120.953 280.648 148.177ZM269.007 102.594C269.918 96.8039 270.502 90.9671 270.756 85.1115C271.012 79.3418 271.232 73.4601 271.545 67.638C266.032 77.6995 261.065 88.0548 256.324 98.5143C258.031 98.6503 262.464 99.8201 269.007 102.594Z" fill="#003366"/>
<path d="M996.06 99H776.008C769.643 98.9932 763.54 96.4595 759.039 91.9548C754.538 87.4502 752.007 81.3426 752 74.9721V54.0279C752.007 47.6574 754.538 41.5498 759.039 37.0452C763.54 32.5405 769.643 30.0068 776.008 30H996.06V33.0581H776.008C770.453 33.0649 765.128 35.2764 761.2 39.2075C757.272 43.1387 755.062 48.4685 755.056 54.0279V74.8692C755.062 80.4287 757.272 85.7586 761.2 89.6897C765.128 93.6208 770.453 95.8323 776.008 95.8391H996.06C999.785 95.8294 1003.44 94.8298 1006.65 92.9425C1009.86 91.0551 1012.52 88.3477 1014.34 85.0972L1017 86.6005C1014.92 90.3398 1011.89 93.4587 1008.21 95.6375C1004.53 97.8164 1000.34 98.9769 996.06 99V99Z" fill="#003366"/>
<path d="M1048.83 96H1048.59C1048.26 95.9816 1047.95 95.8332 1047.72 95.5863L1034.91 81.274L1025.5 93.2849C1025.35 93.4655 1025.15 93.6015 1024.93 93.6783C1024.71 93.755 1024.48 93.7695 1024.25 93.7203C1024.02 93.6711 1023.81 93.56 1023.64 93.399C1023.47 93.238 1023.35 93.0331 1023.28 92.8065L1012.04 46.7279C1011.98 46.4976 1011.99 46.255 1012.05 46.0269C1012.12 45.7987 1012.25 45.5939 1012.43 45.435L1012.54 45.3316C1012.71 45.1765 1012.92 45.0706 1013.15 45.0251C1013.37 44.9796 1013.61 44.9962 1013.82 45.073L1058.18 60.898C1058.4 60.9832 1058.59 61.127 1058.73 61.3138C1058.88 61.5005 1058.97 61.7232 1058.99 61.9575C1059.02 62.1919 1058.98 62.4291 1058.88 62.6434C1058.79 62.8578 1058.63 63.0411 1058.44 63.1735L1045.51 71.5256L1058.21 86.0318C1058.42 86.2837 1058.53 86.6097 1058.52 86.942C1058.5 87.2743 1058.36 87.5874 1058.12 87.816L1049.56 95.5733C1049.37 95.7947 1049.11 95.9451 1048.83 96V96ZM1048.75 92.9488L1055.45 86.8204L1042.64 72.1461C1042.52 72.0093 1042.43 71.8488 1042.37 71.675C1042.32 71.5013 1042.31 71.3182 1042.33 71.1377C1042.35 70.955 1042.42 70.7797 1042.51 70.6236C1042.61 70.4675 1042.74 70.3343 1042.89 70.2327L1054.9 62.4753L1015.03 48.2535L1025.13 89.6907L1033.86 78.533C1034.06 78.2737 1034.35 78.1026 1034.68 78.0547H1034.8C1034.99 78.0514 1035.17 78.0878 1035.34 78.1614C1035.51 78.235 1035.66 78.3441 1035.78 78.4813L1048.7 92.9488" fill="#003366"/>
<path d="M1014.09 39.9915C1013.81 40.029 1013.54 39.9415 1013.32 39.7481C1013.1 39.5547 1012.96 39.271 1012.93 38.9591L1012.01 31.3616C1011.99 31.206 1012 31.0477 1012.03 30.8956C1012.07 30.7436 1012.13 30.6008 1012.21 30.4755C1012.29 30.3501 1012.4 30.2446 1012.52 30.165C1012.64 30.0854 1012.77 30.0332 1012.9 30.0115C1013.04 29.9898 1013.18 29.9989 1013.31 30.0383C1013.44 30.0778 1013.57 30.1468 1013.68 30.2415C1013.79 30.3361 1013.88 30.4545 1013.95 30.5899C1014.02 30.7254 1014.07 30.8751 1014.09 31.0307L1014.99 38.6414C1015.03 38.9573 1014.95 39.2766 1014.78 39.5296C1014.61 39.7826 1014.36 39.9487 1014.09 39.9915V39.9915Z" fill="#003366"/>
<path d="M1008.98 41.991C1008.78 42.0156 1008.57 41.9895 1008.38 41.9149C1008.19 41.8404 1008.02 41.7201 1007.89 41.5653L1003.24 35.8181C1003.05 35.5807 1002.97 35.2804 1003.01 34.9834C1003.05 34.6863 1003.21 34.4169 1003.46 34.2342C1003.71 34.0516 1004.02 33.9707 1004.33 34.0095C1004.64 34.0482 1004.92 34.2034 1005.11 34.4408L1009.76 40.188C1009.88 40.3444 1009.96 40.5296 1009.99 40.7251C1010.02 40.9206 1009.99 41.1195 1009.91 41.302C1009.83 41.4846 1009.71 41.6442 1009.54 41.7652C1009.38 41.8861 1009.19 41.9639 1008.98 41.991V41.991Z" fill="#003366"/>
<path d="M1005.03 46.9893C1004.84 47.0185 1004.64 46.9877 1004.46 46.8998L997.782 43.6206C997.634 43.5646 997.498 43.4726 997.382 43.3504C997.265 43.2281 997.171 43.0783 997.106 42.9103C997.04 42.7423 997.004 42.5598 997 42.3744C996.997 42.189 997.025 42.0046 997.084 41.833C997.142 41.6613 997.23 41.5061 997.341 41.3772C997.453 41.2482 997.585 41.1484 997.73 41.0838C997.875 41.0193 998.03 40.9915 998.184 41.0023C998.339 41.013 998.49 41.062 998.628 41.1462L1005.31 44.4106C1005.58 44.549 1005.8 44.8111 1005.91 45.1403C1006.03 45.4694 1006.03 45.8391 1005.92 46.1694C1005.84 46.3876 1005.72 46.5786 1005.57 46.7226C1005.41 46.8667 1005.23 46.9587 1005.03 46.9893V46.9893Z" fill="#003366"/>
<path d="M1004.93 52.0774L997.41 52.9793C997.252 53.0076 997.089 53.0069 996.932 52.9773C996.774 52.9477 996.625 52.8898 996.494 52.8072C996.363 52.7247 996.253 52.6191 996.169 52.4972C996.086 52.3753 996.032 52.2395 996.011 52.0984C995.989 51.9573 996 51.8137 996.044 51.6766C996.088 51.5396 996.163 51.4119 996.265 51.3016C996.367 51.1912 996.493 51.1005 996.636 51.0351C996.779 50.9696 996.935 50.9308 997.096 50.9211L1004.6 50.0192C1004.76 49.9922 1004.92 49.9937 1005.07 50.0236C1005.23 50.0535 1005.38 50.1113 1005.51 50.1933C1005.64 50.2753 1005.75 50.3799 1005.83 50.5007C1005.91 50.6215 1005.97 50.756 1005.99 50.8959C1006.01 51.0358 1006 51.1783 1005.96 51.3146C1005.92 51.451 1005.84 51.5783 1005.74 51.6888C1005.64 51.7994 1005.52 51.8908 1005.38 51.9576C1005.24 52.0244 1005.08 52.0652 1004.93 52.0774Z" fill="#003366"/>
<path d="M1001.26 61.9936C1001.02 62.0202 1000.77 61.9639 1000.56 61.833C1000.35 61.7021 1000.18 61.5037 1000.09 61.2671C999.993 61.0306 999.975 60.7686 1000.03 60.5201C1000.09 60.2717 1000.23 60.0499 1000.42 59.8879L1006.18 55.245C1006.42 55.0549 1006.71 54.9702 1007.01 55.0094C1007.31 55.0486 1007.58 55.2086 1007.76 55.4543C1007.85 55.5757 1007.92 55.7149 1007.96 55.864C1008 56.013 1008.01 56.1687 1007.99 56.3221C1007.97 56.4755 1007.92 56.6235 1007.85 56.7575C1007.78 56.8914 1007.68 57.0086 1007.56 57.1022L1001.8 61.7582C1001.64 61.8869 1001.46 61.9684 1001.26 61.9936V61.9936Z" fill="#003366"/>
<path d="M1024.29 43.9878C1024.04 44.0253 1023.79 43.9756 1023.57 43.8467C1023.35 43.7178 1023.18 43.5169 1023.09 43.2757C1022.99 43.0346 1022.97 42.7669 1023.04 42.5148C1023.11 42.2628 1023.25 42.0408 1023.45 41.8838L1029.19 37.2445C1029.42 37.0538 1029.72 36.9695 1030.02 37.0099C1030.31 37.0503 1030.58 37.2123 1030.77 37.4601C1030.95 37.7079 1031.03 38.0213 1030.99 38.3313C1030.95 38.6414 1030.8 38.9226 1030.56 39.1133L1024.84 43.7395C1024.68 43.8751 1024.49 43.9612 1024.29 43.9878V43.9878Z" fill="#003366"/>
<path d="M1020.27 40.9901C1020.07 41.0172 1019.88 40.9886 1019.69 40.9071C1019.56 40.8465 1019.43 40.7563 1019.33 40.6418C1019.23 40.5274 1019.14 40.3909 1019.09 40.2405C1019.03 40.09 1019 39.9285 1019 39.7653C1019 39.6022 1019.03 39.4407 1019.09 39.2902L1021.82 31.8688C1021.86 31.7048 1021.94 31.5533 1022.04 31.424C1022.14 31.2947 1022.27 31.1902 1022.41 31.1173C1022.55 31.0444 1022.7 31.0046 1022.86 31.0004C1023.01 30.9962 1023.16 31.0276 1023.31 31.0928C1023.45 31.158 1023.58 31.2555 1023.69 31.3791C1023.79 31.5027 1023.88 31.6498 1023.93 31.811C1023.98 31.9723 1024.01 32.1441 1024 32.3158C1023.99 32.4875 1023.95 32.6553 1023.88 32.8085L1021.16 40.23C1021.08 40.4325 1020.96 40.6093 1020.8 40.7426C1020.65 40.876 1020.46 40.9613 1020.27 40.9901V40.9901Z" fill="#003366"/>
<path d="M789.127 52.0488H786V49.6619C786.349 49.3475 786.728 49.0694 787.131 48.8316C787.572 48.6201 788.027 48.4382 788.491 48.2867C789.099 48.0916 789.735 47.9996 790.372 48.0143C791.131 47.9477 791.893 48.1149 792.558 48.4943C792.946 48.7405 793.231 49.1238 793.359 49.571L801.15 79.7587C801.15 79.9273 801.213 79.9792 801.328 79.9533C801.349 79.9509 801.37 79.9434 801.388 79.9315C801.406 79.9197 801.421 79.9037 801.432 79.8849C801.443 79.8661 801.45 79.8449 801.452 79.823C801.453 79.8011 801.45 79.7791 801.442 79.7587L809.335 49.571C809.551 48.6889 809.856 48.2738 810.212 48.2089C810.832 48.2303 811.442 48.3804 812.004 48.65C812.474 48.8316 812.855 48.9743 813.135 49.0521C813.367 49.1101 813.587 49.2112 813.783 49.3505C813.855 49.4122 813.912 49.4899 813.949 49.5777C813.987 49.6654 814.004 49.7608 813.999 49.8564C813.979 50.2049 813.915 50.5494 813.809 50.8813L805.535 81.3933C805.456 81.7531 805.346 82.1049 805.204 82.444C805.016 82.9135 804.759 83.3509 804.442 83.7413C804.053 84.1803 803.564 84.5145 803.018 84.7143C802.467 84.9093 801.886 85.0058 801.302 84.9997H800.591C800.515 84.9889 800.438 84.9889 800.362 84.9997C799.925 84.9323 799.498 84.8102 799.091 84.6365C798.676 84.4381 798.31 84.1452 798.023 83.7803C797.715 83.3834 797.459 82.9473 797.261 82.483C797.125 82.1417 797.015 81.7904 796.93 81.4322L789.127 52.0488Z" fill="#003366"/>
<path d="M828.085 83.9985H820.733C820.395 84.008 820.057 83.9733 819.726 83.8953C819.624 83.8791 819.526 83.8409 819.44 83.7831C819.353 83.7253 819.279 83.6493 819.223 83.56C819.12 83.3612 819.064 83.1402 819.059 82.9151C819.059 82.6442 819.059 82.283 819.059 81.8316C819.022 81.3228 819.095 80.8119 819.273 80.3355C819.412 80.0775 819.915 79.9485 820.759 79.9485H825.189V52.05H820.683C820.346 52.0583 820.008 52.0324 819.676 51.9726C819.576 51.9648 819.479 51.9327 819.394 51.8788C819.309 51.825 819.237 51.751 819.185 51.663C819.077 51.4656 819.017 51.2444 819.009 51.0181C819.009 50.7344 819.009 50.3733 819.009 49.9218C818.974 49.4057 819.042 48.8877 819.21 48.3998C819.361 48.129 819.852 48 820.696 48H834.303C835.146 48 835.637 48.129 835.776 48.3998C835.956 48.8847 836.029 49.4045 835.99 49.9218C835.99 50.3733 835.99 50.7344 835.99 51.0181C835.991 51.2441 835.935 51.4665 835.826 51.663C835.774 51.751 835.703 51.825 835.617 51.8788C835.532 51.9327 835.435 51.9648 835.335 51.9726C835.003 52.0324 834.665 52.0583 834.328 52.05H829.683V79.9485H834.253C835.096 79.9485 835.599 80.0775 835.738 80.3355C835.916 80.8119 835.989 81.3228 835.952 81.8316C835.952 82.283 835.952 82.6442 835.952 82.9151C835.942 83.1394 835.886 83.359 835.788 83.56C835.732 83.6493 835.658 83.7253 835.572 83.7831C835.485 83.8409 835.387 83.8791 835.285 83.8953C834.955 83.9733 834.616 84.008 834.278 83.9985H828.085Z" fill="#003366"/>
<path d="M861.283 69.1003C861.759 70.274 862.273 71.5242 862.801 72.851C863.328 74.1777 863.83 75.4024 864.318 76.5761C864.807 77.7498 865.232 78.7448 865.605 79.5996C865.846 80.1699 866.116 80.7276 866.415 81.2707H869V83.3756C869 83.3756 868.563 83.4905 867.804 83.7329C866.831 83.9874 865.82 84.0609 864.82 83.9497C864.204 83.8858 863.602 83.7311 863.032 83.4905C862.579 83.3474 862.188 83.0548 861.926 82.6612C861.797 82.4316 861.527 81.883 861.129 80.99C860.73 80.097 860.267 79.0255 859.74 77.7625C859.212 76.4996 858.646 75.211 858.055 73.7312C857.463 72.2514 856.91 70.9247 856.395 69.6234H855.675C854.26 69.6234 853.103 69.6234 852.228 69.5086C851.354 69.3938 850.723 69.3555 850.376 69.2917C849.538 69.1037 848.782 68.6571 848.215 68.016V81.9596C848.224 82.3057 848.198 82.6518 848.138 82.9929C848.124 83.0923 848.089 83.1876 848.036 83.2732C847.982 83.3587 847.912 83.4327 847.83 83.4905C847.609 83.5978 847.368 83.6544 847.122 83.6563H845.836H844.704C844.459 83.6595 844.218 83.5931 844.01 83.4649C843.846 83.3401 843.729 83.1652 843.675 82.9674C843.597 82.6373 843.563 82.2985 843.572 81.9596V51.3424C841.977 51.151 841.103 50.7938 841 50.2963V48H856.768C860.357 48 863.019 48.7909 864.73 50.3856C866.441 51.9802 867.302 54.3786 867.302 57.5934V60.3617C867.302 65.1074 865.296 68.0202 861.283 69.1003ZM856.421 65.2732C858.064 65.3912 859.688 64.8695 860.949 63.8189C861.483 63.2682 861.896 62.6124 862.159 61.8939C862.423 61.1754 862.532 60.4101 862.479 59.6473V57.9761C862.529 57.2118 862.421 56.4455 862.162 55.7239C861.904 55.0023 861.499 54.3406 860.974 53.779C859.714 52.708 858.076 52.1759 856.421 52.2992H848.254V64.6609C849.18 64.8522 850.08 65.0053 850.968 65.1329C851.901 65.2636 852.842 65.3276 853.785 65.3243L856.421 65.2732Z" fill="#003366"/>
<path d="M872.734 52.056C872.382 52.0643 872.03 52.0383 871.683 51.9785C871.58 51.9696 871.481 51.937 871.393 51.8832C871.305 51.8294 871.231 51.7558 871.177 51.6684C871.07 51.4694 871.012 51.2481 871.008 51.0226C871.008 50.7384 871.008 50.3768 871.008 49.9247C870.974 49.4069 871.049 48.8877 871.228 48.4004C871.371 48.1292 871.877 48 872.76 48H895.24C896.123 48 896.629 48.1292 896.772 48.4004C896.951 48.8877 897.026 49.4069 896.992 49.9247C896.992 50.3768 896.992 50.7384 896.992 51.0226C896.988 51.2481 896.93 51.4694 896.823 51.6684C896.768 51.7545 896.693 51.827 896.606 51.8807C896.518 51.9343 896.42 51.9678 896.317 51.9785C895.97 52.0383 895.618 52.0643 895.266 52.056H886.18V82.2819C886.213 82.6299 886.213 82.9802 886.18 83.3282C886.166 83.4288 886.13 83.5253 886.077 83.6119C886.023 83.6985 885.953 83.7734 885.869 83.832C885.647 83.9406 885.403 83.998 885.155 83.9999H883.857H882.715C882.468 84.0031 882.224 83.9359 882.014 83.8061C881.845 83.6833 881.726 83.5047 881.677 83.3023C881.598 82.9681 881.563 82.6251 881.573 82.2819V52.056H872.734Z" fill="#003366"/>
<path d="M925.684 74.7575C925.583 76.0972 925.196 77.4015 924.55 78.5877C923.903 79.7739 923.01 80.816 921.928 81.6477C919.475 83.3511 916.492 84.1719 913.487 83.97C910.485 84.0672 907.525 83.2512 905.02 81.635C903.935 80.8075 903.04 79.7684 902.391 78.5841C901.742 77.3998 901.354 76.0965 901.251 74.7575C901.083 73.5395 900.999 72.3117 901.002 71.0827V49.6847C900.991 49.359 901.022 49.0333 901.094 48.715C901.141 48.5037 901.261 48.3145 901.434 48.1791C901.655 48.0608 901.902 47.9993 902.154 48.0005C902.455 48.0005 902.847 48.0005 903.306 48.0005C903.764 48.0005 904.287 48.0005 904.614 48.0005C904.86 47.9959 905.104 48.053 905.321 48.1663C905.41 48.2189 905.485 48.2915 905.54 48.378C905.594 48.4646 905.627 48.5626 905.635 48.664C905.696 49.0009 905.722 49.3428 905.714 49.6847V70.1002C905.714 71.0572 905.714 71.9758 905.831 72.869C905.913 73.7262 906.044 74.5782 906.224 75.421C906.381 76.1475 906.673 76.8396 907.088 77.4626C907.975 78.3726 909.117 79.0073 910.373 79.2872C911.75 79.6669 913.189 79.7882 914.613 79.6445C916.005 79.5199 917.348 79.0832 918.539 78.3685C919.663 77.7301 920.502 76.7067 920.895 75.4976C921.081 74.7404 921.186 73.9664 921.209 73.188C921.261 72.2438 921.287 70.9296 921.287 69.2453V49.6847C921.276 49.359 921.307 49.0333 921.379 48.715C921.426 48.5006 921.552 48.3101 921.732 48.1791C921.947 48.0591 922.191 47.9974 922.439 48.0005C922.753 48.0005 923.132 48.0005 923.59 48.0005C924.048 48.0005 924.572 48.0005 924.899 48.0005C925.146 47.9942 925.389 48.0513 925.606 48.1663C925.695 48.2189 925.77 48.2915 925.825 48.378C925.879 48.4646 925.912 48.5626 925.92 48.664C925.981 49.0009 926.007 49.3428 925.998 49.6847V69.3091C925.997 71.1295 925.892 72.9484 925.684 74.7575V74.7575Z" fill="#003366"/>
<path d="M933.683 82.5008C933.387 83.3322 933.053 83.78 932.667 83.78C932.061 83.7915 931.458 83.6828 930.893 83.4602L929.736 83.0892C929.511 83.0222 929.304 82.904 929.132 82.7438C929.075 82.6657 929.034 82.5761 929.014 82.4812C928.994 82.3864 928.995 82.2884 929.017 82.1938C929.078 81.8445 929.173 81.5017 929.299 81.1704L939.789 49.8684C939.892 49.5486 940.021 49.2032 940.175 48.845C940.266 48.5584 940.452 48.3106 940.702 48.1414C940.914 48.0703 941.134 48.0231 941.357 48.0007C941.627 48.0007 941.923 48.0007 942.244 48.0007H945.831C946.154 47.9922 946.476 48.0578 946.769 48.1926C947.016 48.3652 947.201 48.6117 947.297 48.8962C947.451 49.2543 947.579 49.5997 947.682 49.9195L958.352 81.2727H961V83.3834L959.804 83.7416C958.831 83.9916 957.82 84.061 956.822 83.9463C956.251 83.898 955.693 83.7463 955.177 83.4985C954.776 83.3267 954.443 83.0306 954.225 82.6543C954.058 82.3473 953.84 81.8356 953.544 81.132C953.248 80.4285 952.927 79.5842 952.567 78.5736C952.207 77.563 951.796 76.5141 951.359 75.2989C950.922 74.0836 950.485 72.83 950.073 71.4613H937.475L933.683 82.5008ZM943.684 51.2499C943.556 51.6976 943.363 52.3244 943.08 53.1559L942.167 55.9318C941.833 56.9551 941.486 58.0297 941.113 59.1426C940.74 60.2555 940.393 61.33 940.059 62.3534C939.725 63.3767 939.416 64.3105 939.159 65.1548C938.902 65.9991 938.735 66.6387 938.632 67.0864H948.646C948.286 65.9351 947.965 64.8733 947.682 63.9011C947.386 62.929 947.065 61.8672 946.692 60.716C946.32 59.5647 945.908 58.2471 945.407 56.7505C944.905 55.2538 944.456 53.4117 943.684 51.2499Z" fill="#003366"/>
<path d="M967.235 83.9201C966.936 83.8998 966.65 83.7822 966.422 83.5845C966.22 83.3749 966.094 83.1018 966.066 82.8101C966.021 82.3814 966 81.9505 966.002 81.5194V49.7038C965.991 49.3743 966.021 49.0448 966.091 48.7229C966.137 48.5091 966.254 48.3177 966.422 48.1808C966.636 48.0611 966.876 47.999 967.121 48.0001C967.413 48.0001 967.795 48.0001 968.24 48.0001C968.685 48.0001 969.193 48.0001 969.511 48.0001C969.75 47.9972 969.986 48.0548 970.198 48.1679C970.281 48.2224 970.35 48.2967 970.399 48.3844C970.447 48.4721 970.474 48.5706 970.477 48.6713C970.502 49.015 970.502 49.3601 970.477 49.7038V79.6479H985.275C986.127 79.6479 986.636 79.7899 986.776 80.0609C986.953 80.5475 987.026 81.0665 986.992 81.5839C986.992 82.0357 986.992 82.41 986.992 82.7198C986.98 82.9771 986.924 83.2305 986.826 83.4684C986.715 83.6672 986.533 83.8151 986.318 83.8814C985.987 83.9715 985.644 84.0106 985.301 83.9975H968.647C968.175 84.0044 967.703 83.9785 967.235 83.9201V83.9201Z" fill="#003366"/>
<path d="M808.484 84.5248C806.684 84.5248 806.204 88.0048 806.204 88.0048C805.964 91.8448 805.844 102.045 805.844 113.085C803.804 109.605 800.324 107.325 794.564 109.005C779.204 113.325 775.124 149.205 786.524 152.805C794.324 155.325 802.004 144.525 806.084 137.325C806.204 144.165 806.444 149.325 806.684 150.645C807.404 155.085 812.204 154.725 814.004 154.605C816.284 154.485 816.164 150.645 816.164 150.645C815.564 143.325 817.004 96.1648 817.604 90.1648C818.324 84.0448 810.164 84.5248 808.484 84.5248ZM790.124 147.885C786.044 142.965 794.204 111.285 799.364 112.005C804.164 112.605 805.724 125.085 805.964 127.365C805.964 128.685 805.964 129.885 805.964 131.205C805.244 133.005 794.084 152.685 790.124 147.885Z" fill="#97BD30"/>
<path d="M833.793 108.405C833.793 108.405 824.433 106.605 823.353 118.485C822.873 123.165 823.953 127.125 826.113 130.245C824.913 129.885 823.833 129.765 822.993 129.885C820.833 130.125 819.753 132.885 819.753 137.205C819.753 137.205 819.033 154.125 831.153 154.365C843.393 154.605 845.673 138.165 846.033 131.805C846.273 125.445 845.193 108.765 833.793 108.405ZM832.713 112.245C836.553 113.445 837.513 122.685 837.033 132.285C837.033 132.885 837.033 133.605 836.913 134.205C829.953 130.845 829.353 122.205 829.353 122.205C828.993 119.325 828.993 111.165 832.713 112.245ZM832.113 149.565C829.593 149.325 830.673 140.805 831.153 136.365C831.153 135.765 831.153 135.285 831.153 134.805C832.833 135.765 834.633 136.485 836.673 136.965C835.953 144.285 834.273 149.685 832.113 149.565Z" fill="#97BD30"/>
<path d="M927.904 117.165C927.904 106.965 928.024 96.4048 926.584 86.4448C926.224 84.0448 924.424 81.6448 922.144 82.4848C920.944 82.9648 921.064 85.4848 921.184 86.6848C922.024 97.1248 922.024 107.925 921.904 118.605C921.904 120.045 921.904 121.485 921.904 122.925C914.824 121.845 901.504 121.845 893.584 121.965C893.584 120.885 893.704 119.685 893.704 118.605C893.944 108.645 894.304 98.3248 896.104 88.4848C896.944 83.4448 891.064 82.0048 887.464 82.0048C885.904 81.8848 885.184 84.0448 884.944 85.3648C882.784 96.4048 883.024 108.645 883.144 120.165C883.264 130.005 883.024 140.925 885.304 150.645C886.144 154.365 889.864 154.725 892.984 154.125C894.784 153.765 894.904 151.365 894.784 149.925C893.824 142.485 893.584 134.565 893.584 126.645C906.664 126.645 917.104 127.125 920.944 127.125C921.184 127.125 921.544 127.125 921.784 127.125C921.664 134.565 921.304 142.005 920.464 149.325C919.984 152.925 922.504 156.045 925.384 155.445C926.344 155.325 926.704 153.045 926.824 151.965C928.144 140.565 928.024 128.685 927.904 117.165Z" fill="#97BD30"/>
<path d="M936.713 111.525C933.353 111.525 933.593 116.325 933.593 116.325C933.593 116.325 933.473 138.285 933.713 147.045C933.953 155.925 939.713 154.245 939.713 154.245C943.433 153.765 943.673 117.885 943.913 114.765C944.153 111.765 940.193 111.525 936.713 111.525ZM939.233 109.725C941.033 109.725 942.353 108.885 942.353 107.805C942.353 106.845 941.033 106.005 939.233 106.005C937.433 106.005 935.993 106.845 935.993 107.805C935.993 108.885 937.433 109.725 939.233 109.725Z" fill="#97BD30"/>
<path d="M978.819 108.405C976.779 108.405 975.339 111.525 974.499 114.645C972.699 110.325 969.099 107.085 962.379 109.005C947.019 113.325 942.939 149.205 954.459 152.805C961.899 155.205 969.219 145.485 973.419 138.285C973.419 141.525 973.419 144.765 973.419 147.765C968.739 149.805 960.339 154.605 958.899 161.805C956.859 171.885 966.339 172.725 966.339 172.725C977.859 173.685 979.779 168.765 981.099 160.365C982.419 152.685 983.019 111.885 983.019 109.845C983.019 107.685 978.819 108.405 978.819 108.405ZM958.059 147.885C953.979 142.965 962.019 111.285 967.299 112.005C970.899 112.485 972.699 119.925 973.419 124.365C973.419 126.405 973.419 129.045 973.419 132.165C971.139 136.365 961.539 152.325 958.059 147.885ZM965.859 169.245C965.859 169.245 960.699 168.765 962.019 162.045C963.099 157.125 969.459 154.005 973.299 152.565C973.299 156.045 973.299 158.445 973.299 159.045C973.299 161.565 972.459 169.965 965.859 169.245Z" fill="#97BD30"/>
<path d="M991.557 111.525C988.197 111.525 988.437 116.325 988.437 116.325C988.437 116.325 988.317 138.285 988.557 147.045C988.797 155.925 994.557 154.245 994.557 154.245C998.277 153.765 998.517 117.885 998.757 114.765C998.997 111.765 995.037 111.525 991.557 111.525ZM994.077 109.725C995.877 109.725 997.197 108.885 997.197 107.805C997.197 106.845 995.877 106.005 994.077 106.005C992.277 106.005 990.837 106.845 990.837 107.805C990.837 108.885 992.277 109.725 994.077 109.725Z" fill="#97BD30"/>
</svg>
