<svg width="42" height="42" viewBox="0 0 42 42" fill="none" xmlns="http://www.w3.org/2000/svg">
<circle cx="21" cy="21" r="21" fill="#97BD30"/>
<path d="M12.1918 29H22.5701C24.5779 29 25.7619 27.8394 25.7619 25.8394V16.1503C25.7619 14.1503 24.6705 13 22.6628 13H12.1918C10.2664 13 9 14.1503 9 16.1606V25.8601C9 27.8601 10.184 29 12.1918 29ZM27.121 23.9845L30.5907 27C30.9511 27.3109 31.3526 27.5078 31.7233 27.5078C32.4852 27.5078 33 26.9482 33 26.1295V15.8808C33 15.0622 32.4852 14.5026 31.7233 14.5026C31.3423 14.5026 30.9511 14.6995 30.5907 15.0104L27.121 18.0259V23.9845ZM13.7568 25.2073C13.314 25.2073 12.9743 24.8964 12.9743 24.4819C12.9743 24.2539 13.0566 24.0777 13.2317 23.9016L17.4942 19.6114L19.121 18.1295L16.2999 18.285H14.7452C14.3436 18.285 14.0245 17.9845 14.0039 17.5803C13.9936 17.1451 14.323 16.8031 14.7452 16.8031H20.5212C21.0772 16.8031 21.3655 17.0933 21.3655 17.6528V23.4249C21.3655 23.8497 21.0051 24.1813 20.5933 24.1606C20.1815 24.1503 19.8726 23.829 19.8726 23.4249V21.9016L20.0373 19.0829L18.565 20.6891L14.2921 24.9793C14.1377 25.1347 13.9627 25.2073 13.7568 25.2073Z" fill="white"/>
</svg>
