<svg width="22" height="16" viewBox="0 0 22 16" fill="none" xmlns="http://www.w3.org/2000/svg">
<path d="M21.086 8.45507C20.9163 8.89176 20.7527 9.39033 20.582 9.88701C20.4113 10.3837 20.1582 10.6549 19.8995 10.6383C19.0126 10.5814 17.4682 10.3409 15.5586 10.2285C14.2525 10.1648 12.237 10.1672 9.60538 10.14C8.61699 10.0409 5.89485 10.1553 1.54354 10.3454C1.37599 10.35 1.21138 10.3011 1.07341 10.206C0.935433 10.1108 0.83122 9.97414 0.775777 9.81574C0.318909 8.86464 0.465128 7.71101 1.21444 6.35486C1.31251 6.18526 1.38544 5.94115 1.46844 5.82778C1.57927 5.74774 1.71467 5.70934 1.85086 5.71931C4.30592 5.56352 6.8486 5.33328 9.3514 5.16768C11.8629 5.0872 14.3767 5.21149 16.8677 5.53934C17.3155 5.5782 17.7658 5.5779 18.2137 5.5384C18.6447 5.50579 19.0774 5.50343 19.5087 5.53132C19.8196 5.54419 20.1249 5.61833 20.4071 5.74953C20.6893 5.88073 20.9429 6.0664 21.1533 6.29592C21.5118 6.7536 21.4605 7.47813 21.086 8.45507Z" fill="white"/>
</svg>
