<svg width="320" height="302" viewBox="0 0 320 302" fill="none" xmlns="http://www.w3.org/2000/svg">
<path d="M143.334 63.9112C143.209 61.2701 143.083 58.7548 142.957 56.1138C142.831 54.7303 142.831 53.3469 142.957 51.9635C143.083 49.4482 144.969 48.3164 147.359 49.1967C147.862 49.4482 148.365 49.6998 148.868 50.0771C151.383 52.0893 153.773 54.1015 156.162 56.1138C158.803 58.2517 159.81 61.1443 159.81 64.54C159.81 66.4264 159.306 68.0614 158.426 69.6963C158.049 70.3251 157.546 71.0797 156.917 71.5828C153.899 73.7208 150.755 74.3496 147.233 73.2177C146.73 73.092 146.227 72.8404 145.598 73.092C144.341 73.3435 143.46 72.7147 143.209 71.457C143.083 70.954 143.083 70.4509 143.083 69.8221C143.083 67.8099 143.083 65.9234 143.083 63.9112C143.083 63.9112 143.209 63.9112 143.334 63.9112ZM147.233 55.1076C147.233 59.7609 147.233 64.1627 147.233 68.6902C149.12 68.6902 150.88 68.9417 152.641 68.1872C153.144 67.9356 153.773 67.5583 154.024 67.0553C155.156 65.1688 154.905 62.1504 153.521 60.5155C151.761 58.5033 149.371 57.1199 147.233 55.1076Z" fill="#003366"/>
<path d="M258.284 65.1688C259.542 66.3007 260.674 67.3068 261.806 68.4387C262.183 68.816 262.435 69.0675 262.812 69.4448C263.566 70.4509 263.692 71.7085 263.063 72.3374C262.435 73.0919 261.303 73.2177 260.171 72.5889C259.291 72.0858 258.536 71.457 257.656 70.8282C256.398 69.8221 255.14 68.6902 253.883 67.6841C253.505 67.3068 253.002 67.0552 252.248 66.678C252.248 67.4325 252.122 67.9356 252.122 68.4387C252.122 69.5705 252.122 70.7024 251.996 71.7085C251.996 72.2116 251.745 72.7147 251.493 73.2177C251.116 73.9723 250.487 74.2238 249.607 74.0981C248.852 73.9723 248.349 73.4692 248.223 72.8404C248.097 72.2116 247.972 71.457 247.972 70.8282C247.972 65.1688 248.097 59.3836 248.223 53.7242C248.349 50.2028 249.481 49.0709 253.128 49.4482C258.41 50.077 261.68 53.0954 262.309 58.3775C262.56 60.767 261.68 62.7792 259.668 64.2884C259.165 64.6657 258.662 64.9173 258.284 65.1688ZM252.373 62.2762C253.757 61.8989 255.015 61.3958 256.398 61.0185C257.153 60.767 257.656 60.264 257.656 59.3836C258.033 56.3653 255.643 53.85 252.248 54.2273C252.373 56.8683 252.373 59.5094 252.373 62.2762Z" fill="#003366"/>
<path d="M97.0526 63.9111C97.3042 65.7976 97.5557 67.4325 97.6814 69.0675C97.8072 69.6963 97.6814 70.3251 97.5557 70.9539C97.4299 71.5828 96.9269 72.0858 96.298 72.2116C95.5435 72.3373 94.9146 72.0858 94.5373 71.457C94.16 70.9539 93.9085 70.3251 93.7827 69.6963C93.2797 67.3068 92.6509 64.7915 92.3993 62.4019C92.022 60.1382 91.7705 57.7487 91.7705 55.4849C91.7705 54.1015 92.022 52.7181 92.5251 51.3347C92.7766 50.4543 93.4055 49.6997 93.9085 49.0709C96.1723 46.6814 99.1906 46.6814 101.329 49.3224C101.706 49.6997 101.957 50.2028 102.209 50.5801C104.221 53.85 103.844 56.2395 101.203 58.7548C100.951 59.0063 100.7 59.2578 100.322 59.6351C100.826 59.8867 101.203 60.1382 101.706 60.2639C103.592 61.0185 105.353 62.0247 106.862 63.2823C108.12 64.4142 109.126 65.6718 109.378 67.3068C109.503 68.3129 109.378 69.0675 108.623 69.822C107.994 70.4509 106.988 70.5766 106.108 69.9478C105.605 69.5705 104.976 69.0675 104.598 68.5644C103.467 66.8037 101.706 65.6718 99.8194 64.9172C98.9391 64.6657 98.0587 64.4142 97.0526 63.9111ZM96.4238 56.6168C99.5679 54.8561 99.8194 53.4727 97.3041 51.712C95.9207 53.0954 96.298 54.8561 96.4238 56.6168Z" fill="#003366"/>
<path d="M287.335 63.0308C287.209 65.1688 286.203 67.4325 284.065 69.1933C281.424 71.2055 278.405 71.9601 275.136 71.457C273.249 71.0797 271.614 70.0736 270.734 68.4387C269.099 65.5461 268.596 62.5277 269.602 59.2579C270.105 57.6229 271.111 56.2395 272.369 55.1076C273.878 53.85 275.639 53.3469 277.525 53.9757C278.028 54.1015 278.405 54.1015 278.909 54.1015C283.939 53.9757 287.335 57.4972 287.335 63.0308ZM277.274 66.8037C278.028 66.678 278.783 66.5522 279.537 66.3007C282.053 65.4203 282.933 63.0308 281.424 60.767C281.047 60.1382 280.418 59.6351 279.789 59.2579C278.909 58.629 277.902 58.126 276.896 57.4972C275.764 56.8683 275.387 56.8683 274.633 57.8744C274.129 58.5033 273.752 59.2579 273.626 60.0124C273.123 61.6474 273.501 63.1566 274.129 64.6657C274.884 66.3007 275.513 66.678 277.274 66.8037Z" fill="#003366"/>
<path d="M119.062 64.4142C117.428 64.54 115.918 64.6658 114.283 64.7915C114.032 66.0492 113.655 67.3068 113.403 68.5645C113.277 69.3191 113.026 69.9479 112.774 70.7025C112.523 71.3313 112.02 71.7086 111.391 71.7086C110.636 71.7086 110.133 71.3313 110.007 70.5767C109.882 70.0736 109.756 69.5706 109.882 69.0675C110.511 63.9112 111.139 58.7548 111.894 53.5985C112.02 52.3408 112.523 51.0832 113.026 49.9513C114.158 47.5618 116.547 47.3103 118.182 49.4483C118.685 50.0771 118.937 50.7059 119.314 51.3347C120.697 54.4788 122.207 57.4972 123.59 60.7671C124.219 62.1505 124.596 63.6597 124.848 65.1688C124.973 66.0492 124.848 67.0553 124.596 67.9356C124.47 68.816 123.842 69.3191 122.961 69.4448C122.081 69.5706 121.452 69.0675 121.075 68.3129C120.194 67.0553 119.691 65.7977 119.062 64.4142ZM115.667 56.4911C115.038 58.0003 114.912 59.5094 114.787 61.0186C115.667 61.0186 116.421 61.0186 117.05 61.0186C117.176 61.0186 117.176 60.8928 117.428 60.7671C116.924 59.5094 116.296 58.0003 115.667 56.4911Z" fill="#003366"/>
<path d="M163.96 64.7915C164.211 60.5155 165.972 57.3714 169.997 55.6107C170.374 55.4849 170.751 55.3592 171.003 55.1076C171.883 53.9758 172.889 54.353 173.895 54.7303C179.681 56.491 182.322 64.0369 177.794 69.319C177.165 70.0736 176.411 70.7024 175.53 71.3313C170.625 74.7269 164.589 71.8343 164.086 65.7976C163.96 65.4203 163.96 65.043 163.96 64.7915ZM172.009 59.1321C169.116 60.264 168.11 64.2884 168.991 66.3007C169.745 68.0614 171.254 68.6902 173.015 67.6841C174.901 66.5522 176.536 64.0369 174.273 61.3959C173.644 60.5155 172.763 59.8867 172.009 59.1321Z" fill="#003366"/>
<path d="M69.3856 55.988C69.3856 58.1259 69.3856 60.1382 69.3856 62.2762C70.769 62.1504 72.0267 62.0247 73.1585 61.8989C74.4162 61.7731 75.5481 61.8989 76.6799 62.5277C76.8057 63.4081 76.3026 63.6596 75.7996 63.9111C74.6677 64.2884 73.6616 64.6657 72.5297 65.043C71.5236 65.2945 70.5175 65.5461 69.5114 65.7976C69.5114 66.9295 69.5114 67.8098 69.5114 68.8159C70.6432 68.9417 71.6494 69.0675 72.6555 69.1932C73.5358 69.319 74.2904 69.6963 74.4162 70.7024C74.5419 71.5828 74.0389 72.2116 73.0328 72.7146C71.5236 73.3435 70.1402 73.9723 68.5052 73.9723C66.493 73.9723 65.1096 72.9662 64.6065 71.0797C64.355 69.9478 64.1035 68.8159 64.2293 67.6841C64.355 63.6596 64.4808 59.6351 64.7323 55.6107C64.7323 55.2334 64.8581 54.8561 64.8581 54.4788C65.3611 52.3408 66.3672 51.3347 68.631 51.4604C71.3978 51.5862 74.0389 52.0893 76.8057 52.3408C77.0572 52.3408 77.4345 52.4665 77.6861 52.7181C78.0634 53.0954 78.4406 53.5984 78.4406 53.9757C78.4406 54.353 78.0634 54.9818 77.6861 55.2334C76.8057 55.6107 75.7996 55.7364 74.7935 55.8622C73.2843 55.988 71.7751 55.8622 70.3917 55.8622C70.0144 55.8622 69.7629 55.988 69.3856 55.988Z" fill="#003366"/>
<path d="M47.5021 54.6046C47.6278 56.2396 47.7536 57.7487 47.7536 59.2579C50.0174 59.6352 52.2811 60.0125 54.4191 60.264C54.7964 61.2701 54.4191 61.899 53.7903 62.2763C53.1615 62.6535 52.4069 62.7793 51.6523 62.9051C50.5204 63.0308 49.3885 62.9051 48.1309 62.9051C48.1309 64.1627 48.1309 65.5461 48.1309 66.8038C48.1309 67.8099 48.2567 68.816 48.2567 69.8221C48.2567 70.1994 48.2567 70.7025 48.2567 71.0798C48.1309 73.092 47.1248 74.0981 45.6156 74.0981C44.1064 73.9724 43.2261 72.8405 43.2261 70.954C43.2261 70.5767 43.3518 70.0737 43.3518 69.6964C43.3518 67.0553 43.6034 64.54 43.4776 61.899C43.3518 58.7549 43.7291 55.7365 44.1064 52.5924C44.2322 51.4605 44.9868 50.8317 45.9929 50.4544C47.3763 49.9513 48.8855 49.4483 50.3947 49.1967C52.7842 48.6937 55.1737 48.4422 57.5632 48.0649C58.0663 47.9391 58.8209 48.0649 59.3239 48.1906C59.827 48.4422 60.2043 48.8195 60.4558 49.3225C60.7073 49.9513 60.33 50.5802 59.827 50.9574C58.9466 51.4605 58.0663 51.8378 57.1859 52.0893C54.6706 52.7181 52.1554 53.347 49.6401 53.9758C48.8855 54.2273 48.2567 54.3531 47.5021 54.6046Z" fill="#003366"/>
<path d="M236.401 64.9173C237.155 62.7793 237.784 60.6413 238.665 58.5033C239.293 56.7426 239.922 54.9819 240.677 53.3469C240.928 52.7181 241.557 51.9635 242.186 51.5862C243.444 50.8317 244.576 51.4605 244.576 52.9696C244.576 53.3469 244.45 53.85 244.45 54.2273C242.941 59.8867 241.306 65.5461 239.796 71.0797C239.545 71.8343 239.293 72.4631 238.916 73.092C237.533 75.1042 235.017 75.1042 233.76 72.9662C233.382 72.3374 233.131 71.5828 232.879 70.8282C232.125 68.4387 231.37 66.0492 230.616 63.7854C230.113 62.0247 229.484 60.3898 229.61 58.5033C229.61 57.8745 229.735 57.2456 229.987 56.6168C230.238 55.988 230.741 55.4849 231.496 55.6107C231.999 55.7365 232.502 56.1138 232.879 56.4911C233.131 56.8684 233.257 57.4972 233.382 58.0002C233.76 59.0063 234.011 59.8867 234.389 60.8928C235.017 62.2762 235.646 63.6596 236.401 65.043C236.149 64.9173 236.275 64.9173 236.401 64.9173Z" fill="#003366"/>
<path d="M205.209 70.9539C206.97 71.2055 208.605 71.2055 210.114 71.457C211.246 71.5828 212.252 71.9601 213.258 72.3374C214.768 72.9662 215.019 74.0981 213.887 75.3557C213.258 76.1103 212.252 76.4876 211.372 76.4876C208.605 76.4876 205.713 76.6134 202.946 76.3618C200.556 76.2361 199.173 74.6011 199.424 72.2116C199.676 69.4448 200.179 66.8037 200.808 64.1627C201.562 60.5155 202.443 56.9941 203.197 53.3469C203.449 52.5923 203.7 51.712 204.078 50.9574C204.455 50.2028 205.084 49.9513 205.964 50.077C206.719 50.2028 207.096 50.7059 207.096 51.712C207.222 55.3591 206.719 59.1321 206.216 62.7793C205.964 65.4203 205.587 68.1871 205.209 70.9539Z" fill="#003366"/>
<path d="M310.964 65.2506C310.226 71.1519 295 62.1561 295 62.1561C302.982 57.8787 311.63 59.2789 310.964 65.2506ZM301.347 52.2012C302.899 52.8405 303.123 54.8545 301.424 56.0374C299.725 57.2202 295.135 56.2547 295.135 56.2547C297.879 52.1308 299.872 51.613 301.353 52.2012H301.347ZM299.578 68.9333C301.796 70.1161 303.572 72.9166 301.873 73.7989C300.174 74.6812 298.763 72.4754 297.507 70.7747C296.814 69.8297 296.074 68.9206 295.289 68.051C296.776 67.8806 298.279 68.1898 299.578 68.9333Z" fill="#97BD30"/>
<path d="M0.0679954 27.6943C1.4504 38.6922 30 21.9272 30 21.9272C15.034 13.9558 -1.18218 16.5653 0.0679954 27.6943ZM18.0993 3.37491C15.1903 4.56645 14.7695 8.31981 17.9551 10.5242C21.1406 12.7285 29.7476 10.9293 29.7476 10.9293C24.6026 3.24383 20.8641 2.27869 18.0873 3.37491H18.0993ZM21.4171 34.5575C17.2578 36.7619 13.9281 41.9809 17.1136 43.6252C20.2991 45.2695 22.9437 41.1587 25.2998 37.9892C26.598 36.228 27.9862 34.5338 29.459 32.9132C26.67 32.5956 23.8517 33.1719 21.4171 34.5575Z" fill="#97BD30"/>
<path d="M217.662 65.043C217.662 63.7853 217.662 62.4019 217.662 61.1443C217.662 60.767 217.662 60.2639 217.788 59.8866C217.914 58.8805 218.417 58.3775 219.172 58.1259C220.052 58.0002 220.806 58.2517 221.184 59.2578C221.435 59.7609 221.561 60.2639 221.687 60.767C222.441 63.7853 222.819 66.9294 222.693 70.0736C222.693 70.8281 222.567 71.7085 222.19 72.3373C221.938 73.2177 221.184 73.7207 220.303 73.7207C219.423 73.7207 218.668 73.2177 218.291 72.4631C217.914 71.7085 217.662 70.7024 217.662 69.822C217.537 68.1871 217.662 66.5521 217.662 65.043Z" fill="#003366"/>
<path d="M82.3384 66.8038C82.5899 63.5339 82.8414 60.7671 82.9672 58.0002C82.9672 57.3714 83.2187 56.7426 83.4703 56.2395C83.9733 55.485 84.8537 55.6107 85.231 56.3653C85.3567 56.6168 85.3567 56.8684 85.4825 57.1199C86.3628 60.6413 86.8659 64.1627 86.9917 67.6841C86.9917 68.3129 86.8659 69.0675 86.7401 69.6963C86.3628 70.954 85.734 71.5828 84.7279 71.5828C83.596 71.5828 82.8414 70.954 82.5899 69.6963C82.4641 68.4387 82.4641 67.3068 82.3384 66.8038Z" fill="#003366"/>
<path d="M82.968 51.209C81.3331 51.209 80.2012 50.2028 80.2012 48.6937C80.2012 47.3103 81.3331 46.0526 82.7165 46.0526C84.3514 46.0526 85.609 47.0587 85.609 48.6937C85.609 50.2028 84.6029 51.209 82.968 51.209Z" fill="#003366"/>
<path d="M219.421 52.4666C218.038 52.4666 217.032 51.4605 217.158 50.2028C217.158 48.9452 218.415 47.9391 219.924 47.9391C221.308 47.9391 222.314 48.9452 222.314 50.0771C222.314 51.4605 221.182 52.4666 219.421 52.4666Z" fill="#003366"/>
<path d="M53.916 24.9379C52.4069 25.1895 51.0235 25.441 49.6401 25.441C48.2566 25.5668 46.7475 25.441 45.3641 25.441C44.7352 27.4532 44.1064 29.4655 43.4776 31.3519C43.2261 31.9808 43.1003 32.6096 42.8488 33.1126C42.3457 33.993 41.5911 34.3703 40.8365 34.1187C39.9562 33.993 39.4531 33.3642 39.4531 32.358C39.4531 31.855 39.5789 31.4777 39.7047 30.9746C40.7108 26.8244 41.7169 22.5484 42.9745 18.3982C43.6034 16.2602 44.4837 14.1222 45.4898 12.11C46.4959 9.8462 48.5082 8.84008 50.8977 9.09161C53.413 9.21737 55.2995 10.3493 56.1798 12.7388C56.9344 14.8768 57.4375 17.1405 57.9405 19.4043C58.6951 22.9257 58.9466 26.4471 58.9466 29.9685C58.9466 30.8489 58.8209 31.855 58.5693 32.7353C58.3178 33.7415 57.5632 34.3703 56.6829 34.3703C55.8025 34.3703 55.0479 33.8672 54.6706 32.8611C54.4191 32.1065 54.2933 31.3519 54.1676 30.5973C54.0418 28.9624 54.0418 27.4532 53.916 25.8183C54.0418 25.5668 54.0418 25.3152 53.916 24.9379ZM53.7903 21.165C53.413 18.9012 52.9099 16.7632 52.5326 14.6252C52.2811 13.6191 51.778 12.9903 50.7719 12.8645C49.7658 12.7388 49.137 13.2418 48.6339 14.1222C47.5021 16.1344 46.8732 18.2724 46.3702 20.5362C46.3702 20.6619 46.4959 20.7877 46.4959 20.7877C47.7536 20.7877 48.8855 20.7877 50.0173 20.7877C51.1492 20.9135 52.4069 21.0392 53.7903 21.165Z" fill="#003366"/>
<path d="M254.887 26.8244C250.486 27.0759 246.21 27.3275 241.808 27.579C241.556 27.9563 241.305 28.4593 240.802 28.9624C240.173 29.8428 239.293 30.0943 238.664 29.717C237.909 29.3397 237.532 28.5851 237.909 27.579C239.796 22.0454 241.431 16.5117 244.072 11.3554C244.575 10.3493 245.329 9.34314 246.084 8.58855C247.467 7.20514 249.102 7.20514 250.611 8.46279C251.24 9.09161 251.869 9.72043 252.372 10.475C255.265 14.751 257.403 19.4043 258.912 24.3091C259.289 25.441 259.289 26.5729 259.415 27.7048C259.541 28.5851 259.163 29.3397 258.157 29.717C257.277 29.9685 256.522 29.717 255.894 28.8366C255.516 28.2078 255.265 27.4532 254.887 26.8244ZM248.473 12.11C246.21 15.3798 245.204 18.9012 243.82 22.4227C244.197 22.5484 244.323 22.5484 244.449 22.5484C247.342 22.2969 250.234 22.1711 253.127 21.9196C252.498 19.2785 250.108 14.248 248.473 12.11Z" fill="#003366"/>
<path d="M108.246 22.7999C109.252 23.303 110.384 23.9318 111.516 24.5606C112.396 25.1895 113.277 25.8183 114.157 26.5729C114.912 27.3275 115.037 28.3336 114.534 29.0882C114.031 29.8428 113.151 30.2201 112.145 29.8428C111.264 29.5912 110.51 29.0882 109.755 28.7109C107.995 27.8305 106.108 26.9502 104.347 26.0698C104.222 25.9441 103.97 25.9441 103.593 25.9441C103.593 26.5729 103.593 27.2017 103.593 27.7048C103.593 28.9624 103.593 30.2201 103.467 31.4777C103.341 32.8611 102.587 33.7415 101.581 33.7415C100.574 33.7415 99.8199 32.9869 99.6941 31.6035C99.5684 30.9746 99.5684 30.2201 99.5684 29.5912C99.1911 24.9379 98.8138 20.2847 98.3107 15.7571C98.1849 14.4995 98.0592 13.3676 98.0592 12.11C97.9334 10.7265 98.5622 9.72043 99.9456 9.21738C101.455 8.71432 102.964 8.21126 104.473 8.84008C106.234 9.4689 107.995 9.97196 109.63 10.9781C112.899 12.8645 113.654 16.1344 111.642 19.4043C110.51 20.5362 109.252 21.6681 108.246 22.7999ZM102.838 19.2785C103.593 19.1528 104.222 19.027 104.976 18.9012C106.36 18.7755 107.24 17.8951 107.869 16.6375C108.498 15.6314 108.372 14.8768 107.366 14.3737C106.108 13.7449 104.725 13.2418 103.341 12.7388C103.09 12.613 102.712 12.7388 102.209 12.7388C102.335 13.4934 102.335 14.248 102.335 14.8768C102.461 16.386 102.712 17.7694 102.838 19.2785Z" fill="#003366"/>
<path d="M219.422 19.6558C219.422 20.5362 219.296 21.0392 219.296 21.6681C219.171 23.5545 219.045 25.441 218.919 27.3275C218.919 27.9563 218.668 28.5851 218.416 29.2139C218.164 29.8428 217.787 30.2201 217.033 30.0943C216.278 29.9685 216.026 29.4655 216.026 28.7109C216.026 28.2078 216.026 27.7048 216.026 27.3275C215.901 22.9257 215.901 18.3982 215.775 13.9964C215.775 12.9903 215.523 12.11 215.523 11.1039C215.523 10.6008 215.649 9.97197 215.901 9.59468C216.404 8.58856 217.787 8.4628 218.542 9.34315C218.793 9.72044 219.045 10.0977 219.171 10.6008C220.177 14.1222 222.063 17.1405 224.327 19.9074C225.207 21.0392 226.213 22.1711 227.345 23.5545C227.471 22.9257 227.597 22.5484 227.597 22.1711C227.723 18.2724 227.723 14.3737 227.848 10.475C227.848 8.96585 228.1 7.45668 228.351 5.94751C228.603 4.5641 229.358 3.68374 230.238 3.80951C231.118 3.80951 231.747 4.68986 231.999 5.94751C232.124 6.95362 232.25 8.0855 232.376 9.09162C232.627 13.9964 232.879 18.9013 232.25 23.8061C232.124 24.9379 231.873 26.0698 231.621 27.2017C231.496 27.8305 231.118 28.3336 230.741 28.8366C229.609 30.2201 227.848 30.3458 226.591 29.0882C226.088 28.5851 225.71 27.9563 225.207 27.3275C223.447 24.938 221.686 22.4227 219.925 20.0331C219.925 20.0331 219.799 19.9074 219.422 19.6558Z" fill="#003366"/>
<path d="M142.329 29.9685C141.071 29.717 139.939 29.717 138.933 29.4655C138.179 29.3397 137.801 28.5851 137.55 27.8305C137.298 26.8244 137.173 25.8183 137.047 24.8122C136.795 21.9196 136.795 19.027 136.418 16.1344C136.292 14.248 135.915 12.4872 135.538 10.7265C134.909 7.95973 136.418 6.45055 139.185 6.95361C139.311 6.95361 139.562 6.95361 139.688 7.07937C145.473 9.09161 149.749 12.613 151.384 18.6497C152.013 21.0392 151.636 23.303 150.001 25.1895C148.617 26.9502 147.108 28.4593 145.096 29.2139C144.215 29.5912 143.209 29.717 142.329 29.9685ZM140.568 11.9842C140.82 16.7632 141.071 21.2908 141.197 25.8183C142.832 25.1895 144.718 23.6803 145.976 22.2969C146.982 21.2908 147.108 20.2846 146.731 18.9012C145.85 15.6314 143.461 13.7449 140.568 11.9842Z" fill="#003366"/>
<path d="M212.38 17.6436C212.254 21.0392 211.374 24.0576 209.487 26.6986C207.852 28.9624 205.714 30.3458 202.822 29.8428C199.929 29.3397 198.042 27.4532 197.162 24.6864C195.904 20.7877 196.911 17.1405 199.174 13.8707C200.432 12.11 201.941 10.7265 203.953 9.8462C205.085 9.34314 206.217 9.21738 207.349 9.4689C207.852 9.59467 208.607 9.8462 208.858 10.2235C210.116 11.8584 211.751 13.3676 212.128 15.5056C212.254 16.386 212.254 17.1405 212.38 17.6436ZM205.211 13.9964C202.444 16.0087 201.187 18.6497 201.438 22.0454C201.438 22.6742 201.69 23.4288 202.067 23.9318C202.947 25.441 204.205 25.5668 205.337 24.3091C206.469 23.0515 206.972 21.5423 207.349 19.9074C207.978 17.5178 207.223 15.6314 205.211 13.9964Z" fill="#003366"/>
<path d="M127.488 23.6803C125.853 23.8061 124.344 23.9318 122.584 24.1834C122.458 25.0637 122.332 26.0698 122.206 27.0759C122.206 27.4532 122.206 27.9563 122.08 28.3336C121.829 29.4655 121.2 30.0943 120.32 29.9685C119.565 29.9685 118.936 29.2139 118.685 28.2078C118.559 27.4532 118.559 26.6986 118.559 25.9441C119.062 22.7999 119.565 19.5301 120.068 16.386C120.446 14.3737 120.823 12.3615 121.2 10.3493C121.326 9.72044 121.577 9.09161 121.829 8.58856C122.584 7.07938 124.47 6.95362 125.35 8.46279C125.35 8.58856 125.476 8.58856 125.476 8.71432C126.105 11.1038 127.74 12.9903 128.998 15.0025C131.136 18.6497 132.393 22.6742 133.399 26.6986C133.399 26.8244 133.399 26.9502 133.525 27.2017C133.651 28.5851 133.148 29.5912 132.267 29.9685C131.136 30.3458 130.004 29.9685 129.123 28.7109C128.746 28.0821 128.494 27.3275 128.117 26.5729C127.991 26.0698 127.866 25.5668 127.74 25.0637C127.74 24.5607 127.614 24.1834 127.488 23.6803ZM126.734 21.2908C125.979 19.1528 125.35 17.2663 123.967 15.6314C123.59 17.5178 122.961 19.4043 122.961 21.4165C124.344 21.4165 125.476 21.4165 126.734 21.2908Z" fill="#003366"/>
<path d="M266.584 22.0453C267.339 22.0453 267.842 22.0453 268.345 22.0453C270.231 22.2969 271.992 22.4226 273.878 22.7999C275.262 23.0515 276.394 23.8061 277.4 24.8122C277.777 25.3152 278.154 25.9441 278.28 26.5729C278.406 27.2017 278.154 27.579 277.525 27.7048C276.016 27.8305 274.507 28.082 273.124 27.9563C270.986 27.8305 268.973 27.8305 266.835 28.082C263.566 28.4593 261.679 27.2017 261.302 23.9318C260.925 21.2908 261.05 18.6497 261.176 16.0087C261.302 13.3676 261.428 10.7265 261.176 8.08549C261.05 6.70208 261.05 5.31867 261.176 3.93526C261.176 3.55796 261.302 3.05491 261.428 2.67761C261.679 1.92303 262.182 1.54573 262.937 1.41997C263.691 1.41997 264.32 1.79726 264.572 2.42608C264.823 2.80338 264.949 3.30644 264.949 3.80949C265.075 5.69596 264.823 7.83396 265.326 9.59466C265.829 11.4811 266.207 13.3676 266.332 15.3798C266.332 17.6436 266.458 19.7816 266.584 22.0453Z" fill="#003366"/>
<path d="M176.788 24.8122C177.417 25.0637 178.423 25.1895 178.674 25.5668C178.926 26.0698 178.674 26.9502 178.297 27.579C177.542 28.9624 176.159 29.5912 174.65 29.5912C169.116 29.8428 165.217 25.5668 166.098 20.0331C166.601 17.0148 167.607 14.1222 169.368 11.4811C170.248 10.0977 171.506 8.84009 173.141 7.95974C174.524 7.20515 176.033 6.95362 177.542 7.58244C178.045 7.83397 178.549 8.21127 178.926 8.58856C179.429 9.09162 179.429 9.8462 179.177 10.475C178.926 11.1038 178.297 11.6069 177.542 11.6069C175.027 11.2296 173.895 12.8646 172.889 14.6253C171.631 16.6375 171.128 18.9012 171.003 21.2908C170.877 22.4227 171.38 23.4288 172.512 23.8061C173.769 24.4349 175.153 25.3152 176.788 24.8122Z" fill="#003366"/>
<path d="M88.6268 13.9964C88.7526 15.7571 88.8784 17.1405 89.0041 18.5239C89.3814 22.6742 89.7587 26.8244 90.136 30.9746C90.136 31.6035 90.0102 32.358 89.8845 32.9869C89.6329 33.8672 89.1299 34.3703 88.2495 34.496C87.2434 34.6218 86.6146 34.1187 86.2373 33.2384C85.9858 32.8611 85.86 32.358 85.86 31.855C85.7343 31.1004 85.6085 30.3458 85.6085 29.717C85.6085 25.5668 85.4827 21.4165 85.4827 17.2663C85.4827 16.0087 85.4827 14.751 85.4827 13.3676C84.2251 13.2418 82.9674 13.1161 81.7098 12.9903C80.9552 12.8645 80.2006 12.7388 79.446 12.4872C78.4399 12.11 78.0626 11.4811 78.1884 10.7265C78.3141 9.84619 78.943 9.59466 79.8233 9.4689C83.4705 9.09161 87.1177 9.34314 90.6391 10.2235C91.8967 10.6008 93.2801 10.7265 94.6635 10.9781C94.9151 10.9781 95.1666 10.9781 95.4181 11.1038C96.2985 11.4811 96.55 11.9842 96.0469 12.8645C95.4181 13.8707 94.2862 14.4995 93.1544 14.4995C92.274 14.6252 91.3937 14.4995 90.5133 14.3737C89.8845 14.3737 89.3814 14.248 88.6268 13.9964Z" fill="#003366"/>
<path d="M154.528 18.5239C154.528 16.5117 154.528 14.4995 154.528 12.4872C154.528 10.7265 155.031 9.84619 156.037 9.84619C157.043 9.84619 157.672 10.475 158.049 12.3615C158.426 14.8768 158.678 17.3921 158.929 19.9074C159.055 21.7938 159.181 23.5545 159.307 25.441C159.307 26.0698 159.181 26.5729 159.055 27.2017C158.804 28.2078 158.175 28.7109 157.169 28.9624C156.288 29.0882 155.282 28.5851 154.905 27.579C154.528 26.6986 154.402 25.6925 154.276 24.6864C154.15 22.6742 154.276 20.6619 154.276 18.6497C154.402 18.5239 154.528 18.5239 154.528 18.5239Z" fill="#003366"/>
<path d="M185.466 18.1466C185.592 16.2602 185.843 13.9964 185.969 11.7327C185.969 11.2296 186.095 10.8523 186.221 10.3492C186.472 9.72042 186.849 9.21736 187.604 9.21736C188.484 9.21736 188.862 9.72042 189.113 10.475C189.239 10.9781 189.365 11.3554 189.365 11.8584C189.742 15.8829 190.119 19.9073 190.497 23.9318C190.497 24.6864 190.497 25.441 190.371 26.1956C190.119 27.4532 189.365 28.2078 188.233 28.2078C187.227 28.2078 186.346 27.7047 185.969 26.5729C185.718 25.441 185.466 24.3091 185.466 23.1772C185.34 21.5423 185.466 20.0331 185.466 18.1466Z" fill="#003366"/>
<path d="M188.358 2.17456C188.358 3.05491 187.729 3.68373 186.849 3.55797C185.843 3.4322 184.837 2.55185 184.837 1.6715C184.837 0.791145 185.592 0.0365583 186.472 0.162323C187.352 0.0365583 188.358 1.16844 188.358 2.17456Z" fill="#003366"/>
<path d="M155.911 5.31867C155.157 5.31867 154.528 4.68985 154.528 3.93526C154.528 3.18067 155.157 2.67761 155.911 2.80338C156.666 2.80338 157.169 3.4322 157.169 4.18679C157.169 4.94138 156.666 5.44443 155.911 5.31867Z" fill="#003366"/>
<path d="M152 166.261C151.304 182.484 147.429 196.376 139.381 208.848C136.996 212.498 134.313 215.844 130.736 218.379C128.749 219.799 126.563 221.117 124.278 221.928C117.521 224.463 111.063 222.435 106.691 216.554C103.511 212.397 102.418 207.53 102.12 202.358C101.424 191.103 103.809 180.355 107.883 170.012C110.069 164.233 112.752 158.757 116.925 154.194C118.018 153.079 119.012 151.862 120.204 150.848C124.775 146.488 130.24 144.359 136.499 145.17C137.394 145.271 138.387 145.271 139.282 145.271C142.759 145.068 145.442 146.589 147.529 149.226C149.218 151.355 150.211 153.89 150.708 156.526C151.304 160.177 151.702 163.827 152 166.261ZM138.387 169.505C138.487 163.827 137.99 160.177 136.996 157.844C136.003 155.512 135.307 155.107 133.121 156.121C131.73 156.831 130.24 157.743 129.147 158.858C127.855 160.075 126.861 161.698 125.967 163.219C122.887 168.593 120.204 174.17 118.415 180.152C116.329 187.047 114.938 194.044 115.434 201.344C115.534 203.169 115.931 205.096 116.627 206.82C117.521 209.253 118.813 209.659 120.999 208.442C122.092 207.834 123.284 207.023 124.178 206.11C125.569 204.69 126.961 203.068 128.054 201.446C134.711 191.306 137.791 179.949 138.387 169.505Z" fill="#003366"/>
<path d="M204.555 166.537C205.832 172.795 206.158 181.29 204.487 189.836C202.734 198.931 198.372 206.847 191.903 213.465C189.174 216.231 186.125 218.543 182.414 219.849C175.794 222.27 169.618 220.775 164.959 215.427C161.188 211.138 159.325 205.973 158.415 200.368C156.644 189.36 157.892 178.586 162.331 168.323C164.049 164.422 166.015 160.674 168.205 156.978C169.503 154.871 171.321 153.169 172.867 151.213C173.425 150.446 174.107 149.754 174.665 148.987C177.991 144.28 183.558 142.322 189.056 144.083C192.266 145.119 194.717 146.97 196.886 149.418C200.729 154.007 202.845 158.901 204.555 166.537ZM187.03 159.593C183.495 160.751 180.952 162.519 179.292 165.772C177.173 169.768 175.078 173.864 173.679 178.218C171.474 185.41 170.99 192.722 172.628 200.058C173.105 202.061 174.13 204.145 175.183 205.906C175.941 207.313 176.838 207.523 178.221 206.665C179.705 205.783 181.164 204.801 182.429 203.442C186.474 199.093 189.404 194.058 190.67 188.254C192.332 180.556 192.072 172.787 189.961 165.245C189.361 163.166 188.608 161.334 187.03 159.593Z" fill="#003366"/>
<path d="M79.6205 169.301C79.2362 169.934 78.8519 170.657 78.4677 171.289C76.2581 175.356 74.1446 179.514 71.9351 183.49C70.7823 185.569 69.4373 187.647 67.9963 189.636C67.1317 190.72 65.9789 191.805 64.8261 192.528C63.0008 193.703 60.9834 193.703 59.1581 192.528C57.4289 191.353 56.6603 189.636 57.1407 187.738C57.525 186.201 58.1014 184.755 58.7738 183.4C63.0969 174.904 67.9963 166.68 73.3761 158.727C76.3542 154.298 79.2362 149.78 82.2143 145.261C82.8868 144.267 83.4632 143.182 84.3278 142.278C87.3059 138.844 92.4935 139.386 94.7992 143.272C95.7598 144.899 96.1441 146.707 95.952 148.605C95.6638 152.22 95.3756 155.925 94.7992 159.54C92.5896 174.904 90.284 190.359 88.0744 205.723C87.5941 208.796 87.402 211.868 86.9216 214.941C86.6334 216.478 86.1531 218.104 85.4806 219.55C84.4239 221.719 82.5986 223.166 79.8126 222.985C77.507 222.894 75.3935 221.177 74.721 218.556C74.3368 216.839 74.0486 215.032 74.2407 213.314C75.0092 206.355 75.8739 199.487 76.8345 192.618C77.8913 185.388 79.0441 178.158 80.1008 170.928C80.1969 170.476 80.1969 169.934 80.1969 169.482C79.9087 169.391 79.7166 169.301 79.6205 169.301Z" fill="#003366"/>
<path d="M222 202.753C222 200.004 222.44 197.88 223.257 195.818C224.137 193.631 225.143 191.444 226.149 189.258C230.424 180.573 234.698 171.888 239.036 163.204C239.916 161.454 240.859 159.767 241.864 158.08C242.304 157.393 242.807 156.706 243.31 156.081C244.065 155.206 244.945 154.581 246.076 154.207C249.094 153.332 251.482 155.331 250.917 158.393C250.791 159.205 250.539 160.017 250.099 160.704C246.328 166.827 243.625 173.45 240.356 179.823C237.59 185.259 234.761 190.632 231.869 196.005C230.046 199.442 227.846 202.566 224.766 205.003C224.452 205.252 224.074 205.565 223.697 205.815C223.006 206.19 222.44 206.002 222.251 205.19C222.126 204.315 222.063 203.253 222 202.753Z" fill="#003366"/>
<path d="M256 192.696C256 196.278 253.711 199.507 250.52 200.623C246.304 202.091 242.51 199.096 243.052 194.751C243.293 193.165 243.835 191.639 244.678 190.288C245.099 189.584 245.581 188.879 246.063 188.233C247.87 185.591 251.363 185.239 253.711 187.47C255.277 188.938 255.94 190.817 256 192.696Z" fill="#003366"/>
<path d="M230 168.525C229.867 171.168 229.005 173.94 227.015 176.326C226.352 177.164 225.423 177.937 224.429 178.389C221.179 180.065 217.464 178.131 217.066 174.585C216.934 173.554 217 172.458 217.265 171.491C217.597 170.008 218.128 168.525 218.592 167.043C218.791 166.398 219.056 165.689 219.189 165.044C219.653 163.046 220.847 161.757 222.903 161.176C224.959 160.661 226.684 161.305 228.077 162.724C229.337 163.948 230 165.947 230 168.525Z" fill="#003366"/>
<path d="M257.06 302H37.008C30.6428 301.993 24.5402 299.459 20.0393 294.955C15.5384 290.45 13.0068 284.343 13 277.972V257.028C13.0068 250.657 15.5384 244.55 20.0393 240.045C24.5402 235.541 30.6428 233.007 37.008 233H257.06V236.058H37.008C31.4532 236.065 26.1278 238.276 22.1999 242.208C18.272 246.139 16.0624 251.468 16.0556 257.028V277.869C16.0624 283.429 18.272 288.759 22.1999 292.69C26.1278 296.621 31.4532 298.832 37.008 298.839H257.06C260.785 298.829 264.441 297.83 267.653 295.942C270.865 294.055 273.519 291.348 275.342 288.097L278 289.601C275.922 293.34 272.887 296.459 269.207 298.638C265.528 300.816 261.336 301.977 257.06 302V302Z" fill="#97BD30"/>
<path d="M309.826 299H309.595C309.262 298.982 308.949 298.833 308.723 298.586L295.907 284.274L286.5 296.285C286.35 296.466 286.154 296.602 285.934 296.678C285.713 296.755 285.476 296.77 285.248 296.72C285.02 296.671 284.809 296.56 284.639 296.399C284.469 296.238 284.346 296.033 284.282 295.807L273.042 249.728C272.982 249.498 272.986 249.255 273.054 249.027C273.122 248.799 273.251 248.594 273.427 248.435L273.542 248.332C273.713 248.176 273.922 248.071 274.148 248.025C274.373 247.98 274.607 247.996 274.824 248.073L319.181 263.898C319.4 263.983 319.59 264.127 319.733 264.314C319.876 264.501 319.965 264.723 319.992 264.958C320.018 265.192 319.981 265.429 319.883 265.643C319.785 265.858 319.631 266.041 319.438 266.173L306.506 274.526L319.207 289.032C319.423 289.284 319.534 289.61 319.517 289.942C319.5 290.274 319.357 290.587 319.117 290.816L310.556 298.573C310.367 298.795 310.11 298.945 309.826 299V299ZM309.749 295.949L316.452 289.82L303.635 275.146C303.516 275.009 303.428 274.849 303.375 274.675C303.322 274.501 303.306 274.318 303.328 274.138C303.352 273.955 303.415 273.78 303.512 273.624C303.61 273.468 303.739 273.334 303.891 273.233L315.9 265.475L276.029 251.254L286.128 292.691L294.856 281.533C295.059 281.274 295.352 281.103 295.676 281.055H295.804C295.987 281.051 296.169 281.088 296.337 281.161C296.505 281.235 296.656 281.344 296.778 281.481L309.697 295.949" fill="#003366"/>
<path d="M275.086 242.992C274.813 243.029 274.537 242.941 274.32 242.748C274.103 242.555 273.961 242.271 273.926 241.959L273.01 234.362C272.991 234.206 272.999 234.048 273.034 233.896C273.068 233.744 273.129 233.601 273.212 233.475C273.295 233.35 273.398 233.245 273.517 233.165C273.636 233.085 273.767 233.033 273.903 233.012C274.04 232.99 274.178 232.999 274.312 233.038C274.445 233.078 274.57 233.147 274.68 233.241C274.79 233.336 274.882 233.455 274.952 233.59C275.022 233.725 275.067 233.875 275.086 234.031L275.991 241.641C276.027 241.957 275.952 242.277 275.783 242.53C275.613 242.783 275.363 242.949 275.086 242.992V242.992Z" fill="#003366"/>
<path d="M269.985 244.991C269.779 245.016 269.57 244.989 269.378 244.915C269.186 244.84 269.016 244.72 268.886 244.565L264.245 238.818C264.054 238.581 263.969 238.28 264.01 237.983C264.05 237.686 264.212 237.417 264.46 237.234C264.708 237.052 265.022 236.971 265.332 237.009C265.642 237.048 265.924 237.203 266.114 237.441L270.756 243.188C270.882 243.344 270.962 243.53 270.99 243.725C271.017 243.921 270.99 244.12 270.912 244.302C270.834 244.485 270.707 244.644 270.545 244.765C270.382 244.886 270.189 244.964 269.985 244.991V244.991Z" fill="#003366"/>
<path d="M266.034 249.989C265.84 250.019 265.643 249.988 265.462 249.9L258.782 246.621C258.634 246.565 258.498 246.473 258.382 246.35C258.265 246.228 258.171 246.078 258.106 245.91C258.04 245.742 258.004 245.56 258 245.374C257.997 245.189 258.025 245.005 258.084 244.833C258.142 244.661 258.23 244.506 258.341 244.377C258.453 244.248 258.585 244.148 258.73 244.084C258.875 244.019 259.03 243.992 259.184 244.002C259.339 244.013 259.49 244.062 259.628 244.146L266.308 247.411C266.582 247.549 266.799 247.811 266.913 248.14C267.028 248.469 267.029 248.839 266.917 249.169C266.844 249.388 266.724 249.579 266.568 249.723C266.413 249.867 266.229 249.959 266.034 249.989V249.989Z" fill="#003366"/>
<path d="M265.925 255.077L258.41 255.979C258.252 256.008 258.089 256.007 257.932 255.977C257.774 255.948 257.625 255.89 257.494 255.807C257.363 255.725 257.253 255.619 257.169 255.497C257.086 255.375 257.032 255.24 257.011 255.098C256.989 254.957 257 254.814 257.044 254.677C257.088 254.54 257.163 254.412 257.265 254.302C257.367 254.191 257.493 254.101 257.636 254.035C257.779 253.97 257.935 253.931 258.096 253.921L265.599 253.019C265.755 252.992 265.917 252.994 266.073 253.024C266.229 253.054 266.376 253.111 266.507 253.193C266.637 253.275 266.746 253.38 266.829 253.501C266.912 253.622 266.966 253.756 266.989 253.896C267.011 254.036 267.001 254.178 266.958 254.315C266.916 254.451 266.843 254.578 266.744 254.689C266.644 254.799 266.521 254.891 266.38 254.958C266.239 255.024 266.084 255.065 265.925 255.077Z" fill="#003366"/>
<path d="M262.26 264.994C262.016 265.02 261.77 264.964 261.558 264.833C261.347 264.702 261.182 264.504 261.088 264.267C260.993 264.031 260.975 263.769 261.034 263.52C261.094 263.272 261.229 263.05 261.42 262.888L267.179 258.245C267.415 258.055 267.715 257.97 268.011 258.009C268.307 258.049 268.576 258.209 268.76 258.454C268.852 258.576 268.92 258.715 268.959 258.864C268.999 259.013 269.01 259.169 268.991 259.322C268.972 259.476 268.925 259.624 268.85 259.757C268.776 259.891 268.677 260.009 268.559 260.102L262.8 264.758C262.644 264.887 262.458 264.968 262.26 264.994V264.994Z" fill="#003366"/>
<path d="M285.286 246.988C285.039 247.025 284.787 246.976 284.57 246.847C284.352 246.718 284.182 246.517 284.086 246.276C283.99 246.035 283.974 245.767 284.04 245.515C284.105 245.263 284.249 245.041 284.449 244.884L290.185 240.244C290.422 240.054 290.722 239.969 291.018 240.01C291.315 240.05 291.584 240.212 291.766 240.46C291.949 240.708 292.029 241.021 291.991 241.331C291.952 241.641 291.797 241.923 291.56 242.113L285.836 246.74C285.679 246.875 285.488 246.961 285.286 246.988V246.988Z" fill="#003366"/>
<path d="M281.265 243.99C281.072 244.017 280.875 243.989 280.694 243.907C280.558 243.846 280.434 243.756 280.33 243.642C280.225 243.527 280.142 243.391 280.086 243.24C280.029 243.09 280 242.928 280 242.765C280 242.602 280.029 242.441 280.086 242.29L282.817 234.869C282.864 234.705 282.94 234.553 283.042 234.424C283.144 234.295 283.269 234.19 283.409 234.117C283.549 234.044 283.701 234.005 283.855 234C284.01 233.996 284.163 234.028 284.306 234.093C284.449 234.158 284.578 234.255 284.686 234.379C284.793 234.503 284.876 234.65 284.93 234.811C284.984 234.972 285.007 235.144 284.998 235.316C284.989 235.488 284.948 235.655 284.878 235.809L282.159 243.23C282.083 243.433 281.96 243.609 281.803 243.743C281.646 243.876 281.461 243.961 281.265 243.99V243.99Z" fill="#003366"/>
<path d="M50.1266 255.049H47V252.662C47.3492 252.348 47.7281 252.069 48.1312 251.832C48.5724 251.62 49.0267 251.438 49.4911 251.287C50.0993 251.092 50.7347 251 51.3721 251.014C52.1314 250.948 52.8929 251.115 53.5582 251.494C53.9457 251.74 54.2308 252.124 54.3589 252.571L62.1499 282.759C62.1499 282.927 62.2134 282.979 62.3278 282.953C62.3492 282.951 62.3697 282.943 62.3878 282.932C62.4059 282.92 62.4211 282.904 62.4322 282.885C62.4432 282.866 62.4499 282.845 62.4516 282.823C62.4534 282.801 62.4501 282.779 62.4422 282.759L70.3349 252.571C70.5509 251.689 70.856 251.274 71.2118 251.209C71.8323 251.23 72.442 251.38 73.0039 251.65C73.4741 251.832 73.8554 251.974 74.135 252.052C74.3672 252.11 74.587 252.211 74.7832 252.35C74.8549 252.412 74.9117 252.49 74.9492 252.578C74.9867 252.665 75.0038 252.761 74.9993 252.856C74.9788 253.205 74.9147 253.549 74.8086 253.881L66.5347 284.393C66.4563 284.753 66.3457 285.105 66.2042 285.444C66.0161 285.913 65.7589 286.351 65.4417 286.741C65.0529 287.18 64.5639 287.515 64.0182 287.714C63.4665 287.909 62.8861 288.006 62.3024 288H61.5906C61.5148 287.989 61.4378 287.989 61.3619 288C60.9252 287.932 60.4984 287.81 60.0909 287.636C59.6756 287.438 59.3104 287.145 59.0233 286.78C58.7152 286.383 58.4588 285.947 58.2607 285.483C58.125 285.142 58.0145 284.79 57.9303 284.432L50.1266 255.049Z" fill="#003366"/>
<path d="M89.0846 286.998H81.7335C81.3949 287.008 81.0565 286.973 80.7265 286.895C80.6242 286.879 80.5263 286.841 80.4395 286.783C80.3527 286.725 80.2789 286.649 80.223 286.56C80.1197 286.361 80.0636 286.14 80.0593 285.915C80.0593 285.644 80.0593 285.283 80.0593 284.832C80.022 284.323 80.0951 283.812 80.2733 283.335C80.4118 283.077 80.9153 282.948 81.7587 282.948H86.1895V255.05H81.6831C81.3458 255.058 81.0085 255.032 80.6761 254.973C80.5762 254.965 80.4795 254.933 80.3941 254.879C80.3087 254.825 80.2371 254.751 80.1852 254.663C80.0771 254.466 80.0167 254.244 80.009 254.018C80.009 253.734 80.009 253.373 80.009 252.922C79.9738 252.406 80.0423 251.888 80.2104 251.4C80.3614 251.129 80.8524 251 81.6957 251H95.3029C96.1463 251 96.6372 251.129 96.7756 251.4C96.9559 251.885 97.029 252.405 96.9896 252.922C96.9896 253.373 96.9896 253.734 96.9896 254.018C96.9911 254.244 96.9347 254.466 96.826 254.663C96.7741 254.751 96.7025 254.825 96.6172 254.879C96.5318 254.933 96.4351 254.965 96.3351 254.973C96.0027 255.032 95.6654 255.058 95.3281 255.05H90.6833V282.948H95.2525C96.0959 282.948 96.5994 283.077 96.7379 283.335C96.9161 283.812 96.9892 284.323 96.9519 284.832C96.9519 285.283 96.9519 285.644 96.9519 285.915C96.9417 286.139 96.886 286.359 96.7882 286.56C96.7323 286.649 96.6585 286.725 96.5717 286.783C96.4849 286.841 96.3871 286.879 96.2847 286.895C95.9547 286.973 95.6163 287.008 95.2777 286.998H89.0846Z" fill="#003366"/>
<path d="M122.283 272.1C122.759 273.274 123.273 274.524 123.801 275.851C124.328 277.178 124.83 278.402 125.318 279.576C125.807 280.75 126.232 281.745 126.605 282.6C126.846 283.17 127.116 283.728 127.415 284.271H130V286.376C130 286.376 129.563 286.49 128.804 286.733C127.831 286.987 126.82 287.061 125.82 286.95C125.204 286.886 124.602 286.731 124.032 286.49C123.579 286.347 123.188 286.055 122.926 285.661C122.797 285.432 122.527 284.883 122.129 283.99C121.73 283.097 121.267 282.025 120.74 280.763C120.212 279.5 119.646 278.211 119.055 276.731C118.463 275.251 117.91 273.925 117.395 272.623H116.675C115.26 272.623 114.103 272.623 113.228 272.509C112.354 272.394 111.723 272.356 111.376 272.292C110.538 272.104 109.782 271.657 109.215 271.016V284.96C109.224 285.306 109.198 285.652 109.138 285.993C109.124 286.092 109.089 286.188 109.036 286.273C108.982 286.359 108.912 286.433 108.83 286.49C108.609 286.598 108.368 286.654 108.122 286.656H106.836H105.704C105.459 286.66 105.218 286.593 105.01 286.465C104.846 286.34 104.729 286.165 104.675 285.967C104.597 285.637 104.563 285.299 104.572 284.96V254.342C102.977 254.151 102.103 253.794 102 253.296V251H117.768C121.357 251 124.019 251.791 125.73 253.386C127.441 254.98 128.302 257.379 128.302 260.593V263.362C128.302 268.107 126.296 271.02 122.283 272.1ZM117.421 268.273C119.064 268.391 120.688 267.87 121.949 266.819C122.483 266.268 122.896 265.612 123.159 264.894C123.423 264.175 123.532 263.41 123.479 262.647V260.976C123.529 260.212 123.421 259.446 123.162 258.724C122.904 258.002 122.499 257.341 121.974 256.779C120.714 255.708 119.076 255.176 117.421 255.299H109.254V267.661C110.18 267.852 111.08 268.005 111.968 268.133C112.901 268.264 113.842 268.328 114.785 268.324L117.421 268.273Z" fill="#003366"/>
<path d="M133.734 255.056C133.382 255.064 133.03 255.038 132.683 254.978C132.58 254.97 132.481 254.937 132.393 254.883C132.305 254.829 132.231 254.756 132.177 254.668C132.07 254.469 132.012 254.248 132.008 254.023C132.008 253.738 132.008 253.377 132.008 252.925C131.974 252.407 132.049 251.888 132.228 251.4C132.371 251.129 132.877 251 133.76 251H156.24C157.123 251 157.629 251.129 157.772 251.4C157.951 251.888 158.026 252.407 157.992 252.925C157.992 253.377 157.992 253.738 157.992 254.023C157.988 254.248 157.93 254.469 157.823 254.668C157.768 254.754 157.693 254.827 157.606 254.881C157.518 254.934 157.42 254.968 157.317 254.978C156.97 255.038 156.618 255.064 156.266 255.056H147.18V285.282C147.213 285.63 147.213 285.98 147.18 286.328C147.166 286.429 147.13 286.525 147.077 286.612C147.023 286.699 146.953 286.773 146.869 286.832C146.647 286.941 146.403 286.998 146.155 287H144.857H143.715C143.468 287.003 143.224 286.936 143.014 286.806C142.845 286.683 142.726 286.505 142.677 286.302C142.598 285.968 142.563 285.625 142.573 285.282V255.056H133.734Z" fill="#003366"/>
<path d="M186.684 277.758C186.583 279.097 186.196 280.402 185.55 281.588C184.903 282.774 184.01 283.816 182.928 284.648C180.475 286.351 177.492 287.172 174.487 286.97C171.485 287.067 168.525 286.251 166.02 284.635C164.935 283.808 164.04 282.768 163.391 281.584C162.742 280.4 162.354 279.096 162.251 277.758C162.083 276.539 161.999 275.312 162.002 274.083V252.685C161.991 252.359 162.022 252.033 162.094 251.715C162.141 251.504 162.261 251.314 162.434 251.179C162.655 251.061 162.902 250.999 163.154 251C163.455 251 163.847 251 164.306 251C164.764 251 165.287 251 165.614 251C165.86 250.996 166.104 251.053 166.321 251.166C166.41 251.219 166.485 251.291 166.54 251.378C166.594 251.465 166.627 251.563 166.635 251.664C166.696 252.001 166.722 252.343 166.714 252.685V273.1C166.714 274.057 166.714 274.976 166.831 275.869C166.913 276.726 167.044 277.578 167.224 278.421C167.381 279.147 167.673 279.84 168.088 280.463C168.975 281.373 170.117 282.007 171.373 282.287C172.75 282.667 174.189 282.788 175.613 282.644C177.005 282.52 178.348 282.083 179.539 281.369C180.663 280.73 181.502 279.707 181.895 278.498C182.081 277.74 182.186 276.966 182.209 276.188C182.261 275.244 182.287 273.93 182.287 272.245V252.685C182.276 252.359 182.307 252.033 182.379 251.715C182.426 251.501 182.552 251.31 182.732 251.179C182.947 251.059 183.191 250.997 183.439 251C183.753 251 184.132 251 184.59 251C185.048 251 185.572 251 185.899 251C186.146 250.994 186.389 251.051 186.606 251.166C186.695 251.219 186.77 251.291 186.825 251.378C186.879 251.465 186.912 251.563 186.92 251.664C186.981 252.001 187.007 252.343 186.998 252.685V272.309C186.997 274.129 186.892 275.948 186.684 277.758V277.758Z" fill="#003366"/>
<path d="M194.683 285.501C194.387 286.332 194.053 286.78 193.667 286.78C193.061 286.791 192.458 286.683 191.893 286.46L190.736 286.089C190.511 286.022 190.304 285.904 190.132 285.744C190.075 285.666 190.034 285.576 190.014 285.481C189.994 285.386 189.995 285.288 190.017 285.194C190.078 284.844 190.173 284.502 190.299 284.17L200.789 252.868C200.892 252.549 201.021 252.203 201.175 251.845C201.266 251.558 201.452 251.311 201.702 251.141C201.914 251.07 202.134 251.023 202.357 251.001C202.627 251.001 202.923 251.001 203.244 251.001H206.831C207.154 250.992 207.476 251.058 207.769 251.193C208.016 251.365 208.201 251.612 208.297 251.896C208.451 252.254 208.579 252.6 208.682 252.92L219.352 284.273H222V286.383L220.804 286.742C219.831 286.992 218.82 287.061 217.822 286.946C217.251 286.898 216.693 286.746 216.177 286.499C215.776 286.327 215.443 286.031 215.225 285.654C215.058 285.347 214.84 284.836 214.544 284.132C214.248 283.428 213.927 282.584 213.567 281.574C213.207 280.563 212.796 279.514 212.359 278.299C211.922 277.084 211.485 275.83 211.073 274.461H198.475L194.683 285.501ZM204.684 254.25C204.556 254.698 204.363 255.324 204.08 256.156L203.167 258.932C202.833 259.955 202.486 261.03 202.113 262.143C201.74 263.255 201.393 264.33 201.059 265.353C200.725 266.377 200.416 267.311 200.159 268.155C199.902 268.999 199.735 269.639 199.632 270.086H209.646C209.286 268.935 208.965 267.873 208.682 266.901C208.386 265.929 208.065 264.867 207.692 263.716C207.32 262.565 206.908 261.247 206.407 259.75C205.905 258.254 205.456 256.412 204.684 254.25Z" fill="#003366"/>
<path d="M228.235 286.92C227.936 286.9 227.65 286.782 227.422 286.585C227.22 286.375 227.094 286.102 227.066 285.81C227.021 285.381 227 284.951 227.002 284.519V252.704C226.991 252.374 227.021 252.045 227.091 251.723C227.137 251.509 227.254 251.318 227.422 251.181C227.636 251.061 227.876 250.999 228.121 251C228.413 251 228.795 251 229.24 251C229.685 251 230.193 251 230.511 251C230.75 250.997 230.986 251.055 231.198 251.168C231.281 251.222 231.35 251.297 231.399 251.384C231.447 251.472 231.474 251.571 231.477 251.671C231.502 252.015 231.502 252.36 231.477 252.704V282.648H246.275C247.127 282.648 247.636 282.79 247.776 283.061C247.953 283.547 248.026 284.066 247.992 284.584C247.992 285.036 247.992 285.41 247.992 285.72C247.98 285.977 247.924 286.23 247.826 286.468C247.715 286.667 247.533 286.815 247.318 286.881C246.987 286.972 246.644 287.011 246.301 286.998H229.647C229.175 287.004 228.703 286.978 228.235 286.92V286.92Z" fill="#003366"/>
<path d="M62.5264 117.11C62.1664 117.43 61.7364 117.73 61.2364 118.01C60.7564 118.29 60.2264 118.53 59.6464 118.73C59.0664 118.93 58.4564 119.08 57.8164 119.18C57.1964 119.3 56.5664 119.36 55.9264 119.36C54.7264 119.36 53.6664 119.18 52.7464 118.82C51.8264 118.44 51.0564 117.91 50.4364 117.23C49.8164 116.53 49.3464 115.7 49.0264 114.74C48.7064 113.78 48.5464 112.7 48.5464 111.5C48.5464 110.24 48.7164 109.12 49.0564 108.14C49.4164 107.16 49.9264 106.34 50.5864 105.68C51.2464 105.02 52.0464 104.52 52.9864 104.18C53.9264 103.82 54.9764 103.64 56.1364 103.64C56.9764 103.64 57.8064 103.75 58.6264 103.97C59.4464 104.19 60.1664 104.61 60.7864 105.23C61.4264 105.83 61.9164 106.67 62.2564 107.75C62.5964 108.81 62.7164 110.19 62.6164 111.89H51.0064C51.0064 113.69 51.4864 115.04 52.4464 115.94C53.4264 116.82 54.7264 117.26 56.3464 117.26C56.8864 117.26 57.4164 117.2 57.9364 117.08C58.4764 116.94 58.9864 116.78 59.4664 116.6C59.9464 116.42 60.3664 116.22 60.7264 116C61.1064 115.78 61.3964 115.58 61.5964 115.4L62.5264 117.11ZM56.1964 105.62C55.5364 105.62 54.9064 105.69 54.3064 105.83C53.7264 105.97 53.2064 106.21 52.7464 106.55C52.3064 106.87 51.9364 107.3 51.6364 107.84C51.3564 108.36 51.1764 109.01 51.0964 109.79H60.4264C60.3264 108.47 59.8964 107.45 59.1364 106.73C58.3964 105.99 57.4164 105.62 56.1964 105.62Z" fill="#003366"/>
<path d="M78.5047 119V109.01C78.5047 108.59 78.4847 108.19 78.4447 107.81C78.4247 107.41 78.3547 107.06 78.2347 106.76C78.1347 106.44 77.9747 106.19 77.7547 106.01C77.5547 105.83 77.2847 105.74 76.9447 105.74C76.2647 105.74 75.6847 106.02 75.2047 106.58C74.7447 107.14 74.3947 107.84 74.1547 108.68V119H71.8747V104H73.4347L73.8847 105.83H74.0047C74.2047 105.53 74.3947 105.25 74.5747 104.99C74.7747 104.71 74.9947 104.47 75.2347 104.27C75.4947 104.07 75.7947 103.92 76.1347 103.82C76.4747 103.7 76.9047 103.64 77.4247 103.64C77.7247 103.64 78.0347 103.69 78.3547 103.79C78.6747 103.87 78.9647 104.01 79.2247 104.21C79.5047 104.39 79.7447 104.64 79.9447 104.96C80.1447 105.28 80.2747 105.67 80.3347 106.13C80.7947 105.35 81.3047 104.74 81.8647 104.3C82.4447 103.86 83.2347 103.64 84.2347 103.64C84.8947 103.64 85.4247 103.75 85.8247 103.97C86.2447 104.19 86.5647 104.51 86.7847 104.93C87.0247 105.33 87.1847 105.82 87.2647 106.4C87.3647 106.96 87.4147 107.59 87.4147 108.29V119H85.1347V108.8C85.1347 108.38 85.1147 107.99 85.0747 107.63C85.0347 107.25 84.9547 106.92 84.8347 106.64C84.7347 106.36 84.5847 106.14 84.3847 105.98C84.2047 105.82 83.9547 105.74 83.6347 105.74C82.9347 105.74 82.3447 106.02 81.8647 106.58C81.3847 107.14 81.0247 107.94 80.7847 108.98V119H78.5047Z" fill="#003366"/>
<path d="M121.261 119V116.99H124.831V106.01H121.261V104H124.831V103.16C124.831 101.28 125.321 99.92 126.301 99.08C127.281 98.24 128.681 97.82 130.501 97.82C131.161 97.82 131.751 97.86 132.271 97.94C132.791 98.02 133.351 98.18 133.951 98.42L133.411 100.37C132.891 100.15 132.391 100.01 131.911 99.95C131.431 99.87 130.991 99.83 130.591 99.83C129.271 99.83 128.371 100.16 127.891 100.82C127.411 101.46 127.171 102.52 127.171 104H133.381V106.01H127.171V116.99H133.381V119H121.261Z" fill="#003366"/>
<path d="M144.32 111.5C144.32 109.08 144.95 107.17 146.21 105.77C147.47 104.35 149.27 103.64 151.61 103.64C152.87 103.64 153.95 103.85 154.85 104.27C155.77 104.67 156.53 105.22 157.13 105.92C157.73 106.62 158.17 107.45 158.45 108.41C158.75 109.37 158.9 110.4 158.9 111.5C158.9 112.7 158.74 113.79 158.42 114.77C158.1 115.73 157.63 116.55 157.01 117.23C156.39 117.91 155.62 118.44 154.7 118.82C153.8 119.18 152.77 119.36 151.61 119.36C150.37 119.36 149.29 119.16 148.37 118.76C147.45 118.34 146.69 117.78 146.09 117.08C145.49 116.38 145.04 115.55 144.74 114.59C144.46 113.63 144.32 112.6 144.32 111.5ZM146.81 111.5C146.81 112.2 146.89 112.9 147.05 113.6C147.23 114.3 147.51 114.93 147.89 115.49C148.27 116.05 148.76 116.5 149.36 116.84C149.98 117.18 150.73 117.35 151.61 117.35C153.21 117.35 154.41 116.86 155.21 115.88C156.03 114.88 156.44 113.42 156.44 111.5C156.44 110.78 156.35 110.08 156.17 109.4C156.01 108.7 155.73 108.07 155.33 107.51C154.95 106.95 154.45 106.5 153.83 106.16C153.23 105.82 152.49 105.65 151.61 105.65C150.01 105.65 148.81 106.14 148.01 107.12C147.21 108.1 146.81 109.56 146.81 111.5Z" fill="#003366"/>
<path d="M168.578 119V116.99H172.628V106.01H168.578V104H174.188L174.668 105.95H174.818C175.498 105.33 176.258 104.8 177.098 104.36C177.938 103.92 178.938 103.7 180.098 103.7C180.778 103.7 181.318 103.83 181.718 104.09C182.138 104.35 182.458 104.73 182.678 105.23C182.918 105.73 183.078 106.34 183.158 107.06C183.238 107.76 183.278 108.56 183.278 109.46L181.178 109.49C181.178 108.21 181.048 107.27 180.788 106.67C180.548 106.07 180.098 105.77 179.438 105.77C178.818 105.77 178.258 105.86 177.758 106.04C177.258 106.22 176.818 106.44 176.438 106.7C176.078 106.96 175.768 107.22 175.508 107.48C175.248 107.74 175.058 107.96 174.938 108.14V116.99H180.698V119H168.578Z" fill="#003366"/>
<path d="M198.446 119V109.01C198.446 108.59 198.426 108.19 198.386 107.81C198.366 107.41 198.296 107.06 198.176 106.76C198.076 106.44 197.916 106.19 197.696 106.01C197.496 105.83 197.226 105.74 196.886 105.74C196.206 105.74 195.626 106.02 195.146 106.58C194.686 107.14 194.336 107.84 194.096 108.68V119H191.816V104H193.376L193.826 105.83H193.946C194.146 105.53 194.336 105.25 194.516 104.99C194.716 104.71 194.936 104.47 195.176 104.27C195.436 104.07 195.736 103.92 196.076 103.82C196.416 103.7 196.846 103.64 197.366 103.64C197.666 103.64 197.976 103.69 198.296 103.79C198.616 103.87 198.906 104.01 199.166 104.21C199.446 104.39 199.686 104.64 199.886 104.96C200.086 105.28 200.216 105.67 200.276 106.13C200.736 105.35 201.246 104.74 201.806 104.3C202.386 103.86 203.176 103.64 204.176 103.64C204.836 103.64 205.366 103.75 205.766 103.97C206.186 104.19 206.506 104.51 206.726 104.93C206.966 105.33 207.126 105.82 207.206 106.4C207.306 106.96 207.356 107.59 207.356 108.29V119H205.076V108.8C205.076 108.38 205.056 107.99 205.016 107.63C204.976 107.25 204.896 106.92 204.776 106.64C204.676 106.36 204.526 106.14 204.326 105.98C204.146 105.82 203.896 105.74 203.576 105.74C202.876 105.74 202.286 106.02 201.806 106.58C201.326 107.14 200.966 107.94 200.726 108.98V119H198.446Z" fill="#003366"/>
<path d="M217.814 105.17C218.674 104.67 219.644 104.31 220.724 104.09C221.804 103.87 222.864 103.76 223.904 103.76C224.924 103.76 225.754 103.92 226.394 104.24C227.054 104.56 227.564 104.98 227.924 105.5C228.304 106 228.554 106.58 228.674 107.24C228.814 107.88 228.884 108.53 228.884 109.19C228.884 109.95 228.864 110.76 228.824 111.62C228.784 112.48 228.754 113.34 228.734 114.2C228.734 115.2 228.794 116.15 228.914 117.05H230.924V119H226.934L226.664 116.75H226.514C226.394 116.93 226.214 117.16 225.974 117.44C225.734 117.72 225.414 118 225.014 118.28C224.634 118.54 224.164 118.77 223.604 118.97C223.044 119.17 222.384 119.27 221.624 119.27C220.144 119.27 218.974 118.89 218.114 118.13C217.254 117.37 216.824 116.33 216.824 115.01C216.824 113.99 217.044 113.14 217.484 112.46C217.944 111.78 218.594 111.26 219.434 110.9C220.274 110.54 221.284 110.33 222.464 110.27C223.664 110.21 225.004 110.29 226.484 110.51C226.584 109.59 226.594 108.83 226.514 108.23C226.454 107.61 226.294 107.12 226.034 106.76C225.794 106.4 225.444 106.15 224.984 106.01C224.544 105.85 223.994 105.77 223.334 105.77C222.434 105.77 221.574 105.9 220.754 106.16C219.934 106.4 219.204 106.65 218.564 106.91L217.814 105.17ZM222.224 117.26C222.784 117.26 223.304 117.17 223.784 116.99C224.264 116.81 224.684 116.58 225.044 116.3C225.404 116.02 225.704 115.72 225.944 115.4C226.184 115.06 226.364 114.74 226.484 114.44V112.34C225.444 112.16 224.484 112.07 223.604 112.07C222.724 112.07 221.964 112.17 221.324 112.37C220.684 112.55 220.184 112.84 219.824 113.24C219.464 113.64 219.284 114.16 219.284 114.8C219.284 115.46 219.504 116.04 219.944 116.54C220.404 117.02 221.164 117.26 222.224 117.26Z" fill="#003366"/>
<path d="M239.493 104H243.063V101.03L245.403 100.37V104H253.413V106.01H245.403V113.09C245.403 114.55 245.753 115.63 246.453 116.33C247.173 117.03 248.193 117.38 249.513 117.38C250.413 117.38 251.193 117.21 251.853 116.87C252.533 116.53 253.143 116.16 253.683 115.76L254.463 117.53C253.763 118.09 252.923 118.54 251.943 118.88C250.983 119.22 249.993 119.39 248.973 119.39C248.173 119.39 247.413 119.27 246.693 119.03C245.993 118.81 245.373 118.46 244.833 117.98C244.293 117.5 243.863 116.89 243.543 116.15C243.223 115.39 243.063 114.49 243.063 113.45V106.01H239.493V104Z" fill="#003366"/>
<path d="M264.261 111.5C264.261 109.08 264.891 107.17 266.151 105.77C267.411 104.35 269.211 103.64 271.551 103.64C272.811 103.64 273.891 103.85 274.791 104.27C275.711 104.67 276.471 105.22 277.071 105.92C277.671 106.62 278.111 107.45 278.391 108.41C278.691 109.37 278.841 110.4 278.841 111.5C278.841 112.7 278.681 113.79 278.361 114.77C278.041 115.73 277.571 116.55 276.951 117.23C276.331 117.91 275.561 118.44 274.641 118.82C273.741 119.18 272.711 119.36 271.551 119.36C270.311 119.36 269.231 119.16 268.311 118.76C267.391 118.34 266.631 117.78 266.031 117.08C265.431 116.38 264.981 115.55 264.681 114.59C264.401 113.63 264.261 112.6 264.261 111.5ZM266.751 111.5C266.751 112.2 266.831 112.9 266.991 113.6C267.171 114.3 267.451 114.93 267.831 115.49C268.211 116.05 268.701 116.5 269.301 116.84C269.921 117.18 270.671 117.35 271.551 117.35C273.151 117.35 274.351 116.86 275.151 115.88C275.971 114.88 276.381 113.42 276.381 111.5C276.381 110.78 276.291 110.08 276.111 109.4C275.951 108.7 275.671 108.07 275.271 107.51C274.891 106.95 274.391 106.5 273.771 106.16C273.171 105.82 272.431 105.65 271.551 105.65C269.951 105.65 268.751 106.14 267.951 107.12C267.151 108.1 266.751 109.56 266.751 111.5Z" fill="#003366"/>
</svg>
